<svg width="166" height="194" viewBox="0 0 166 194" fill="none" xmlns="http://www.w3.org/2000/svg">
<mask id="mask0_47_9" style="mask-type:alpha" maskUnits="userSpaceOnUse" x="0" y="0" width="166" height="194">
<path d="M67.0215 0C95.222 0 118.759 9.23939 137.665 27.7182C156.538 46.197 165.991 69.1383 165.991 96.5108C165.991 123.915 156.538 146.825 137.665 165.303C118.759 183.782 95.222 193.022 67.0215 193.022H0.537598V0H67.0215Z" fill="#FE5721"/>
</mask>
<g mask="url(#mask0_47_9)">
<g filter="url(#filter0_f_47_9)">
<path d="M167.661 151.979C151.623 151.979 138.358 146.699 127.834 136.077C117.31 125.486 112.048 112.287 112.048 96.511C112.048 80.7349 117.31 67.5358 127.834 56.945C138.358 46.3543 151.623 41.0432 167.661 41.0432C180.643 41.0432 191.828 44.7201 201.281 52.0425C210.734 59.3649 216.941 68.95 219.903 80.7663H192.017C189.875 76.0838 186.692 72.4069 182.439 69.767C178.185 67.1272 173.27 65.8073 167.661 65.8073C158.87 65.8073 151.812 68.6671 146.455 74.3553C141.099 80.0749 138.421 87.4602 138.421 96.511C138.421 105.593 141.099 112.978 146.455 118.667C151.812 124.386 158.902 127.215 167.661 127.215C173.27 127.215 178.216 125.895 182.439 123.255C186.661 120.615 189.875 116.938 192.017 112.256H219.903C216.941 124.072 210.734 133.657 201.281 140.98C191.828 148.302 180.643 151.979 167.661 151.979Z" fill="black" fill-opacity="0.65"/>
</g>
</g>
<defs>
<filter id="filter0_f_47_9" x="101.89" y="30.8858" width="128.17" height="131.25" filterUnits="userSpaceOnUse" color-interpolation-filters="sRGB">
<feFlood flood-opacity="0" result="BackgroundImageFix"/>
<feBlend mode="normal" in="SourceGraphic" in2="BackgroundImageFix" result="shape"/>
<feGaussianBlur stdDeviation="5.07869" result="effect1_foregroundBlur_47_9"/>
</filter>
</defs>
</svg>
