<svg width="108" height="111" viewBox="0 0 108 111" fill="none" xmlns="http://www.w3.org/2000/svg">
<path d="M55.661 110.979C39.623 110.979 26.3577 105.699 15.8337 95.077C5.30973 84.4862 0.0477295 71.2871 0.0477295 55.511C0.0477295 39.7349 5.30973 26.5358 15.8337 15.945C26.3577 5.3543 39.623 0.0432129 55.661 0.0432129C68.6427 0.0432129 79.8284 3.72011 89.281 11.0425C98.7337 18.3649 104.941 27.95 107.903 39.7663H80.0174C77.8748 35.0838 74.6924 31.4069 70.4387 28.767C66.185 26.1272 61.2696 24.8073 55.661 24.8073C46.87 24.8073 39.812 27.6671 34.4555 33.3553C29.099 39.0749 26.4207 46.4602 26.4207 55.511C26.4207 64.5933 29.099 71.9785 34.4555 77.6667C39.812 83.3863 46.9015 86.2147 55.661 86.2147C61.2696 86.2147 66.2165 84.8948 70.4387 82.255C74.6609 79.6151 77.8748 75.9382 80.0174 71.2557H107.903C104.941 83.0721 98.7337 92.6571 89.281 99.9795C79.8284 107.302 68.6427 110.979 55.661 110.979Z" fill="black"/>
</svg>
