<svg width="113" height="111" viewBox="0 0 113 111" fill="none" xmlns="http://www.w3.org/2000/svg">
<path d="M16.4764 16.0079C27.2524 5.35429 40.5492 0.0432129 56.3982 0.0432129C72.2472 0.0432129 85.5439 5.35429 96.32 16.0079C107.096 26.6615 112.484 39.8292 112.484 55.511C112.484 71.1928 107.096 84.3605 96.32 95.0141C85.5439 105.668 72.2472 110.979 56.3982 110.979C40.5492 110.979 27.2524 105.668 16.4764 95.0141C5.7003 84.3605 0.312256 71.1928 0.312256 55.511C0.312256 39.8292 5.7003 26.6615 16.4764 16.0079ZM77.6667 33.4182C72.0581 27.6671 64.9371 24.7759 56.3666 24.7759C47.7962 24.7759 40.6752 27.6671 35.0666 33.4182C29.458 39.1692 26.6537 46.523 26.6537 55.511C26.6537 64.4676 29.458 71.8214 35.0666 77.6038C40.6752 83.3549 47.7962 86.2461 56.3666 86.2461C64.9371 86.2461 72.0581 83.3549 77.6667 77.6038C83.2753 71.8528 86.0796 64.499 86.0796 55.511C86.0796 46.523 83.2753 39.1692 77.6667 33.4182Z" fill="black"/>
</svg>
