<svg width="500" height="456" viewBox="0 0 500 456" fill="none" xmlns="http://www.w3.org/2000/svg">
<circle cx="228" cy="228" r="228" transform="matrix(-1 0 0 1 456 0)" fill="url(#paint0_linear_19_252)"/>
<path d="M377.262 349.194L377.852 348.895L404.912 330.013L395.474 317.445C396.873 310.128 397.369 302.013 396.653 293.006C392.304 238.47 348.496 175.183 298.801 151.655C290.599 147.769 282.792 145.336 275.419 144.02L266.257 130.784L239.517 149.073C223.346 158.76 214.428 179.3 216.7 207.812C221.049 262.348 264.857 325.635 314.552 349.163C340.532 361.457 362.377 360.746 377.262 349.194Z" fill="#FE5721"/>
<path d="M398.806 316.669C400.117 309.115 400.45 301.081 399.785 292.766C395.361 237.32 350.667 172.767 300.156 148.852C292.551 145.247 284.857 142.677 277.276 141.199L267.073 126.453L237.905 146.407C220.17 157.03 211.303 179.51 213.581 208.06C218.005 263.506 262.699 328.065 313.209 351.98C326.225 358.143 338.549 361.224 349.651 361.224C360.858 361.224 370.818 358.08 378.994 351.812L409.361 330.722L398.806 316.669ZM241.3 151.64L265.454 135.123L273.58 146.862L274.867 147.093C282.322 148.422 289.921 150.904 297.458 154.478C346.168 177.539 389.267 239.797 393.528 293.259C393.629 294.525 393.66 295.76 393.71 297.014L308.66 261.591L255.093 293.665C247.249 283.067 240.352 271.714 234.804 260.019L262.065 244.456L252.313 220.803L225.492 236.079C222.567 226.479 220.578 216.892 219.831 207.573C217.748 181.456 225.517 161.109 241.3 151.64Z" fill="black"/>
<path d="M404.654 330.661C436.717 308.729 431.73 246.203 393.516 191.006C355.301 135.808 298.329 108.84 266.266 130.771C234.203 152.703 239.19 215.228 277.405 270.426C315.619 325.624 372.591 352.592 404.654 330.661Z" fill="#FE5721"/>
<path d="M378.336 341.454C367.179 341.454 354.866 338.404 341.971 332.291C291.454 308.376 246.76 243.816 242.342 188.376C240.146 160.844 248.009 139.474 264.482 128.208C280.949 116.937 303.835 117.28 328.924 129.163C379.441 153.078 424.134 217.637 428.558 273.077C430.755 300.61 422.892 321.98 406.425 333.245C398.405 338.728 388.885 341.454 378.336 341.454ZM292.577 126.244C283.283 126.244 274.962 128.608 268.034 133.354C253.487 143.303 246.584 162.665 248.593 187.89C252.854 241.346 295.953 303.604 344.663 326.664C367.637 337.537 388.302 338.054 402.848 328.105C417.395 318.156 424.297 298.795 422.283 273.57C418.022 220.113 374.923 157.856 326.213 134.795C314.189 129.1 302.793 126.244 292.577 126.244Z" fill="black"/>
<path d="M388.859 310.672C411.718 295.036 408.161 250.459 380.916 211.105C353.67 171.752 313.053 152.524 290.195 168.159C267.337 183.794 270.893 228.372 298.139 267.725C325.384 307.079 366.001 326.307 388.859 310.672Z" fill="#FE5721"/>
<path d="M370.769 307.842C362.68 307.842 353.775 305.634 344.456 301.217C308.184 284.045 276.086 237.681 272.917 197.873C271.329 177.912 277.071 162.393 289.088 154.172C301.106 145.951 317.742 146.163 335.928 154.783C372.2 171.955 404.298 218.313 407.474 258.122C409.061 278.082 403.326 293.601 391.308 301.822C385.434 305.839 378.475 307.842 370.769 307.842ZM309.628 154.409C303.183 154.409 297.422 156.043 292.634 159.312C282.543 166.217 277.755 179.734 279.167 197.386C282.179 235.211 312.677 279.267 347.148 295.591C363.232 303.207 377.647 303.594 387.744 296.689C397.835 289.79 402.617 276.267 401.211 258.614C398.199 220.79 367.694 176.733 333.229 160.416C324.77 156.411 316.775 154.409 309.628 154.409Z" fill="black"/>
<path d="M372.454 268.09C385.876 258.909 383.788 232.735 367.791 209.629C351.794 186.522 327.945 175.233 314.523 184.414C301.101 193.595 303.189 219.769 319.186 242.875C335.183 265.982 359.032 277.271 372.454 268.09Z" fill="#FE5721"/>
<path d="M361.431 274.432C356.486 274.432 351.07 273.091 345.416 270.415C323.747 260.155 304.576 232.46 302.674 208.676C301.702 196.481 305.272 186.956 312.728 181.86C320.183 176.758 330.412 176.845 341.519 182.116C363.188 192.37 382.359 220.065 384.261 243.849C385.234 256.05 381.663 265.569 374.214 270.671C370.549 273.185 366.219 274.432 361.431 274.432ZM325.536 184.349C322.009 184.349 318.877 185.228 316.286 187C310.757 190.78 308.146 198.302 308.937 208.189C310.675 229.989 328.253 255.377 348.115 264.789C357.12 269.056 365.121 269.311 370.656 265.538C376.184 261.758 378.795 254.229 378.004 244.348C376.266 222.548 358.689 197.155 338.827 187.748C334.045 185.478 329.533 184.349 325.536 184.349Z" fill="black"/>
<path d="M358.302 244.142C358.961 252.4 353.394 256.205 345.87 252.644C338.346 249.082 331.713 239.501 331.054 231.242C330.395 222.984 335.961 219.179 343.486 222.74C351.01 226.302 357.643 235.883 358.302 244.142Z" fill="#FE5721"/>
<path d="M351.859 245.68C349.769 245.68 347.516 245.131 345.194 244.027C336.641 239.985 329.349 229.456 328.596 220.056C328.188 214.91 329.782 210.824 333.095 208.554C336.402 206.295 340.808 206.264 345.508 208.491C354.061 212.539 361.353 223.075 362.106 232.469C362.514 237.615 360.92 241.694 357.607 243.964C355.938 245.106 353.986 245.68 351.859 245.68ZM338.869 213.095C337.996 213.095 337.243 213.294 336.653 213.7C335.285 214.629 334.633 216.768 334.852 219.569C335.417 226.699 341.391 235.319 347.886 238.394C350.44 239.592 352.681 239.748 354.042 238.818C355.411 237.889 356.063 235.75 355.844 232.949C355.279 225.825 349.305 217.193 342.803 214.117C341.366 213.444 340.017 213.095 338.869 213.095Z" fill="black"/>
<path d="M358.917 97.4552L352.734 133.513L358.921 134.561L365.103 98.5031L358.917 97.4552Z" fill="#FE5721"/>
<path d="M355.583 91.748L349.401 127.806L355.587 128.854L361.77 92.7959L355.583 91.748Z" fill="black"/>
<path d="M458.719 193.959L421.92 194.224L421.965 200.462L458.764 200.197L458.719 193.959Z" fill="#FE5721"/>
<path d="M452.832 189.932L416.033 190.193L416.077 196.431L452.876 196.169L452.832 189.932Z" fill="black"/>
<path d="M417.056 35.9022L382.797 120.604L388.619 122.931L422.878 38.2289L417.056 35.9022Z" fill="#FE5721"/>
<path d="M413.744 30.183L379.476 114.885L385.299 117.213L419.567 32.5102L413.744 30.183Z" fill="black"/>
<path d="M461.165 113.047L376.403 176.378L370.579 168.762L455.341 105.431L461.165 113.047Z" fill="#FE5721"/>
<path d="M375.802 180.748L366.182 168.155L455.939 101.063L465.559 113.644L375.802 180.748ZM374.911 168.279L377.396 172.833L457.156 113.276L454.677 108.723L374.911 168.279Z" fill="black"/>
<path d="M343.637 198.751L394.104 184.467L373.42 172.479L367.477 149.649L340.01 193.986C338.46 196.475 340.807 199.55 343.637 198.751Z" fill="#FE5721"/>
<path d="M365.565 185.264L359.622 162.434L338.876 195.924C339.604 196.99 341.198 199.436 342.679 199.018L374.909 190.672L365.565 185.264Z" fill="#FE5721"/>
<path d="M342.73 201.996C340.778 201.996 338.915 201.098 337.685 199.489C336.084 197.393 335.953 194.592 337.339 192.347L368.673 141.778L376.134 170.44L402.051 185.46L344.5 201.747C343.91 201.915 343.314 201.996 342.73 201.996ZM366.282 157.516L342.68 195.615L342.78 195.746L386.162 183.464L370.718 174.507L366.282 157.516Z" fill="black"/>
<path d="M465.185 76.5332L434.053 100.061L415.829 138.036C414.756 140.269 416.683 142.77 419.13 142.334L460.673 134.88L491.812 111.352L459.952 107.958L465.185 76.5332Z" fill="#FE5721"/>
<path d="M458.236 136.203L476.937 122.069L454.986 119.73L459.742 90.7935L428.604 114.322L414.189 142.871C414.848 143.451 415.689 143.832 416.687 143.657L458.236 136.203Z" fill="#FE5721"/>
<path d="M463.59 105.207L469.571 69.2966L431.548 98.0333L412.998 136.688C411.994 138.777 412.245 141.223 413.663 143.069C414.849 144.61 416.663 145.489 418.577 145.489C418.947 145.489 419.317 145.458 419.687 145.389L461.977 137.798L500 109.074L463.59 105.207ZM459.379 131.941L418.664 139.37L436.556 102.075L442.373 97.6778L438.664 118.823L444.845 119.896L449.715 92.1263L460.797 83.7492L456.311 110.689L483.627 113.602L459.379 131.941Z" fill="black"/>
<path d="M370.958 380.163C372.634 381.124 372.634 382.689 370.958 383.65C369.283 384.611 366.559 384.611 364.884 383.65C363.208 382.689 363.208 381.124 364.884 380.163C366.559 379.196 369.276 379.196 370.958 380.163Z" fill="black"/>
<path d="M386.839 371.046C388.515 372.006 388.515 373.572 386.839 374.533C385.164 375.493 382.44 375.493 380.764 374.533C379.089 373.572 379.089 372.006 380.764 371.046C382.44 370.085 385.157 370.085 386.839 371.046Z" fill="black"/>
<path d="M402.724 361.931C404.4 362.892 404.4 364.457 402.724 365.418C401.048 366.379 398.325 366.379 396.649 365.418C394.974 364.457 394.974 362.892 396.649 361.931C398.325 360.964 401.048 360.964 402.724 361.931Z" fill="black"/>
<path d="M339.181 380.163C340.856 381.124 340.856 382.689 339.181 383.65C337.505 384.611 334.782 384.611 333.106 383.65C331.431 382.689 331.431 381.124 333.106 380.163C334.782 379.196 337.505 379.196 339.181 380.163Z" fill="black"/>
<path d="M355.07 371.046C356.745 372.006 356.745 373.572 355.07 374.533C353.394 375.493 350.67 375.493 348.995 374.533C347.319 373.572 347.319 372.006 348.995 371.046C350.677 370.085 353.394 370.085 355.07 371.046Z" fill="black"/>
<path d="M370.958 361.933C372.634 362.893 372.634 364.459 370.958 365.419C369.283 366.38 366.559 366.38 364.884 365.419C363.208 364.459 363.208 362.893 364.884 361.933C366.559 360.972 369.276 360.972 370.958 361.933Z" fill="black"/>
<path d="M386.839 352.819C388.515 353.78 388.515 355.346 386.839 356.306C385.164 357.267 382.44 357.267 380.764 356.306C379.089 355.346 379.089 353.78 380.764 352.819C382.44 351.853 385.157 351.853 386.839 352.819Z" fill="black"/>
<path d="M402.724 343.701C404.4 344.662 404.4 346.228 402.724 347.188C401.048 348.149 398.325 348.149 396.649 347.188C394.974 346.228 394.974 344.662 396.649 343.701C398.325 342.741 401.048 342.741 402.724 343.701Z" fill="black"/>
<path d="M307.42 380.163C309.096 381.124 309.096 382.683 307.42 383.65C305.745 384.611 303.021 384.611 301.346 383.65C299.67 382.689 299.67 381.124 301.346 380.163C303.021 379.196 305.745 379.196 307.42 380.163Z" fill="black"/>
<path d="M323.304 371.046C324.979 372.006 324.979 373.572 323.304 374.533C321.628 375.493 318.905 375.493 317.229 374.533C315.554 373.572 315.554 372.006 317.229 371.046C318.905 370.085 321.628 370.085 323.304 371.046Z" fill="black"/>
<path d="M339.181 361.933C340.856 362.893 340.856 364.459 339.181 365.419C337.505 366.38 334.782 366.38 333.106 365.419C331.431 364.459 331.431 362.893 333.106 361.933C334.782 360.972 337.505 360.972 339.181 361.933Z" fill="black"/>
<path d="M275.651 380.163C277.326 381.124 277.326 382.689 275.651 383.65C273.975 384.611 271.252 384.611 269.576 383.65C267.9 382.689 267.9 381.124 269.576 380.163C271.252 379.196 273.969 379.196 275.651 380.163Z" fill="black"/>
<path d="M291.535 371.046C293.211 372.006 293.211 373.572 291.535 374.533C289.86 375.493 287.136 375.493 285.461 374.533C283.785 373.572 283.785 372.006 285.461 371.046C287.136 370.085 289.854 370.085 291.535 371.046Z" fill="black"/>
<path d="M307.42 361.933C309.096 362.893 309.096 364.459 307.42 365.42C305.745 366.38 303.021 366.38 301.346 365.42C299.67 364.459 299.67 362.893 301.346 361.933C303.021 360.972 305.745 360.972 307.42 361.933Z" fill="black"/>
<path d="M259.766 371.046C261.441 372.006 261.441 373.572 259.766 374.533C258.09 375.493 255.367 375.493 253.691 374.533C252.016 373.572 252.016 372.013 253.691 371.046C255.373 370.085 258.09 370.085 259.766 371.046Z" fill="black"/>
<path d="M275.651 361.933C277.326 362.893 277.326 364.459 275.651 365.419C273.975 366.38 271.252 366.38 269.576 365.419C267.9 364.459 267.9 362.893 269.576 361.933C271.252 360.972 273.969 360.972 275.651 361.933Z" fill="black"/>
<path d="M291.535 352.819C293.211 353.78 293.211 355.346 291.535 356.306C289.86 357.267 287.136 357.267 285.461 356.306C283.785 355.346 283.785 353.78 285.461 352.819C287.136 351.853 289.854 351.853 291.535 352.819Z" fill="black"/>
<path d="M243.881 361.933C245.557 362.893 245.557 364.459 243.881 365.419C242.206 366.38 239.482 366.38 237.806 365.419C236.131 364.459 236.131 362.893 237.806 361.933C239.482 360.972 242.206 360.972 243.881 361.933Z" fill="black"/>
<path d="M259.766 352.819C261.441 353.78 261.441 355.346 259.766 356.306C258.09 357.267 255.367 357.267 253.691 356.306C252.016 355.346 252.016 353.78 253.691 352.819C255.373 351.853 258.09 351.853 259.766 352.819Z" fill="black"/>
<path d="M275.651 343.701C277.326 344.662 277.326 346.228 275.651 347.188C273.975 348.149 271.252 348.149 269.576 347.188C267.9 346.228 267.9 344.662 269.576 343.701C271.252 342.741 273.969 342.741 275.651 343.701Z" fill="black"/>
<path d="M227.996 352.819C229.672 353.78 229.672 355.346 227.996 356.306C226.321 357.267 223.597 357.267 221.922 356.306C220.246 355.346 220.246 353.78 221.922 352.819C223.597 351.853 226.321 351.853 227.996 352.819Z" fill="black"/>
<path d="M243.881 343.701C245.557 344.662 245.557 346.228 243.881 347.188C242.206 348.149 239.482 348.149 237.806 347.188C236.131 346.228 236.131 344.662 237.806 343.701C239.482 342.741 242.206 342.741 243.881 343.701Z" fill="black"/>
<path d="M259.766 334.587C261.441 335.547 261.441 337.113 259.766 338.074C258.09 339.034 255.367 339.034 253.691 338.074C252.016 337.113 252.016 335.547 253.691 334.587C255.373 333.62 258.09 333.62 259.766 334.587Z" fill="black"/>
<path d="M275.651 325.469C277.326 326.43 277.326 327.996 275.651 328.956C273.975 329.917 271.252 329.917 269.576 328.956C267.9 327.996 267.9 326.43 269.576 325.469C271.252 324.509 273.969 324.509 275.651 325.469Z" fill="black"/>
<path d="M212.115 343.701C213.791 344.662 213.791 346.228 212.115 347.188C210.44 348.149 207.716 348.149 206.041 347.188C204.365 346.228 204.365 344.662 206.041 343.701C207.716 342.741 210.44 342.741 212.115 343.701Z" fill="black"/>
<path d="M227.996 334.587C229.672 335.547 229.672 337.113 227.996 338.074C226.321 339.034 223.597 339.034 221.922 338.074C220.246 337.113 220.246 335.547 221.922 334.587C223.597 333.62 226.321 333.62 227.996 334.587Z" fill="black"/>
<path d="M243.881 325.469C245.557 326.43 245.557 327.996 243.881 328.956C242.206 329.917 239.482 329.917 237.806 328.956C236.131 327.996 236.131 326.43 237.806 325.469C239.482 324.509 242.206 324.509 243.881 325.469Z" fill="black"/>
<path d="M259.766 316.356C261.441 317.317 261.441 318.882 259.766 319.843C258.09 320.804 255.367 320.804 253.691 319.843C252.016 318.882 252.016 317.317 253.691 316.356C255.373 315.396 258.09 315.396 259.766 316.356Z" fill="black"/>
<path d="M196.093 334.485C197.768 335.445 197.768 337.011 196.093 337.971C194.417 338.932 191.694 338.932 190.018 337.971C188.343 337.011 188.343 335.445 190.018 334.485C191.694 333.524 194.417 333.524 196.093 334.485Z" fill="black"/>
<path d="M211.978 325.372C213.653 326.333 213.653 327.898 211.978 328.859C210.302 329.819 207.579 329.819 205.903 328.859C204.228 327.898 204.228 326.333 205.903 325.372C207.579 324.411 210.302 324.411 211.978 325.372Z" fill="black"/>
<path d="M227.858 316.264C229.534 317.225 229.534 318.79 227.858 319.751C226.183 320.711 223.459 320.711 221.784 319.751C220.108 318.79 220.108 317.225 221.784 316.264C223.459 315.297 226.183 315.297 227.858 316.264Z" fill="black"/>
<path d="M243.743 307.141C245.419 308.101 245.419 309.667 243.743 310.627C242.068 311.588 239.344 311.588 237.669 310.627C235.993 309.667 235.993 308.101 237.669 307.141C239.35 306.18 242.068 306.18 243.743 307.141Z" fill="black"/>
<path d="M196.093 316.264C197.768 317.225 197.768 318.79 196.093 319.751C194.417 320.711 191.694 320.711 190.018 319.751C188.343 318.79 188.343 317.225 190.018 316.264C191.694 315.297 194.417 315.297 196.093 316.264Z" fill="black"/>
<path d="M211.978 307.141C213.653 308.101 213.653 309.667 211.978 310.627C210.302 311.588 207.579 311.588 205.903 310.627C204.228 309.667 204.228 308.101 205.903 307.141C207.579 306.18 210.302 306.18 211.978 307.141Z" fill="black"/>
<path d="M227.858 298.028C229.534 298.988 229.534 300.554 227.858 301.515C226.183 302.475 223.459 302.475 221.784 301.515C220.108 300.554 220.108 298.995 221.784 298.028C223.459 297.067 226.183 297.067 227.858 298.028Z" fill="black"/>
<path d="M243.743 288.913C245.419 289.874 245.419 291.44 243.743 292.4C242.068 293.361 239.344 293.361 237.669 292.4C235.993 291.44 235.993 289.874 237.669 288.913C239.35 287.947 242.068 287.947 243.743 288.913Z" fill="black"/>
<path d="M211.978 288.913C213.653 289.874 213.653 291.433 211.978 292.4C210.302 293.361 207.579 293.361 205.903 292.4C204.228 291.44 204.228 289.874 205.903 288.913C207.579 287.947 210.302 287.947 211.978 288.913Z" fill="black"/>
<path d="M227.858 279.796C229.534 280.757 229.534 282.322 227.858 283.283C226.183 284.244 223.459 284.244 221.784 283.283C220.108 282.322 220.108 280.757 221.784 279.796C223.459 278.836 226.183 278.836 227.858 279.796Z" fill="black"/>
<defs>
<linearGradient id="paint0_linear_19_252" x1="0" y1="228" x2="456" y2="228" gradientUnits="userSpaceOnUse">
<stop stop-color="#FFDCD0"/>
<stop offset="1" stop-color="#FFF7F4"/>
</linearGradient>
</defs>
</svg>
