<svg width="501" height="456" viewBox="0 0 501 456" fill="none" xmlns="http://www.w3.org/2000/svg">
<circle cx="272.627" cy="228" r="228" fill="url(#paint0_linear_19_55)"/>
<path d="M330.553 282.955C330.553 282.874 330.558 282.799 330.553 282.719V277.941H327.442C327.229 277.797 327.016 277.648 326.78 277.509L198.87 203.718C193.265 200.483 183.479 200.892 177.004 204.622L13.6337 299.526C12.4759 300.194 11.5081 300.925 10.7247 301.69H8.28809V312.793C8.33993 314.796 9.57841 316.708 12.0669 318.141L139.976 391.932C145.581 395.167 155.368 394.758 161.843 391.028L325.213 296.124C328.634 294.15 330.426 291.646 330.541 289.24L330.553 286.241V282.955Z" fill="#FE5721"/>
<path d="M330.544 289.198L330.555 286.199V282.907C330.555 282.826 330.561 282.752 330.555 282.671V277.894H327.45C327.237 277.75 327.024 277.6 326.788 277.462L279.34 250.087C275.728 250.167 273.107 250.375 272.007 250.737C265.255 252.976 156.522 316.148 154.322 325.737C152.127 335.327 148.055 383.343 148.055 383.343V394.014C152.755 394.273 157.905 393.254 161.839 390.987L325.209 296.082C328.631 294.108 330.423 291.604 330.544 289.198Z" fill="black"/>
<path d="M149.465 395.221C145.697 395.221 142.097 394.461 139.407 392.913L11.4977 319.121C8.7673 317.544 7.22352 315.305 7.16016 312.83V300.57H10.2765C11.0772 299.839 12.0162 299.16 13.0703 298.555L176.446 203.651C183.215 199.743 193.526 199.34 199.436 202.748L327.345 276.539C327.495 276.625 327.645 276.723 327.789 276.815H331.677L331.666 289.254C331.522 292.229 329.431 294.998 325.773 297.105L162.402 392.003C158.71 394.133 153.969 395.221 149.465 395.221ZM9.41247 302.82V312.795C9.45855 314.459 10.5703 315.979 12.6268 317.164L140.536 390.956C145.824 394.012 155.127 393.597 161.273 390.052L324.644 295.153C327.57 293.467 329.31 291.291 329.413 289.19L329.43 282.847L329.425 279.066H327.103L326.821 278.876C326.516 278.668 326.378 278.576 326.228 278.49L198.307 204.693C193.019 201.642 183.722 202.045 177.57 205.597L14.1936 300.501C13.151 301.099 12.2466 301.773 11.5093 302.492L11.1809 302.815L9.41247 302.82Z" fill="black"/>
<path d="M139.97 381.207L12.0607 307.416C6.45582 304.181 7.1586 298.534 13.6275 294.804L176.998 199.9C183.467 196.165 193.259 195.762 198.864 198.996L326.773 272.788C332.378 276.023 331.676 281.669 325.201 285.399L161.836 380.303C155.362 384.033 145.575 384.442 139.97 381.207Z" fill="#FE5721"/>
<path d="M149.471 384.494C145.703 384.494 142.103 383.734 139.413 382.186L11.5036 308.394C8.6983 306.777 7.16028 304.486 7.16028 301.942C7.16028 298.955 9.31466 296.002 13.0762 293.832L176.452 198.928C183.226 195.031 193.537 194.622 199.442 198.024L327.351 271.815C330.156 273.433 331.7 275.724 331.7 278.268C331.7 281.255 329.546 284.208 325.784 286.384L162.403 381.282C158.71 383.406 153.969 384.494 149.471 384.494ZM189.378 197.926C185.283 197.926 180.951 198.928 177.57 200.879L14.1937 295.783C11.1522 297.539 9.40107 299.783 9.40107 301.942C9.40107 303.646 10.5416 305.246 12.6211 306.443L140.53 380.234C145.818 383.291 155.121 382.876 161.268 379.331L324.638 284.427C327.685 282.671 329.431 280.426 329.431 278.268C329.431 276.564 328.284 274.964 326.211 273.766L198.307 199.97C195.928 198.594 192.731 197.926 189.378 197.926Z" fill="black"/>
<path d="M152.172 374.032L151.625 373.721L28.2832 302.561L183.698 212.25L184.246 212.56L307.587 283.721L152.172 374.032Z" fill="black"/>
<path d="M152.841 366.855L27.3105 294.433L185.796 202.35L311.326 274.771L152.841 366.855Z" fill="#FE5721"/>
<path d="M152.841 368.153L152.277 367.831L25.0586 294.437L185.802 201.052L186.367 201.375L313.585 274.769L152.841 368.153ZM29.5632 294.437L152.841 365.557L309.074 274.775L185.796 203.654L29.5632 294.437Z" fill="black"/>
<path d="M291.336 232.618L291.278 233.113L278.496 225.74C278.271 225.901 278.075 226.074 277.81 226.224C274.204 228.301 272.107 231.628 268.501 229.545C264.895 227.467 261.145 226.77 264.751 224.692C265.011 224.543 265.304 224.428 265.587 224.301L266.762 214.677L261.791 212.956L261.024 221.665L246.9 207.511C244.417 206.078 240.178 206.774 239.365 208.743L237.562 213.117L235.921 212.956V223.443C235.921 223.478 235.921 223.518 235.921 223.553V223.587C235.978 224.215 236.428 224.819 237.217 225.28L276.071 247.693C277.153 248.321 278.72 248.58 280.212 248.39L294.435 246.565C296.722 246.271 298.035 245.086 297.937 243.9V233.574L291.336 232.618Z" fill="black"/>
<path d="M279.25 249.57C277.873 249.57 276.531 249.253 275.511 248.66L236.657 226.252C236.11 225.936 235.672 225.55 235.361 225.124L234.803 225.4L234.797 211.707L236.842 211.908L238.322 208.311C238.731 207.315 239.705 206.509 241.064 206.049C243.155 205.341 245.724 205.531 247.464 206.532L247.7 206.717L260.119 219.155L260.793 211.517L268.046 214.09V225.999L266.064 225.326C265.649 225.51 265.482 225.579 265.327 225.671C264.924 225.901 264.687 226.074 264.561 226.195C264.97 226.511 265.897 226.954 266.606 227.3C267.377 227.674 268.23 228.088 269.071 228.572C270.989 229.683 272.193 228.888 274.52 227.127C275.321 226.523 276.231 225.838 277.257 225.251C277.406 225.164 277.527 225.067 277.654 224.974L278.247 224.52L279.065 224.767L290.494 231.364L298.38 232.509C298.777 232.566 299.065 232.906 299.065 233.303V243.906C299.221 245.73 297.383 247.325 294.584 247.682L280.361 249.506C279.993 249.547 279.618 249.57 279.25 249.57ZM237.043 223.438V223.472C237.066 223.737 237.343 224.048 237.781 224.301L276.634 246.709C277.504 247.215 278.823 247.423 280.068 247.267L294.29 245.443C295.995 245.224 296.853 244.458 296.807 243.992V234.547L292.32 233.896L292.205 234.944L278.564 227.075C278.501 227.116 278.443 227.156 278.38 227.191C277.47 227.714 276.657 228.324 275.868 228.917C273.587 230.633 271.225 232.411 267.936 230.512C267.141 230.051 266.335 229.66 265.615 229.309C263.714 228.388 262.21 227.657 262.164 226.258C262.124 225.055 263.224 224.261 264.192 223.702C264.278 223.651 265.695 224.583 265.788 224.537V215.799L262.792 214.378L261.928 224.157L246.208 208.409C245.027 207.793 243.195 207.695 241.784 208.173C241.07 208.415 240.557 208.783 240.402 209.163L238.282 214.314L237.043 214.188V223.438Z" fill="black"/>
<path d="M296.64 231.879L278.501 221.415C278.276 221.576 278.08 221.749 277.815 221.898C274.209 223.976 268.363 223.976 264.757 221.898C261.151 219.815 261.151 216.442 264.757 214.364C265.016 214.214 265.31 214.099 265.592 213.972L246.899 203.186C244.417 201.752 240.177 202.449 239.365 204.418L236.03 212.522C235.672 213.397 236.122 214.312 237.222 214.951L276.076 237.365C277.159 237.992 278.725 238.251 280.217 238.061L294.44 236.236C297.896 235.787 299.14 233.318 296.64 231.879Z" fill="#FE5721"/>
<path d="M279.25 239.241C277.873 239.241 276.531 238.918 275.512 238.331L236.658 215.923C235.062 215.002 234.406 213.494 234.987 212.09L238.323 203.986C238.732 202.99 239.705 202.184 241.065 201.723C243.156 201.015 245.725 201.205 247.464 202.207L268.046 214.081L266.065 214.991C265.65 215.175 265.483 215.244 265.327 215.336C263.939 216.136 263.179 217.126 263.179 218.128C263.179 219.135 263.939 220.125 265.322 220.925C268.559 222.784 274.025 222.784 277.257 220.925C277.407 220.839 277.528 220.741 277.655 220.649L278.248 220.194L279.066 220.442L297.205 230.912C298.605 231.718 299.285 232.955 299.031 234.227C298.703 235.85 296.998 237.048 294.584 237.359L280.362 239.183C279.993 239.218 279.619 239.241 279.25 239.241ZM243.732 203.548C243.063 203.548 242.389 203.646 241.79 203.847C241.076 204.089 240.563 204.458 240.408 204.837L237.073 212.942C236.888 213.402 237.574 213.84 237.787 213.966L276.641 236.374C277.511 236.875 278.83 237.088 280.074 236.933L294.296 235.108C295.984 234.889 296.739 234.176 296.819 233.767C296.9 233.358 296.272 232.955 296.076 232.84L278.57 222.744C278.507 222.784 278.449 222.825 278.386 222.859C274.4 225.15 268.173 225.15 264.193 222.865C262.084 221.651 260.926 219.964 260.926 218.122C260.926 216.551 261.773 215.1 263.323 213.949L246.335 204.152C245.644 203.761 244.694 203.548 243.732 203.548Z" fill="black"/>
<path d="M298.804 267.928L198.222 209.902C195.803 208.509 196.108 206.074 198.896 204.462L205.117 200.871C207.905 199.259 212.128 199.086 214.547 200.479L315.129 258.505C317.548 259.898 317.243 262.333 314.449 263.944L308.228 267.53C305.446 269.148 301.223 269.321 298.804 267.928Z" fill="#FE5721"/>
<path d="M302.911 270.002C301.178 270.002 299.513 269.64 298.24 268.909L197.663 210.883C196.246 210.066 195.469 208.88 195.469 207.545C195.463 206.025 196.511 204.546 198.337 203.492L204.559 199.901C207.704 198.088 212.347 197.915 215.112 199.509L315.694 257.535C317.111 258.352 317.888 259.538 317.888 260.879C317.883 262.399 316.84 263.878 315.014 264.932L308.793 268.523C307.093 269.502 304.956 270.002 302.911 270.002ZM299.369 266.952C301.437 268.143 305.239 267.965 307.669 266.56L313.891 262.969C314.979 262.341 315.636 261.558 315.636 260.868C315.636 260.229 315.054 259.757 314.57 259.481L213.988 201.461C211.92 200.263 208.119 200.448 205.688 201.852L199.466 205.438C198.378 206.065 197.721 206.854 197.727 207.539C197.727 208.178 198.309 208.644 198.793 208.926L299.369 266.952Z" fill="black"/>
<path d="M267.302 254.55L217.014 225.54C215.804 224.844 215.959 223.623 217.353 222.818L220.464 221.022C221.858 220.216 223.972 220.129 225.176 220.826L275.464 249.836C276.674 250.532 276.518 251.753 275.124 252.558L272.014 254.354C270.62 255.16 268.511 255.247 267.302 254.55Z" fill="#FE5721"/>
<path d="M269.356 256.151C268.388 256.157 267.461 255.944 266.735 255.53L216.447 226.52C215.572 226.013 215.065 225.225 215.07 224.361C215.07 223.394 215.692 222.479 216.787 221.852L219.898 220.056C221.66 219.043 224.166 218.956 225.739 219.86L276.032 248.87C276.908 249.377 277.409 250.165 277.409 251.029C277.409 251.996 276.787 252.911 275.693 253.538L272.582 255.334C271.632 255.875 270.474 256.151 269.356 256.151ZM223.141 221.483C222.409 221.483 221.614 221.662 221.021 222.007L217.91 223.803C217.438 224.074 217.323 224.321 217.323 224.367C217.328 224.379 217.392 224.465 217.576 224.574L267.864 253.584C268.734 254.091 270.405 253.993 271.453 253.389L274.564 251.593C275.036 251.322 275.151 251.075 275.151 251.029C275.145 251.017 275.082 250.925 274.898 250.821L224.61 221.811C224.229 221.587 223.699 221.483 223.141 221.483Z" fill="black"/>
<path d="M177.051 279.328C172.846 276.899 166.026 276.899 161.815 279.328C157.61 281.757 157.61 285.689 161.815 288.118C166.02 290.547 172.841 290.547 177.051 288.118C181.256 285.689 181.256 281.752 177.051 279.328Z" fill="black"/>
<path d="M193.632 268.096C180.066 260.268 158.805 260.263 145.228 268.096C138.217 272.137 134.358 277.686 134.358 283.718C134.358 289.75 138.217 295.305 145.228 299.345C152.013 303.265 160.717 305.222 169.427 305.222C178.137 305.222 186.846 303.265 193.632 299.345C200.642 295.305 204.502 289.75 204.502 283.718C204.502 277.686 200.642 272.137 193.632 268.096ZM190.752 294.361C178.995 301.141 159.87 301.141 148.108 294.361C142.952 291.385 140.118 287.603 140.118 283.712C140.118 279.821 142.952 276.045 148.108 273.069C153.989 269.679 161.708 267.981 169.427 267.981C177.152 267.981 184.87 269.679 190.752 273.069C195.907 276.045 198.741 279.821 198.741 283.712C198.741 287.603 195.902 291.391 190.752 294.361Z" fill="black"/>
<path d="M177.051 273.551C172.846 271.122 166.026 271.122 161.815 273.551C157.61 275.98 157.61 279.911 161.815 282.34C166.02 284.769 172.841 284.769 177.051 282.34C181.256 279.917 181.256 275.98 177.051 273.551Z" fill="#FE5721"/>
<path d="M193.632 262.322C180.066 254.494 158.805 254.488 145.228 262.322C138.217 266.362 134.358 271.911 134.358 277.943C134.358 283.976 138.217 289.53 145.228 293.571C152.013 297.491 160.717 299.448 169.427 299.448C178.137 299.448 186.846 297.491 193.632 293.571C200.642 289.53 204.502 283.976 204.502 277.943C204.496 271.911 200.637 266.362 193.632 262.322ZM190.752 288.586C178.995 295.367 159.87 295.367 148.108 288.586C142.952 285.61 140.118 281.829 140.118 277.938C140.118 274.047 142.952 270.271 148.108 267.295C153.989 263.905 161.708 262.207 169.427 262.207C177.152 262.207 184.87 263.905 190.752 267.295C195.907 270.271 198.741 274.047 198.741 277.938C198.741 281.829 195.902 285.616 190.752 288.586Z" fill="#FE5721"/>
<path d="M164.896 102.477C142.165 112.941 121.785 144.633 119.855 173.925C119.084 185.644 121.399 195.124 126.002 201.588L158.738 263.626L174.435 271.287C175.846 268.087 198.755 159.121 199.804 155.846C202.258 148.191 219.015 143.373 219.141 135.919C219.602 108.624 187.062 92.2715 164.896 102.477ZM162.021 172.388C153.07 176.855 146.209 171.376 146.774 160.243C147.327 149.261 154.913 137.047 163.646 132.88C172.292 128.753 178.968 134.008 178.629 144.697C178.283 155.529 170.881 167.968 162.021 172.388Z" fill="#FE5721"/>
<path d="M167.727 108.062C144.996 118.526 124.616 150.224 122.686 179.51C122.317 185.076 122.698 190.096 123.637 194.568C149.57 210.149 169 209.24 189.253 223.049C195.561 193.762 202.087 163.141 202.634 161.425C205.088 153.764 217.652 148.025 217.773 140.566C218.239 113.283 189.892 97.8623 167.727 108.062ZM164.852 177.974C155.9 182.44 149.04 176.961 149.604 165.829C150.157 154.846 157.744 142.632 166.477 138.465C175.123 134.338 181.799 139.593 181.459 150.282C181.114 161.12 173.712 173.553 164.852 177.974Z" fill="#FE5721"/>
<path d="M175.296 273.623L157.473 264.926L157.214 264.425L124.478 202.388C119.593 195.55 117.358 185.609 118.136 173.815C120.077 144.414 140.728 111.709 164.179 100.91C175.964 95.4767 191.408 97.0653 203.505 104.945C214.755 112.273 221.085 123.572 220.878 135.941C220.797 140.759 215.625 144.293 210.625 147.712C206.604 150.463 202.445 153.307 201.46 156.369C201.051 157.67 196.777 177.562 192.255 198.618C183.286 240.371 176.874 270.078 176.028 271.983L175.296 273.623ZM160.002 262.319L173.338 268.829C175.446 260.339 183.113 224.657 188.862 197.892C194.346 172.37 197.727 156.668 198.159 155.321C199.501 151.125 204.161 147.942 208.66 144.869C212.94 141.945 217.358 138.923 217.416 135.889C217.6 124.734 211.846 114.506 201.61 107.846C190.486 100.594 176.368 99.1087 165.619 104.053C143.199 114.373 123.441 145.772 121.575 174.045C120.849 185.034 122.865 194.214 127.404 200.586L160.002 262.319ZM156.079 175.669C154.04 175.669 152.157 175.133 150.509 174.057C146.719 171.582 144.732 166.517 145.048 160.162C145.642 148.489 153.482 135.814 162.906 131.325C167.347 129.212 171.592 129.224 174.87 131.365C178.556 133.771 180.555 138.652 180.365 144.753C180.002 156.185 172.122 169.279 162.808 173.93C160.469 175.093 158.194 175.669 156.079 175.669ZM169.265 133.207C167.762 133.207 166.108 133.616 164.392 134.439C156.149 138.37 149.023 149.985 148.499 160.329C148.24 165.434 149.662 169.377 152.399 171.167C154.691 172.67 157.831 172.543 161.252 170.839C169.553 166.695 176.575 154.941 176.903 144.638C177.059 139.769 175.624 135.981 172.975 134.249C171.903 133.558 170.647 133.207 169.265 133.207Z" fill="black"/>
<path d="M219.507 140.592C219.967 113.308 202.761 99.9258 180.595 110.131C157.865 120.595 137.485 152.288 135.555 181.58C134.783 193.305 137.099 202.779 141.701 209.243L174.437 271.28L211.799 173.228C213.21 170.033 214.455 166.775 215.509 163.495C217.963 155.839 219.38 148.051 219.507 140.592Z" fill="black"/>
<path d="M175.298 273.623L173.196 272.616L140.177 210.048C135.292 203.216 133.057 193.27 133.835 181.47C135.776 152.069 156.427 119.363 179.878 108.565C190.379 103.736 200.356 103.817 207.983 108.784C216.779 114.517 221.491 125.827 221.237 140.62C221.111 148.097 219.74 155.971 217.159 164.024C216.088 167.351 214.82 170.678 213.386 173.924L175.298 273.623ZM194.768 108.456C190.569 108.456 186.013 109.538 181.318 111.702C158.898 122.023 139.14 153.421 137.274 181.694C136.554 192.688 138.57 201.869 143.104 208.241L174.181 267.101L210.183 172.617C211.606 169.4 212.827 166.182 213.864 162.97C216.341 155.24 217.66 147.7 217.781 140.568C218.006 127.197 213.743 116.67 206.093 111.679C202.798 109.532 198.956 108.456 194.768 108.456Z" fill="black"/>
<path d="M175.737 201.363L159.078 190.035C156.74 188.446 156.912 183.784 159.459 179.616C162.005 175.455 165.962 173.365 168.295 174.954L176.694 180.664L192.201 149.19C194.384 144.845 198.324 142.111 201.002 143.089C203.681 144.068 204.078 148.385 201.89 152.73L178.664 199.578C177.921 201.063 176.538 201.904 175.737 201.363Z" fill="#FE5721"/>
<path d="M167.237 417.831C168.775 418.717 168.775 420.162 167.237 421.048C165.699 421.935 163.199 421.935 161.661 421.048C160.123 420.162 160.123 418.717 161.661 417.831C163.205 416.939 165.699 416.939 167.237 417.831Z" fill="black"/>
<path d="M181.819 409.421C183.357 410.307 183.357 411.752 181.819 412.638C180.281 413.525 177.781 413.525 176.243 412.638C174.705 411.752 174.705 410.313 176.243 409.421C177.781 408.534 180.276 408.534 181.819 409.421Z" fill="black"/>
<path d="M196.401 401.008C197.939 401.894 197.939 403.339 196.401 404.225C194.863 405.112 192.363 405.112 190.825 404.225C189.287 403.339 189.287 401.894 190.825 401.008C192.363 400.121 194.858 400.121 196.401 401.008Z" fill="black"/>
<path d="M210.98 392.598C212.518 393.485 212.518 394.929 210.98 395.816C209.442 396.702 206.942 396.702 205.404 395.816C203.865 394.929 203.865 393.485 205.404 392.598C206.942 391.706 209.442 391.706 210.98 392.598Z" fill="black"/>
<path d="M225.562 384.178C227.1 385.065 227.1 386.509 225.562 387.396C224.024 388.282 221.524 388.282 219.986 387.396C218.448 386.509 218.448 385.065 219.986 384.178C221.524 383.292 224.024 383.292 225.562 384.178Z" fill="black"/>
<path d="M240.141 375.776C241.679 376.662 241.679 378.107 240.141 378.993C238.603 379.88 236.103 379.88 234.565 378.993C233.027 378.107 233.027 376.662 234.565 375.776C236.103 374.883 238.603 374.883 240.141 375.776Z" fill="black"/>
<path d="M254.719 367.355C256.257 368.242 256.257 369.687 254.719 370.573C253.181 371.459 250.681 371.459 249.143 370.573C247.605 369.687 247.605 368.242 249.143 367.355C250.687 366.469 253.181 366.469 254.719 367.355Z" fill="black"/>
<path d="M269.305 358.946C270.843 359.832 270.843 361.277 269.305 362.163C267.767 363.05 265.267 363.05 263.729 362.163C262.191 361.277 262.191 359.832 263.729 358.946C265.267 358.059 267.761 358.059 269.305 358.946Z" fill="black"/>
<path d="M283.884 350.537C285.422 351.424 285.422 352.868 283.884 353.755C282.346 354.641 279.846 354.641 278.308 353.755C276.77 352.868 276.77 351.424 278.308 350.537C279.846 349.645 282.34 349.645 283.884 350.537Z" fill="black"/>
<path d="M298.462 342.123C300 343.009 300 344.454 298.462 345.34C296.924 346.227 294.424 346.227 292.886 345.34C291.348 344.454 291.348 343.009 292.886 342.123C294.424 341.236 296.924 341.236 298.462 342.123Z" fill="black"/>
<path d="M313.044 333.713C314.582 334.6 314.582 336.044 313.044 336.931C311.506 337.817 309.006 337.817 307.468 336.931C305.93 336.044 305.93 334.6 307.468 333.713C309.006 332.827 311.506 332.827 313.044 333.713Z" fill="black"/>
<path d="M327.623 325.302C329.161 326.188 329.161 327.633 327.623 328.519C326.085 329.406 323.585 329.406 322.047 328.519C320.509 327.633 320.509 326.188 322.047 325.302C323.585 324.41 326.085 324.41 327.623 325.302Z" fill="black"/>
<path d="M138.076 417.829C139.614 418.715 139.614 420.16 138.076 421.046C136.538 421.933 134.038 421.933 132.5 421.046C130.962 420.16 130.962 418.715 132.5 417.829C134.038 416.942 136.538 416.936 138.076 417.829Z" fill="black"/>
<path d="M152.658 409.42C154.196 410.307 154.196 411.752 152.658 412.638C151.12 413.524 148.62 413.524 147.082 412.638C145.544 411.752 145.544 410.307 147.082 409.42C148.62 408.534 151.12 408.534 152.658 409.42Z" fill="black"/>
<path d="M167.237 401.008C168.775 401.894 168.775 403.333 167.237 404.225C165.699 405.112 163.199 405.112 161.661 404.225C160.123 403.339 160.123 401.894 161.661 401.008C163.205 400.121 165.699 400.121 167.237 401.008Z" fill="black"/>
<path d="M181.819 392.598C183.357 393.485 183.357 394.929 181.819 395.816C180.281 396.702 177.781 396.702 176.243 395.816C174.705 394.929 174.705 393.485 176.243 392.598C177.781 391.706 180.276 391.706 181.819 392.598Z" fill="black"/>
<path d="M196.401 384.178C197.939 385.065 197.939 386.509 196.401 387.396C194.863 388.282 192.363 388.282 190.825 387.396C189.287 386.509 189.287 385.07 190.825 384.178C192.363 383.292 194.858 383.292 196.401 384.178Z" fill="black"/>
<path d="M210.98 375.776C212.518 376.662 212.518 378.107 210.98 378.993C209.442 379.88 206.942 379.88 205.404 378.993C203.865 378.107 203.865 376.662 205.404 375.776C206.942 374.883 209.442 374.883 210.98 375.776Z" fill="black"/>
<path d="M225.562 367.355C227.1 368.242 227.1 369.687 225.562 370.573C224.024 371.459 221.524 371.459 219.986 370.573C218.448 369.687 218.448 368.242 219.986 367.355C221.524 366.469 224.024 366.469 225.562 367.355Z" fill="black"/>
<path d="M240.141 358.946C241.679 359.832 241.679 361.277 240.141 362.163C238.603 363.05 236.103 363.05 234.565 362.163C233.027 361.277 233.027 359.832 234.565 358.946C236.103 358.059 238.603 358.059 240.141 358.946Z" fill="black"/>
<path d="M254.719 350.537C256.257 351.424 256.257 352.868 254.719 353.755C253.181 354.641 250.681 354.641 249.143 353.755C247.605 352.868 247.605 351.424 249.143 350.537C250.687 349.645 253.181 349.645 254.719 350.537Z" fill="black"/>
<path d="M269.305 342.123C270.843 343.009 270.843 344.454 269.305 345.34C267.767 346.227 265.267 346.227 263.729 345.34C262.191 344.454 262.191 343.009 263.729 342.123C265.267 341.236 267.761 341.236 269.305 342.123Z" fill="black"/>
<path d="M283.884 333.713C285.422 334.6 285.422 336.044 283.884 336.931C282.346 337.817 279.846 337.817 278.308 336.931C276.77 336.044 276.77 334.6 278.308 333.713C279.846 332.827 282.34 332.827 283.884 333.713Z" fill="black"/>
<path d="M298.462 325.302C300 326.188 300 327.633 298.462 328.519C296.924 329.406 294.424 329.406 292.886 328.519C291.348 327.633 291.348 326.188 292.886 325.302C294.424 324.41 296.924 324.41 298.462 325.302Z" fill="black"/>
<path d="M313.044 316.89C314.582 317.777 314.582 319.222 313.044 320.108C311.506 320.994 309.006 320.994 307.468 320.108C305.93 319.222 305.93 317.777 307.468 316.89C309.006 316.004 311.506 316.004 313.044 316.89Z" fill="black"/>
<path d="M123.498 409.421C125.036 410.307 125.036 411.752 123.498 412.638C121.96 413.525 119.46 413.525 117.922 412.638C116.384 411.752 116.384 410.307 117.922 409.421C119.46 408.534 121.96 408.534 123.498 409.421Z" fill="black"/>
<path d="M138.076 401.008C139.614 401.894 139.614 403.333 138.076 404.225C136.538 405.112 134.038 405.112 132.5 404.225C130.962 403.339 130.962 401.894 132.5 401.008C134.038 400.121 136.538 400.121 138.076 401.008Z" fill="black"/>
<path d="M108.919 401.008C110.457 401.894 110.457 403.339 108.919 404.225C107.381 405.112 104.881 405.112 103.343 404.225C101.805 403.339 101.805 401.894 103.343 401.008C104.881 400.121 107.381 400.121 108.919 401.008Z" fill="black"/>
<path d="M123.498 392.598C125.036 393.485 125.036 394.929 123.498 395.816C121.96 396.702 119.46 396.702 117.922 395.816C116.384 394.929 116.384 393.485 117.922 392.598C119.46 391.706 121.96 391.706 123.498 392.598Z" fill="black"/>
<path d="M94.3406 392.598C95.8787 393.485 95.8787 394.929 94.3406 395.816C92.8026 396.702 90.3026 396.702 88.7646 395.816C87.2266 394.929 87.2266 393.49 88.7646 392.598C90.3026 391.706 92.7969 391.706 94.3406 392.598Z" fill="black"/>
<path d="M108.919 384.178C110.457 385.065 110.457 386.509 108.919 387.396C107.381 388.282 104.881 388.282 103.343 387.396C101.805 386.509 101.805 385.065 103.343 384.178C104.881 383.292 107.381 383.292 108.919 384.178Z" fill="black"/>
<path d="M79.626 384.096C81.1641 384.982 81.1641 386.427 79.626 387.314C78.088 388.2 75.588 388.2 74.05 387.314C72.512 386.427 72.512 384.982 74.05 384.096C75.5938 383.21 78.088 383.21 79.626 384.096Z" fill="black"/>
<path d="M94.212 375.684C95.75 376.57 95.75 378.015 94.212 378.901C92.674 379.788 90.174 379.788 88.6359 378.901C87.0979 378.015 87.0979 376.57 88.6359 375.684C90.174 374.792 92.6682 374.792 94.212 375.684Z" fill="black"/>
<path d="M65.051 375.684C66.589 376.57 66.589 378.015 65.051 378.901C63.513 379.788 61.0129 379.788 59.4749 378.901C57.9369 378.015 57.9369 376.57 59.4749 375.684C61.0187 374.792 63.513 374.792 65.051 375.684Z" fill="black"/>
<path d="M79.6329 367.273C81.1709 368.16 81.1709 369.604 79.6329 370.491C78.0949 371.377 75.5949 371.377 74.0568 370.491C72.5188 369.604 72.5188 368.16 74.0568 367.273C75.5949 366.387 78.0891 366.387 79.6329 367.273Z" fill="black"/>
<path d="M50.4688 367.273C52.0068 368.16 52.0068 369.604 50.4688 370.491C48.9308 371.377 46.4308 371.377 44.8928 370.491C43.3548 369.604 43.3548 368.16 44.8928 367.273C46.4366 366.387 48.9308 366.387 50.4688 367.273Z" fill="black"/>
<path d="M65.051 358.858C66.589 359.745 66.589 361.189 65.051 362.076C63.513 362.962 61.0129 362.962 59.4749 362.076C57.9369 361.189 57.9369 359.745 59.4749 358.858C61.0187 357.966 63.513 357.966 65.051 358.858Z" fill="black"/>
<path d="M35.8907 358.864C37.4287 359.75 37.4287 361.195 35.8907 362.081C34.3527 362.968 31.8527 362.968 30.3146 362.081C28.7766 361.195 28.7766 359.75 30.3146 358.864C31.8527 357.977 34.3527 357.977 35.8907 358.864Z" fill="black"/>
<path d="M50.4688 350.448C52.0068 351.334 52.0068 352.779 50.4688 353.665C48.9308 354.552 46.4308 354.552 44.8928 353.665C43.3548 352.779 43.3548 351.334 44.8928 350.448C46.4366 349.561 48.9308 349.561 50.4688 350.448Z" fill="black"/>
<path d="M21.3077 350.448C22.8457 351.334 22.8457 352.779 21.3077 353.665C19.7697 354.552 17.2697 354.552 15.7316 353.665C14.1936 352.779 14.1936 351.334 15.7316 350.448C17.2697 349.561 19.7697 349.561 21.3077 350.448Z" fill="black"/>
<path d="M35.8907 342.041C37.4287 342.927 37.4287 344.372 35.8907 345.258C34.3527 346.145 31.8527 346.145 30.3146 345.258C28.7766 344.372 28.7766 342.927 30.3146 342.041C31.8527 341.154 34.3527 341.154 35.8907 342.041Z" fill="black"/>
<path d="M6.72957 342.041C8.26759 342.927 8.26759 344.372 6.72957 345.258C5.19155 346.145 2.69154 346.145 1.15352 345.258C-0.384505 344.372 -0.384505 342.927 1.15352 342.041C2.69154 341.154 5.19155 341.154 6.72957 342.041Z" fill="black"/>
<path d="M21.3077 333.626C22.8457 334.512 22.8457 335.957 21.3077 336.843C19.7697 337.73 17.2697 337.73 15.7316 336.843C14.1936 335.957 14.1936 334.512 15.7316 333.626C17.2697 332.733 19.7697 332.733 21.3077 333.626Z" fill="black"/>
<path d="M6.72957 325.215C8.26759 326.102 8.26759 327.546 6.72957 328.433C5.19155 329.319 2.69154 329.319 1.15352 328.433C-0.384505 327.546 -0.384505 326.102 1.15352 325.215C2.69154 324.329 5.19155 324.329 6.72957 325.215Z" fill="black"/>
<path d="M322.148 308.559C323.686 307.667 326.18 307.667 327.724 308.553C329.268 309.44 329.273 310.879 327.735 311.771C326.197 312.663 323.703 312.663 322.159 311.777C320.615 310.89 320.616 309.451 322.148 308.559Z" fill="black"/>
<path d="M342.315 316.856C343.853 317.743 343.853 319.187 342.315 320.074C340.777 320.96 338.277 320.96 336.739 320.074C335.201 319.187 335.201 317.743 336.739 316.856C338.277 315.97 340.772 315.97 342.315 316.856Z" fill="black"/>
<path d="M336.832 300.111C338.37 299.219 340.864 299.219 342.408 300.105C343.951 300.992 343.957 302.431 342.419 303.323C340.881 304.215 338.387 304.215 336.843 303.329C335.299 302.442 335.294 301.003 336.832 300.111Z" fill="black"/>
<defs>
<linearGradient id="paint0_linear_19_55" x1="44.6272" y1="228" x2="500.627" y2="228" gradientUnits="userSpaceOnUse">
<stop stop-color="#FFDCD0"/>
<stop offset="1" stop-color="#FFF7F4"/>
</linearGradient>
</defs>
</svg>
