<svg width="80" height="80" viewBox="0 0 80 80" fill="none" xmlns="http://www.w3.org/2000/svg">
<path d="M65.0915 43.8385L62.155 40.8109C67.9747 34.3987 70.8666 27.2289 70.09 21.1393C69.4674 16.2581 66.5583 12.1143 61.4432 8.82326C48.0408 0.201605 32.1349 19.7206 31.9753 19.9193L28.8706 17.0877C29.6097 16.1645 47.1593 -5.40548 63.5197 5.11881C69.6673 9.07388 73.3328 14.4246 74.1194 20.5963C75.0656 28.0038 71.774 36.4757 65.0915 43.8385Z" fill="#FE5721"/>
<path d="M32.4423 22.0273C32.5199 21.9308 36.3206 17.2743 41.7405 13.4993L38.0146 10.8794C33.0089 14.6818 29.6511 18.8025 29.3376 19.1943L32.4423 22.0273Z" fill="#FE5721"/>
<path d="M69.1368 32.762C67.7894 36.1812 65.5892 39.648 62.6226 42.9175L65.559 45.945C68.6637 42.5243 71.0249 38.8645 72.5809 35.1831L69.1368 32.762Z" fill="#FE5721"/>
<path d="M65.1079 44.8908L61.1677 40.8277L61.6221 40.3265C67.2994 34.0698 70.1251 27.1088 69.3759 21.231C68.7806 16.5702 65.9822 12.5992 61.0541 9.43058C48.2082 1.16324 32.6891 20.1795 32.5353 20.3725L32.0549 20.9688L27.8861 17.165L28.3089 16.6379C29.0639 15.6945 47.019 -6.35083 63.9071 4.51193C70.2388 8.58655 74.0164 14.1159 74.8318 20.5036C75.8039 28.1214 72.4461 36.8021 65.6227 44.3219L65.1079 44.8908ZM63.1378 40.7903L65.0691 42.7822C71.2669 35.7132 74.2997 27.6951 73.4053 20.6865C72.646 14.7338 69.0926 9.55876 63.1306 5.72323C48.503 -3.68482 32.7165 13.655 29.8605 17.0181L31.9083 18.8862C34.7484 15.6282 49.2695 0.137731 61.8292 8.21783C67.1326 11.6285 70.151 15.945 70.801 21.048C71.5847 27.1852 68.7964 34.3492 63.1378 40.7903Z" fill="black"/>
<path d="M63.5702 49.7706C65.7948 45.6614 67.4126 42.438 67.4126 42.438C67.4126 42.438 63.7571 39.6639 61.8863 38.6672H61.8848C60.1103 37.5064 57.5549 37.5323 54.6372 39.0216C48.7931 42.003 43.8909 49.3039 43.4638 55.8457C43.2797 58.6687 44.1727 60.4417 45.3332 62.0923C45.3332 62.0923 48.4105 66.4392 51.6288 66.9505C52.9806 67.1651 55.9803 62.8759 59.0059 57.8276C61.0105 55.4482 62.6283 52.618 63.5702 49.7706Z" fill="#FE5721"/>
<path d="M60.9127 41.9455C59.1367 40.7846 56.5814 40.8091 53.6636 42.2984C49.9694 44.1837 46.6547 47.7945 44.607 51.849C46.5612 53.0099 49.6027 55.3173 49.6027 55.3173C49.6027 55.3173 50.4396 58.3059 48.2164 62.415C48.0625 62.8788 49.1324 65.385 48.944 65.8459C49.1641 66.0835 49.9837 65.9755 50.1606 66.2275C51.8287 67.4878 48.9886 66.8324 52.2055 67.3438C53.5572 67.5584 55.0082 66.1512 58.0338 61.103C60.0369 58.725 61.6547 55.8948 62.5966 53.0473C64.8213 48.9381 66.439 45.7147 66.439 45.7147C66.439 45.7147 62.7836 42.9407 60.9127 41.9455Z" fill="#FE5721"/>
<path d="M51.7377 67.6776C51.6615 67.6776 51.5882 67.6719 51.5177 67.6603C47.9385 67.0914 44.7144 62.458 44.6914 62.4119C43.5885 60.8593 42.5445 58.9062 42.7472 55.798C43.1916 49.0041 48.1628 41.5145 54.3118 38.3776C57.3733 36.8134 60.2034 36.7039 62.2799 38.0621C64.1249 39.0415 67.6969 41.7464 67.8479 41.8617L68.3253 42.2232L68.0564 42.7589C68.0406 42.7906 66.4228 46.0112 64.2327 50.0555C63.2735 52.9261 61.6155 55.8484 59.5577 58.2883C54.7648 66.3007 52.8623 67.6776 51.7377 67.6776ZM58.9336 38.5677C57.7328 38.5677 56.3883 38.9364 54.9632 39.6623C49.3233 42.54 44.5879 49.6695 44.1809 55.8931C44.017 58.4079 44.7576 60.0239 45.9209 61.6773C45.9497 61.7177 48.8559 65.7822 51.7406 66.2388C51.8743 66.2344 53.2937 65.9565 58.39 57.4558C60.4133 55.0404 61.9865 52.2649 62.8853 49.5457L62.9356 49.429C64.6051 46.3439 65.9439 43.7369 66.4961 42.6524C65.4507 41.876 62.9514 40.0512 61.5465 39.3051C60.7929 38.8111 59.91 38.5677 58.9336 38.5677Z" fill="black"/>
<path d="M69.7568 49.0816C69.3297 55.6235 64.2477 63.3435 58.4021 66.3264C52.558 69.3078 48.1663 66.4214 48.592 59.881C49.019 53.3392 54.101 45.6191 59.9451 42.6363C65.7921 39.6548 70.1839 42.5412 69.7568 49.0816Z" fill="black"/>
<path d="M54.0837 68.2273C52.8412 68.2273 51.7124 67.909 50.7446 67.2724C48.6724 65.9055 47.6528 63.264 47.8757 59.8347C48.3172 53.0782 53.5861 45.0744 59.6201 41.995C62.6903 40.4266 65.526 40.32 67.6054 41.6911C69.679 43.058 70.6971 45.6995 70.4742 49.1289C70.0342 55.8853 64.7653 63.8891 58.7299 66.9685C57.0863 67.8067 55.5116 68.2273 54.0837 68.2273ZM64.262 42.178C63.0641 42.178 61.7109 42.5453 60.2744 43.2784C54.6416 46.1532 49.7236 53.6226 49.3123 59.9283C49.1239 62.819 49.9149 64.9996 51.537 66.0712C53.1648 67.1427 55.4872 67.0074 58.0785 65.6866C63.7127 62.8118 68.6307 55.3423 69.0405 49.0367C69.2289 46.146 68.4395 43.964 66.8159 42.8938C66.0897 42.4156 65.2255 42.178 64.262 42.178Z" fill="black"/>
<path d="M57.1524 66.6515C56.1371 66.6515 55.211 66.3908 54.4172 65.868C52.7232 64.7503 51.8906 62.6029 52.0718 59.8231C52.4256 54.4047 56.6491 47.9881 61.488 45.5194C63.9772 44.2462 66.2838 44.1655 67.9835 45.2861C69.6775 46.4037 70.5116 48.5512 70.3304 51.331C69.9766 56.7494 65.7517 63.1645 60.9142 65.6347C59.5869 66.313 58.3114 66.6515 57.1524 66.6515ZM65.2427 45.9443C64.3137 45.9443 63.2611 46.2309 62.1408 46.8027C57.7031 49.0669 53.8305 54.9491 53.507 59.9152C53.3603 62.1578 53.9643 63.8444 55.2096 64.6639C56.4578 65.4892 58.2525 65.3754 60.2614 64.3514C64.6977 62.0872 68.5717 56.2036 68.8952 51.2388C69.0419 48.9963 68.4365 47.3097 67.1926 46.4887C66.6404 46.1243 65.9818 45.9443 65.2427 45.9443Z" fill="#FE5721"/>
<path d="M30.8082 25.1372C33.0328 21.028 34.6506 17.8046 34.6506 17.8046C34.6506 17.8046 30.9951 15.0306 29.1243 14.0353C27.3498 12.8744 24.7929 12.9003 21.8752 14.3882C16.0311 17.3696 11.1289 24.6705 10.7018 31.2123C10.5177 34.0353 11.4107 35.8084 12.5712 37.4589C12.5712 37.4589 15.7881 42.1082 19.455 42.5691C20.8111 42.7391 23.2198 38.2425 26.2454 33.1942C28.2485 30.8148 29.8663 27.9846 30.8082 25.1372Z" fill="#FE5721"/>
<path d="M28.6489 16.6879C26.8744 15.527 24.3176 15.5529 21.3998 17.0408C16.8586 19.3582 12.8954 24.2855 11.1511 29.4374C11.1712 29.4504 11.1928 29.4576 11.2129 29.4706C13.0838 30.4673 16.7392 33.2413 16.7392 33.2413C16.7392 33.2413 18.1988 34.8904 16.2244 38.5675C16.292 38.6539 16.5767 39.2804 16.6385 39.3669C16.6385 39.3669 15.3745 40.2757 19.0415 40.7366C20.399 40.9066 22.7458 40.8965 25.7714 35.8482C27.7746 33.4717 29.3909 30.6401 30.3343 27.7926C32.5589 23.6834 34.1767 20.46 34.1767 20.46C34.1767 20.46 30.5198 17.6831 28.6489 16.6879Z" fill="#FE5721"/>
<path d="M19.5345 43.2921C19.4784 43.2921 19.4223 43.2878 19.3662 43.2806C15.426 42.7866 12.12 38.0682 11.9805 37.868C10.8258 36.2246 9.78182 34.2715 9.98314 31.1648C10.4275 24.3709 15.3987 16.8828 21.5477 13.7443C24.6093 12.1816 27.4393 12.0693 29.5158 13.4289C31.3608 14.4083 34.9328 17.1132 35.0838 17.2284L35.5612 17.5899L35.2923 18.1257C35.2765 18.1574 33.6587 21.3779 31.4686 25.4223C30.5095 28.2928 28.8514 31.2138 26.7936 33.6551C26.4183 34.2975 25.9898 35.0219 25.577 35.7233C22.5931 40.7759 21.0372 43.2921 19.5345 43.2921ZM26.171 13.9344C24.9688 13.9344 23.6242 14.3032 22.2006 15.0291C16.5607 17.9068 11.8253 25.0363 11.4183 31.2598C11.2544 33.7746 11.9949 35.3906 13.1583 37.0455C13.1914 37.093 16.2428 41.4413 19.5431 41.8547C20.3426 41.7568 22.5586 38.0062 24.3389 34.9931C24.7531 34.2902 25.183 33.5629 25.6274 32.8226C27.6507 30.4072 29.2239 27.6317 30.1226 24.9124L30.173 24.7958C31.8425 21.7107 33.1813 19.1037 33.7335 18.0191C32.6881 17.2428 30.1888 15.4179 28.7838 14.6719C28.0303 14.1778 27.1474 13.9344 26.171 13.9344Z" fill="black"/>
<path d="M36.9977 24.4485C36.572 30.9903 31.4886 38.7118 25.6445 41.6932C19.8004 44.6746 15.4087 41.7882 15.8358 35.2478C16.2614 28.706 21.3448 20.986 27.1889 18.0031C33.0331 15.0202 37.4248 17.9066 36.9977 24.4485Z" fill="black"/>
<path d="M21.3224 43.5937C20.0814 43.5937 18.9497 43.2754 17.9848 42.6387C15.9112 41.2719 14.893 38.6289 15.1159 35.201C15.5559 28.4446 20.8234 20.4422 26.8602 17.3614C29.9304 15.7944 32.7662 15.6878 34.8456 17.0575C36.9192 18.4243 37.9373 21.0659 37.7144 24.4952C37.2744 31.2531 32.0055 39.2555 25.9701 42.3348C24.3264 43.1731 22.7504 43.5937 21.3224 43.5937ZM31.5008 17.5443C30.3029 17.5443 28.9497 17.9116 27.5131 18.6447C21.8789 21.5195 16.9609 28.989 16.5511 35.2946C16.3627 38.1853 17.1522 40.3674 18.7743 41.4375C20.4021 42.5091 22.7245 42.3737 25.3158 41.0529C30.95 38.1781 35.868 30.7087 36.2778 24.4031C36.4662 21.5124 35.6768 19.3317 34.0532 18.2601C33.3299 17.782 32.4657 17.5443 31.5008 17.5443Z" fill="black"/>
<path d="M23.8129 37.2255C23.1112 37.2255 22.4669 37.044 21.9147 36.6781C20.7456 35.9076 20.169 34.4442 20.2912 32.5618C20.5285 28.9365 23.2478 24.8043 26.4833 23.1551C28.1687 22.2938 29.7462 22.2449 30.9167 23.0197C32.0859 23.7903 32.6625 25.2537 32.5403 27.1361C32.3044 30.7599 29.5837 34.8907 26.3481 36.5428C25.4566 36.9979 24.5981 37.2255 23.8129 37.2255ZM29.0114 23.9127C28.4563 23.9127 27.8192 24.0885 27.1362 24.437C24.3565 25.8557 21.9291 29.5414 21.7263 32.6539C21.6386 33.9992 21.9866 35.0016 22.7056 35.4755C23.4261 35.9522 24.4888 35.8759 25.6953 35.2609C28.4764 33.8407 30.9038 30.155 31.1051 27.044C31.1928 25.6987 30.8448 24.6962 30.1258 24.2224C29.8123 24.0164 29.4356 23.9127 29.0114 23.9127Z" fill="#FE5721"/>
<path d="M19.7378 59.5049C19.1885 59.9384 18.4105 59.8117 17.9978 59.2226L14.2647 53.8805C10.7588 48.864 12.5218 43.1301 14.4056 39.9571C14.7968 39.2989 15.6509 39.1721 16.2233 39.6676L16.2319 39.6748C16.7194 40.0968 16.8459 40.8386 16.5152 41.3988C15.359 43.362 13.2595 48.0271 16.2535 52.3106L19.9866 57.6527C20.3993 58.2432 20.2871 59.0714 19.7378 59.5049Z" fill="#FE5721"/>
<path d="M19.0085 60.4828C18.9164 60.4828 18.823 60.4756 18.7281 60.4612C18.1946 60.382 17.7272 60.0896 17.4094 59.6345L13.6763 54.2938C10.2409 49.3781 11.4819 43.4743 13.7885 39.5898C14.0818 39.0958 14.5679 38.7602 15.1258 38.6694C15.6881 38.5802 16.259 38.7458 16.6961 39.1231C17.4525 39.7785 17.6395 40.912 17.1362 41.7646C16.1209 43.4858 14.0617 47.9162 16.8443 51.8972L20.5774 57.2393C21.2043 58.1351 21.0275 59.404 20.1848 60.0695C19.8411 60.3402 19.4312 60.4828 19.0085 60.4828ZM15.4278 40.0867C15.4034 40.0867 15.3789 40.0882 15.3545 40.0925C15.2164 40.1155 15.0999 40.1976 15.0237 40.3258C12.9472 43.8257 11.8112 49.1145 14.854 53.4671L18.5871 58.8092C18.6748 58.936 18.8 59.018 18.938 59.0368C19.0286 59.054 19.1609 59.0425 19.2932 58.9403C19.5434 58.743 19.5909 58.344 19.3982 58.0689L15.6651 52.7268C12.4036 48.0602 14.7404 42.9961 15.8966 41.0359C16.049 40.7766 15.9901 40.4194 15.7629 40.2221C15.6593 40.1314 15.5443 40.0867 15.4278 40.0867Z" fill="black"/>
<path d="M22.6282 57.0284C22.457 59.5907 20.3662 61.499 17.9604 61.2916C15.5546 61.0842 13.7426 58.8388 13.9152 56.2765C14.0878 53.7142 16.1772 51.8058 18.583 52.0132C20.9888 52.2206 22.8007 54.4661 22.6282 57.0284Z" fill="black"/>
<path d="M20.3167 56.0019C20.2045 57.6741 18.8413 58.92 17.271 58.7846C15.7006 58.6492 14.5186 57.1844 14.6307 55.5122C14.7429 53.84 16.1076 52.5942 17.6765 52.7296C19.2468 52.8635 20.4288 54.3297 20.3167 56.0019Z" fill="#FE5721"/>
<path d="M18.3161 62.0276C18.1766 62.0276 18.0372 62.0219 17.8962 62.0089C15.1065 61.7684 12.9983 59.1744 13.1953 56.2275C13.2946 54.7426 13.9503 53.4074 15.0403 52.4712C16.0541 51.5998 17.3296 51.1721 18.6426 51.2959C21.4323 51.5379 23.5405 54.1304 23.3435 57.0773C23.2442 58.5623 22.5885 59.8974 21.4985 60.8336C20.5954 61.6114 19.478 62.0276 18.3161 62.0276ZM18.2284 52.7175C17.4102 52.7175 16.6207 53.0128 15.9793 53.5644C15.1841 54.2486 14.7067 55.2279 14.6334 56.324C14.4867 58.4945 16.0081 60.4001 18.0228 60.5744C18.9503 60.6579 19.8476 60.3583 20.5652 59.7404C21.3604 59.0563 21.8378 58.0769 21.9112 56.9808C22.0579 54.8117 20.5364 52.9047 18.5218 52.7305C18.4225 52.7218 18.3248 52.7175 18.2284 52.7175Z" fill="black"/>
<path d="M20.3196 56.0005C20.3412 55.6664 20.2995 55.3452 20.2262 55.037C19.7732 54.6035 19.1965 54.3096 18.5451 54.2535C16.9748 54.1181 15.6101 55.364 15.4994 57.0362C15.4764 57.3703 15.5195 57.6915 15.5928 57.9997C16.0458 58.4332 16.6225 58.727 17.2739 58.7832C18.8442 58.9186 20.2075 57.6727 20.3196 56.0005Z" fill="#FE5721"/>
<path d="M21.2688 69.3788C21.6528 69.6006 21.6528 69.9621 21.2688 70.1839C20.8849 70.4057 20.2608 70.4057 19.8768 70.1839C19.4928 69.9621 19.4928 69.6006 19.8768 69.3788C20.2608 69.157 20.8849 69.157 21.2688 69.3788Z" fill="black"/>
<path d="M24.9075 67.2738C25.2915 67.4956 25.2915 67.8571 24.9075 68.0789C24.5236 68.3007 23.8995 68.3007 23.5155 68.0789C23.1316 67.8571 23.1316 67.497 23.5155 67.2738C23.9009 67.052 24.5236 67.052 24.9075 67.2738Z" fill="black"/>
<path d="M13.9897 69.3788C14.3736 69.6006 14.3736 69.9621 13.9897 70.1839C13.6057 70.4057 12.9816 70.4057 12.5977 70.1839C12.2137 69.9621 12.2137 69.6006 12.5977 69.3788C12.9816 69.157 13.6057 69.157 13.9897 69.3788Z" fill="black"/>
<path d="M17.6284 67.2738C18.0123 67.4956 18.0123 67.8571 17.6284 68.0789C17.2444 68.3007 16.6203 68.3007 16.2364 68.0789C15.8524 67.8571 15.8524 67.4956 16.2364 67.2738C16.6203 67.052 17.2444 67.052 17.6284 67.2738Z" fill="black"/>
<path d="M21.2688 65.1694C21.6528 65.3912 21.6528 65.7527 21.2688 65.9745C20.8849 66.1964 20.2608 66.1964 19.8768 65.9745C19.4928 65.7527 19.4928 65.3912 19.8768 65.1694C20.2608 64.9461 20.8849 64.9461 21.2688 65.1694Z" fill="black"/>
<path d="M24.9075 63.0626C25.2915 63.2844 25.2915 63.6459 24.9075 63.8677C24.5236 64.0895 23.8995 64.0895 23.5155 63.8677C23.1316 63.6459 23.1316 63.2844 23.5155 63.0626C23.9009 62.8408 24.5236 62.8408 24.9075 63.0626Z" fill="black"/>
<path d="M10.3493 67.2738C10.7332 67.4956 10.7332 67.8571 10.3493 68.0789C9.96534 68.3007 9.34126 68.3007 8.95731 68.0789C8.57335 67.8571 8.57335 67.4956 8.95731 67.2738C9.34126 67.052 9.9639 67.052 10.3493 67.2738Z" fill="black"/>
<path d="M13.9897 65.1694C14.3736 65.3912 14.3736 65.7513 13.9897 65.9745C13.6057 66.1964 12.9816 66.1964 12.5977 65.9745C12.2137 65.7527 12.2137 65.3912 12.5977 65.1694C12.9816 64.9461 13.6057 64.9461 13.9897 65.1694Z" fill="black"/>
<path d="M17.6284 63.0626C18.0123 63.2844 18.0123 63.6459 17.6284 63.8677C17.2444 64.0895 16.6203 64.0895 16.2364 63.8677C15.8524 63.6459 15.8524 63.2844 16.2364 63.0626C16.6203 62.8408 17.2444 62.8408 17.6284 63.0626Z" fill="black"/>
<path d="M10.3493 63.0626C10.7332 63.2844 10.7332 63.6459 10.3493 63.8677C9.96534 64.0895 9.34126 64.0895 8.95731 63.8677C8.57335 63.6459 8.57335 63.2844 8.95731 63.0626C9.34126 62.8408 9.9639 62.8408 10.3493 63.0626Z" fill="black"/>
<path d="M24.9075 54.6444C25.2915 54.8662 25.2915 55.2277 24.9075 55.4495C24.5236 55.6713 23.8995 55.6713 23.5155 55.4495C23.1316 55.2277 23.1316 54.8662 23.5155 54.6444C23.9009 54.4226 24.5236 54.4226 24.9075 54.6444Z" fill="black"/>
<path d="M17.5976 50.4133C17.9816 50.6351 17.9816 50.9966 17.5976 51.2184C17.2137 51.4403 16.5896 51.4403 16.2056 51.2184C15.8217 50.9966 15.8217 50.6351 16.2056 50.4133C16.591 50.19 17.2137 50.19 17.5976 50.4133Z" fill="black"/>
<path d="M10.3168 50.4133C10.7008 50.6351 10.7008 50.9966 10.3168 51.2184C9.93286 51.4403 9.30876 51.4403 8.9248 51.2184C8.54085 50.9966 8.54085 50.6351 8.9248 50.4133C9.30876 50.19 9.93286 50.19 10.3168 50.4133Z" fill="black"/>
<path d="M6.67814 48.308C7.06209 48.5298 7.06209 48.8913 6.67814 49.1131C6.29419 49.3349 5.67008 49.3349 5.28613 49.1131C4.90218 48.8913 4.90218 48.5298 5.28613 48.308C5.67008 48.0861 6.29275 48.0861 6.67814 48.308Z" fill="black"/>
<path d="M10.3168 46.204C10.7008 46.4258 10.7008 46.7873 10.3168 47.0091C9.93286 47.2309 9.30876 47.2309 8.9248 47.0091C8.54085 46.7873 8.54085 46.4258 8.9248 46.204C9.30876 45.9821 9.93286 45.9821 10.3168 46.204Z" fill="black"/>
<path d="M6.67814 44.0993C7.06209 44.3211 7.06209 44.6827 6.67814 44.9045C6.29419 45.1263 5.67008 45.1263 5.28613 44.9045C4.90218 44.6827 4.90218 44.3211 5.28613 44.0993C5.67008 43.8761 6.29275 43.8761 6.67814 44.0993Z" fill="black"/>
<path d="M57.8421 77.4825C58.226 77.7043 58.226 78.0658 57.8421 78.2876C57.4581 78.5094 56.8341 78.5094 56.4501 78.2876C56.0662 78.0658 56.0662 77.7043 56.4501 77.4825C56.8341 77.2607 57.4581 77.2607 57.8421 77.4825Z" fill="black"/>
<path d="M61.4808 75.379C61.8648 75.6008 61.8648 75.9623 61.4808 76.1841C61.0969 76.4059 60.4728 76.4059 60.0888 76.1841C59.7049 75.9623 59.7049 75.6008 60.0888 75.379C60.4728 75.1572 61.0969 75.1572 61.4808 75.379Z" fill="black"/>
<path d="M50.5613 77.4825C50.9452 77.7043 50.9452 78.0658 50.5613 78.2876C50.1773 78.5094 49.5532 78.5094 49.1693 78.2876C48.7853 78.0658 48.7853 77.7043 49.1693 77.4825C49.5532 77.2607 50.1759 77.2607 50.5613 77.4825Z" fill="black"/>
<path d="M54.2017 75.379C54.5857 75.6008 54.5857 75.9623 54.2017 76.1841C53.8177 76.4059 53.1936 76.4059 52.8097 76.1841C52.4257 75.9623 52.4257 75.6008 52.8097 75.379C53.1936 75.1572 53.8177 75.1572 54.2017 75.379Z" fill="black"/>
<path d="M57.8421 73.2744C58.226 73.4962 58.226 73.8577 57.8421 74.0795C57.4581 74.3013 56.8341 74.3013 56.4501 74.0795C56.0662 73.8577 56.0662 73.4962 56.4501 73.2744C56.8341 73.0511 57.4581 73.0511 57.8421 73.2744Z" fill="black"/>
<path d="M46.9226 75.379C47.3065 75.6008 47.3065 75.9623 46.9226 76.1841C46.5386 76.4059 45.9145 76.4059 45.5306 76.1841C45.1466 75.9623 45.1466 75.6008 45.5306 75.379C45.916 75.1572 46.5386 75.1572 46.9226 75.379Z" fill="black"/>
<path d="M50.5613 73.2744C50.9452 73.4962 50.9452 73.8577 50.5613 74.0795C50.1773 74.3013 49.5532 74.3013 49.1693 74.0795C48.7853 73.8577 48.7853 73.4962 49.1693 73.2744C49.5532 73.0511 50.1759 73.0511 50.5613 73.2744Z" fill="black"/>
<path d="M54.2017 71.1686C54.5857 71.3904 54.5857 71.7519 54.2017 71.9737C53.8177 72.1955 53.1936 72.1955 52.8097 71.9737C52.4257 71.7519 52.4257 71.3904 52.8097 71.1686C53.1936 70.9467 53.8177 70.9467 54.2017 71.1686Z" fill="black"/>
<path d="M43.2497 73.2506C43.6337 73.4724 43.6337 73.8339 43.2497 74.0557C42.8658 74.2775 42.2416 74.2775 41.8577 74.0557C41.4737 73.8339 41.4737 73.4724 41.8577 73.2506C42.2431 73.0288 42.8658 73.0288 43.2497 73.2506Z" fill="black"/>
<path d="M46.8918 71.1458C47.2758 71.3677 47.2758 71.7292 46.8918 71.951C46.5079 72.1728 45.8838 72.1728 45.4998 71.951C45.1159 71.7292 45.1159 71.3677 45.4998 71.1458C45.8838 70.924 46.5064 70.924 46.8918 71.1458Z" fill="black"/>
<path d="M50.5305 69.0401C50.9145 69.2619 50.9145 69.6234 50.5305 69.8452C50.1466 70.0671 49.5225 70.0671 49.1385 69.8452C48.7546 69.6234 48.7546 69.2619 49.1385 69.0401C49.5225 68.8183 50.1451 68.8183 50.5305 69.0401Z" fill="black"/>
<path d="M39.6093 71.1458C39.9932 71.3677 39.9932 71.7292 39.6093 71.951C39.2253 72.1728 38.6012 72.1728 38.2173 71.951C37.8333 71.7292 37.8333 71.3677 38.2173 71.1458C38.6027 70.924 39.2253 70.924 39.6093 71.1458Z" fill="black"/>
<path d="M43.2497 69.0401C43.6337 69.2619 43.6337 69.6234 43.2497 69.8452C42.8658 70.0671 42.2416 70.0671 41.8577 69.8452C41.4737 69.6234 41.4737 69.2634 41.8577 69.0401C42.2431 68.8183 42.8658 68.8183 43.2497 69.0401Z" fill="black"/>
<path d="M46.8918 66.9364C47.2758 67.1582 47.2758 67.5197 46.8918 67.7415C46.5079 67.9633 45.8838 67.9633 45.4998 67.7415C45.1159 67.5197 45.1159 67.1582 45.4998 66.9364C45.8838 66.7146 46.5064 66.7146 46.8918 66.9364Z" fill="black"/>
<path d="M39.6093 66.9364C39.9932 67.1582 39.9932 67.5197 39.6093 67.7415C39.2253 67.9633 38.6012 67.9633 38.2173 67.7415C37.8333 67.5197 37.8333 67.1582 38.2173 66.9364C38.6027 66.7146 39.2253 66.7146 39.6093 66.9364Z" fill="black"/>
<path d="M43.2497 64.8322C43.6337 65.054 43.6337 65.4155 43.2497 65.6373C42.8658 65.8592 42.2416 65.8592 41.8577 65.6373C41.4737 65.4155 41.4737 65.054 41.8577 64.8322C42.2431 64.609 42.8658 64.609 43.2497 64.8322Z" fill="black"/>
<path d="M27.1619 52.5705C27.5458 52.3472 28.1685 52.3472 28.5539 52.569C28.9393 52.7908 28.9407 53.1509 28.5567 53.3741C28.1728 53.5974 27.5501 53.5974 27.1647 53.3756C26.7793 53.1538 26.7779 52.7937 27.1619 52.5705Z" fill="black"/>
<path d="M32.2003 50.4635C32.5842 50.6853 32.5842 51.0468 32.2003 51.2686C31.8163 51.4904 31.1922 51.4904 30.8083 51.2686C30.4243 51.0468 30.4243 50.6853 30.8083 50.4635C31.1922 50.2417 31.8149 50.2417 32.2003 50.4635Z" fill="black"/>
<path d="M23.5232 50.4652C23.9071 50.242 24.5298 50.242 24.9152 50.4638C25.3006 50.6856 25.302 51.0456 24.918 51.2689C24.5341 51.4921 23.9114 51.4922 23.526 51.2703C23.1406 51.0485 23.1392 50.6885 23.5232 50.4652Z" fill="black"/>
<path d="M28.5582 48.3588C28.9421 48.5806 28.9421 48.9422 28.5582 49.164C28.1742 49.3858 27.5501 49.3858 27.1662 49.164C26.7822 48.9422 26.7822 48.5806 27.1662 48.3588C27.5516 48.1356 28.1742 48.1356 28.5582 48.3588Z" fill="black"/>
<path d="M32.2003 46.2513C32.5842 46.4731 32.5842 46.8347 32.2003 47.0565C31.8163 47.2783 31.1922 47.2783 30.8083 47.0565C30.4243 46.8347 30.4243 46.4731 30.8083 46.2513C31.1922 46.0295 31.8149 46.0295 32.2003 46.2513Z" fill="black"/>
<path d="M19.852 48.3373C20.2359 48.1141 20.8586 48.114 21.244 48.3358C21.6294 48.5577 21.6308 48.9177 21.2469 49.141C20.8629 49.3642 20.2402 49.3642 19.8549 49.1424C19.4695 48.9206 19.468 48.5605 19.852 48.3373Z" fill="black"/>
<path d="M24.887 46.2303C25.2709 46.4521 25.2709 46.8136 24.887 47.0354C24.503 47.2572 23.8789 47.2572 23.495 47.0354C23.111 46.8136 23.111 46.4521 23.495 46.2303C23.8804 46.0085 24.503 46.0085 24.887 46.2303Z" fill="black"/>
<path d="M28.5291 44.1259C28.9131 44.3477 28.9131 44.7092 28.5291 44.931C28.1452 45.1529 27.5211 45.1529 27.1371 44.931C26.7532 44.7092 26.7532 44.3477 27.1371 44.1259C27.5211 43.9027 28.1437 43.9027 28.5291 44.1259Z" fill="black"/>
<path d="M16.2116 46.2333C16.5955 46.01 17.2182 46.01 17.6036 46.2318C17.989 46.4537 17.9904 46.8137 17.6065 47.037C17.2225 47.2602 16.5998 47.2602 16.2144 47.0384C15.8291 46.8166 15.8276 46.4551 16.2116 46.2333Z" fill="black"/>
<path d="M21.2483 44.1259C21.6323 44.3477 21.6323 44.7092 21.2483 44.931C20.8643 45.1529 20.2402 45.1529 19.8563 44.931C19.4723 44.7092 19.4723 44.3477 19.8563 44.1259C20.2417 43.9027 20.8643 43.9027 21.2483 44.1259Z" fill="black"/>
<path d="M8.93191 42.0233C9.31587 41.8001 9.93853 41.8001 10.3239 42.0219C10.7093 42.2437 10.7107 42.6038 10.3268 42.827C9.94284 43.0502 9.32018 43.0503 8.93479 42.8284C8.5494 42.6066 8.5494 42.2466 8.93191 42.0233Z" fill="black"/>
<path d="M63.7369 73.3029C64.1208 73.0796 64.7435 73.0796 65.1289 73.3014C65.5143 73.5233 65.5157 73.8833 65.1317 74.1066C64.7478 74.3298 64.1251 74.3298 63.7397 74.108C63.3544 73.8862 63.3529 73.5261 63.7369 73.3029Z" fill="black"/>
<path d="M68.7719 71.1959C69.1558 71.4177 69.1558 71.7792 68.7719 72.001C68.3879 72.2228 67.7638 72.2228 67.3799 72.001C66.9959 71.7792 66.9959 71.4177 67.3799 71.1959C67.7638 70.9741 68.3879 70.9741 68.7719 71.1959Z" fill="black"/>
<path d="M60.0965 71.1979C60.4804 70.9746 61.1031 70.9746 61.4885 71.1964C61.8739 71.4183 61.8753 71.7784 61.4913 72.0016C61.1074 72.2249 60.4847 72.2249 60.0993 72.0031C59.7139 71.7812 59.7125 71.4211 60.0965 71.1979Z" fill="black"/>
<path d="M65.1315 69.0905C65.5154 69.3123 65.5154 69.6738 65.1315 69.8956C64.7475 70.1175 64.1234 70.1175 63.7395 69.8956C63.3555 69.6738 63.3555 69.3123 63.7395 69.0905C64.1234 68.8673 64.7475 68.8673 65.1315 69.0905Z" fill="black"/>
<path d="M68.7719 66.9859C69.1558 67.2077 69.1558 67.5692 68.7719 67.7911C68.3879 68.0129 67.7638 68.0129 67.3799 67.7911C66.9959 67.5692 66.9959 67.2077 67.3799 66.9859C67.7638 66.7641 68.3879 66.7641 68.7719 66.9859Z" fill="black"/>
<path d="M56.4555 69.0944C56.8395 68.8711 57.4621 68.8711 57.8475 69.0929C58.2329 69.3147 58.2343 69.6748 57.8504 69.8981C57.4664 70.1213 56.8438 70.1213 56.4584 69.8995C56.073 69.6777 56.073 69.3162 56.4555 69.0944Z" fill="black"/>
<path d="M61.4928 66.9859C61.8767 67.2077 61.8767 67.5692 61.4928 67.7911C61.1088 68.0129 60.4847 68.0129 60.1008 67.7911C59.7168 67.5692 59.7168 67.2077 60.1008 66.9859C60.4847 66.7641 61.1088 66.7641 61.4928 66.9859Z" fill="black"/>
<path d="M65.1315 64.8812C65.5154 65.103 65.5154 65.4645 65.1315 65.6863C64.7475 65.9081 64.1234 65.9081 63.7395 65.6863C63.3555 65.4645 63.3555 65.103 63.7395 64.8812C64.1234 64.6594 64.7475 64.6594 65.1315 64.8812Z" fill="black"/>
</svg>
