<svg width="80" height="80" viewBox="0 0 80 80" fill="none" xmlns="http://www.w3.org/2000/svg">
<path d="M55.5991 66.7915C54.0263 60.1772 50.6019 49.9366 43.9401 46.0323C42.6638 45.2837 40.9554 44.2732 39.9793 43.7021L39.5509 39.3112C39.919 39.1287 40.3059 38.9189 40.6815 38.6756L40.7292 38.6495L40.8724 38.5465C41.8033 37.9344 42.508 37.1858 42.7806 35.8786L43.3107 33.5857L45.136 25.5449C45.2026 25.2942 45.2629 25.0384 45.3119 24.7703L45.3584 24.5667L45.3446 24.5592C45.4438 23.9509 45.5129 23.3141 45.5217 22.6226C45.6046 15.5675 40.6941 6.92964 34.5524 3.32948C31.7397 1.68086 29.432 1.28981 27.4497 2.12033L27.1734 2.20971L27.0226 2.29165C26.7915 2.39717 26.5703 2.51759 26.3568 2.65414L21.1623 5.4871L20.8834 6.05319L23.4122 7.93892C23.3393 8.46281 23.2879 9.00531 23.2803 9.58755C23.2728 10.2554 23.2703 10.7706 23.3494 11.4609L23.3884 11.6223L23.4386 12.0543C23.4876 12.4366 23.5416 12.6489 23.6157 13.0362L25.6747 25.854C26.0126 28.1333 27.2412 31.2158 28.814 33.4951L28.2901 36.9661C27.3228 36.3988 25.5867 35.2753 24.3267 34.5366C21.7238 33.0109 19.8144 32.919 18.0708 33.7595L17.8371 33.8538L17.2329 34.1865C17.2266 34.1903 17.2216 34.1928 17.2153 34.1965L12.674 36.6942L13.6928 38.318C13.1376 39.3422 12.6753 40.4111 12.3085 41.4191C11.5233 43.573 13.1602 47.2303 15.542 48.6257L33.5298 59.1679L34.3112 59.626L48.2113 67.7723C48.3947 69.4184 48.6836 71.6369 48.8369 72.7951C48.8871 73.1713 49.3042 73.3736 49.6384 73.1887L54.6997 70.4029C55.6029 69.9026 56.025 68.5829 55.5991 66.7915Z" fill="#FE5721"/>
<path d="M55.1257 69.3003C53.553 62.686 50.1285 52.4454 43.4668 48.5411C42.1904 47.7925 40.482 46.782 39.5059 46.2109L28.3657 52.2865L27.4512 45.5107L32.6067 42.3066L38.7182 41.0465L39.0637 39.2688C39.9946 38.6568 40.1466 37.9417 40.4192 36.6345L42.8361 36.0957L44.6614 28.055C44.728 27.8042 44.7883 27.5485 44.8373 27.2803L44.8838 27.0767L44.87 27.068C44.9692 26.4609 45.0396 25.8229 45.0471 25.1314C45.13 18.0751 40.2194 9.43843 34.0778 5.83827C31.2651 4.18965 28.9574 3.7986 26.9764 4.62912L26.7 4.7185L26.5492 4.80043C26.3181 4.90596 26.097 5.02638 25.8834 5.16293L20.689 7.99588L20.4101 8.56197L22.9389 10.4465C22.866 10.9704 22.8132 11.5129 22.807 12.0951C22.7994 12.763 22.7969 13.2782 22.876 13.9684L22.915 14.1298L22.9652 14.5618C23.0142 14.9442 23.0682 15.1565 23.1424 15.5438L25.2013 28.3616C25.5392 30.6409 26.7678 33.7233 28.3406 36.0026L27.8168 39.4737C26.8495 38.9063 25.1134 37.7828 23.8534 37.0442C21.2505 35.5184 19.341 35.4266 17.5974 36.267L17.3637 36.3614L16.7595 36.6941C16.7532 36.6978 16.7482 36.7003 16.7419 36.704L12.2007 39.2018L13.2195 40.8256C12.6642 41.8498 12.2019 42.9186 11.8351 43.9267C11.05 46.0806 12.6868 49.7378 15.0686 51.1332L33.0565 61.6754L33.8378 62.1335L47.7379 70.2798C47.9213 71.9259 48.155 70.2202 48.3082 71.3785C48.3585 71.7546 48.7756 71.957 49.111 71.772L52.8055 71.5101L52.9613 69.8292C53.8645 69.3289 55.5516 71.0917 55.1257 69.3003Z" fill="#FE5721"/>
<path d="M49.3708 73.729C49.2138 73.729 49.0568 73.693 48.9123 73.621C48.6108 73.472 48.4048 73.1852 48.3621 72.855C48.2151 71.7489 47.945 69.6769 47.7603 68.0569L15.2971 49.0319C12.7369 47.531 11.0008 43.6081 11.8575 41.2581C12.2344 40.2227 12.6653 39.242 13.1401 38.3357L12.0008 36.5208L17.8862 33.3216C19.8635 32.3682 21.9952 32.6214 24.5692 34.1285C25.2451 34.5258 26.0591 35.0323 26.8191 35.5065C27.2098 35.7511 27.5867 35.9857 27.9234 36.1918L28.3128 33.6071C26.794 31.3502 25.5504 28.2863 25.1999 25.9226L23.0869 12.833C23.0379 12.5971 23.0002 12.401 22.9625 12.1142L22.8821 11.568C22.7879 10.766 22.7955 10.1912 22.8018 9.58167C22.808 9.12234 22.8407 8.66052 22.9022 8.14905L20.2805 6.1938L20.7993 5.14479L26.1244 2.23859C26.328 2.107 26.5691 1.97541 26.8216 1.85995L26.9398 1.79416L27.3003 1.66877C29.3869 0.791082 31.8528 1.19579 34.7949 2.92014C41.0584 6.58981 46.0833 15.4288 45.9979 22.6254C45.9916 23.1691 45.9476 23.7241 45.8647 24.3125L45.8848 24.3249L45.7781 24.8724C45.7291 25.1356 45.6675 25.4025 45.5959 25.6657L43.2442 35.982C42.9088 37.5909 41.9415 38.4077 41.135 38.9378L41.0107 39.0285C40.6652 39.2482 40.3524 39.4257 40.0559 39.5821L40.4316 43.4157L44.1839 45.6229C50.7866 49.4937 54.2902 59.2104 56.0652 66.6814C56.5187 68.5919 56.0866 70.1748 54.9359 70.8129L49.8733 73.5986C49.7163 73.6868 49.5442 73.729 49.3708 73.729ZM13.3437 36.8671L14.2431 38.301L14.1137 38.5406C13.6087 39.4716 13.154 40.4946 12.757 41.5784C12.0472 43.5274 13.6037 46.9401 15.7845 48.2175L48.6586 67.4846L48.6849 67.7192C48.8671 69.3629 49.156 71.5763 49.3105 72.7321L54.4661 69.9885C55.2173 69.5727 55.4786 68.3598 55.1306 66.8999C53.7123 60.9298 50.3394 50.3342 43.6927 46.4386L39.5221 43.9855L39.0384 39.0322L39.3324 38.8869C39.6866 38.7131 40.056 38.512 40.4165 38.2786L40.5848 38.1644C41.5986 37.4965 42.0936 36.81 42.3071 35.7833L44.6638 25.4422C44.7328 25.1852 44.7894 24.9419 44.8371 24.6862L44.8685 24.4838C44.9766 23.8221 45.0331 23.2126 45.0394 22.6179C45.121 15.723 40.3059 7.25274 34.305 3.737C31.6443 2.17776 29.461 1.78919 27.6332 2.5564L27.2525 2.70661C27.0113 2.81834 26.8091 2.92758 26.6144 3.05297L21.484 5.91323L23.9223 7.73069L23.8834 8.00505C23.803 8.58976 23.7628 9.09502 23.7565 9.59656C23.749 10.2967 23.7489 10.7697 23.823 11.4115L23.852 11.5183L23.9123 12.0037C23.9462 12.2594 23.9826 12.4382 24.0253 12.653L24.0843 12.9534L26.1458 25.7848C26.4862 28.0803 27.7161 31.0709 29.2085 33.2334L29.314 33.3861L28.657 37.7361L28.0452 37.3773C27.5917 37.1104 26.9699 36.7244 26.3091 36.311C25.5566 35.8429 24.7514 35.3401 24.0818 34.9479C21.7792 33.5984 19.9878 33.3638 18.2781 34.1881L18.018 34.2949L13.3437 36.8671Z" fill="black"/>
<path d="M50.0233 69.8688C48.4506 63.2544 45.0261 53.0138 38.3643 49.1095C37.088 48.3609 35.3795 47.3504 34.4035 46.7794L33.9751 42.3884C35.2753 41.7466 36.8167 40.813 37.2036 38.9571L37.7337 36.6642L39.559 28.6234C39.6256 28.3726 39.6859 28.1169 39.7349 27.8488L39.7814 27.6452L39.7676 27.6377C39.8668 27.0294 39.9359 26.3925 39.9447 25.7011C40.0276 18.6448 35.117 10.0081 28.9753 6.40796C22.8337 2.80904 17.7874 5.61096 17.7045 12.666C17.697 13.3339 17.6945 13.8491 17.7736 14.5393L17.8125 14.7007L17.8628 15.1327C17.9118 15.5151 17.9658 15.7274 18.0387 16.1147L20.0976 28.9325H20.0989C20.4368 31.2118 21.6654 34.2943 23.2382 36.5735L22.7143 40.0446C21.7458 39.4772 20.0109 38.3538 18.751 37.6151C12.0716 33.7009 8.44364 39.805 6.73393 44.4964C5.94879 46.6502 7.58565 50.3075 9.96745 51.7029L27.9553 62.2451L28.7367 62.7032L46.6642 73.2095C49.0447 74.6036 50.7457 72.9041 50.0233 69.8688Z" fill="#FE5721"/>
<path d="M48.253 74.1734C47.6815 74.1734 47.0546 73.986 46.4189 73.6148L9.72097 52.1082C7.15953 50.6073 5.42468 46.6844 6.28142 44.3344C7.39444 41.2829 9.40817 37.401 12.6831 36.2377C14.6089 35.5549 16.7319 35.8814 18.9931 37.2073C19.6652 37.6021 20.4717 38.1049 21.2267 38.5754C21.6237 38.8224 22.0068 39.062 22.3447 39.2693L22.7341 36.6847C21.2154 34.4277 19.973 31.3639 19.6225 29.0002L17.5082 15.9056C17.4605 15.6709 17.4216 15.476 17.3851 15.1917L17.3048 14.6467C17.2105 13.8448 17.2181 13.2688 17.2244 12.6604C17.2671 9.07147 18.5484 6.39618 20.831 5.12867C23.1135 3.85993 26.092 4.16904 29.2175 6.00016C35.481 9.67108 40.5059 18.5101 40.4205 25.7054C40.4142 26.2454 40.3702 26.7966 40.2886 27.3801L40.3124 27.3925L40.1981 27.9537C40.1516 28.2119 40.0888 28.48 40.0197 28.742L37.6656 39.0608C37.2787 40.9229 35.8755 41.9359 34.4798 42.6609L34.8542 46.4932L38.6052 48.7005C45.2092 52.57 48.7115 62.288 50.4878 69.7589C50.9112 71.5428 50.572 73.0375 49.5821 73.7551C49.2002 74.0344 48.7467 74.1734 48.253 74.1734ZM14.7031 36.8386C14.1165 36.8386 13.5512 36.9342 13.0085 37.1266C10.084 38.1644 8.22607 41.7932 7.18215 44.6534C6.47238 46.6012 8.02755 50.0139 10.2096 51.2938L46.9076 72.8004C47.7556 73.297 48.5043 73.3653 49.0181 72.9941C49.6788 72.5149 49.8861 71.3579 49.557 69.9762C48.1387 64.0061 44.7657 53.4105 38.1178 49.5149L33.9484 47.0618L33.4648 42.1085L33.7587 41.9632C35.1067 41.2991 36.3981 40.4623 36.7322 38.8596L39.0902 28.5185C39.1567 28.264 39.2158 28.0207 39.2622 27.765L39.2949 27.5601C39.4029 26.8984 39.4595 26.2877 39.4657 25.6943C39.5474 18.7993 34.7323 10.3303 28.7314 6.8133C25.9162 5.16343 23.2793 4.85556 21.3008 5.95174C19.3273 7.04668 18.2205 9.43396 18.1816 12.6691C18.1741 13.3705 18.1741 13.8423 18.2482 14.4841L18.2771 14.5909L18.3374 15.0775C18.37 15.3308 18.4065 15.5083 18.4492 15.7206L18.5095 16.026L20.5709 28.8574C20.9114 31.1516 22.1412 34.1422 23.6323 36.3048L23.7379 36.4587L23.0821 40.8074L22.4691 40.4499C22.0118 40.1818 21.3837 39.7907 20.7167 39.3736C19.9692 38.9081 19.1715 38.4103 18.5057 38.0192C17.1641 37.2334 15.8903 36.8386 14.7031 36.8386Z" fill="black"/>
<path d="M45.5726 23.5583L45.148 18.7788L39.5678 21.8774L40.2047 25.1871L37.7099 37.1222L37.5478 37.2141L36.9097 39.7876L34.8369 42.0457L33.9739 42.3871L34.4022 46.7781L39.9761 43.7031L39.5477 39.3109L42.0652 37.8969L42.9157 35.0081L43.2134 34.0025L45.5726 23.5583Z" fill="black"/>
<path d="M48.7099 65.0502L54.0778 61.8994L55.5124 65.8385L55.7247 68.3077L55.2825 70.1972L49.6383 73.189L50.1898 70.8812L49.0818 65.9961L48.7099 65.0502Z" fill="black"/>
<path d="M74.5236 19.3342C74.5236 12.4939 69.3328 4.07571 63.2012 1.352C60.9275 0.341475 59.0469 0.244641 57.4678 1.09751L57.2769 1.1931L57.2706 1.19682C57.2568 1.20427 57.2442 1.21296 57.2304 1.22041L52.252 4.10922C52.0234 4.24206 51.9618 4.54 52.1189 4.75104L54.2092 7.54924C54.1389 12.4442 56.7643 18.1821 60.5192 22.0765V26.1918C60.5192 26.9578 61.3131 27.8169 61.8144 27.5934L65.1635 26.0938L66.3744 28.2303C66.5076 28.4649 66.8091 28.5468 67.0453 28.4115L71.5036 25.8492V25.8405C73.3653 24.8051 74.5236 22.5582 74.5236 19.3342Z" fill="#FE5721"/>
<path d="M74.0451 21.7553C74.0451 14.915 68.8543 6.49685 62.7227 3.77314C60.449 2.76262 58.5684 2.66578 56.9893 3.51865L56.7984 3.61424L56.7921 3.61796C56.7783 3.62541 56.7657 3.6341 56.7519 3.64155L51.7735 6.53036C51.5449 6.6632 51.4833 6.96114 51.6404 7.17219L53.7307 9.97037C53.6604 14.8653 56.2859 20.6032 60.0407 24.4976V28.6117C60.0407 29.3789 62.7755 27.6819 63.2767 27.4572L64.685 28.5137L66.0191 27.2648L69.1433 27.2052V25.3915C71.0038 24.3561 74.0451 24.9781 74.0451 21.7553Z" fill="#FE5721"/>
<path d="M66.8003 28.9495C66.7148 28.9495 66.6282 28.9383 66.544 28.916C66.2928 28.8477 66.083 28.6863 65.9561 28.4616L64.9599 26.7038L62.0103 28.0246C61.7013 28.1624 61.342 28.1177 60.9965 27.898C60.5217 27.5951 60.0393 26.9123 60.0393 26.1923V22.2644C56.1752 18.1863 53.7154 12.5092 53.728 7.70363L51.7319 5.03206C51.5761 4.8235 51.5183 4.55783 51.5698 4.30458C51.6239 4.05133 51.7834 3.8316 52.0083 3.70125L57.2505 0.675873C58.9451 -0.239063 60.9601 -0.16085 63.3959 0.920438C69.5778 3.66773 74.9996 12.2721 74.9996 19.3346C74.9996 22.4953 73.9293 24.8863 71.9797 26.1079V26.1116L71.7423 26.2568L67.2826 28.8192C67.1344 28.9061 66.9686 28.9495 66.8003 28.9495ZM65.3657 25.4834L66.7902 27.9998L71.2686 25.43C73.0588 24.4332 74.0437 22.2694 74.0437 19.3359C74.0437 12.5986 68.8856 4.39769 63.0052 1.78447C60.8608 0.832295 59.1235 0.741673 57.6964 1.51384L57.4929 1.61564L52.4919 4.51811L54.6878 7.39823L54.6853 7.55714C54.62 12.1455 57.1035 17.8499 60.8634 21.7517L60.9953 21.8895V26.1935C60.9953 26.6752 61.4676 27.1556 61.6385 27.1581L65.3657 25.4834Z" fill="black"/>
<path d="M69.6213 22.1507C69.6213 15.3104 64.4306 6.89229 58.299 4.16859C53.7314 2.13885 49.9853 4.17852 49.3873 9.03624C48.753 14.1857 51.5167 20.6399 55.617 24.8931V29.0072C55.617 29.7731 56.4109 30.6335 56.9121 30.4088L60.878 28.6323C65.8162 30.6608 69.6213 28.0041 69.6213 22.1507Z" fill="#FE5721"/>
<path d="M56.7373 30.9185C56.5275 30.9185 56.3089 30.849 56.0941 30.7137C55.6192 30.4108 55.1394 29.728 55.1394 29.008V25.0813C50.8544 20.5575 48.298 13.9643 48.9123 8.97993C49.2188 6.49955 50.3431 4.59891 52.0817 3.63059C53.8455 2.64738 56.123 2.68462 58.4947 3.7386C64.6766 6.48465 70.0985 15.089 70.0985 22.1515C70.0985 25.2427 69.0621 27.6287 67.1815 28.8689C65.4994 29.9763 63.2734 30.0731 60.8891 29.147L57.1116 30.8391C56.9923 30.8925 56.8667 30.9185 56.7373 30.9185ZM54.9459 3.86398C54.0666 3.86398 53.2551 4.06013 52.5516 4.45242C51.0856 5.26928 50.1296 6.91791 49.8608 9.0929C49.2728 13.8675 51.7827 20.2298 55.9634 24.5661L56.0954 24.7039V29.008C56.0954 29.4909 56.5677 29.9713 56.7373 29.9726L60.869 28.1179L61.0612 28.1961C63.2144 29.0812 65.2017 29.039 66.6514 28.0819C68.2581 27.0217 69.1425 24.9162 69.1425 22.1503C69.1425 15.413 63.9844 7.21088 58.1041 4.59891C57.0011 4.10978 55.9295 3.86398 54.9459 3.86398Z" fill="black"/>
<path d="M68.7383 16.918L73.6703 14.0825L74.5207 16.6026V20.857L74.0434 23.1164L70.4292 26.6346L67.5198 28.0002L69.6202 23.798V19.3338L68.7383 16.918Z" fill="black"/>
<path d="M56.6201 16.3019C56.6201 17.4142 55.8299 17.8648 54.8551 17.3087C53.8803 16.7525 53.0901 15.4006 53.0901 14.2883C53.0901 13.176 53.8803 12.7253 54.8551 13.2815C55.8299 13.8376 56.6201 15.1896 56.6201 16.3019Z" fill="#FE5721"/>
<path d="M55.0454 16.6421C54.7477 16.6421 54.4248 16.5477 54.0969 16.3602C53.0178 15.7457 52.1724 14.2995 52.1724 13.068C52.1724 12.4125 52.4124 11.9147 52.8483 11.6664C53.2867 11.4181 53.8407 11.4615 54.4148 11.7893C55.4939 12.4038 56.338 13.8513 56.338 15.0828C56.338 15.7383 56.0981 16.2361 55.6622 16.4844C55.4763 16.5887 55.269 16.6421 55.0454 16.6421ZM53.4676 12.1381C53.3558 12.1381 53.254 12.1617 53.1686 12.2114C52.9412 12.3405 52.8106 12.6533 52.8106 13.068C52.8106 14.0611 53.5454 15.3187 54.416 15.8153C54.7791 16.0238 55.1145 16.0673 55.3444 15.9382C55.5705 15.8078 55.7011 15.4962 55.7011 15.0816C55.7011 14.0884 54.9662 12.8309 54.0969 12.3343C53.8708 12.2039 53.6535 12.1381 53.4676 12.1381Z" fill="black"/>
<path d="M61.5194 19.0992C61.5194 20.2116 60.7293 20.6622 59.7544 20.1061C58.7796 19.5499 57.9894 18.198 57.9894 17.0856C57.9894 15.9733 58.7796 15.5227 59.7544 16.0788C60.7293 16.6338 61.5194 17.9869 61.5194 19.0992Z" fill="#FE5721"/>
<path d="M59.9465 19.4385C59.6487 19.4385 59.3259 19.3441 58.998 19.1567C57.9189 18.5422 57.0735 17.0959 57.0735 15.8632C57.0735 15.2077 57.3134 14.7099 57.7493 14.4616C58.1877 14.2121 58.743 14.2567 59.3158 14.5845C60.3949 15.199 61.2391 16.6465 61.2391 17.8768C61.2391 18.5322 60.9992 19.0301 60.5633 19.2783C60.3773 19.3864 60.1688 19.4385 59.9465 19.4385ZM58.3686 14.9346C58.2568 14.9346 58.1551 14.9582 58.0696 15.0078C57.8423 15.1369 57.7116 15.4485 57.7116 15.8644C57.7116 16.8575 58.4465 18.1164 59.3171 18.6117C59.6801 18.8203 60.0168 18.8637 60.2454 18.7346C60.4715 18.6042 60.6034 18.2926 60.6034 17.878C60.6034 16.8849 59.8686 15.6273 58.9993 15.1307C58.7719 15.0004 58.5545 14.9346 58.3686 14.9346Z" fill="black"/>
<path d="M66.4234 21.8949C66.4234 23.0072 65.6332 23.4579 64.6584 22.9017C63.6836 22.3455 62.8934 20.9936 62.8934 19.8813C62.8934 18.769 63.6836 18.3183 64.6584 18.8745C65.6345 19.4307 66.4234 20.7838 66.4234 21.8949Z" fill="#FE5721"/>
<path d="M64.8504 22.2351C64.5527 22.2351 64.2298 22.1407 63.9019 21.9533C62.8228 21.3388 61.9774 19.8925 61.9774 18.661C61.9774 18.0055 62.2173 17.5077 62.6533 17.2594C63.0917 17.0111 63.6469 17.0546 64.2198 17.3823C65.2989 17.9968 66.143 19.4443 66.143 20.6746C66.143 21.3301 65.9031 21.8279 65.4659 22.0762C65.2813 22.1829 65.0727 22.2351 64.8504 22.2351ZM63.2713 17.7311C63.1595 17.7311 63.0578 17.7547 62.9723 17.8044C62.7462 17.9335 62.6143 18.2451 62.6143 18.661C62.6143 19.6541 63.3492 20.9117 64.2198 21.4083C64.5828 21.6168 64.9195 21.6603 65.1481 21.5312C65.3742 21.4008 65.5061 21.0892 65.5061 20.6746C65.5061 19.6814 64.7712 18.4239 63.9019 17.9273C63.6758 17.7969 63.4585 17.7311 63.2713 17.7311Z" fill="black"/>
<path d="M42.5536 76.7408C42.899 76.9382 42.899 77.2585 42.5536 77.4559C42.2081 77.6533 41.6466 77.6533 41.3011 77.4559C40.9556 77.2585 40.9556 76.9382 41.3011 76.7408C41.6466 76.5434 42.2069 76.5434 42.5536 76.7408Z" fill="black"/>
<path d="M45.8279 74.8739C46.1733 75.0713 46.1733 75.3915 45.8279 75.5889C45.4824 75.7863 44.9221 75.7863 44.5754 75.5889C44.2299 75.3915 44.2299 75.0713 44.5754 74.8739C44.9221 74.6765 45.4824 74.6765 45.8279 74.8739Z" fill="black"/>
<path d="M39.2809 74.8739C39.6264 75.0713 39.6264 75.3915 39.2809 75.5889C38.9355 75.7863 38.3752 75.7863 38.0285 75.5889C37.683 75.3915 37.683 75.0713 38.0285 74.8739C38.374 74.6765 38.9342 74.6765 39.2809 74.8739Z" fill="black"/>
<path d="M42.5536 73.0055C42.899 73.2029 42.899 73.5231 42.5536 73.7193C42.2081 73.9167 41.6466 73.9167 41.3011 73.7193C40.9556 73.5219 40.9556 73.2029 41.3011 73.0055C41.6466 72.8081 42.2069 72.8081 42.5536 73.0055Z" fill="black"/>
<path d="M36.0067 73.0055C36.3521 73.2029 36.3521 73.5231 36.0067 73.7193C35.6612 73.9167 35.0997 73.9167 34.7542 73.7193C34.4088 73.5219 34.4088 73.2029 34.7542 73.0055C35.1009 72.8081 35.6612 72.8081 36.0067 73.0055Z" fill="black"/>
<path d="M39.2809 71.1373C39.6264 71.3347 39.6264 71.655 39.2809 71.8524C38.9355 72.0498 38.3752 72.0498 38.0285 71.8524C37.683 71.655 37.683 71.3347 38.0285 71.1373C38.374 70.9399 38.9342 70.9399 39.2809 71.1373Z" fill="black"/>
<path d="M32.7324 71.1373C33.0778 71.3347 33.0778 71.6537 32.7324 71.8524C32.3869 72.0498 31.8254 72.0498 31.4799 71.8524C31.1344 71.655 31.1344 71.3347 31.4799 71.1373C31.8254 70.9399 32.3869 70.9399 32.7324 71.1373Z" fill="black"/>
<path d="M36.0067 69.2701C36.3521 69.4675 36.3521 69.7878 36.0067 69.9839C35.6612 70.1813 35.0997 70.1813 34.7542 69.9839C34.4088 69.7865 34.4088 69.4663 34.7542 69.2701C35.1009 69.0727 35.6612 69.0727 36.0067 69.2701Z" fill="black"/>
<path d="M29.458 69.2701C29.8035 69.4675 29.8035 69.7878 29.458 69.9839C29.1126 70.1813 28.5511 70.1813 28.2056 69.9839C27.8602 69.7865 27.8602 69.4663 28.2056 69.2701C28.5511 69.0727 29.1126 69.0727 29.458 69.2701Z" fill="black"/>
<path d="M32.7324 67.4024C33.0778 67.5998 33.0778 67.9201 32.7324 68.1175C32.3869 68.3149 31.8266 68.3149 31.4799 68.1175C31.1344 67.9201 31.1344 67.5998 31.4799 67.4024C31.8266 67.205 32.3869 67.205 32.7324 67.4024Z" fill="black"/>
<path d="M26.1564 67.3814C26.5019 67.5788 26.5019 67.8991 26.1564 68.0953C25.811 68.2927 25.2507 68.2927 24.904 68.0953C24.5585 67.8979 24.5585 67.5776 24.904 67.3814C25.2507 67.1841 25.811 67.1841 26.1564 67.3814Z" fill="black"/>
<path d="M29.4307 65.5135C29.7762 65.7109 29.7762 66.0312 29.4307 66.2273C29.0853 66.4247 28.525 66.4247 28.1783 66.2273C27.8328 66.03 27.8328 65.7097 28.1783 65.5135C28.525 65.3161 29.0853 65.3161 29.4307 65.5135Z" fill="black"/>
<path d="M22.8821 65.5135C23.2276 65.7109 23.2276 66.0312 22.8821 66.2273C22.5367 66.4247 21.9751 66.4247 21.6297 66.2273C21.2842 66.03 21.2842 65.7109 21.6297 65.5135C21.9751 65.3161 22.5367 65.3161 22.8821 65.5135Z" fill="black"/>
<path d="M26.1564 63.6466C26.5019 63.844 26.5019 64.1642 26.1564 64.3616C25.811 64.559 25.2507 64.559 24.904 64.3616C24.5585 64.1642 24.5585 63.844 24.904 63.6466C25.2507 63.4492 25.811 63.4492 26.1564 63.6466Z" fill="black"/>
<path d="M19.6095 63.6466C19.955 63.844 19.955 64.1642 19.6095 64.3616C19.264 64.559 18.7025 64.559 18.3571 64.3616C18.0116 64.1642 18.0116 63.844 18.3571 63.6466C18.7025 63.4492 19.2628 63.4492 19.6095 63.6466Z" fill="black"/>
<path d="M22.8821 61.7779C23.2276 61.9753 23.2276 62.2956 22.8821 62.493C22.5367 62.6904 21.9764 62.6904 21.6297 62.493C21.2842 62.2956 21.2842 61.9753 21.6297 61.7779C21.9751 61.5805 22.5367 61.5805 22.8821 61.7779Z" fill="black"/>
<path d="M16.3335 61.7779C16.679 61.9753 16.679 62.2956 16.3335 62.493C15.9881 62.6904 15.4265 62.6904 15.0811 62.493C14.7356 62.2956 14.7356 61.9753 15.0811 61.7779C15.4278 61.5805 15.9881 61.5805 16.3335 61.7779Z" fill="black"/>
<path d="M19.6095 59.91C19.955 60.1074 19.955 60.4277 19.6095 60.6251C19.264 60.8225 18.7025 60.8225 18.3571 60.6251C18.0116 60.4277 18.0116 60.1086 18.3571 59.91C18.7025 59.7126 19.2628 59.7126 19.6095 59.91Z" fill="black"/>
<path d="M13.0592 59.91C13.4047 60.1074 13.4047 60.4277 13.0592 60.6251C12.7138 60.8225 12.1522 60.8225 11.8068 60.6251C11.4613 60.4277 11.4613 60.1074 11.8068 59.91C12.1535 59.7126 12.7138 59.7126 13.0592 59.91Z" fill="black"/>
<path d="M16.3335 58.0426C16.679 58.24 16.679 58.5602 16.3335 58.7576C15.9881 58.955 15.4278 58.955 15.0811 58.7576C14.7356 58.5602 14.7356 58.24 15.0811 58.0426C15.4278 57.8452 15.9881 57.8452 16.3335 58.0426Z" fill="black"/>
<path d="M9.78659 58.0426C10.1321 58.24 10.1321 58.5602 9.78659 58.7576C9.44113 58.955 8.87963 58.955 8.53417 58.7576C8.1887 58.5602 8.1887 58.24 8.53417 58.0426C8.87963 57.8452 9.44113 57.8452 9.78659 58.0426Z" fill="black"/>
<path d="M13.0592 56.1734C13.4047 56.3708 13.4047 56.6911 13.0592 56.8873C12.7138 57.0846 12.1522 57.0846 11.8068 56.8873C11.4613 56.6899 11.4613 56.3696 11.8068 56.1734C12.1535 55.976 12.7138 55.976 13.0592 56.1734Z" fill="black"/>
<path d="M6.51232 56.1734C6.85778 56.3708 6.85778 56.6911 6.51232 56.8873C6.16686 57.0846 5.60532 57.0846 5.25986 56.8873C4.9144 56.6899 4.9144 56.3696 5.25986 56.1734C5.60532 55.976 6.16561 55.976 6.51232 56.1734Z" fill="black"/>
<path d="M9.78659 54.3053C10.1321 54.5027 10.1321 54.8229 9.78659 55.0203C9.44113 55.2177 8.88088 55.2177 8.53417 55.0203C8.1887 54.8229 8.1887 54.5027 8.53417 54.3053C8.88088 54.1079 9.44113 54.1079 9.78659 54.3053Z" fill="black"/>
<path d="M6.51243 52.4376C6.85789 52.635 6.85789 52.9553 6.51243 53.1527C6.16697 53.3501 5.60543 53.3501 5.25997 53.1527C4.9145 52.9553 4.9145 52.635 5.25997 52.4376C5.60543 52.2415 6.16571 52.2415 6.51243 52.4376Z" fill="black"/>
<path d="M52.5046 78.3097C52.8501 78.507 52.8501 78.8273 52.5046 79.0247C52.1592 79.2221 51.5989 79.2221 51.2522 79.0247C50.9067 78.8273 50.9067 78.507 51.2522 78.3097C51.5989 78.1123 52.1592 78.1123 52.5046 78.3097Z" fill="black"/>
<path d="M55.7789 76.4425C56.1244 76.6399 56.1244 76.9601 55.7789 77.1563C55.4335 77.3537 54.8732 77.3537 54.5265 77.1563C54.181 76.9589 54.181 76.6386 54.5265 76.4425C54.872 76.2451 55.4335 76.2451 55.7789 76.4425Z" fill="black"/>
<path d="M59.0532 74.5743C59.3987 74.7717 59.3987 75.092 59.0532 75.2881C58.7078 75.4855 58.1475 75.4855 57.8008 75.2881C57.4553 75.0907 57.4553 74.7705 57.8008 74.5743C58.1462 74.3769 58.7078 74.3769 59.0532 74.5743Z" fill="black"/>
<path d="M45.956 78.3097C46.3015 78.507 46.3015 78.8261 45.956 79.0247C45.6105 79.2221 45.0503 79.2221 44.7036 79.0247C44.3581 78.8273 44.3581 78.507 44.7036 78.3097C45.049 78.1123 45.6105 78.1123 45.956 78.3097Z" fill="black"/>
<path d="M49.2303 76.4425C49.5758 76.6399 49.5758 76.9601 49.2303 77.1563C48.8849 77.3537 48.3233 77.3537 47.9779 77.1563C47.6324 76.9589 47.6324 76.6386 47.9779 76.4425C48.3246 76.2451 48.8849 76.2451 49.2303 76.4425Z" fill="black"/>
<path d="M52.5046 74.5743C52.8501 74.7717 52.8501 75.092 52.5046 75.2881C52.1592 75.4855 51.5989 75.4855 51.2522 75.2881C50.9067 75.0907 50.9067 74.7717 51.2522 74.5743C51.5989 74.3769 52.1592 74.3769 52.5046 74.5743Z" fill="black"/>
<path d="M55.7789 72.7059C56.1244 72.9033 56.1244 73.2236 55.7789 73.421C55.4335 73.6184 54.8732 73.6184 54.5265 73.421C54.181 73.2236 54.181 72.9033 54.5265 72.7059C54.872 72.5085 55.4335 72.5085 55.7789 72.7059Z" fill="black"/>
<path d="M59.0532 70.838C59.3987 71.0354 59.3987 71.3557 59.0532 71.5531C58.7078 71.7505 58.1475 71.7505 57.8008 71.5531C57.4553 71.3557 57.4553 71.0354 57.8008 70.838C58.1462 70.6419 58.7078 70.6419 59.0532 70.838Z" fill="black"/>
</svg>
