<svg width="500" height="456" viewBox="0 0 500 456" fill="none" xmlns="http://www.w3.org/2000/svg">
<ellipse cx="272.391" cy="228" rx="227.609" ry="228" fill="url(#paint0_linear_19_155)"/>
<path d="M246.824 284.795L234.764 272.361C258.665 246.027 270.542 216.581 267.353 191.571C264.796 171.525 252.848 154.507 231.841 140.99C176.799 105.582 111.474 185.745 110.819 186.561L98.0679 174.932C101.103 171.14 173.178 82.5541 240.369 125.777C265.617 142.02 280.671 163.995 283.901 189.341C287.787 219.763 274.269 254.557 246.824 284.795Z" fill="#FE5721"/>
<path d="M112.743 195.22C113.062 194.823 128.671 175.699 150.931 160.196L135.628 149.436C115.07 165.052 101.28 181.976 99.9927 183.584L112.743 195.22Z" fill="#FE5721"/>
<path d="M263.443 239.306C257.909 253.348 248.873 267.586 236.69 281.014L248.749 293.447C261.5 279.399 271.197 264.368 277.588 249.249L263.443 239.306Z" fill="#FE5721"/>
<path d="M246.893 289.117L230.711 272.43L232.577 270.372C255.894 244.676 267.499 216.088 264.422 191.948C261.977 172.806 250.484 156.498 230.245 143.485C177.488 109.531 113.752 187.63 113.12 188.422L111.147 190.871L94.0265 175.249L95.7628 173.084C98.8633 169.21 172.604 78.6717 241.962 123.284C267.965 140.018 283.48 162.727 286.828 188.961C290.821 220.246 277.031 255.897 249.007 286.781L246.893 289.117ZM238.802 272.276L246.734 280.457C272.188 251.425 284.643 218.495 280.97 189.712C277.852 165.264 263.258 144.011 238.773 128.259C178.698 89.6208 113.864 160.834 102.135 174.646L110.545 182.318C122.209 168.938 181.846 105.32 233.428 138.504C255.209 152.511 267.605 170.239 270.274 191.197C273.493 216.401 262.042 245.824 238.802 272.276Z" fill="black"/>
<path d="M240.568 309.157C249.704 292.28 256.349 279.042 256.349 279.042C256.349 279.042 241.336 267.649 233.652 263.556H233.647C226.359 258.788 215.864 258.895 203.881 265.011C179.88 277.256 159.747 307.24 157.993 334.107C157.237 345.701 160.904 352.982 165.67 359.761C165.67 359.761 178.309 377.613 191.526 379.713C197.078 380.595 209.397 362.979 221.823 342.246C230.056 332.474 236.7 320.851 240.568 309.157Z" fill="#FE5721"/>
<path d="M229.651 277.019C222.358 272.251 211.863 272.352 199.88 278.468C184.708 286.211 171.095 301.041 162.685 317.692C170.711 322.46 183.202 331.936 183.202 331.936C183.202 331.936 186.639 344.21 177.509 361.086C176.877 362.991 181.271 373.283 180.497 375.176C181.401 376.152 184.767 375.708 185.493 376.744C192.344 381.919 180.68 379.228 193.891 381.328C199.443 382.209 205.402 376.43 217.828 355.697C226.055 345.931 232.699 334.308 236.567 322.613C245.703 305.737 252.348 292.499 252.348 292.499C252.348 292.499 237.335 281.106 229.651 277.019Z" fill="#FE5721"/>
<path d="M191.972 382.699C191.659 382.699 191.358 382.676 191.069 382.628C176.369 380.292 163.128 361.263 163.034 361.073C158.504 354.697 154.216 346.676 155.049 333.911C156.874 306.009 177.291 275.25 202.544 262.366C215.118 255.942 226.74 255.493 235.268 261.071C242.845 265.093 257.515 276.202 258.136 276.675L260.096 278.16L258.992 280.36C258.927 280.49 252.283 293.717 243.288 310.327C239.349 322.116 232.54 334.118 224.088 344.138C204.404 377.044 196.591 382.699 191.972 382.699ZM221.525 263.147C216.594 263.147 211.072 264.661 205.219 267.643C182.057 279.461 162.609 308.742 160.937 334.301C160.264 344.629 163.306 351.266 168.083 358.057C168.201 358.222 180.137 374.915 191.984 376.79C192.534 376.772 198.363 375.631 219.293 340.719C227.602 330.799 234.063 319.401 237.755 308.233L237.961 307.754C244.818 295.083 250.316 284.377 252.584 279.923C248.291 276.734 238.026 269.24 232.256 266.176C229.162 264.147 225.535 263.147 221.525 263.147Z" fill="black"/>
<path d="M265.979 306.329C264.225 333.196 243.353 364.901 219.346 377.152C195.345 389.396 177.308 377.542 179.056 350.681C180.81 323.814 201.682 292.109 225.683 279.858C249.696 267.614 267.733 279.468 265.979 306.329Z" fill="black"/>
<path d="M201.61 384.959C196.507 384.959 191.871 383.652 187.896 381.037C179.386 375.424 175.199 364.575 176.114 350.491C177.927 322.743 199.566 289.872 224.347 277.225C236.956 270.784 248.602 270.346 257.142 275.977C265.659 281.591 269.84 292.439 268.924 306.523C267.117 334.271 245.478 367.142 220.692 379.789C213.941 383.232 207.474 384.959 201.61 384.959ZM243.411 277.977C238.492 277.977 232.934 279.485 227.034 282.496C203.901 294.303 183.703 324.979 182.014 350.876C181.24 362.747 184.489 371.703 191.151 376.104C197.836 380.505 207.374 379.949 218.016 374.524C241.155 362.718 261.353 332.041 263.036 306.145C263.81 294.273 260.568 285.311 253.9 280.916C250.918 278.953 247.368 277.977 243.411 277.977Z" fill="black"/>
<path d="M214.204 378.486C210.034 378.486 206.231 377.416 202.971 375.268C196.014 370.678 192.594 361.859 193.338 350.442C194.791 328.189 212.137 301.837 232.01 291.698C242.233 286.469 251.706 286.138 258.686 290.74C265.644 295.33 269.069 304.15 268.325 315.566C266.872 337.819 249.521 364.165 229.653 374.31C224.202 377.096 218.964 378.486 214.204 378.486ZM247.43 293.443C243.615 293.443 239.292 294.62 234.691 296.969C216.466 306.268 200.561 330.425 199.232 350.821C198.63 360.031 201.11 366.958 206.225 370.323C211.351 373.713 218.722 373.245 226.972 369.04C245.192 359.741 261.102 335.577 262.431 315.188C263.033 305.978 260.547 299.051 255.438 295.679C253.17 294.183 250.466 293.443 247.43 293.443Z" fill="#FE5721"/>
<path d="M106.015 207.989C115.151 191.113 121.795 177.874 121.795 177.874C121.795 177.874 106.783 166.482 99.0993 162.394C91.8114 157.626 81.3109 157.733 69.3279 163.843C45.3266 176.088 25.1936 206.072 23.4395 232.939C22.6836 244.533 26.3511 251.814 31.1171 258.593C31.1171 258.593 44.3285 277.687 59.3884 279.58C64.9576 280.278 74.8499 261.811 87.2758 241.078C95.5026 231.306 102.147 219.683 106.015 207.989Z" fill="#FE5721"/>
<path d="M97.148 173.289C89.8602 168.521 79.3596 168.627 67.3767 174.738C48.726 184.255 32.4495 204.491 25.2858 225.65C25.3684 225.703 25.457 225.733 25.5397 225.786C33.2232 229.879 48.2359 241.272 48.2359 241.272C48.2359 241.272 54.2303 248.045 46.1216 263.146C46.3991 263.501 47.5685 266.074 47.8224 266.429C47.8224 266.429 42.6312 270.162 57.6911 272.055C63.2662 272.753 72.9046 272.711 85.3305 251.979C93.5573 242.218 100.195 230.589 104.07 218.895C113.206 202.019 119.85 188.781 119.85 188.781C119.85 188.781 104.832 177.376 97.148 173.289Z" fill="#FE5721"/>
<path d="M59.7176 282.55C59.4873 282.55 59.2569 282.533 59.0266 282.503C42.8446 280.474 29.2671 261.096 28.6942 260.274C23.9518 253.524 19.6642 245.503 20.491 232.744C22.3159 204.842 42.7324 174.089 67.9857 161.2C80.5593 154.782 92.182 154.321 100.71 159.904C108.287 163.927 122.957 175.036 123.577 175.509L125.538 176.993L124.434 179.194C124.369 179.324 117.725 192.55 108.73 209.16C104.791 220.949 97.9816 232.945 89.5303 242.972C87.9889 245.61 86.2289 248.585 84.5339 251.466C72.2793 272.216 65.8892 282.55 59.7176 282.55ZM86.9731 161.981C82.0358 161.981 76.5138 163.495 70.6671 166.476C47.5044 178.295 28.0564 207.575 26.3851 233.135C25.7118 243.463 28.7533 250.099 33.5311 256.896C33.6669 257.091 46.1991 274.949 59.753 276.647C63.0367 276.245 72.1376 260.841 79.449 248.467C81.1499 245.58 82.9157 242.593 84.7406 239.553C93.0502 229.633 99.5112 218.234 103.202 207.066L103.409 206.587C110.266 193.917 115.764 183.21 118.032 178.756C113.738 175.568 103.474 168.073 97.704 165.009C94.6093 162.98 90.9831 161.981 86.9731 161.981Z" fill="black"/>
<path d="M131.428 205.164C129.68 232.03 108.803 263.742 84.8017 275.986C60.8004 288.231 42.7639 276.377 44.518 249.516C46.2661 222.649 67.1433 190.943 91.1446 178.693C115.146 166.443 133.182 178.297 131.428 205.164Z" fill="black"/>
<path d="M67.0546 283.789C61.9578 283.789 57.3099 282.482 53.3471 279.867C44.8309 274.254 40.6495 263.4 41.5649 249.321C43.3721 221.573 65.0052 188.708 89.7979 176.056C102.407 169.62 114.053 169.182 122.593 174.807C131.109 180.421 135.291 191.269 134.375 205.354C132.568 233.108 110.929 265.973 86.1422 278.619C79.3918 282.062 72.9191 283.789 67.0546 283.789ZM108.856 176.807C103.937 176.807 98.3791 178.315 92.4792 181.326C69.3401 193.133 49.1421 223.809 47.4589 249.706C46.6853 261.578 49.9276 270.539 56.5894 274.934C63.2748 279.335 72.8127 278.779 83.455 273.355C106.594 261.548 126.792 230.872 128.475 204.975C129.249 193.103 126.007 184.147 119.339 179.747C116.368 177.783 112.819 176.807 108.856 176.807Z" fill="black"/>
<path d="M77.2801 257.637C74.398 257.637 71.7522 256.891 69.4844 255.389C64.683 252.224 62.3146 246.214 62.8166 238.483C63.7911 223.595 74.959 206.624 88.2472 199.851C95.1688 196.314 101.648 196.113 106.455 199.295C111.256 202.46 113.625 208.47 113.123 216.201C112.154 231.083 100.98 248.048 87.6921 254.833C84.0304 256.702 80.5046 257.637 77.2801 257.637ZM98.6297 202.962C96.35 202.962 93.7338 203.684 90.9285 205.116C79.5125 210.942 69.5434 226.079 68.7107 238.862C68.3504 244.387 69.7796 248.504 72.7325 250.45C75.6914 252.408 80.0558 252.094 85.0108 249.568C96.4327 243.736 106.402 228.599 107.229 215.822C107.589 210.297 106.16 206.18 103.207 204.234C101.919 203.388 100.372 202.962 98.6297 202.962Z" fill="#FE5721"/>
<path d="M60.5452 349.136C58.2891 350.916 55.094 350.396 53.399 347.977L38.0675 326.037C23.6691 305.434 30.9097 281.886 38.6463 268.855C40.2527 266.152 43.7608 265.631 46.1113 267.666L46.1467 267.695C48.1488 269.429 48.6685 272.475 47.3102 274.776C42.5619 282.838 33.9393 301.998 46.2353 319.59L61.5669 341.529C63.2619 343.954 62.8012 347.356 60.5452 349.136Z" fill="#FE5721"/>
<path d="M57.5513 353.151C57.1733 353.151 56.7895 353.122 56.3997 353.063C54.2087 352.737 52.2892 351.537 50.984 349.667L35.6525 327.734C21.5435 307.545 26.6402 283.299 36.1132 267.345C37.318 265.317 39.3141 263.938 41.6056 263.566C43.9147 263.199 46.2593 263.879 48.0547 265.429C51.1612 268.12 51.9289 272.775 49.8619 276.277C45.6924 283.346 37.2353 301.541 48.6631 317.891L63.9946 339.83C66.5695 343.51 65.8432 348.721 62.3823 351.454C60.9708 352.566 59.2876 353.151 57.5513 353.151ZM42.8458 269.386C42.7454 269.386 42.645 269.392 42.5446 269.41C41.9776 269.504 41.4993 269.842 41.1863 270.368C32.6582 284.742 27.9926 306.463 40.4894 324.338L55.8209 346.278C56.1812 346.798 56.695 347.136 57.2619 347.212C57.634 347.283 58.1773 347.236 58.7207 346.816C59.7483 346.006 59.9432 344.367 59.1519 343.237L43.8203 321.298C30.4258 302.133 40.0228 281.335 44.7711 273.284C45.3971 272.22 45.155 270.753 44.2219 269.942C43.7967 269.57 43.3242 269.386 42.8458 269.386Z" fill="black"/>
<path d="M72.4148 338.962C71.712 349.486 63.125 357.323 53.2446 356.471C43.3641 355.62 35.9227 346.398 36.6314 335.875C37.3401 325.352 45.9213 317.514 55.8018 318.366C65.6822 319.218 73.1235 328.439 72.4148 338.962Z" fill="black"/>
<path d="M62.9223 334.748C62.4617 341.616 56.8629 346.732 50.4138 346.176C43.9646 345.62 39.11 339.605 39.5707 332.737C40.0313 325.869 45.6359 320.753 52.0792 321.309C58.5284 321.859 63.383 327.881 62.9223 334.748Z" fill="#FE5721"/>
<path d="M54.7086 359.494C54.1358 359.494 53.563 359.471 52.9842 359.418C41.5268 358.43 32.8689 347.776 33.678 335.674C34.0855 329.575 36.7785 324.092 41.2551 320.247C45.4188 316.668 50.6573 314.911 56.0493 315.42C67.5066 316.414 76.1646 327.061 75.3555 339.164C74.948 345.262 72.255 350.746 67.7783 354.591C64.0695 357.785 59.4806 359.494 54.7086 359.494ZM54.3484 321.258C50.988 321.258 47.7457 322.471 45.1116 324.737C41.8457 327.546 39.885 331.569 39.5838 336.07C38.9814 344.984 45.2298 352.81 53.5039 353.526C57.3131 353.869 60.9984 352.639 63.9454 350.101C67.2114 347.291 69.172 343.269 69.4732 338.768C70.0756 329.859 63.8273 322.027 55.5532 321.312C55.1457 321.276 54.7441 321.258 54.3484 321.258Z" fill="black"/>
<path d="M62.9342 334.743C63.0228 333.371 62.8515 332.052 62.5503 330.786C60.69 329.006 58.3217 327.799 55.6463 327.568C49.1972 327.012 43.5925 332.129 43.1378 338.997C43.0433 340.369 43.2205 341.688 43.5217 342.954C45.382 344.734 47.7502 345.941 50.4256 346.172C56.8747 346.728 62.4735 341.611 62.9342 334.743Z" fill="#FE5721"/>
<path d="M66.8211 389.686C68.398 390.597 68.398 392.081 66.8211 392.992C65.2443 393.903 62.6811 393.903 61.1043 392.992C59.5274 392.081 59.5274 390.597 61.1043 389.686C62.6811 388.775 65.2443 388.775 66.8211 389.686Z" fill="black"/>
<path d="M81.7672 381.042C83.344 381.953 83.344 383.438 81.7672 384.349C80.1903 385.26 77.6272 385.26 76.0503 384.349C74.4735 383.438 74.4735 381.959 76.0503 381.042C77.6331 380.132 80.1903 380.132 81.7672 381.042Z" fill="black"/>
<path d="M36.9253 389.686C38.5021 390.597 38.5021 392.082 36.9253 392.992C35.3484 393.903 32.7853 393.903 31.2084 392.992C29.6315 392.082 29.6315 390.597 31.2084 389.686C32.7853 388.775 35.3484 388.775 36.9253 389.686Z" fill="black"/>
<path d="M51.8716 381.042C53.4484 381.953 53.4484 383.438 51.8716 384.349C50.2947 385.26 47.7315 385.26 46.1547 384.349C44.5778 383.438 44.5778 381.953 46.1547 381.042C47.7315 380.132 50.2947 380.132 51.8716 381.042Z" fill="black"/>
<path d="M66.8211 372.4C68.398 373.311 68.398 374.795 66.8211 375.706C65.2443 376.617 62.6811 376.617 61.1043 375.706C59.5274 374.795 59.5274 373.311 61.1043 372.4C62.6811 371.483 65.2443 371.483 66.8211 372.4Z" fill="black"/>
<path d="M81.7672 363.748C83.344 364.659 83.344 366.143 81.7672 367.054C80.1903 367.965 77.6272 367.965 76.0503 367.054C74.4735 366.143 74.4735 364.659 76.0503 363.748C77.6331 362.837 80.1903 362.837 81.7672 363.748Z" fill="black"/>
<path d="M21.9757 381.042C23.5526 381.953 23.5526 383.438 21.9757 384.349C20.3989 385.26 17.8358 385.26 16.2589 384.349C14.6821 383.438 14.6821 381.953 16.2589 381.042C17.8358 380.132 20.3929 380.132 21.9757 381.042Z" fill="black"/>
<path d="M36.9253 372.4C38.5021 373.31 38.5021 374.789 36.9253 375.706C35.3484 376.617 32.7853 376.617 31.2084 375.706C29.6315 374.795 29.6315 373.31 31.2084 372.4C32.7853 371.483 35.3484 371.483 36.9253 372.4Z" fill="black"/>
<path d="M51.8716 363.748C53.4484 364.659 53.4484 366.143 51.8716 367.054C50.2947 367.965 47.7315 367.965 46.1547 367.054C44.5778 366.143 44.5778 364.659 46.1547 363.748C47.7315 362.837 50.2947 362.837 51.8716 363.748Z" fill="black"/>
<path d="M21.9757 363.748C23.5526 364.659 23.5526 366.143 21.9757 367.054C20.3989 367.965 17.8358 367.965 16.2589 367.054C14.6821 366.143 14.6821 364.659 16.2589 363.748C17.8358 362.837 20.3929 362.837 21.9757 363.748Z" fill="black"/>
<path d="M81.7672 329.174C83.344 330.085 83.344 331.57 81.7672 332.481C80.1903 333.392 77.6272 333.392 76.0503 332.481C74.4735 331.57 74.4735 330.085 76.0503 329.174C77.6331 328.263 80.1903 328.263 81.7672 329.174Z" fill="black"/>
<path d="M51.7447 311.798C53.3216 312.709 53.3216 314.194 51.7447 315.105C50.1679 316.016 47.6047 316.016 46.0279 315.105C44.451 314.194 44.451 312.709 46.0279 311.798C47.6106 310.881 50.1679 310.881 51.7447 311.798Z" fill="black"/>
<path d="M21.8457 311.798C23.4225 312.709 23.4225 314.194 21.8457 315.105C20.2688 316.016 17.7057 316.016 16.1288 315.105C14.552 314.194 14.552 312.709 16.1288 311.798C17.7057 310.881 20.2688 310.881 21.8457 311.798Z" fill="black"/>
<path d="M6.89951 303.15C8.47637 304.061 8.47637 305.546 6.89951 306.457C5.32265 307.368 2.7595 307.368 1.18264 306.457C-0.394215 305.546 -0.394215 304.061 1.18264 303.15C2.7595 302.239 5.31675 302.239 6.89951 303.15Z" fill="black"/>
<path d="M21.8457 294.51C23.4225 295.421 23.4225 296.906 21.8457 297.817C20.2688 298.728 17.7057 298.728 16.1288 297.817C14.552 296.906 14.552 295.421 16.1288 294.51C17.7057 293.599 20.2688 293.599 21.8457 294.51Z" fill="black"/>
<path d="M6.89951 285.867C8.47637 286.778 8.47637 288.263 6.89951 289.174C5.32265 290.085 2.7595 290.085 1.18264 289.174C-0.394215 288.263 -0.394215 286.778 1.18264 285.867C2.7595 284.951 5.31675 284.951 6.89951 285.867Z" fill="black"/>
<path d="M217.022 422.968C218.599 423.879 218.599 425.363 217.022 426.274C215.445 427.185 212.882 427.185 211.305 426.274C209.729 425.363 209.729 423.879 211.305 422.968C212.882 422.057 215.445 422.057 217.022 422.968Z" fill="black"/>
<path d="M231.972 414.328C233.549 415.239 233.549 416.724 231.972 417.635C230.395 418.546 227.832 418.546 226.255 417.635C224.678 416.724 224.678 415.239 226.255 414.328C227.832 413.418 230.395 413.418 231.972 414.328Z" fill="black"/>
<path d="M187.127 422.968C188.703 423.879 188.703 425.363 187.127 426.274C185.55 427.185 182.987 427.185 181.41 426.274C179.833 425.363 179.833 423.879 181.41 422.968C182.987 422.057 185.544 422.057 187.127 422.968Z" fill="black"/>
<path d="M202.076 414.328C203.653 415.239 203.653 416.724 202.076 417.635C200.499 418.546 197.936 418.546 196.359 417.635C194.782 416.724 194.782 415.239 196.359 414.328C197.936 413.418 200.499 413.418 202.076 414.328Z" fill="black"/>
<path d="M217.022 405.686C218.599 406.597 218.599 408.081 217.022 408.992C215.445 409.903 212.882 409.903 211.305 408.992C209.729 408.081 209.729 406.597 211.305 405.686C212.882 404.769 215.445 404.769 217.022 405.686Z" fill="black"/>
<path d="M172.177 414.328C173.754 415.239 173.754 416.724 172.177 417.635C170.6 418.546 168.037 418.546 166.46 417.635C164.883 416.724 164.883 415.239 166.46 414.328C168.043 413.418 170.6 413.418 172.177 414.328Z" fill="black"/>
<path d="M187.127 405.686C188.703 406.597 188.703 408.081 187.127 408.992C185.55 409.903 182.987 409.903 181.41 408.992C179.833 408.081 179.833 406.597 181.41 405.686C182.987 404.769 185.544 404.769 187.127 405.686Z" fill="black"/>
<path d="M202.076 397.038C203.653 397.949 203.653 399.433 202.076 400.344C200.499 401.255 197.936 401.255 196.359 400.344C194.782 399.433 194.782 397.949 196.359 397.038C197.936 396.127 200.499 396.127 202.076 397.038Z" fill="black"/>
<path d="M157.097 405.588C158.674 406.499 158.674 407.984 157.097 408.895C155.521 409.805 152.957 409.805 151.381 408.895C149.804 407.984 149.804 406.499 151.381 405.588C152.963 404.677 155.521 404.677 157.097 405.588Z" fill="black"/>
<path d="M172.054 396.945C173.631 397.856 173.631 399.34 172.054 400.251C170.477 401.162 167.914 401.162 166.337 400.251C164.76 399.34 164.76 397.856 166.337 396.945C167.914 396.034 170.471 396.034 172.054 396.945Z" fill="black"/>
<path d="M187 388.297C188.577 389.208 188.577 390.693 187 391.604C185.423 392.515 182.86 392.515 181.283 391.604C179.706 390.693 179.706 389.208 181.283 388.297C182.86 387.386 185.417 387.386 187 388.297Z" fill="black"/>
<path d="M142.148 396.945C143.725 397.856 143.725 399.34 142.148 400.251C140.571 401.162 138.008 401.162 136.431 400.251C134.854 399.34 134.854 397.856 136.431 396.945C138.014 396.034 140.571 396.034 142.148 396.945Z" fill="black"/>
<path d="M157.097 388.297C158.674 389.208 158.674 390.693 157.097 391.604C155.521 392.515 152.957 392.515 151.381 391.604C149.804 390.693 149.804 389.214 151.381 388.297C152.963 387.386 155.521 387.386 157.097 388.297Z" fill="black"/>
<path d="M172.054 379.657C173.631 380.568 173.631 382.053 172.054 382.964C170.477 383.875 167.914 383.875 166.337 382.964C164.76 382.053 164.76 380.568 166.337 379.657C167.914 378.746 170.471 378.746 172.054 379.657Z" fill="black"/>
<path d="M142.148 379.657C143.725 380.568 143.725 382.053 142.148 382.964C140.571 383.875 138.008 383.875 136.431 382.964C134.854 382.053 134.854 380.568 136.431 379.657C138.014 378.746 140.571 378.746 142.148 379.657Z" fill="black"/>
<path d="M157.097 371.014C158.674 371.925 158.674 373.41 157.097 374.321C155.521 375.232 152.957 375.232 151.381 374.321C149.804 373.41 149.804 371.925 151.381 371.014C152.963 370.097 155.521 370.097 157.097 371.014Z" fill="black"/>
<path d="M91.0271 320.656C92.604 319.739 95.1612 319.739 96.744 320.65C98.3267 321.561 98.3326 323.039 96.7558 323.956C95.1789 324.873 92.6217 324.873 91.0389 323.962C89.4562 323.051 89.4503 321.572 91.0271 320.656Z" fill="black"/>
<path d="M111.718 312.003C113.295 312.914 113.295 314.399 111.718 315.31C110.141 316.221 107.578 316.221 106.001 315.31C104.424 314.399 104.424 312.914 106.001 312.003C107.578 311.092 110.135 311.092 111.718 312.003Z" fill="black"/>
<path d="M76.0809 312.011C77.6578 311.095 80.215 311.095 81.7978 312.005C83.3806 312.916 83.3865 314.395 81.8096 315.312C80.2328 316.229 77.6755 316.229 76.0927 315.318C74.51 314.407 74.5041 312.928 76.0809 312.011Z" fill="black"/>
<path d="M96.7613 303.36C98.3382 304.271 98.3382 305.756 96.7613 306.667C95.1845 307.578 92.6213 307.578 91.0445 306.667C89.4676 305.756 89.4676 304.271 91.0445 303.36C92.6272 302.443 95.1845 302.443 96.7613 303.36Z" fill="black"/>
<path d="M111.718 294.705C113.295 295.616 113.295 297.101 111.718 298.012C110.141 298.923 107.578 298.923 106.001 298.012C104.424 297.101 104.424 295.616 106.001 294.705C107.578 293.794 110.135 293.794 111.718 294.705Z" fill="black"/>
<path d="M61.0046 303.271C62.5815 302.354 65.1388 302.354 66.7215 303.265C68.3043 304.176 68.3102 305.655 66.7333 306.571C65.1565 307.488 62.5992 307.488 61.0165 306.577C59.4337 305.666 59.4278 304.188 61.0046 303.271Z" fill="black"/>
<path d="M81.6849 294.619C83.2618 295.53 83.2618 297.015 81.6849 297.926C80.1081 298.836 77.545 298.836 75.9682 297.926C74.3913 297.015 74.3913 295.53 75.9682 294.619C77.5509 293.708 80.1081 293.708 81.6849 294.619Z" fill="black"/>
<path d="M96.638 285.976C98.2149 286.887 98.2149 288.371 96.638 289.282C95.0612 290.193 92.498 290.193 90.9212 289.282C89.3443 288.371 89.3443 286.887 90.9212 285.976C92.498 285.059 95.0553 285.059 96.638 285.976Z" fill="black"/>
<path d="M46.0551 294.632C47.6319 293.715 50.1892 293.715 51.7719 294.626C53.3547 295.537 53.3606 297.015 51.7837 297.932C50.2069 298.849 47.6496 298.849 46.0669 297.938C44.4841 297.027 44.4782 295.542 46.0551 294.632Z" fill="black"/>
<path d="M66.7389 285.976C68.3157 286.887 68.3157 288.371 66.7389 289.282C65.162 290.193 62.5989 290.193 61.022 289.282C59.4451 288.371 59.4451 286.887 61.022 285.976C62.6048 285.059 65.162 285.059 66.7389 285.976Z" fill="black"/>
<path d="M16.1571 277.341C17.734 276.424 20.2912 276.424 21.874 277.335C23.4567 278.246 23.4626 279.725 21.8858 280.641C20.3089 281.558 17.7517 281.558 16.1689 280.647C14.5861 279.736 14.5861 278.258 16.1571 277.341Z" fill="black"/>
<path d="M241.232 405.802C242.809 404.885 245.366 404.886 246.949 405.797C248.531 406.707 248.537 408.186 246.96 409.103C245.384 410.02 242.826 410.02 241.244 409.109C239.661 408.198 239.655 406.719 241.232 405.802Z" fill="black"/>
<path d="M261.915 397.15C263.492 398.061 263.492 399.545 261.915 400.456C260.339 401.367 257.775 401.367 256.199 400.456C254.622 399.545 254.622 398.061 256.199 397.15C257.775 396.239 260.339 396.239 261.915 397.15Z" fill="black"/>
<path d="M226.282 397.158C227.859 396.241 230.416 396.241 231.999 397.152C233.582 398.063 233.588 399.542 232.011 400.459C230.434 401.376 227.877 401.376 226.294 400.465C224.711 399.554 224.705 398.075 226.282 397.158Z" fill="black"/>
<path d="M246.966 388.503C248.543 389.414 248.543 390.898 246.966 391.809C245.389 392.72 242.826 392.72 241.249 391.809C239.672 390.898 239.672 389.414 241.249 388.503C242.826 387.586 245.389 387.586 246.966 388.503Z" fill="black"/>
<path d="M261.915 379.859C263.492 380.77 263.492 382.254 261.915 383.165C260.339 384.076 257.775 384.076 256.199 383.165C254.622 382.254 254.622 380.77 256.199 379.859C257.775 378.948 260.339 378.948 261.915 379.859Z" fill="black"/>
<path d="M211.33 388.519C212.907 387.602 215.464 387.602 217.047 388.513C218.63 389.424 218.636 390.903 217.059 391.82C215.482 392.737 212.925 392.737 211.342 391.826C209.759 390.915 209.759 389.43 211.33 388.519Z" fill="black"/>
<path d="M232.016 379.859C233.593 380.77 233.593 382.254 232.016 383.165C230.439 384.076 227.876 384.076 226.299 383.165C224.723 382.254 224.723 380.77 226.299 379.859C227.876 378.948 230.439 378.948 232.016 379.859Z" fill="black"/>
<path d="M246.966 371.216C248.543 372.127 248.543 373.611 246.966 374.522C245.389 375.433 242.826 375.433 241.249 374.522C239.672 373.611 239.672 372.127 241.249 371.216C242.826 370.305 245.389 370.305 246.966 371.216Z" fill="black"/>
<defs>
<linearGradient id="paint0_linear_19_155" x1="44.7823" y1="228" x2="500" y2="228" gradientUnits="userSpaceOnUse">
<stop stop-color="#FFDCD0"/>
<stop offset="1" stop-color="#FFF7F4"/>
</linearGradient>
</defs>
</svg>
