<svg width="500" height="456" viewBox="0 0 500 456" fill="none" xmlns="http://www.w3.org/2000/svg">
<circle cx="228" cy="228" r="228" transform="matrix(-1 0 0 1 456 0)" fill="url(#paint0_linear_19_337)"/>
<path d="M422.43 385.865C416.142 359.42 402.451 318.477 375.816 302.867C370.713 299.874 363.882 295.834 359.98 293.551L358.267 275.995C359.739 275.265 361.286 274.426 362.787 273.454L362.978 273.349L363.551 272.937C367.273 270.49 370.09 267.497 371.18 262.271L373.3 253.104L380.597 220.955C380.864 219.953 381.105 218.93 381.301 217.858L381.486 217.044L381.431 217.014C381.828 214.582 382.104 212.036 382.139 209.271C382.471 181.064 362.838 146.529 338.282 132.135C327.037 125.543 317.81 123.98 309.885 127.3L308.78 127.658L308.177 127.985C307.253 128.407 306.369 128.889 305.515 129.435L284.747 140.761L283.632 143.025L293.742 150.564C293.451 152.659 293.245 154.828 293.215 157.155C293.185 159.826 293.175 161.886 293.491 164.645L293.647 165.29L293.848 167.018C294.044 168.546 294.26 169.395 294.556 170.944L302.788 222.191C304.139 231.304 309.051 243.628 315.339 252.741L313.245 266.619C309.377 264.351 302.436 259.859 297.399 256.906C286.992 250.805 279.358 250.438 272.386 253.798L271.452 254.176L269.036 255.506C269.011 255.521 268.991 255.531 268.966 255.546L250.809 265.532L254.883 272.024C252.663 276.119 250.814 280.393 249.348 284.423C246.209 293.034 252.753 307.657 262.276 313.236L334.194 355.385L337.318 357.217L392.893 389.787C393.626 396.368 394.781 405.238 395.394 409.869C395.595 411.373 397.262 412.182 398.598 411.442L418.834 400.304C422.445 398.304 424.133 393.028 422.43 385.865Z" fill="#FE5721"/>
<path d="M420.541 395.894C414.252 369.449 400.561 328.506 373.926 312.896C368.823 309.903 361.993 305.863 358.09 303.58L313.55 327.871L309.894 300.78L330.506 287.97L354.941 282.932L356.322 275.824C360.044 273.377 360.652 270.518 361.741 265.292L371.405 263.138L378.703 230.989C378.969 229.987 379.21 228.964 379.406 227.892L379.592 227.078L379.536 227.043C379.933 224.616 380.215 222.065 380.245 219.3C380.576 191.088 360.943 156.558 336.388 142.164C325.142 135.572 315.916 134.009 307.995 137.329L306.89 137.687L306.287 138.014C305.363 138.436 304.479 138.918 303.625 139.464L282.857 150.79L281.742 153.054L291.853 160.588C291.561 162.683 291.35 164.852 291.325 167.179C291.295 169.85 291.285 171.91 291.601 174.669L291.757 175.315L291.958 177.042C292.154 178.571 292.37 179.419 292.666 180.968L300.898 232.215C302.249 241.328 307.161 253.652 313.45 262.765L311.355 276.643C307.488 274.375 300.547 269.883 295.509 266.93C285.102 260.83 277.468 260.462 270.497 263.822L269.562 264.2L267.147 265.53C267.122 265.545 267.101 265.555 267.076 265.57L248.92 275.556L252.993 282.048C250.773 286.143 248.925 290.417 247.458 294.447C244.319 303.058 250.863 317.681 260.386 323.26L332.304 365.409L335.428 367.241L391.003 399.811C391.736 406.392 392.67 399.572 393.283 404.203C393.484 405.707 395.152 406.516 396.493 405.777L411.264 404.729L411.887 398.009C415.498 396.009 422.243 403.057 420.541 395.894Z" fill="#FE5721"/>
<path d="M397.531 413.601C396.903 413.601 396.276 413.457 395.698 413.169C394.493 412.574 393.669 411.427 393.498 410.107C392.91 405.685 391.831 397.401 391.092 390.923L261.299 314.859C251.063 308.858 244.122 293.173 247.548 283.778C249.054 279.638 250.777 275.717 252.676 272.094L248.12 264.837L271.651 252.046C279.556 248.235 288.08 249.247 298.371 255.273C301.073 256.861 304.328 258.886 307.366 260.782C308.928 261.76 310.435 262.698 311.781 263.522L313.338 253.188C307.266 244.165 302.293 231.915 300.892 222.464L292.444 170.13C292.248 169.187 292.098 168.403 291.947 167.256L291.626 165.072C291.249 161.866 291.279 159.568 291.304 157.131C291.329 155.294 291.46 153.448 291.706 151.403L281.224 143.586L283.298 139.391L304.589 127.772C305.402 127.246 306.367 126.72 307.376 126.258L307.848 125.995L309.29 125.494C317.632 121.985 327.492 123.603 339.254 130.497C364.297 145.169 384.387 180.509 384.046 209.282C384.021 211.456 383.845 213.674 383.513 216.027L383.594 216.076L383.167 218.265C382.971 219.318 382.725 220.385 382.438 221.437L373.036 262.683C371.695 269.116 367.828 272.382 364.603 274.501L364.106 274.863C362.725 275.742 361.474 276.452 360.289 277.077L361.791 292.404L376.793 301.229C403.192 316.705 417.2 355.554 424.296 385.424C426.11 393.063 424.382 399.391 419.781 401.942L399.54 413.08C398.912 413.432 398.224 413.601 397.531 413.601ZM253.489 266.222L257.085 271.955L256.568 272.913C254.549 276.635 252.731 280.725 251.144 285.058C248.306 292.851 254.529 306.495 263.248 311.603L394.683 388.635L394.789 389.573C395.517 396.145 396.672 404.995 397.29 409.616L417.903 398.646C420.906 396.984 421.951 392.134 420.56 386.297C414.889 362.428 401.404 320.065 374.829 304.49L358.154 294.682L356.221 274.878L357.396 274.298C358.812 273.603 360.289 272.799 361.73 271.865L362.403 271.409C366.457 268.738 368.436 265.994 369.289 261.889L378.712 220.544C378.988 219.516 379.214 218.543 379.405 217.521L379.53 216.712C379.962 214.066 380.188 211.629 380.213 209.252C380.54 181.685 361.288 147.819 337.296 133.763C326.658 127.529 317.929 125.975 310.621 129.043L309.099 129.643C308.135 130.09 307.326 130.527 306.548 131.028L286.035 142.464L295.784 149.73L295.629 150.827C295.307 153.165 295.146 155.185 295.121 157.19C295.091 159.99 295.091 161.881 295.387 164.447L295.503 164.874L295.744 166.814C295.88 167.837 296.025 168.552 296.196 169.41L296.432 170.611L304.674 221.913C306.035 231.091 310.952 243.048 316.919 251.694L317.341 252.305L314.714 269.696L312.268 268.262C310.455 267.195 307.969 265.651 305.327 263.998C302.319 262.127 299.099 260.117 296.422 258.549C287.216 253.153 280.054 252.215 273.218 255.511L272.178 255.938L253.489 266.222Z" fill="black"/>
<path d="M400.14 398.168C393.852 371.722 380.16 330.779 353.525 315.169C348.423 312.176 341.592 308.136 337.689 305.853L335.977 288.297C341.175 285.731 347.338 281.999 348.885 274.578L351.004 265.411L358.302 233.263C358.568 232.26 358.809 231.237 359.005 230.165L359.191 229.351L359.136 229.322C359.532 226.889 359.809 224.343 359.844 221.579C360.175 193.366 340.542 158.836 315.987 144.442C291.432 130.053 271.256 141.255 270.924 169.463C270.894 172.133 270.884 174.193 271.201 176.952L271.356 177.598L271.557 179.325C271.753 180.854 271.969 181.702 272.26 183.251L280.492 234.498H280.497C281.848 243.611 286.76 255.936 293.049 265.048L290.954 278.926C287.082 276.658 280.146 272.166 275.108 269.213C248.403 253.563 233.898 277.968 227.062 296.725C223.923 305.337 230.468 319.959 239.99 325.538L311.908 367.687L315.033 369.519L386.709 411.524C396.227 417.098 403.028 410.303 400.14 398.168Z" fill="#FE5721"/>
<path d="M393.063 415.379C390.778 415.379 388.272 414.629 385.73 413.145L239.006 327.159C228.765 321.158 221.829 305.473 225.254 296.078C229.704 283.878 237.756 268.357 250.849 263.706C258.549 260.976 267.037 262.282 276.078 267.583C278.765 269.161 281.989 271.171 285.008 273.052C286.595 274.04 288.127 274.998 289.478 275.827L291.035 265.493C284.963 256.469 279.995 244.22 278.594 234.769L270.141 182.415C269.95 181.477 269.794 180.698 269.649 179.561L269.327 177.382C268.951 174.176 268.981 171.873 269.006 169.441C269.177 155.091 274.3 144.395 283.426 139.327C292.552 134.255 304.46 135.491 316.956 142.812C341.999 157.489 362.089 192.828 361.747 221.596C361.722 223.755 361.547 225.959 361.22 228.292L361.316 228.342L360.858 230.585C360.673 231.618 360.422 232.69 360.145 233.737L350.733 274.993C349.186 282.438 343.576 286.488 337.996 289.387L339.493 304.709L354.49 313.534C380.893 329.005 394.896 367.859 401.998 397.729C403.691 404.861 402.335 410.837 398.377 413.706C396.85 414.823 395.037 415.379 393.063 415.379ZM258.926 266.108C256.58 266.108 254.32 266.491 252.15 267.26C240.458 271.409 233.029 285.917 228.856 297.353C226.018 305.141 232.236 318.785 240.96 323.903L387.684 409.889C391.074 411.875 394.068 412.147 396.122 410.663C398.764 408.748 399.593 404.122 398.277 398.597C392.606 374.728 379.12 332.365 352.541 316.79L335.871 306.982L333.938 287.178L335.113 286.597C340.502 283.942 345.665 280.597 347.001 274.189L356.429 232.844C356.695 231.826 356.931 230.853 357.117 229.831L357.247 229.012C357.679 226.366 357.905 223.924 357.93 221.552C358.257 193.985 339.005 160.124 315.013 146.063C303.757 139.466 293.215 138.236 285.304 142.618C277.414 146.996 272.989 156.541 272.833 169.475C272.803 172.28 272.803 174.166 273.099 176.732L273.215 177.159L273.456 179.104C273.586 180.117 273.732 180.827 273.903 181.675L274.144 182.896L282.386 234.199C283.747 243.371 288.664 255.328 294.626 263.974L295.048 264.59L292.426 281.977L289.975 280.547C288.147 279.475 285.636 277.911 282.969 276.244C279.98 274.382 276.791 272.392 274.129 270.829C268.765 267.687 263.672 266.108 258.926 266.108Z" fill="black"/>
<path d="M382.351 213.011L380.654 193.902L358.344 206.291L360.89 219.523L350.915 267.242L350.267 267.609L347.716 277.898L339.429 286.927L335.978 288.292L337.691 305.847L359.976 293.553L358.263 275.992L368.328 270.339L371.729 258.789L372.919 254.769L382.351 213.011Z" fill="black"/>
<path d="M394.892 378.901L416.354 366.304L422.09 382.053L422.938 391.925L421.17 399.479L398.604 411.441L400.809 402.214L396.379 382.683L394.892 378.901Z" fill="black"/>
<path d="M498.094 196.123C498.094 168.774 477.341 135.117 452.826 124.228C443.735 120.187 436.217 119.8 429.903 123.21L429.14 123.592L429.115 123.607C429.059 123.637 429.009 123.672 428.954 123.701L409.049 135.251C408.135 135.782 407.889 136.974 408.517 137.817L416.875 149.005C416.593 168.576 427.09 191.517 442.103 207.087V223.541C442.103 226.603 445.277 230.038 447.281 229.145L460.671 223.149L465.513 231.691C466.045 232.629 467.251 232.956 468.195 232.415L486.02 222.171V222.136C493.464 217.997 498.094 209.013 498.094 196.123Z" fill="#FE5721"/>
<path d="M496.185 205.802C496.185 178.454 475.431 144.797 450.916 133.907C441.826 129.867 434.307 129.48 427.993 132.889L427.23 133.272L427.205 133.287C427.15 133.316 427.099 133.351 427.044 133.381L407.14 144.931C406.226 145.462 405.98 146.653 406.607 147.497L414.965 158.684C414.684 178.255 425.181 201.196 440.193 216.766V233.215C440.193 236.283 451.127 229.498 453.131 228.599L458.762 232.823L464.096 227.83L476.587 227.592V220.34C484.025 216.201 496.185 218.687 496.185 205.802Z" fill="#FE5721"/>
<path d="M467.218 234.566C466.876 234.566 466.53 234.521 466.193 234.432C465.189 234.159 464.35 233.514 463.843 232.615L459.86 225.587L448.067 230.868C446.831 231.419 445.395 231.24 444.014 230.362C442.115 229.151 440.186 226.421 440.186 223.542V207.838C424.737 191.533 414.903 168.835 414.953 149.622L406.972 138.94C406.349 138.106 406.118 137.044 406.324 136.032C406.54 135.019 407.178 134.141 408.077 133.619L429.036 121.524C435.812 117.866 443.868 118.178 453.607 122.501C478.323 133.485 500 167.887 500 196.124C500 208.761 495.721 218.32 487.926 223.205V223.219L486.977 223.8L469.146 234.045C468.554 234.392 467.891 234.566 467.218 234.566ZM461.482 220.708L467.178 230.769L485.083 220.494C492.24 216.509 496.178 207.858 496.178 196.129C496.178 169.192 475.555 136.404 452.045 125.956C443.471 122.149 436.525 121.787 430.819 124.874L430.006 125.281L410.011 136.885L418.79 148.401L418.78 149.036C418.519 167.381 428.449 190.188 443.481 205.788L444.008 206.339V223.547C444.008 225.473 445.897 227.394 446.58 227.404L461.482 220.708Z" fill="black"/>
<path d="M478.494 207.382C478.494 180.034 457.741 146.377 433.226 135.487C414.964 127.372 399.987 135.527 397.596 154.949C395.06 175.537 406.109 201.342 422.503 218.347V234.795C422.503 237.858 425.677 241.298 427.681 240.399L443.537 233.297C463.281 241.407 478.494 230.785 478.494 207.382Z" fill="#FE5721"/>
<path d="M426.984 242.436C426.145 242.436 425.271 242.159 424.412 241.618C422.514 240.406 420.595 237.677 420.595 234.798V219.098C403.463 201.012 393.242 174.651 395.698 154.723C396.924 144.806 401.419 137.207 408.37 133.335C415.422 129.404 424.528 129.553 434.01 133.767C458.726 144.746 480.404 179.148 480.404 207.385C480.404 219.744 476.26 229.283 468.741 234.242C462.016 238.669 453.116 239.056 443.583 235.354L428.48 242.119C428.003 242.332 427.501 242.436 426.984 242.436ZM419.821 134.268C416.306 134.268 413.061 135.053 410.249 136.621C404.387 139.887 400.565 146.478 399.49 155.174C397.14 174.264 407.175 199.701 423.89 217.039L424.417 217.59V234.798C424.417 236.729 426.306 238.649 426.984 238.654L443.503 231.239L444.271 231.552C452.88 235.091 460.826 234.922 466.622 231.095C473.046 226.856 476.582 218.438 476.582 207.38C476.582 180.443 455.959 147.65 432.448 137.207C428.038 135.251 423.754 134.268 419.821 134.268Z" fill="black"/>
<path d="M474.967 186.461L494.686 175.125L498.086 185.2V202.21L496.177 211.243L481.728 225.31L470.095 230.77L478.493 213.968V196.12L474.967 186.461Z" fill="black"/>
<path d="M426.517 183.998C426.517 188.446 423.358 190.247 419.46 188.024C415.563 185.8 412.404 180.395 412.404 175.948C412.404 171.5 415.563 169.699 419.46 171.922C423.358 174.146 426.517 179.551 426.517 183.998Z" fill="#FE5721"/>
<path d="M420.223 185.359C419.032 185.359 417.741 184.982 416.43 184.232C412.116 181.775 408.736 175.993 408.736 171.069C408.736 168.448 409.695 166.458 411.438 165.465C413.191 164.473 415.406 164.646 417.701 165.957C422.016 168.414 425.391 174.201 425.391 179.125C425.391 181.745 424.431 183.736 422.689 184.728C421.945 185.145 421.117 185.359 420.223 185.359ZM413.914 167.351C413.467 167.351 413.06 167.446 412.719 167.644C411.81 168.16 411.287 169.411 411.287 171.069C411.287 175.04 414.226 180.068 417.706 182.053C419.158 182.887 420.499 183.061 421.418 182.544C422.322 182.023 422.844 180.777 422.844 179.12C422.844 175.149 419.906 170.121 416.43 168.136C415.526 167.614 414.657 167.351 413.914 167.351Z" fill="black"/>
<path d="M446.11 195.182C446.11 199.629 442.951 201.431 439.053 199.207C435.156 196.984 431.996 191.578 431.996 187.131C431.996 182.684 435.156 180.882 439.053 183.106C442.951 185.325 446.11 190.735 446.11 195.182Z" fill="#FE5721"/>
<path d="M439.82 196.538C438.629 196.538 437.338 196.161 436.027 195.412C431.713 192.955 428.333 187.172 428.333 182.244C428.333 179.623 429.292 177.633 431.035 176.64C432.788 175.642 435.008 175.821 437.298 177.131C441.612 179.588 444.988 185.376 444.988 190.294C444.988 192.915 444.028 194.905 442.286 195.898C441.542 196.33 440.708 196.538 439.82 196.538ZM433.511 178.531C433.064 178.531 432.657 178.625 432.316 178.824C431.407 179.34 430.884 180.586 430.884 182.249C430.884 186.219 433.823 191.252 437.303 193.233C438.755 194.067 440.101 194.24 441.015 193.724C441.919 193.203 442.446 191.957 442.446 190.299C442.446 186.329 439.508 181.301 436.033 179.315C435.123 178.794 434.254 178.531 433.511 178.531Z" fill="black"/>
<path d="M465.711 206.36C465.711 210.808 462.552 212.609 458.654 210.386C454.757 208.162 451.597 202.757 451.597 198.31C451.597 193.863 454.757 192.061 458.654 194.284C462.557 196.508 465.711 201.918 465.711 206.36Z" fill="#FE5721"/>
<path d="M459.424 207.72C458.234 207.72 456.943 207.343 455.632 206.594C451.318 204.137 447.938 198.354 447.938 193.431C447.938 190.81 448.897 188.82 450.64 187.827C452.393 186.834 454.613 187.008 456.903 188.318C461.217 190.775 464.592 196.563 464.592 201.481C464.592 204.102 463.633 206.092 461.885 207.085C461.147 207.512 460.313 207.72 459.424 207.72ZM453.111 189.713C452.664 189.713 452.257 189.807 451.916 190.006C451.011 190.522 450.484 191.768 450.484 193.431C450.484 197.401 453.422 202.429 456.903 204.415C458.354 205.249 459.7 205.422 460.615 204.906C461.519 204.385 462.046 203.139 462.046 201.481C462.046 197.511 459.108 192.483 455.632 190.497C454.728 189.976 453.859 189.713 453.111 189.713Z" fill="black"/>
<path d="M370.284 425.642C371.665 426.431 371.665 427.711 370.284 428.501C368.903 429.29 366.658 429.29 365.277 428.501C363.895 427.711 363.895 426.431 365.277 425.642C366.658 424.853 368.898 424.853 370.284 425.642Z" fill="black"/>
<path d="M383.373 418.177C384.754 418.966 384.754 420.247 383.373 421.036C381.992 421.825 379.751 421.825 378.365 421.036C376.984 420.247 376.984 418.966 378.365 418.177C379.751 417.388 381.992 417.388 383.373 418.177Z" fill="black"/>
<path d="M357.199 418.177C358.581 418.966 358.581 420.247 357.199 421.036C355.818 421.825 353.578 421.825 352.192 421.036C350.811 420.247 350.811 418.966 352.192 418.177C353.573 417.388 355.813 417.388 357.199 418.177Z" fill="black"/>
<path d="M370.284 410.708C371.665 411.497 371.665 412.778 370.284 413.562C368.903 414.351 366.658 414.351 365.277 413.562C363.895 412.773 363.895 411.497 365.277 410.708C366.658 409.919 368.898 409.919 370.284 410.708Z" fill="black"/>
<path d="M344.103 410.708C345.484 411.497 345.484 412.778 344.103 413.562C342.722 414.351 340.477 414.351 339.095 413.562C337.714 412.773 337.714 411.497 339.095 410.708C340.482 409.919 342.722 409.919 344.103 410.708Z" fill="black"/>
<path d="M357.199 403.238C358.581 404.028 358.581 405.308 357.199 406.097C355.818 406.887 353.578 406.887 352.192 406.097C350.811 405.308 350.811 404.028 352.192 403.238C353.573 402.449 355.813 402.449 357.199 403.238Z" fill="black"/>
<path d="M331.015 403.238C332.396 404.028 332.396 405.303 331.015 406.097C329.633 406.887 327.388 406.887 326.007 406.097C324.626 405.308 324.626 404.028 326.007 403.238C327.388 402.449 329.633 402.449 331.015 403.238Z" fill="black"/>
<path d="M344.103 395.774C345.484 396.563 345.484 397.844 344.103 398.628C342.722 399.417 340.477 399.417 339.095 398.628C337.714 397.839 337.714 396.558 339.095 395.774C340.482 394.985 342.722 394.985 344.103 395.774Z" fill="black"/>
<path d="M317.926 395.774C319.307 396.563 319.307 397.844 317.926 398.628C316.545 399.417 314.3 399.417 312.918 398.628C311.537 397.839 311.537 396.558 312.918 395.774C314.3 394.985 316.545 394.985 317.926 395.774Z" fill="black"/>
<path d="M331.015 388.305C332.396 389.094 332.396 390.375 331.015 391.164C329.633 391.953 327.393 391.953 326.007 391.164C324.626 390.375 324.626 389.094 326.007 388.305C327.393 387.516 329.633 387.516 331.015 388.305Z" fill="black"/>
<path d="M304.722 388.222C306.103 389.011 306.103 390.292 304.722 391.076C303.341 391.865 301.1 391.865 299.714 391.076C298.333 390.287 298.333 389.006 299.714 388.222C301.1 387.433 303.341 387.433 304.722 388.222Z" fill="black"/>
<path d="M317.81 380.753C319.191 381.542 319.191 382.823 317.81 383.607C316.429 384.396 314.189 384.396 312.803 383.607C311.421 382.818 311.421 381.537 312.803 380.753C314.189 379.964 316.429 379.964 317.81 380.753Z" fill="black"/>
<path d="M291.633 380.753C293.014 381.542 293.014 382.823 291.633 383.607C290.252 384.396 288.007 384.396 286.626 383.607C285.245 382.818 285.245 381.542 286.626 380.753C288.007 379.964 290.252 379.964 291.633 380.753Z" fill="black"/>
<path d="M304.722 373.289C306.103 374.078 306.103 375.358 304.722 376.148C303.341 376.937 301.1 376.937 299.714 376.148C298.333 375.358 298.333 374.078 299.714 373.289C301.1 372.499 303.341 372.499 304.722 373.289Z" fill="black"/>
<path d="M278.545 373.289C279.926 374.078 279.926 375.358 278.545 376.148C277.163 376.937 274.918 376.937 273.537 376.148C272.156 375.358 272.156 374.078 273.537 373.289C274.918 372.499 277.158 372.499 278.545 373.289Z" fill="black"/>
<path d="M291.633 365.818C293.014 366.608 293.014 367.888 291.633 368.677C290.252 369.467 288.012 369.467 286.626 368.677C285.245 367.888 285.245 366.608 286.626 365.818C288.007 365.029 290.252 365.029 291.633 365.818Z" fill="black"/>
<path d="M265.448 365.818C266.829 366.608 266.829 367.888 265.448 368.677C264.067 369.467 261.822 369.467 260.441 368.677C259.059 367.888 259.059 366.608 260.441 365.818C261.827 365.029 264.067 365.029 265.448 365.818Z" fill="black"/>
<path d="M278.545 358.349C279.926 359.138 279.926 360.419 278.545 361.208C277.163 361.997 274.918 361.997 273.537 361.208C272.156 360.419 272.156 359.143 273.537 358.349C274.918 357.56 277.158 357.56 278.545 358.349Z" fill="black"/>
<path d="M252.36 358.349C253.741 359.138 253.741 360.419 252.36 361.208C250.979 361.997 248.734 361.997 247.352 361.208C245.971 360.419 245.971 359.138 247.352 358.349C248.739 357.56 250.979 357.56 252.36 358.349Z" fill="black"/>
<path d="M265.448 350.884C266.829 351.674 266.829 352.954 265.448 353.743C264.067 354.532 261.827 354.532 260.441 353.743C259.059 352.954 259.059 351.674 260.441 350.884C261.827 350.095 264.067 350.095 265.448 350.884Z" fill="black"/>
<path d="M239.271 350.884C240.652 351.674 240.652 352.954 239.271 353.743C237.89 354.532 235.645 354.532 234.263 353.743C232.882 352.954 232.882 351.674 234.263 350.884C235.645 350.095 237.89 350.095 239.271 350.884Z" fill="black"/>
<path d="M252.36 343.41C253.741 344.2 253.741 345.48 252.36 346.264C250.979 347.054 248.734 347.054 247.352 346.264C245.971 345.475 245.971 344.195 247.352 343.41C248.739 342.621 250.979 342.621 252.36 343.41Z" fill="black"/>
<path d="M226.183 343.41C227.564 344.2 227.564 345.48 226.183 346.264C224.801 347.054 222.556 347.054 221.175 346.264C219.794 345.475 219.794 344.195 221.175 343.41C222.556 342.621 224.796 342.621 226.183 343.41Z" fill="black"/>
<path d="M239.271 335.941C240.652 336.73 240.652 338.011 239.271 338.8C237.89 339.589 235.65 339.589 234.263 338.8C232.882 338.011 232.882 336.73 234.263 335.941C235.65 335.152 237.89 335.152 239.271 335.941Z" fill="black"/>
<path d="M226.183 328.474C227.564 329.263 227.564 330.544 226.183 331.333C224.801 332.122 222.556 332.122 221.175 331.333C219.794 330.544 219.794 329.263 221.175 328.474C222.556 327.69 224.796 327.69 226.183 328.474Z" fill="black"/>
<path d="M410.065 431.913C411.446 432.703 411.446 433.983 410.065 434.772C408.684 435.562 406.444 435.562 405.058 434.772C403.677 433.983 403.677 432.703 405.058 431.913C406.444 431.124 408.684 431.124 410.065 431.913Z" fill="black"/>
<path d="M423.157 424.45C424.539 425.239 424.539 426.519 423.157 427.304C421.776 428.093 419.536 428.093 418.15 427.304C416.769 426.514 416.769 425.234 418.15 424.45C419.531 423.66 421.776 423.66 423.157 424.45Z" fill="black"/>
<path d="M436.246 416.98C437.627 417.769 437.627 419.049 436.246 419.834C434.865 420.623 432.625 420.623 431.239 419.834C429.857 419.044 429.857 417.764 431.239 416.98C432.62 416.19 434.865 416.19 436.246 416.98Z" fill="black"/>
<path d="M383.888 431.913C385.269 432.703 385.269 433.978 383.888 434.772C382.507 435.562 380.267 435.562 378.881 434.772C377.499 433.983 377.499 432.703 378.881 431.913C380.262 431.124 382.507 431.124 383.888 431.913Z" fill="black"/>
<path d="M396.977 424.45C398.358 425.239 398.358 426.519 396.977 427.304C395.595 428.093 393.35 428.093 391.969 427.304C390.588 426.514 390.588 425.234 391.969 424.45C393.355 423.66 395.595 423.66 396.977 424.45Z" fill="black"/>
<path d="M410.065 416.98C411.446 417.769 411.446 419.049 410.065 419.834C408.684 420.623 406.444 420.623 405.058 419.834C403.677 419.044 403.677 417.769 405.058 416.98C406.444 416.19 408.684 416.19 410.065 416.98Z" fill="black"/>
<path d="M423.157 409.511C424.539 410.3 424.539 411.581 423.157 412.37C421.776 413.159 419.536 413.159 418.15 412.37C416.769 411.581 416.769 410.3 418.15 409.511C419.531 408.722 421.776 408.722 423.157 409.511Z" fill="black"/>
<path d="M436.246 402.042C437.627 402.831 437.627 404.112 436.246 404.901C434.865 405.69 432.625 405.69 431.239 404.901C429.857 404.112 429.857 402.831 431.239 402.042C432.62 401.258 434.865 401.258 436.246 402.042Z" fill="black"/>
<defs>
<linearGradient id="paint0_linear_19_337" x1="0" y1="228" x2="456" y2="228" gradientUnits="userSpaceOnUse">
<stop stop-color="#FFDCD0"/>
<stop offset="1" stop-color="#FFF7F4"/>
</linearGradient>
</defs>
</svg>
