<svg width="80" height="80" viewBox="0 0 80 80" fill="none" xmlns="http://www.w3.org/2000/svg">
<path d="M47.4106 71.7745L47.5433 71.7072L53.6315 67.4591L51.5079 64.6312C51.8228 62.985 51.9343 61.1592 51.7734 59.1327C50.7949 46.8627 40.9384 32.6237 29.7575 27.3301C27.9121 26.4557 26.1557 25.9084 24.4967 25.6123L22.4353 22.6343L16.4192 26.7491C12.7807 28.9286 10.7744 33.55 11.2855 39.9649C12.2639 52.2349 22.1205 66.4739 33.3014 71.7675C39.1467 74.5336 44.0615 74.3736 47.4106 71.7745Z" fill="#FE5721"/>
<path d="M52.2573 64.4568C52.5524 62.7572 52.6272 60.9497 52.4776 59.0789C51.4822 46.604 41.4266 32.0802 30.0621 26.6995C28.3509 25.8884 26.6199 25.3102 24.9143 24.9776L22.6185 21.6599L16.056 26.1494C12.0659 28.5394 10.0709 33.5973 10.5834 40.0207C11.5788 52.4955 21.6344 67.0208 32.9989 72.4015C35.9272 73.788 38.7002 74.4813 41.1978 74.4813C43.7195 74.4813 45.9602 73.774 47.7999 72.3636L54.6321 67.6186L52.2573 64.4568ZM16.8198 27.3269L22.2543 23.6106L24.0827 26.2519L24.3721 26.3038C26.0495 26.6027 27.7593 27.1613 29.455 27.9654C40.4142 33.1538 50.1112 47.1612 51.0699 59.1898C51.0925 59.4747 51.0996 59.7526 51.1108 60.0346L31.9752 52.0647L19.9232 59.281C18.1583 56.8966 16.6066 54.3424 15.3585 51.711L21.4918 48.2095L19.2977 42.8878L13.2632 46.3248C12.6053 44.1649 12.1577 42.0079 11.9897 39.9112C11.5209 34.0351 13.2689 29.4572 16.8198 27.3269Z" fill="black"/>
<path d="M53.5734 67.6047C60.7873 62.6704 59.6653 48.6026 51.0673 36.1836C42.4694 23.7646 29.6513 17.6971 22.4374 22.6314C15.2235 27.5658 16.3455 41.6335 24.9434 54.0526C33.5414 66.4716 46.3595 72.5391 53.5734 67.6047Z" fill="#FE5721"/>
<path d="M47.6523 70.0327C45.1419 70.0327 42.3717 69.3465 39.4702 67.9711C28.1044 62.5905 18.0488 48.0652 17.0548 35.5918C16.5606 29.3971 18.3297 24.5891 22.036 22.0545C25.7408 19.5185 30.8901 19.5957 36.5349 22.2692C47.9008 27.6499 57.9564 42.1751 58.9518 54.6486C59.4459 60.8432 57.6768 65.6513 53.972 68.1859C52.1675 69.4195 50.0257 70.0327 47.6523 70.0327ZM28.3571 21.6124C26.2661 21.6124 24.3939 22.1443 22.8351 23.2123C19.5623 25.4507 18.0092 29.8069 18.461 35.4823C19.4197 47.5095 29.1167 61.5169 40.076 66.7053C45.245 69.1514 49.8944 69.2679 53.1672 67.0295C56.44 64.791 57.9931 60.4349 57.5398 54.7595C56.5812 42.7323 46.8842 28.7249 35.9249 23.5365C33.2197 22.2552 30.6557 21.6124 28.3571 21.6124Z" fill="black"/>
<path d="M50.0192 63.1071C55.162 59.5893 54.3619 49.5598 48.2319 40.7056C42.1019 31.8514 32.9634 27.5253 27.8206 31.0431C22.6777 34.5609 23.4779 44.5904 29.6078 53.4446C35.7378 62.2988 44.8763 66.6249 50.0192 63.1071Z" fill="#FE5721"/>
<path d="M45.9485 62.4706C44.1285 62.4706 42.125 61.9738 40.0283 60.9801C31.8675 57.1166 24.6456 46.685 23.9326 37.7285C23.5754 33.2376 24.8673 29.7459 27.5711 27.8962C30.2749 26.0465 34.0179 26.0943 38.1096 28.0338C46.2704 31.8974 53.4923 42.3275 54.2067 51.284C54.5639 55.7749 53.2735 59.2666 50.5697 61.1163C49.2481 62.0201 47.6823 62.4706 45.9485 62.4706ZM32.1923 27.9496C30.7422 27.9496 29.4461 28.3173 28.3688 29.0527C26.0985 30.6062 25.0212 33.6474 25.3389 37.619C26.0166 46.1293 32.8784 56.0416 40.6341 59.7143C44.2528 61.4278 47.4959 61.5148 49.7677 59.9613C52.038 58.4091 53.1139 55.3665 52.7976 51.3949C52.1199 42.8846 45.2566 32.9724 37.5024 29.3011C35.5992 28.4001 33.8004 27.9496 32.1923 27.9496Z" fill="black"/>
<path d="M46.3296 53.5267C49.3494 51.4611 48.8797 45.5722 45.2805 40.3735C41.6813 35.1747 36.3155 32.6348 33.2957 34.7004C30.2759 36.7659 30.7455 42.6549 34.3448 47.8536C37.944 53.0524 43.3097 55.5923 46.3296 53.5267Z" fill="#FE5721"/>
<path d="M43.85 54.9537C42.7374 54.9537 41.5189 54.6519 40.2468 54.0499C35.3715 51.7413 31.0581 45.5102 30.6303 40.159C30.4114 37.4153 31.2148 35.2723 32.8922 34.1257C34.5695 32.9777 36.8709 32.9974 39.37 34.1833C44.2453 36.4905 48.5587 42.7216 48.9865 48.0728C49.2054 50.8178 48.402 52.9594 46.7261 54.1074C45.9015 54.673 44.9273 54.9537 43.85 54.9537ZM35.7739 34.6857C34.9804 34.6857 34.2758 34.8836 33.6927 35.2821C32.4488 36.1326 31.8615 37.8251 32.0394 40.0495C32.4305 44.9544 36.3852 50.6663 40.8539 52.784C42.88 53.7439 44.6802 53.8015 45.9255 52.9524C47.1694 52.102 47.7567 50.408 47.5788 48.185C47.1877 43.2801 43.233 37.5669 38.7643 35.4505C37.6884 34.9397 36.6733 34.6857 35.7739 34.6857Z" fill="black"/>
<path d="M43.1446 48.1386C43.2929 49.9967 42.0405 50.8528 40.3476 50.0515C38.6548 49.2501 37.1624 47.0945 37.0141 45.2364C36.8659 43.3783 38.1182 42.5222 39.8111 43.3235C41.504 44.1249 42.9964 46.2805 43.1446 48.1386Z" fill="#FE5721"/>
<path d="M41.6954 48.4849C41.2252 48.4849 40.7183 48.3614 40.1959 48.113C38.2715 47.2036 36.6309 44.8346 36.4614 42.7197C36.3697 41.5619 36.7283 40.6426 37.4738 40.1318C38.2178 39.6238 39.209 39.6167 40.2665 40.1178C42.191 41.0286 43.8316 43.3989 44.001 45.5124C44.0928 46.6703 43.7342 47.5881 42.9887 48.0989C42.6131 48.3557 42.174 48.4849 41.6954 48.4849ZM38.7727 41.1535C38.5765 41.1535 38.407 41.1984 38.2743 41.2896C37.9665 41.4987 37.8197 41.9801 37.8691 42.6102C37.9962 44.2143 39.3403 46.1538 40.8016 46.8457C41.3763 47.1151 41.8803 47.1502 42.1867 46.9411C42.4945 46.732 42.6414 46.2506 42.5919 45.6205C42.4649 44.0178 41.1207 42.0755 39.658 41.3836C39.3347 41.2321 39.0311 41.1535 38.7727 41.1535Z" fill="black"/>
<path d="M43.2813 15.1361L41.8903 23.2488L43.2822 23.4846L44.6731 15.3718L43.2813 15.1361Z" fill="#FE5721"/>
<path d="M42.5317 13.8519L41.1408 21.9646L42.5326 22.2004L43.9236 14.0877L42.5317 13.8519Z" fill="black"/>
<path d="M65.7368 36.8483L57.4574 36.908L57.4675 38.3114L65.7469 38.2518L65.7368 36.8483Z" fill="#FE5721"/>
<path d="M64.4135 35.9422L56.134 36.001L56.144 37.4044L64.4234 37.3456L64.4135 35.9422Z" fill="black"/>
<path d="M56.3636 1.28675L48.6557 20.344L49.9657 20.8675L57.6736 1.81022L56.3636 1.28675Z" fill="#FE5721"/>
<path d="M55.6201 -0.000112238L47.9101 19.0571L49.22 19.5807L56.93 0.523499L55.6201 -0.000112238Z" fill="black"/>
<path d="M66.2892 18.6432L47.2185 32.892L45.9083 31.1785L64.9789 16.9297L66.2892 18.6432Z" fill="#FE5721"/>
<path d="M47.0833 33.8753L44.9189 31.0418L65.1134 15.9468L67.2779 18.7774L47.0833 33.8753ZM46.8828 31.0699L47.442 32.0944L65.3873 18.6946L64.8296 17.6702L46.8828 31.0699Z" fill="black"/>
<path d="M39.8456 37.9263L51.2002 34.7125L46.5465 32.0151L45.2094 26.8787L39.0295 36.8541C38.6808 37.414 39.2088 38.1059 39.8456 37.9263Z" fill="#FE5721"/>
<path d="M44.7793 34.8916L43.4422 29.7551L38.7744 37.29C38.9382 37.53 39.2968 38.0801 39.63 37.9861L46.8816 36.1083L44.7793 34.8916Z" fill="#FE5721"/>
<path d="M39.6415 38.6562C39.2024 38.6562 38.783 38.4541 38.5063 38.092C38.1463 37.6204 38.1166 36.9903 38.4286 36.4851L45.4783 25.1077L47.1571 31.5563L52.9882 34.9357L40.0396 38.6C39.9069 38.6379 39.7728 38.6562 39.6415 38.6562ZM44.9404 28.6485L39.6302 37.2205L39.6528 37.2499L49.4133 34.4866L45.9386 32.4713L44.9404 28.6485Z" fill="black"/>
<path d="M67.1926 10.4282L60.1881 15.7219L56.0879 24.2658C55.8465 24.7682 56.2799 25.331 56.8306 25.2328L66.1774 23.5557L73.1833 18.262L66.0151 17.4986L67.1926 10.4282Z" fill="#FE5721"/>
<path d="M65.6293 23.8535L69.8368 20.6734L64.898 20.1471L65.9682 13.6367L58.9623 18.9304L55.7191 25.3538C55.8674 25.4843 56.0566 25.5699 56.2811 25.5306L65.6293 23.8535Z" fill="#FE5721"/>
<path d="M66.8334 16.8795L68.179 8.80005L59.6242 15.2655L55.4506 23.9624C55.2247 24.4326 55.2812 24.9827 55.6003 25.3981C55.8671 25.7448 56.2752 25.9426 56.7058 25.9426C56.7891 25.9426 56.8724 25.9356 56.9557 25.9202L66.4706 24.2122L75.0253 17.7496L66.8334 16.8795ZM65.886 22.8945L56.7256 24.5659L60.7509 16.1749L62.0598 15.1855L61.2253 19.9431L62.616 20.1845L63.7117 13.9365L66.2051 12.0517L65.1956 18.113L71.3416 18.7684L65.886 22.8945Z" fill="black"/>
<path d="M45.9916 78.7425C46.3686 78.9586 46.3686 79.3109 45.9916 79.527C45.6146 79.7431 45.0019 79.7431 44.6249 79.527C44.2479 79.3109 44.2479 78.9586 44.6249 78.7425C45.0019 78.525 45.6132 78.525 45.9916 78.7425Z" fill="black"/>
<path d="M49.5662 76.6911C49.9431 76.9073 49.9431 77.2595 49.5662 77.4756C49.1892 77.6918 48.5764 77.6918 48.1994 77.4756C47.8225 77.2595 47.8225 76.9073 48.1994 76.6911C48.5764 76.475 49.1878 76.475 49.5662 76.6911Z" fill="black"/>
<path d="M53.1396 74.6404C53.5166 74.8566 53.5166 75.2088 53.1396 75.4249C52.7626 75.6411 52.1498 75.6411 51.7728 75.4249C51.3959 75.2088 51.3959 74.8566 51.7728 74.6404C52.1498 74.4229 52.7626 74.4229 53.1396 74.6404Z" fill="black"/>
<path d="M38.8426 78.7425C39.2195 78.9586 39.2195 79.3109 38.8426 79.527C38.4656 79.7431 37.8528 79.7431 37.4758 79.527C37.0988 79.3109 37.0988 78.9586 37.4758 78.7425C37.8528 78.525 38.4656 78.525 38.8426 78.7425Z" fill="black"/>
<path d="M42.4171 76.6911C42.7941 76.9073 42.7941 77.2595 42.4171 77.4756C42.0401 77.6918 41.4273 77.6918 41.0504 77.4756C40.6734 77.2595 40.6734 76.9073 41.0504 76.6911C41.4288 76.475 42.0401 76.475 42.4171 76.6911Z" fill="black"/>
<path d="M45.9916 74.6409C46.3686 74.857 46.3686 75.2092 45.9916 75.4254C45.6146 75.6415 45.0019 75.6415 44.6249 75.4254C44.2479 75.2092 44.2479 74.857 44.6249 74.6409C45.0019 74.4247 45.6132 74.4247 45.9916 74.6409Z" fill="black"/>
<path d="M49.5662 72.5901C49.9431 72.8063 49.9431 73.1585 49.5662 73.3747C49.1892 73.5908 48.5764 73.5908 48.1994 73.3747C47.8225 73.1585 47.8225 72.8063 48.1994 72.5901C48.5764 72.3726 49.1878 72.3726 49.5662 72.5901Z" fill="black"/>
<path d="M53.1396 70.539C53.5166 70.7552 53.5166 71.1074 53.1396 71.3235C52.7626 71.5397 52.1498 71.5397 51.7728 71.3235C51.3959 71.1074 51.3959 70.7552 51.7728 70.539C52.1498 70.3229 52.7626 70.3229 53.1396 70.539Z" fill="black"/>
<path d="M31.6968 78.7425C32.0738 78.9586 32.0738 79.3095 31.6968 79.527C31.3198 79.7431 30.7071 79.7431 30.3301 79.527C29.9531 79.3109 29.9531 78.9586 30.3301 78.7425C30.7071 78.525 31.3198 78.525 31.6968 78.7425Z" fill="black"/>
<path d="M35.2714 76.6911C35.6483 76.9073 35.6483 77.2595 35.2714 77.4756C34.8944 77.6918 34.2816 77.6918 33.9046 77.4756C33.5277 77.2595 33.5277 76.9073 33.9046 76.6911C34.2816 76.475 34.8944 76.475 35.2714 76.6911Z" fill="black"/>
<path d="M38.8426 74.6409C39.2195 74.857 39.2195 75.2092 38.8426 75.4254C38.4656 75.6415 37.8528 75.6415 37.4758 75.4254C37.0988 75.2092 37.0988 74.857 37.4758 74.6409C37.8528 74.4247 38.4656 74.4247 38.8426 74.6409Z" fill="black"/>
<path d="M24.5489 78.7425C24.9258 78.9586 24.9258 79.3109 24.5489 79.527C24.1719 79.7431 23.5591 79.7431 23.1821 79.527C22.8052 79.3109 22.8052 78.9586 23.1821 78.7425C23.5591 78.525 24.1705 78.525 24.5489 78.7425Z" fill="black"/>
<path d="M28.1223 76.6911C28.4993 76.9073 28.4993 77.2595 28.1223 77.4756C27.7453 77.6918 27.1325 77.6918 26.7556 77.4756C26.3786 77.2595 26.3786 76.9073 26.7556 76.6911C27.1325 76.475 27.7439 76.475 28.1223 76.6911Z" fill="black"/>
<path d="M31.6968 74.6409C32.0738 74.857 32.0738 75.2092 31.6968 75.4254C31.3198 75.6415 30.7071 75.6415 30.3301 75.4254C29.9531 75.2092 29.9531 74.857 30.3301 74.6409C30.7071 74.4247 31.3198 74.4247 31.6968 74.6409Z" fill="black"/>
<path d="M20.9754 76.6911C21.3524 76.9073 21.3524 77.2595 20.9754 77.4756C20.5985 77.6918 19.9857 77.6918 19.6087 77.4756C19.2317 77.2595 19.2317 76.9087 19.6087 76.6911C19.9871 76.475 20.5985 76.475 20.9754 76.6911Z" fill="black"/>
<path d="M24.5489 74.6409C24.9258 74.857 24.9258 75.2092 24.5489 75.4254C24.1719 75.6415 23.5591 75.6415 23.1821 75.4254C22.8052 75.2092 22.8052 74.857 23.1821 74.6409C23.5591 74.4247 24.1705 74.4247 24.5489 74.6409Z" fill="black"/>
<path d="M28.1223 72.5901C28.4993 72.8063 28.4993 73.1585 28.1223 73.3747C27.7453 73.5908 27.1325 73.5908 26.7556 73.3747C26.3786 73.1585 26.3786 72.8063 26.7556 72.5901C27.1325 72.3726 27.7439 72.3726 28.1223 72.5901Z" fill="black"/>
<path d="M17.4009 74.6409C17.7779 74.857 17.7779 75.2092 17.4009 75.4254C17.0239 75.6415 16.4111 75.6415 16.0342 75.4254C15.6572 75.2092 15.6572 74.857 16.0342 74.6409C16.4111 74.4247 17.0239 74.4247 17.4009 74.6409Z" fill="black"/>
<path d="M20.9754 72.5901C21.3524 72.8063 21.3524 73.1585 20.9754 73.3747C20.5985 73.5908 19.9857 73.5908 19.6087 73.3747C19.2317 73.1585 19.2317 72.8063 19.6087 72.5901C19.9871 72.3726 20.5985 72.3726 20.9754 72.5901Z" fill="black"/>
<path d="M24.5489 70.539C24.9258 70.7552 24.9258 71.1074 24.5489 71.3235C24.1719 71.5397 23.5591 71.5397 23.1821 71.3235C22.8052 71.1074 22.8052 70.7552 23.1821 70.539C23.5591 70.3229 24.1705 70.3229 24.5489 70.539Z" fill="black"/>
<path d="M13.8275 72.5901C14.2045 72.8063 14.2045 73.1585 13.8275 73.3747C13.4505 73.5908 12.8377 73.5908 12.4608 73.3747C12.0838 73.1585 12.0838 72.8063 12.4608 72.5901C12.8377 72.3726 13.4505 72.3726 13.8275 72.5901Z" fill="black"/>
<path d="M17.4009 70.539C17.7779 70.7552 17.7779 71.1074 17.4009 71.3235C17.0239 71.5397 16.4111 71.5397 16.0342 71.3235C15.6572 71.1074 15.6572 70.7552 16.0342 70.539C16.4111 70.3229 17.0239 70.3229 17.4009 70.539Z" fill="black"/>
<path d="M20.9754 68.4881C21.3524 68.7042 21.3524 69.0565 20.9754 69.2726C20.5985 69.4887 19.9857 69.4887 19.6087 69.2726C19.2317 69.0565 19.2317 68.7042 19.6087 68.4881C19.9871 68.2706 20.5985 68.2706 20.9754 68.4881Z" fill="black"/>
<path d="M24.5489 66.4368C24.9258 66.6529 24.9258 67.0051 24.5489 67.2213C24.1719 67.4374 23.5591 67.4374 23.1821 67.2213C22.8052 67.0051 22.8052 66.6529 23.1821 66.4368C23.5591 66.2206 24.1705 66.2206 24.5489 66.4368Z" fill="black"/>
<path d="M10.2541 70.539C10.631 70.7552 10.631 71.1074 10.2541 71.3235C9.87708 71.5397 9.26431 71.5397 8.88733 71.3235C8.51035 71.1074 8.51035 70.7552 8.88733 70.539C9.26431 70.3229 9.87708 70.3229 10.2541 70.539Z" fill="black"/>
<path d="M13.8275 68.4881C14.2045 68.7042 14.2045 69.0565 13.8275 69.2726C13.4505 69.4887 12.8377 69.4887 12.4608 69.2726C12.0838 69.0565 12.0838 68.7042 12.4608 68.4881C12.8377 68.2706 13.4505 68.2706 13.8275 68.4881Z" fill="black"/>
<path d="M17.4009 66.4368C17.7779 66.6529 17.7779 67.0051 17.4009 67.2213C17.0239 67.4374 16.4111 67.4374 16.0342 67.2213C15.6572 67.0051 15.6572 66.6529 16.0342 66.4368C16.4111 66.2206 17.0239 66.2206 17.4009 66.4368Z" fill="black"/>
<path d="M20.9754 64.3865C21.3524 64.6026 21.3524 64.9548 20.9754 65.171C20.5985 65.3871 19.9857 65.3871 19.6087 65.171C19.2317 64.9548 19.2317 64.6026 19.6087 64.3865C19.9871 64.1703 20.5985 64.1703 20.9754 64.3865Z" fill="black"/>
<path d="M6.64937 68.4651C7.02635 68.6812 7.02635 69.0334 6.64937 69.2496C6.27239 69.4657 5.65962 69.4657 5.28264 69.2496C4.90566 69.0334 4.90566 68.6812 5.28264 68.4651C5.65962 68.2489 6.27239 68.2489 6.64937 68.4651Z" fill="black"/>
<path d="M10.2228 66.415C10.5998 66.6311 10.5998 66.9834 10.2228 67.1995C9.84582 67.4156 9.23305 67.4156 8.85607 67.1995C8.47909 66.9834 8.47909 66.6311 8.85607 66.415C9.23305 66.1989 9.84582 66.1989 10.2228 66.415Z" fill="black"/>
<path d="M13.7962 64.3655C14.1732 64.5817 14.1732 64.9339 13.7962 65.1501C13.4192 65.3662 12.8065 65.3662 12.4295 65.1501C12.0525 64.9339 12.0525 64.5817 12.4295 64.3655C12.8065 64.148 13.4192 64.148 13.7962 64.3655Z" fill="black"/>
<path d="M17.3707 62.3132C17.7477 62.5293 17.7477 62.8816 17.3707 63.0977C16.9938 63.3138 16.381 63.3138 16.004 63.0977C15.627 62.8816 15.627 62.5293 16.004 62.3132C16.3824 62.0971 16.9938 62.0971 17.3707 62.3132Z" fill="black"/>
<path d="M6.64937 64.3655C7.02635 64.5817 7.02635 64.9339 6.64937 65.1501C6.27239 65.3662 5.65962 65.3662 5.28264 65.1501C4.90566 64.9339 4.90566 64.5817 5.28264 64.3655C5.65962 64.148 6.27239 64.148 6.64937 64.3655Z" fill="black"/>
<path d="M10.2228 62.3132C10.5998 62.5293 10.5998 62.8816 10.2228 63.0977C9.84582 63.3138 9.23305 63.3138 8.85607 63.0977C8.47909 62.8816 8.47909 62.5293 8.85607 62.3132C9.23305 62.0971 9.84582 62.0971 10.2228 62.3132Z" fill="black"/>
<path d="M13.7962 60.2629C14.1732 60.479 14.1732 60.8313 13.7962 61.0474C13.4192 61.2635 12.8065 61.2635 12.4295 61.0474C12.0525 60.8313 12.0525 60.4805 12.4295 60.2629C12.8065 60.0468 13.4192 60.0468 13.7962 60.2629Z" fill="black"/>
<path d="M17.3707 58.2122C17.7477 58.4283 17.7477 58.7806 17.3707 58.9967C16.9938 59.2128 16.381 59.2128 16.004 58.9967C15.627 58.7806 15.627 58.4283 16.004 58.2122C16.3824 57.9947 16.9938 57.9947 17.3707 58.2122Z" fill="black"/>
<path d="M10.2228 58.2122C10.5998 58.4283 10.5998 58.7792 10.2228 58.9967C9.84582 59.2128 9.23305 59.2128 8.85607 58.9967C8.47909 58.7806 8.47909 58.4283 8.85607 58.2122C9.23305 57.9947 9.84582 57.9947 10.2228 58.2122Z" fill="black"/>
<path d="M13.7962 56.1606C14.1732 56.3768 14.1732 56.729 13.7962 56.9451C13.4192 57.1613 12.8065 57.1613 12.4295 56.9451C12.0525 56.729 12.0525 56.3768 12.4295 56.1606C12.8065 55.9445 13.4192 55.9445 13.7962 56.1606Z" fill="black"/>
</svg>
