<svg width="80" height="80" viewBox="0 0 80 80" fill="none" xmlns="http://www.w3.org/2000/svg">
<path d="M75.7412 44.8885C75.7412 44.8703 75.7425 44.8533 75.7412 44.8351V43.7548H75.0378C74.9896 43.7223 74.9414 43.6884 74.888 43.6572L45.9641 26.971C44.6967 26.2395 42.4836 26.3319 41.0195 27.1753L4.07696 48.6357C3.81514 48.7867 3.59631 48.952 3.41915 49.1251H2.86816V51.6359C2.87989 52.0888 3.15994 52.521 3.72266 52.8451L32.6465 69.5313C33.9139 70.2628 36.127 70.1704 37.5911 69.327L74.5337 47.8665C75.3074 47.4201 75.7125 46.8539 75.7386 46.3098L75.7412 45.6317V44.8885Z" fill="#FE5721"/>
<path d="M75.7379 46.2998L75.7405 45.6217V44.8772C75.7405 44.8589 75.7418 44.842 75.7405 44.8238V43.7435H75.0384C74.9902 43.711 74.942 43.6771 74.8886 43.6459L64.1593 37.4556C63.3425 37.4738 62.7499 37.5207 62.5011 37.6027C60.9745 38.109 36.3869 52.3938 35.8893 54.5622C35.393 56.7307 34.4721 67.5884 34.4721 67.5884V70.0016C35.535 70.0602 36.6995 69.8298 37.5892 69.3169L74.5317 47.8565C75.3055 47.41 75.7106 46.8438 75.7379 46.2998Z" fill="black"/>
<path d="M34.792 70.2747C33.9401 70.2747 33.126 70.1029 32.5176 69.7528L3.59379 53.0665C2.97637 52.7099 2.62727 52.2036 2.61295 51.6439V48.8715H3.31764C3.4987 48.7062 3.71102 48.5526 3.9494 48.416L40.8932 26.9555C42.4238 26.0717 44.7554 25.9806 46.0919 26.7512L75.0157 43.4374C75.0496 43.457 75.0835 43.479 75.116 43.4999H75.9953L75.9926 46.3126C75.9601 46.9855 75.4873 47.6116 74.6601 48.088L37.7176 69.5471C36.8826 70.0287 35.8106 70.2747 34.792 70.2747ZM3.12226 49.3804V51.6361C3.13268 52.0122 3.38408 52.3558 3.8491 52.624L32.773 69.3102C33.9687 70.0014 36.0724 69.9076 37.4622 69.1059L74.4048 47.6467C75.0665 47.2654 75.4599 46.7734 75.4833 46.2983L75.4872 44.8639L75.4859 44.0088H74.961L74.8972 43.9658C74.8281 43.919 74.7969 43.8982 74.763 43.8787L45.8366 27.1911C44.6408 26.5012 42.5384 26.5924 41.1473 27.3954L4.2034 48.8559C3.96763 48.9913 3.76313 49.1435 3.5964 49.3062L3.52215 49.3791L3.12226 49.3804Z" fill="black"/>
<path d="M32.6475 67.1059L3.72366 50.4196C2.45625 49.6881 2.61516 48.4112 4.07797 47.5678L41.0205 26.1074C42.4833 25.2627 44.6977 25.1715 45.9651 25.903L74.889 42.5893C76.1564 43.3208 75.9975 44.5976 74.5334 45.4411L37.5921 66.9015C36.128 67.7449 33.9149 67.8373 32.6475 67.1059Z" fill="#FE5721"/>
<path d="M34.793 67.8491C33.9411 67.8491 33.127 67.6773 32.5187 67.3272L3.59488 50.6409C2.96052 50.2752 2.61273 49.7572 2.61273 49.1819C2.61273 48.5063 3.0999 47.8386 3.95048 47.3479L40.8943 25.8875C42.4262 25.0063 44.7578 24.9139 46.0929 25.6831L75.0168 42.3694C75.6511 42.7351 76.0002 43.2531 76.0002 43.8284C76.0002 44.504 75.5131 45.1717 74.6625 45.6637L37.7173 67.1228C36.8824 67.6031 35.8103 67.8491 34.793 67.8491ZM43.8173 25.661C42.8912 25.661 41.9116 25.8874 41.147 26.3287L4.20319 47.7892C3.51542 48.1861 3.11944 48.6938 3.11944 49.1819C3.11944 49.5671 3.37735 49.9289 3.84758 50.1997L32.7714 66.8859C33.9672 67.5771 36.0709 67.4834 37.4607 66.6816L74.4033 45.2211C75.0923 44.8242 75.487 44.3165 75.487 43.8284C75.487 43.4432 75.2278 43.0813 74.7589 42.8106L45.8363 26.123C45.2984 25.812 44.5754 25.661 43.8173 25.661Z" fill="black"/>
<path d="M35.4032 65.4841L35.2795 65.4138L7.38855 49.3224L42.5322 28.9006L42.656 28.9709L70.5469 45.0623L35.4032 65.4841Z" fill="black"/>
<path d="M35.5603 63.8613L7.17441 47.4848L43.0124 26.6621L71.3983 43.0386L35.5603 63.8613Z" fill="#FE5721"/>
<path d="M35.5596 64.1544L35.4319 64.0815L6.6644 47.485L43.013 26.3682L43.1406 26.4411L71.9081 43.0375L35.5596 64.1544ZM7.68302 47.485L35.5596 63.5673L70.8882 43.0388L43.0117 26.9565L7.68302 47.485Z" fill="black"/>
<path d="M66.8806 33.5061L66.8675 33.618L63.9771 31.9507C63.9263 31.9871 63.882 32.0262 63.8221 32.06C63.0067 32.5299 62.5325 33.2822 61.7171 32.811C60.9017 32.3412 60.0537 32.1836 60.8691 31.7138C60.9277 31.6799 60.9942 31.6539 61.058 31.6253L61.3237 29.449L60.1996 29.0599L60.0264 31.0291L56.8324 27.8286C56.271 27.5045 55.3123 27.662 55.1287 28.1071L54.7209 29.0963L54.3497 29.0599V31.4314C54.3497 31.4392 54.3497 31.4483 54.3497 31.4561V31.4639C54.3627 31.6058 54.4643 31.7424 54.6428 31.8466L63.4287 36.9149C63.6736 37.0568 64.0279 37.1153 64.3653 37.0724L67.5813 36.6598C68.0985 36.5934 68.3955 36.3253 68.3733 36.0572V33.7221L66.8806 33.5061Z" fill="black"/>
<path d="M64.1435 37.3385C63.8322 37.3385 63.5287 37.2669 63.2981 37.1329L54.5122 32.0658C54.3885 31.9942 54.2895 31.907 54.2191 31.8107L54.0928 31.8732L54.0915 28.7767L54.5539 28.8223L54.8887 28.0088C54.9812 27.7836 55.2013 27.6014 55.5087 27.4973C55.9815 27.3372 56.5625 27.3801 56.9559 27.6066L57.0093 27.6483L59.8176 30.461L59.9701 28.7338L61.61 29.3156V32.0086L61.1619 31.8563C61.0681 31.8979 61.0304 31.9135 60.9952 31.9344C60.904 31.9864 60.8506 32.0255 60.8219 32.0528C60.9144 32.1244 61.1241 32.2246 61.2844 32.3027C61.4589 32.3873 61.6517 32.481 61.8419 32.5904C62.2756 32.8416 62.5479 32.6619 63.0741 32.2636C63.2552 32.127 63.461 31.9721 63.6928 31.8393C63.7267 31.8198 63.7541 31.7977 63.7827 31.7769L63.9169 31.674L64.1018 31.73L66.6862 33.2216L68.4694 33.4806C68.5593 33.4936 68.6244 33.5704 68.6244 33.6602V36.0578C68.6596 36.4704 68.2441 36.8309 67.611 36.9116L64.3949 37.3242C64.3116 37.3333 64.2269 37.3385 64.1435 37.3385ZM54.5995 31.4293V31.4372C54.6047 31.497 54.6672 31.5673 54.7662 31.6246L63.5522 36.6916C63.7488 36.8062 64.0471 36.853 64.3285 36.8179L67.5446 36.4053C67.9301 36.3558 68.1242 36.1827 68.1138 36.0773V33.9414L67.0991 33.7943L67.073 34.0312L63.9885 32.2519C63.9742 32.261 63.9612 32.2702 63.9468 32.278C63.741 32.3964 63.5574 32.5344 63.3789 32.6684C62.8631 33.0563 62.329 33.4585 61.5853 33.029C61.4055 32.9249 61.2231 32.8363 61.0603 32.7569C60.6305 32.5487 60.2905 32.3834 60.2801 32.0671C60.271 31.7951 60.5197 31.6155 60.7386 31.4892C60.7581 31.4775 61.0785 31.6884 61.0994 31.678V29.7022L60.4221 29.3807L60.2267 31.592L56.6719 28.0309C56.4049 27.8917 55.9907 27.8695 55.6715 27.9775C55.51 28.0322 55.3941 28.1155 55.3589 28.2014L54.8796 29.3664L54.5995 29.3377V31.4293Z" fill="black"/>
<path d="M68.0755 33.3385L63.9736 30.9721C63.9228 31.0086 63.8785 31.0477 63.8186 31.0815C63.0032 31.5514 61.6811 31.5514 60.8657 31.0815C60.0503 30.6103 60.0503 29.8476 60.8657 29.3777C60.9243 29.3439 60.9907 29.3178 61.0545 29.2892L56.8277 26.8501C56.2662 26.526 55.3075 26.6835 55.1239 27.1286L54.3697 28.9612C54.2889 29.1591 54.3905 29.366 54.6393 29.5105L63.4253 34.5789C63.6701 34.7207 64.0244 34.7793 64.3618 34.7364L67.5779 34.3237C68.3594 34.2222 68.6408 33.6638 68.0755 33.3385Z" fill="#FE5721"/>
<path d="M64.1417 35.0032C63.8304 35.0032 63.5269 34.9303 63.2964 34.7975L54.5104 29.7305C54.1496 29.5222 54.0011 29.1812 54.1327 28.8636L54.8869 27.031C54.9794 26.8058 55.1995 26.6236 55.5069 26.5195C55.9798 26.3594 56.5607 26.4024 56.9541 26.6288L61.6082 29.314L61.1601 29.5196C61.0663 29.5613 61.0286 29.5769 60.9934 29.5977C60.6795 29.7786 60.5075 30.0025 60.5075 30.229C60.5075 30.4568 60.6795 30.6806 60.9921 30.8615C61.7241 31.282 62.9603 31.282 63.691 30.8615C63.7249 30.842 63.7523 30.8199 63.7809 30.7991L63.9151 30.6963L64.1001 30.7522L68.2019 33.1198C68.5184 33.302 68.6721 33.5819 68.6148 33.8695C68.5406 34.2366 68.155 34.5073 67.6092 34.5776L64.3931 34.9902C64.3098 34.998 64.2251 35.0032 64.1417 35.0032ZM56.11 26.9321C55.9589 26.9321 55.8065 26.9542 55.671 26.9998C55.5095 27.0545 55.3936 27.1378 55.3584 27.2237L54.6042 29.0563C54.5625 29.1604 54.7175 29.2593 54.7657 29.288L63.5517 34.355C63.7484 34.4682 64.0467 34.5164 64.328 34.4812L67.5441 34.0687C67.9257 34.0192 68.0964 33.8578 68.1146 33.7654C68.1329 33.673 67.9909 33.5819 67.9466 33.5558L63.988 31.2729C63.9737 31.282 63.9607 31.2911 63.9463 31.2989C63.045 31.8169 61.6369 31.8169 60.7368 31.3002C60.26 31.0256 59.9982 30.6442 59.9982 30.2277C59.9982 29.8723 60.1897 29.5443 60.5401 29.284L56.6988 27.0687C56.5425 26.9802 56.3275 26.9321 56.11 26.9321Z" fill="black"/>
<path d="M68.5696 41.4916L45.8252 28.3703C45.2781 28.0553 45.3472 27.5048 45.9776 27.1403L47.3844 26.3281C48.0148 25.9637 48.9696 25.9246 49.5167 26.2396L72.2611 39.3609C72.8082 39.6758 72.7392 40.2264 72.1074 40.5909L70.7006 41.4018C70.0715 41.7675 69.1167 41.8066 68.5696 41.4916Z" fill="#FE5721"/>
<path d="M69.4937 41.9608C69.1016 41.9608 68.7252 41.8788 68.4373 41.7135L45.6942 28.5923C45.3738 28.4075 45.1979 28.1393 45.1979 27.8374C45.1966 27.4938 45.4337 27.1592 45.8466 26.9211L47.2534 26.1089C47.9646 25.6989 49.0145 25.6598 49.6397 26.0203L72.3841 39.1416C72.7045 39.3264 72.8804 39.5945 72.8804 39.8978C72.8791 40.2414 72.6433 40.5759 72.2304 40.8141L70.8236 41.6263C70.4394 41.8476 69.9561 41.9608 69.4937 41.9608ZM68.6926 41.271C69.1602 41.5404 70.0199 41.5001 70.5696 41.1825L71.9764 40.3703C72.2226 40.2284 72.3711 40.0514 72.3711 39.8952C72.3711 39.7507 72.2395 39.644 72.1301 39.5815L49.3857 26.4616C48.9181 26.1909 48.0584 26.2325 47.5087 26.5501L46.1019 27.361C45.8557 27.5028 45.7072 27.6812 45.7085 27.8361C45.7085 27.9805 45.8401 28.086 45.9495 28.1497L68.6926 41.271Z" fill="black"/>
<path d="M61.4412 38.4655L50.0696 31.9055C49.7961 31.748 49.8313 31.4721 50.1465 31.2899L50.8499 30.8838C51.1651 30.7016 51.6432 30.6821 51.9154 30.8395L63.287 37.3995C63.5605 37.557 63.5253 37.8329 63.2101 38.0152L62.5067 38.4213C62.1915 38.6035 61.7147 38.623 61.4412 38.4655Z" fill="#FE5721"/>
<path d="M61.9058 38.8267C61.687 38.828 61.4773 38.7799 61.3132 38.6862L49.9416 32.1262C49.7436 32.0117 49.629 31.8334 49.6303 31.6381C49.6303 31.4195 49.771 31.2125 50.0185 31.0707L50.7219 30.6645C51.1204 30.4355 51.6871 30.4159 52.0427 30.6203L63.4155 37.1803C63.6135 37.2948 63.7268 37.4731 63.7268 37.6684C63.7268 37.887 63.5862 38.094 63.3387 38.2359L62.6353 38.6419C62.4204 38.7643 62.1585 38.8267 61.9058 38.8267ZM51.4552 30.9874C51.2898 30.9874 51.11 31.0277 50.9759 31.1058L50.2725 31.5119C50.1657 31.573 50.1396 31.629 50.1396 31.6394C50.1409 31.642 50.1552 31.6616 50.1969 31.6863L61.5685 38.2463C61.7652 38.3608 62.1429 38.3387 62.38 38.202L63.0834 37.7959C63.1902 37.7347 63.2162 37.6788 63.2162 37.6684C63.2149 37.6658 63.2006 37.6449 63.1589 37.6215L51.7874 31.0615C51.7014 31.0108 51.5816 30.9874 51.4552 30.9874Z" fill="black"/>
<path d="M41.039 44.0687C40.0882 43.5194 38.5459 43.5194 37.5937 44.0687C36.6428 44.618 36.6428 45.5069 37.5937 46.0562C38.5446 46.6055 40.0869 46.6055 41.039 46.0562C41.9899 45.5069 41.9899 44.6167 41.039 44.0687Z" fill="black"/>
<path d="M44.7864 41.5278C41.7188 39.7577 36.911 39.7564 33.8408 41.5278C32.2555 42.4415 31.3828 43.6962 31.3828 45.0603C31.3828 46.4243 32.2555 47.6804 33.8408 48.5941C35.3752 49.4804 37.3434 49.923 39.3129 49.923C41.2824 49.923 43.252 49.4804 44.7864 48.5941C46.3716 47.6804 47.2444 46.4243 47.2444 45.0603C47.2444 43.6962 46.3716 42.4415 44.7864 41.5278ZM44.1351 47.4669C41.4765 49.0002 37.152 49.0002 34.4921 47.4669C33.3263 46.794 32.6854 45.9389 32.6854 45.059C32.6854 44.1791 33.3263 43.3253 34.4921 42.6524C35.822 41.8857 37.5675 41.5018 39.3129 41.5018C41.0597 41.5018 42.8052 41.8857 44.1351 42.6524C45.3009 43.3253 45.9418 44.1791 45.9418 45.059C45.9418 45.9389 45.2996 46.7953 44.1351 47.4669Z" fill="black"/>
<path d="M41.039 42.7606C40.0882 42.2113 38.5459 42.2113 37.5937 42.7606C36.6428 43.3098 36.6428 44.1988 37.5937 44.7481C38.5446 45.2974 40.0869 45.2974 41.039 44.7481C41.9899 44.2001 41.9899 43.3098 41.039 42.7606Z" fill="#FE5721"/>
<path d="M44.7864 40.2219C41.7188 38.4517 36.911 38.4504 33.8408 40.2219C32.2555 41.1356 31.3828 42.3904 31.3828 43.7544C31.3828 45.1185 32.2555 46.3745 33.8408 47.2882C35.3752 48.1746 37.3434 48.6171 39.3129 48.6171C41.2824 48.6171 43.252 48.1746 44.7864 47.2882C46.3716 46.3745 47.2444 45.1185 47.2444 43.7544C47.2431 42.3904 46.3703 41.1356 44.7864 40.2219ZM44.1351 46.161C41.4765 47.6943 37.152 47.6943 34.4921 46.161C33.3263 45.4881 32.6854 44.633 32.6854 43.7531C32.6854 42.8732 33.3263 42.0194 34.4921 41.3465C35.822 40.5799 37.5675 40.1959 39.3129 40.1959C41.0597 40.1959 42.8052 40.5799 44.1351 41.3465C45.3009 42.0194 45.9418 42.8732 45.9418 43.7531C45.9418 44.633 45.2996 45.4894 44.1351 46.161Z" fill="#FE5721"/>
<path d="M38.2893 4.07704C33.1493 6.44332 28.5408 13.6098 28.1044 20.2335C27.9299 22.8835 28.4535 25.0273 29.4943 26.4889L36.8968 40.5174L40.4464 42.2498C40.7655 41.5261 45.9459 16.8859 46.183 16.1453C46.7379 14.4142 50.5271 13.3248 50.5557 11.6392C50.6599 5.46713 43.3016 1.76934 38.2893 4.07704ZM37.6393 19.886C35.6151 20.896 34.0637 19.657 34.1914 17.1397C34.3164 14.6563 36.0319 11.8943 38.0066 10.952C39.9618 10.0188 41.4715 11.2071 41.3947 13.6241C41.3165 16.0737 39.6427 18.8864 37.6393 19.886Z" fill="#FE5721"/>
<path d="M38.9272 5.33942C33.7872 7.70569 29.1787 14.8735 28.7423 21.4959C28.6589 22.7546 28.7449 23.8895 28.9572 24.9009C34.8215 28.4242 39.2151 28.2186 43.7949 31.3411C45.2213 24.7187 46.6971 17.7942 46.8208 17.4064C47.3757 15.674 50.2167 14.3763 50.244 12.6894C50.3495 6.51996 43.9395 3.03302 38.9272 5.33942ZM38.2772 21.1484C36.253 22.1584 34.7016 20.9193 34.8293 18.4021C34.9543 15.9187 36.6698 13.1567 38.6445 12.2144C40.5997 11.2812 42.1094 12.4695 42.0326 14.8865C41.9544 17.3374 40.2806 20.1488 38.2772 21.1484Z" fill="#FE5721"/>
<path d="M40.6396 42.7781L36.6094 40.8115L36.5508 40.6982L29.1482 26.6698C28.0436 25.1235 27.5382 22.8757 27.7141 20.2087C28.153 13.5603 32.8228 6.16469 38.1256 3.72292C40.7907 2.49423 44.2829 2.85345 47.0183 4.63532C49.5623 6.29223 50.9938 8.84724 50.9469 11.6443C50.9287 12.7338 49.759 13.5329 48.6283 14.3061C47.7191 14.9282 46.7787 15.5712 46.5559 16.2636C46.4634 16.5578 45.4969 21.0561 44.4744 25.8172C42.4463 35.2589 40.9965 41.9763 40.805 42.4072L40.6396 42.7781ZM37.1812 40.2218L40.1967 41.6939C40.6735 39.7741 42.4072 31.7056 43.7072 25.6532C44.9472 19.882 45.7118 16.3313 45.8095 16.0267C46.113 15.0779 47.1668 14.3581 48.1842 13.6631C49.152 13.0019 50.1511 12.3186 50.1641 11.6326C50.2058 9.11016 48.9045 6.79726 46.5898 5.29133C44.0745 3.65134 40.8819 3.31552 38.4513 4.43357C33.3816 6.76731 28.9137 13.8674 28.4917 20.2608C28.3276 22.7455 28.7835 24.8215 29.8099 26.2624L37.1812 40.2218ZM36.2942 20.6278C35.8331 20.6278 35.4071 20.5068 35.0346 20.2634C34.1775 19.7037 33.7281 18.5583 33.7997 17.1214C33.9339 14.4818 35.7067 11.6157 37.8377 10.6005C38.842 10.1228 39.802 10.1254 40.5432 10.6096C41.3769 11.1536 41.8288 12.2574 41.7859 13.637C41.7038 16.222 39.9219 19.1831 37.8156 20.2348C37.2867 20.4977 36.7722 20.6278 36.2942 20.6278ZM39.2758 11.0261C38.9358 11.0261 38.562 11.1185 38.1738 11.3046C36.3098 12.1936 34.6985 14.8202 34.58 17.1591C34.5214 18.3136 34.8431 19.2052 35.4618 19.61C35.9802 19.9497 36.6902 19.9211 37.4639 19.5358C39.3409 18.5987 40.9288 15.9409 41.003 13.611C41.0382 12.5099 40.7138 11.6534 40.1147 11.2617C39.8724 11.1055 39.5884 11.0261 39.2758 11.0261Z" fill="black"/>
<path d="M50.6364 12.6962C50.7406 6.52675 46.8497 3.50056 41.8374 5.80826C36.6974 8.17453 32.0889 15.341 31.6525 21.9648C31.478 24.6161 32.0016 26.7585 33.0424 28.2202L40.4449 42.2486L48.8935 20.0762C49.2126 19.3538 49.494 18.6171 49.7324 17.8752C50.2873 16.1441 50.6077 14.3831 50.6364 12.6962Z" fill="black"/>
<path d="M40.637 42.7773L40.1615 42.5495L32.6951 28.4013C31.5906 26.8563 31.0851 24.6072 31.261 21.939C31.7 15.2905 36.3697 7.89494 41.6725 5.45317C44.0472 4.36115 46.3032 4.37936 48.0278 5.50263C50.0169 6.799 51.0824 9.35661 51.0251 12.7017C50.9964 14.3924 50.6864 16.173 50.1029 17.9939C49.8606 18.7462 49.574 19.4985 49.2497 20.2326L40.637 42.7773ZM45.0397 5.42843C44.0901 5.42843 43.0598 5.67314 41.9982 6.16253C36.9285 8.49626 32.4607 15.5964 32.0386 21.9897C31.8758 24.4757 32.3317 26.5518 33.3569 27.9926L40.3843 41.3026L48.5254 19.9371C48.8472 19.2096 49.1233 18.482 49.3578 17.7557C49.9179 16.0077 50.2162 14.3026 50.2435 12.69C50.2943 9.66638 49.3304 7.2858 47.6006 6.15733C46.8555 5.67184 45.9867 5.42843 45.0397 5.42843Z" fill="black"/>
<path d="M40.7387 26.4372L36.9716 23.8757C36.4427 23.5164 36.4818 22.4622 37.0576 21.5198C37.6333 20.5788 38.5282 20.1063 39.0557 20.4655L40.9549 21.7567L44.4614 14.6397C44.9551 13.657 45.8461 13.0387 46.4518 13.26C47.0575 13.4812 47.1474 14.4575 46.6524 15.4402L41.4004 26.0337C41.2323 26.3695 40.9197 26.5596 40.7387 26.4372Z" fill="#FE5721"/>
<path d="M38.8155 75.3876C39.1633 75.5881 39.1633 75.9148 38.8155 76.1152C38.4677 76.3157 37.9024 76.3157 37.5546 76.1152C37.2068 75.9148 37.2068 75.5881 37.5546 75.3876C37.9037 75.1859 38.4677 75.1859 38.8155 75.3876Z" fill="black"/>
<path d="M42.1135 73.4858C42.4613 73.6862 42.4613 74.0129 42.1135 74.2134C41.7658 74.4138 41.2004 74.4138 40.8526 74.2134C40.5048 74.0129 40.5048 73.6875 40.8526 73.4858C41.2004 73.2853 41.7644 73.2853 42.1135 73.4858Z" fill="black"/>
<path d="M45.4146 71.5834C45.7624 71.7839 45.7624 72.1106 45.4146 72.311C45.0668 72.5115 44.5015 72.5115 44.1537 72.311C43.8059 72.1106 43.8059 71.7839 44.1537 71.5834C44.5015 71.383 45.0655 71.383 45.4146 71.5834Z" fill="black"/>
<path d="M48.7066 69.6816C49.0544 69.882 49.0544 70.2087 48.7066 70.4092C48.3588 70.6096 47.7935 70.6096 47.4457 70.4092C47.0979 70.2087 47.0979 69.882 47.4457 69.6816C47.7935 69.4798 48.3588 69.4798 48.7066 69.6816Z" fill="black"/>
<path d="M52.0077 67.7775C52.3555 67.978 52.3555 68.3047 52.0077 68.5051C51.6599 68.7055 51.0946 68.7055 50.7468 68.5051C50.399 68.3047 50.399 67.978 50.7468 67.7775C51.0946 67.5771 51.6599 67.5771 52.0077 67.7775Z" fill="black"/>
<path d="M55.2997 65.8774C55.6475 66.0778 55.6475 66.4045 55.2997 66.605C54.9519 66.8054 54.3866 66.8054 54.0388 66.605C53.691 66.4045 53.691 66.0778 54.0388 65.8774C54.3866 65.6756 54.9519 65.6756 55.2997 65.8774Z" fill="black"/>
<path d="M58.6017 63.9736C58.9495 64.174 58.9495 64.5007 58.6017 64.7011C58.2539 64.9016 57.6886 64.9016 57.3408 64.7011C56.993 64.5007 56.993 64.174 57.3408 63.9736C57.6899 63.7731 58.2539 63.7731 58.6017 63.9736Z" fill="black"/>
<path d="M61.8958 62.0715C62.2436 62.2719 62.2436 62.5986 61.8958 62.799C61.548 62.9995 60.9827 62.9995 60.6349 62.799C60.2871 62.5986 60.2871 62.2719 60.6349 62.0715C60.9827 61.871 61.5467 61.871 61.8958 62.0715Z" fill="black"/>
<path d="M65.1948 60.1699C65.5426 60.3703 65.5426 60.697 65.1948 60.8974C64.847 61.0979 64.2817 61.0979 63.9339 60.8974C63.5861 60.697 63.5861 60.3703 63.9339 60.1699C64.2817 59.9681 64.8457 59.9681 65.1948 60.1699Z" fill="black"/>
<path d="M68.4898 58.2683C68.8376 58.4687 68.8376 58.7954 68.4898 58.9958C68.142 59.1963 67.5767 59.1963 67.2289 58.9958C66.8811 58.7954 66.8811 58.4687 67.2289 58.2683C67.5767 58.0678 68.142 58.0678 68.4898 58.2683Z" fill="black"/>
<path d="M71.7869 56.3654C72.1346 56.5659 72.1346 56.8925 71.7869 57.093C71.4391 57.2934 70.8737 57.2934 70.5259 57.093C70.1782 56.8925 70.1782 56.5659 70.5259 56.3654C70.8737 56.165 71.4391 56.165 71.7869 56.3654Z" fill="black"/>
<path d="M75.0879 54.4648C75.4357 54.6652 75.4357 54.9919 75.0879 55.1924C74.7401 55.3928 74.1748 55.3928 73.827 55.1924C73.4792 54.9919 73.4792 54.6652 73.827 54.4648C74.1748 54.263 74.7401 54.263 75.0879 54.4648Z" fill="black"/>
<path d="M32.2214 75.3871C32.5692 75.5876 32.5692 75.9143 32.2214 76.1148C31.8737 76.3152 31.3083 76.3152 30.9605 76.1148C30.6128 75.9143 30.6128 75.5876 30.9605 75.3871C31.3083 75.1867 31.8737 75.1854 32.2214 75.3871Z" fill="black"/>
<path d="M35.5215 73.4858C35.8693 73.6862 35.8693 74.0129 35.5215 74.2134C35.1737 74.4138 34.6084 74.4138 34.2606 74.2134C33.9128 74.0129 33.9128 73.6862 34.2606 73.4858C34.6084 73.2853 35.1737 73.2853 35.5215 73.4858Z" fill="black"/>
<path d="M38.8155 71.5834C39.1633 71.7839 39.1633 72.1093 38.8155 72.311C38.4677 72.5115 37.9024 72.5115 37.5546 72.311C37.2068 72.1106 37.2068 71.7839 37.5546 71.5834C37.9037 71.383 38.4677 71.383 38.8155 71.5834Z" fill="black"/>
<path d="M42.1135 69.6816C42.4613 69.882 42.4613 70.2087 42.1135 70.4092C41.7658 70.6096 41.2004 70.6096 40.8526 70.4092C40.5048 70.2087 40.5048 69.882 40.8526 69.6816C41.2004 69.4798 41.7644 69.4798 42.1135 69.6816Z" fill="black"/>
<path d="M45.4146 67.7775C45.7624 67.978 45.7624 68.3047 45.4146 68.5051C45.0668 68.7055 44.5015 68.7055 44.1537 68.5051C43.8059 68.3047 43.8059 67.9793 44.1537 67.7775C44.5015 67.5771 45.0655 67.5771 45.4146 67.7775Z" fill="black"/>
<path d="M48.7066 65.8774C49.0544 66.0778 49.0544 66.4045 48.7066 66.605C48.3588 66.8054 47.7935 66.8054 47.4457 66.605C47.0979 66.4045 47.0979 66.0778 47.4457 65.8774C47.7935 65.6756 48.3588 65.6756 48.7066 65.8774Z" fill="black"/>
<path d="M52.0077 63.9736C52.3555 64.174 52.3555 64.5007 52.0077 64.7011C51.6599 64.9016 51.0946 64.9016 50.7468 64.7011C50.399 64.5007 50.399 64.174 50.7468 63.9736C51.0946 63.7731 51.6599 63.7731 52.0077 63.9736Z" fill="black"/>
<path d="M55.2997 62.0715C55.6475 62.2719 55.6475 62.5986 55.2997 62.799C54.9519 62.9995 54.3866 62.9995 54.0388 62.799C53.691 62.5986 53.691 62.2719 54.0388 62.0715C54.3866 61.871 54.9519 61.871 55.2997 62.0715Z" fill="black"/>
<path d="M58.6017 60.1699C58.9495 60.3703 58.9495 60.697 58.6017 60.8974C58.2539 61.0979 57.6886 61.0979 57.3408 60.8974C56.993 60.697 56.993 60.3703 57.3408 60.1699C57.6899 59.9681 58.2539 59.9681 58.6017 60.1699Z" fill="black"/>
<path d="M61.8958 58.2683C62.2436 58.4687 62.2436 58.7954 61.8958 58.9958C61.548 59.1963 60.9827 59.1963 60.6349 58.9958C60.2871 58.7954 60.2871 58.4687 60.6349 58.2683C60.9827 58.0678 61.5467 58.0678 61.8958 58.2683Z" fill="black"/>
<path d="M65.1948 56.3654C65.5426 56.5659 65.5426 56.8925 65.1948 57.093C64.847 57.2934 64.2817 57.2934 63.9339 57.093C63.5861 56.8925 63.5861 56.5659 63.9339 56.3654C64.2817 56.165 64.8457 56.165 65.1948 56.3654Z" fill="black"/>
<path d="M68.4898 54.4648C68.8376 54.6652 68.8376 54.9919 68.4898 55.1924C68.142 55.3928 67.5767 55.3928 67.2289 55.1924C66.8811 54.9919 66.8811 54.6652 67.2289 54.4648C67.5767 54.263 68.142 54.263 68.4898 54.4648Z" fill="black"/>
<path d="M71.7869 52.5622C72.1346 52.7626 72.1346 53.0893 71.7869 53.2898C71.4391 53.4902 70.8737 53.4902 70.5259 53.2898C70.1782 53.0893 70.1782 52.7626 70.5259 52.5622C70.8737 52.3618 71.4391 52.3618 71.7869 52.5622Z" fill="black"/>
<path d="M28.9294 73.4858C29.2772 73.6862 29.2772 74.0129 28.9294 74.2134C28.5816 74.4138 28.0163 74.4138 27.6685 74.2134C27.3207 74.0129 27.3207 73.6862 27.6685 73.4858C28.0163 73.2853 28.5816 73.2853 28.9294 73.4858Z" fill="black"/>
<path d="M32.2214 71.5834C32.5692 71.7839 32.5692 72.1093 32.2214 72.311C31.8737 72.5115 31.3083 72.5115 30.9605 72.311C30.6128 72.1106 30.6128 71.7839 30.9605 71.5834C31.3083 71.383 31.8737 71.383 32.2214 71.5834Z" fill="black"/>
<path d="M25.6254 71.5834C25.9732 71.7839 25.9732 72.1106 25.6254 72.311C25.2776 72.5115 24.7123 72.5115 24.3645 72.311C24.0167 72.1106 24.0167 71.7839 24.3645 71.5834C24.7123 71.383 25.2776 71.383 25.6254 71.5834Z" fill="black"/>
<path d="M28.9294 69.6816C29.2772 69.882 29.2772 70.2087 28.9294 70.4092C28.5816 70.6096 28.0163 70.6096 27.6685 70.4092C27.3207 70.2087 27.3207 69.882 27.6685 69.6816C28.0163 69.4798 28.5816 69.4798 28.9294 69.6816Z" fill="black"/>
<path d="M22.3364 69.6816C22.6842 69.882 22.6842 70.2087 22.3364 70.4092C21.9886 70.6096 21.4233 70.6096 21.0755 70.4092C20.7277 70.2087 20.7277 69.8833 21.0755 69.6816C21.4233 69.4798 21.9873 69.4798 22.3364 69.6816Z" fill="black"/>
<path d="M25.6254 67.7775C25.9732 67.978 25.9732 68.3047 25.6254 68.5051C25.2776 68.7055 24.7123 68.7055 24.3645 68.5051C24.0167 68.3047 24.0167 67.978 24.3645 67.7775C24.7123 67.5771 25.2776 67.5771 25.6254 67.7775Z" fill="black"/>
<path d="M19.0072 67.7597C19.355 67.9602 19.355 68.2869 19.0072 68.4873C18.6594 68.6878 18.0941 68.6878 17.7463 68.4873C17.3985 68.2869 17.3985 67.9602 17.7463 67.7597C18.0954 67.5593 18.6594 67.5593 19.0072 67.7597Z" fill="black"/>
<path d="M22.3032 65.8564C22.651 66.0568 22.651 66.3835 22.3032 66.584C21.9554 66.7844 21.3901 66.7844 21.0423 66.584C20.6945 66.3835 20.6945 66.0568 21.0423 65.8564C21.3901 65.6546 21.9541 65.6546 22.3032 65.8564Z" fill="black"/>
<path d="M15.7112 65.8564C16.059 66.0568 16.059 66.3835 15.7112 66.584C15.3634 66.7844 14.7981 66.7844 14.4503 66.584C14.1025 66.3835 14.1025 66.0568 14.4503 65.8564C14.7994 65.6546 15.3634 65.6546 15.7112 65.8564Z" fill="black"/>
<path d="M19.0072 63.9545C19.355 64.155 19.355 64.4817 19.0072 64.6821C18.6594 64.8826 18.0941 64.8826 17.7463 64.6821C17.3985 64.4817 17.3985 64.155 17.7463 63.9545C18.0941 63.7541 18.6581 63.7541 19.0072 63.9545Z" fill="black"/>
<path d="M12.4141 63.9545C12.7619 64.155 12.7619 64.4817 12.4141 64.6821C12.0663 64.8826 11.501 64.8826 11.1532 64.6821C10.8054 64.4817 10.8054 64.155 11.1532 63.9545C11.5023 63.7541 12.0663 63.7541 12.4141 63.9545Z" fill="black"/>
<path d="M15.7112 62.0515C16.059 62.2519 16.059 62.5786 15.7112 62.7791C15.3634 62.9795 14.7981 62.9795 14.4503 62.7791C14.1025 62.5786 14.1025 62.2519 14.4503 62.0515C14.7994 61.8497 15.3634 61.8497 15.7112 62.0515Z" fill="black"/>
<path d="M9.11811 62.0532C9.4659 62.2536 9.4659 62.5803 9.11811 62.7808C8.77032 62.9812 8.20501 62.9812 7.85722 62.7808C7.50943 62.5803 7.50943 62.2536 7.85722 62.0532C8.20501 61.8527 8.77032 61.8527 9.11811 62.0532Z" fill="black"/>
<path d="M12.4141 60.1498C12.7619 60.3503 12.7619 60.677 12.4141 60.8775C12.0663 61.0779 11.501 61.0779 11.1532 60.8775C10.8054 60.677 10.8054 60.3503 11.1532 60.1498C11.5023 59.9494 12.0663 59.9494 12.4141 60.1498Z" fill="black"/>
<path d="M5.82109 60.1498C6.16888 60.3503 6.16888 60.677 5.82109 60.8775C5.4733 61.0779 4.90798 61.0779 4.56019 60.8775C4.2124 60.677 4.2124 60.3503 4.56019 60.1498C4.90798 59.9494 5.4733 59.9494 5.82109 60.1498Z" fill="black"/>
<path d="M9.11811 58.2495C9.4659 58.4499 9.4659 58.7766 9.11811 58.9771C8.77032 59.1775 8.20501 59.1775 7.85722 58.9771C7.50943 58.7766 7.50943 58.4499 7.85722 58.2495C8.20501 58.049 8.77032 58.049 9.11811 58.2495Z" fill="black"/>
<path d="M2.52205 58.2495C2.86984 58.4499 2.86984 58.7766 2.52205 58.9771C2.17426 59.1775 1.60894 59.1775 1.26115 58.9771C0.913358 58.7766 0.913358 58.4499 1.26115 58.2495C1.60894 58.049 2.17426 58.049 2.52205 58.2495Z" fill="black"/>
<path d="M5.82109 56.3454C6.16888 56.5458 6.16888 56.8726 5.82109 57.073C5.4733 57.2735 4.90798 57.2735 4.56019 57.073C4.2124 56.8726 4.2124 56.5458 4.56019 56.3454C4.90798 56.1437 5.4733 56.1437 5.82109 56.3454Z" fill="black"/>
<path d="M2.52205 54.445C2.86984 54.6455 2.86984 54.9721 2.52205 55.1726C2.17426 55.373 1.60894 55.373 1.26115 55.1726C0.913358 54.9721 0.913358 54.6455 1.26115 54.445C1.60894 54.2446 2.17426 54.2446 2.52205 54.445Z" fill="black"/>
<path d="M73.8478 50.6778C74.1956 50.4761 74.7596 50.4761 75.1087 50.6765C75.4578 50.877 75.4591 51.2024 75.1113 51.4041C74.7635 51.6058 74.1995 51.6059 73.8504 51.4054C73.5013 51.205 73.5013 50.8796 73.8478 50.6778Z" fill="black"/>
<path d="M78.408 52.5534C78.7558 52.7539 78.7558 53.0806 78.408 53.281C78.0602 53.4815 77.4949 53.4815 77.1471 53.281C76.7993 53.0806 76.7993 52.7539 77.1471 52.5534C77.4949 52.353 78.0589 52.353 78.408 52.5534Z" fill="black"/>
<path d="M77.1674 48.7669C77.5152 48.5652 78.0792 48.5652 78.4283 48.7657C78.7774 48.9661 78.7787 49.2915 78.4309 49.4932C78.0831 49.695 77.5191 49.695 77.17 49.4945C76.8209 49.2941 76.8196 48.9687 77.1674 48.7669Z" fill="black"/>
</svg>
