<svg width="128" height="128" viewBox="0 0 128 128" fill="none" xmlns="http://www.w3.org/2000/svg">
<path d="M32.8258 125.202C33.3645 125.513 33.3645 126.019 32.8258 126.33C32.2871 126.641 31.4115 126.641 30.8728 126.33C30.3341 126.019 30.3341 125.513 30.8728 125.202C31.4115 124.891 32.2851 124.891 32.8258 125.202Z" fill="black"/>
<path d="M27.7203 122.254C28.259 122.565 28.259 123.071 27.7203 123.382C27.1816 123.693 26.306 123.693 25.7673 123.382C25.2286 123.071 25.2286 122.565 25.7673 122.254C26.306 121.942 27.1796 121.942 27.7203 122.254Z" fill="black"/>
<path d="M22.611 119.305C23.1497 119.615 23.1497 120.122 22.611 120.432C22.0723 120.743 21.1966 120.743 20.6579 120.432C20.1192 120.122 20.1192 119.615 20.6579 119.305C21.1986 118.994 22.0723 118.994 22.611 119.305Z" fill="black"/>
<path d="M17.5055 116.357C18.0441 116.668 18.0441 117.174 17.5055 117.485C16.9668 117.796 16.0912 117.796 15.5525 117.485C15.0138 117.174 15.0138 116.67 15.5525 116.357C16.0912 116.047 16.9668 116.047 17.5055 116.357Z" fill="black"/>
<path d="M17.3219 110.971C17.8606 111.281 17.8606 111.788 17.3219 112.098C16.7832 112.409 15.9076 112.409 15.3689 112.098C14.8302 111.788 14.8302 111.281 15.3689 110.971C15.9076 110.66 16.7832 110.66 17.3219 110.971Z" fill="black"/>
<path d="M22.4273 108.022C22.966 108.333 22.966 108.839 22.4273 109.15C21.8886 109.46 21.013 109.46 20.4743 109.15C19.9356 108.839 19.9356 108.333 20.4743 108.022C21.013 107.709 21.8886 107.709 22.4273 108.022Z" fill="black"/>
<path d="M41.1403 125.275C41.679 124.962 42.5526 124.962 43.0933 125.273C43.634 125.584 43.6361 126.088 43.0974 126.401C42.5587 126.714 41.685 126.714 41.1443 126.403C40.6036 126.092 40.6036 125.588 41.1403 125.275Z" fill="black"/>
<path d="M48.2085 122.323C48.7472 122.634 48.7472 123.14 48.2085 123.451C47.6698 123.762 46.7943 123.762 46.2556 123.451C45.7169 123.14 45.7169 122.634 46.2556 122.323C46.7943 122.012 47.6698 122.012 48.2085 122.323Z" fill="black"/>
<path d="M53.314 119.373C53.8527 119.684 53.8527 120.19 53.314 120.501C52.7753 120.811 51.8997 120.811 51.3611 120.501C50.8224 120.19 50.8224 119.684 51.3611 119.373C51.8997 119.062 52.7753 119.062 53.314 119.373Z" fill="black"/>
<path d="M58.4196 116.426C58.9583 116.736 58.9583 117.243 58.4196 117.553C57.8809 117.864 57.0052 117.864 56.4665 117.553C55.9278 117.243 55.9278 116.736 56.4665 116.426C57.0052 116.115 57.8809 116.115 58.4196 116.426Z" fill="black"/>
<path d="M63.529 113.478C64.0676 113.789 64.0676 114.295 63.529 114.606C62.9903 114.916 62.1146 114.916 61.5759 114.606C61.0372 114.295 61.0372 113.789 61.5759 113.478C62.1166 113.165 62.9903 113.165 63.529 113.478Z" fill="black"/>
<path d="M68.6343 110.528C69.173 110.839 69.173 111.345 68.6343 111.656C68.0956 111.967 67.2201 111.967 66.6814 111.656C66.1427 111.345 66.1427 110.839 66.6814 110.528C67.2201 110.217 68.0936 110.217 68.6343 110.528Z" fill="black"/>
<path d="M73.7398 107.581C74.2785 107.892 74.2785 108.398 73.7398 108.709C73.2011 109.019 72.3255 109.019 71.7868 108.709C71.2481 108.398 71.2481 107.892 71.7868 107.581C72.3255 107.27 73.1991 107.27 73.7398 107.581Z" fill="black"/>
<path d="M78.8493 104.633C79.388 104.944 79.388 105.45 78.8493 105.761C78.3106 106.072 77.4349 106.072 76.8962 105.761C76.3575 105.45 76.3575 104.944 76.8962 104.633C77.4349 104.321 78.3106 104.321 78.8493 104.633Z" fill="black"/>
<path d="M83.9547 101.683C84.4934 101.994 84.4934 102.501 83.9547 102.811C83.416 103.122 82.5404 103.122 82.0017 102.811C81.463 102.501 81.463 101.994 82.0017 101.683C82.5404 101.373 83.416 101.373 83.9547 101.683Z" fill="black"/>
<path d="M89.0602 98.7352C89.5989 99.0459 89.5989 99.5523 89.0602 99.863C88.5215 100.174 87.6458 100.174 87.1071 99.863C86.5685 99.5523 86.5685 99.0459 87.1071 98.7352C87.6479 98.4245 88.5215 98.4245 89.0602 98.7352Z" fill="black"/>
<path d="M94.1696 95.7875C94.7083 96.0982 94.7083 96.6026 94.1696 96.9153C93.6309 97.226 92.7552 97.226 92.2165 96.9153C91.6778 96.6046 91.6778 96.0982 92.2165 95.7875C92.7572 95.4748 93.6309 95.4748 94.1696 95.7875Z" fill="black"/>
<path d="M99.279 92.8378C99.8176 93.1485 99.8176 93.6549 99.279 93.9656C98.7403 94.2763 97.8646 94.2763 97.3259 93.9656C96.7872 93.6549 96.7872 93.1485 97.3259 92.8378C97.8646 92.5271 98.7382 92.5271 99.279 92.8378Z" fill="black"/>
<path d="M104.384 89.8901C104.923 90.2008 104.923 90.7072 104.384 91.0179C103.846 91.3286 102.97 91.3286 102.431 91.0179C101.893 90.7072 101.893 90.2028 102.431 89.8901C102.97 89.5773 103.844 89.5773 104.384 89.8901Z" fill="black"/>
<path d="M109.49 86.9403C110.029 87.251 110.029 87.7574 109.49 88.0681C108.951 88.3788 108.076 88.3788 107.537 88.0681C106.998 87.7574 106.998 87.251 107.537 86.9403C108.076 86.6296 108.951 86.6296 109.49 86.9403Z" fill="black"/>
<path d="M114.595 83.993C115.134 84.3037 115.134 84.8101 114.595 85.1209C114.057 85.4316 113.181 85.4316 112.642 85.1209C112.104 84.8101 112.104 84.3037 112.642 83.993C113.181 83.6823 114.057 83.6823 114.595 83.993Z" fill="black"/>
<path d="M35.9887 122.295C36.5274 121.982 37.401 121.982 37.9417 122.293C38.4825 122.603 38.4844 123.108 37.9457 123.42C37.407 123.733 36.5335 123.733 35.9928 123.422C35.452 123.112 35.45 122.607 35.9887 122.295Z" fill="black"/>
<path d="M43.0561 119.343C43.5947 119.654 43.5947 120.16 43.0561 120.471C42.5174 120.781 41.6417 120.781 41.103 120.471C40.5643 120.16 40.5643 119.654 41.103 119.343C41.6417 119.032 42.5153 119.032 43.0561 119.343Z" fill="black"/>
<path d="M48.1618 116.395C48.7005 116.706 48.7005 117.213 48.1618 117.523C47.6231 117.834 46.7474 117.834 46.2087 117.523C45.67 117.213 45.67 116.706 46.2087 116.395C46.7474 116.085 47.6231 116.085 48.1618 116.395Z" fill="black"/>
<path d="M53.2711 113.445C53.8098 113.756 53.8098 114.262 53.2711 114.573C52.7324 114.884 51.8568 114.884 51.3181 114.573C50.7794 114.262 50.7794 113.756 51.3181 113.445C51.8568 113.134 52.7324 113.134 53.2711 113.445Z" fill="black"/>
<path d="M58.3727 110.498C58.9114 110.809 58.9114 111.313 58.3727 111.626C57.834 111.937 56.9583 111.937 56.4196 111.626C55.881 111.315 55.881 110.809 56.4196 110.498C56.9604 110.187 57.834 110.187 58.3727 110.498Z" fill="black"/>
<path d="M63.4821 107.55C64.0208 107.861 64.0208 108.367 63.4821 108.678C62.9434 108.989 62.0677 108.989 61.529 108.678C60.9903 108.367 60.9903 107.861 61.529 107.55C62.0677 107.237 62.9414 107.237 63.4821 107.55Z" fill="black"/>
<path d="M68.5915 104.6C69.1301 104.911 69.1301 105.418 68.5915 105.728C68.0528 106.039 67.1771 106.039 66.6384 105.728C66.0997 105.418 66.0997 104.913 66.6384 104.6C67.1771 104.29 68.0507 104.29 68.5915 104.6Z" fill="black"/>
<path d="M73.7008 101.653C74.2395 101.964 74.2395 102.47 73.7008 102.781C73.1621 103.092 72.2865 103.092 71.7478 102.781C71.2091 102.47 71.2091 101.964 71.7478 101.653C72.2865 101.342 73.1621 101.342 73.7008 101.653Z" fill="black"/>
<path d="M78.8024 98.7055C79.3411 99.0162 79.3411 99.5227 78.8024 99.8334C78.2637 100.144 77.388 100.144 76.8493 99.8334C76.3106 99.5227 76.3106 99.0162 76.8493 98.7055C77.388 98.3928 78.2637 98.3928 78.8024 98.7055Z" fill="black"/>
<path d="M83.9118 95.7557C84.4505 96.0664 84.4505 96.5728 83.9118 96.8835C83.3731 97.1943 82.4974 97.1943 81.9587 96.8835C81.42 96.5728 81.42 96.0664 81.9587 95.7557C82.4974 95.445 83.3731 95.445 83.9118 95.7557Z" fill="black"/>
<path d="M89.0172 92.8075C89.5559 93.1182 89.5559 93.6246 89.0172 93.9353C88.4785 94.246 87.6029 94.246 87.0642 93.9353C86.5255 93.6246 86.5255 93.1182 87.0642 92.8075C87.6049 92.4968 88.4785 92.4968 89.0172 92.8075Z" fill="black"/>
<path d="M94.1266 89.8583C94.6653 90.169 94.6653 90.6754 94.1266 90.9861C93.5879 91.2968 92.7122 91.2968 92.1736 90.9861C91.6349 90.6754 91.6349 90.169 92.1736 89.8583C92.7122 89.5476 93.5859 89.5476 94.1266 89.8583Z" fill="black"/>
<path d="M99.2321 86.91C99.7708 87.2207 99.7708 87.7271 99.2321 88.0378C98.6934 88.3486 97.8177 88.3486 97.279 88.0378C96.7403 87.7271 96.7403 87.2207 97.279 86.91C97.8177 86.5993 98.6914 86.5993 99.2321 86.91Z" fill="black"/>
<path d="M104.338 83.9623C104.876 84.273 104.876 84.7794 104.338 85.0901C103.799 85.4008 102.923 85.4008 102.384 85.0901C101.846 84.7794 101.846 84.273 102.384 83.9623C102.923 83.6496 103.799 83.6496 104.338 83.9623Z" fill="black"/>
<path d="M109.443 81.0126C109.982 81.3233 109.982 81.8297 109.443 82.1404C108.904 82.4511 108.029 82.4511 107.49 82.1404C106.951 81.8297 106.951 81.3233 107.49 81.0126C108.029 80.7019 108.904 80.7019 109.443 81.0126Z" fill="black"/>
<path d="M114.552 78.0653C115.091 78.376 115.091 78.8824 114.552 79.1931C114.014 79.5038 113.138 79.5038 112.599 79.1931C112.061 78.8824 112.061 78.376 112.599 78.0653C113.138 77.7546 114.014 77.7546 114.552 78.0653Z" fill="black"/>
<path d="M30.8793 119.347C31.418 119.035 32.2917 119.035 32.8324 119.345C33.3731 119.656 33.375 120.16 32.8363 120.473C32.2976 120.786 31.4241 120.786 30.8833 120.475C30.3426 120.164 30.3406 119.66 30.8793 119.347Z" fill="black"/>
<path d="M37.9469 116.395C38.4856 116.706 38.4856 117.213 37.9469 117.523C37.4082 117.834 36.5326 117.834 35.9939 117.523C35.4552 117.213 35.4552 116.706 35.9939 116.395C36.5326 116.085 37.4062 116.085 37.9469 116.395Z" fill="black"/>
<path d="M43.0563 113.445C43.595 113.756 43.595 114.262 43.0563 114.573C42.5176 114.884 41.6419 114.884 41.1032 114.573C40.5645 114.262 40.5645 113.756 41.1032 113.445C41.6419 113.134 42.5176 113.134 43.0563 113.445Z" fill="black"/>
<path d="M48.1618 110.498C48.7005 110.809 48.7005 111.315 48.1618 111.626C47.6231 111.937 46.7474 111.937 46.2087 111.626C45.67 111.315 45.67 110.809 46.2087 110.498C46.7474 110.187 47.6231 110.187 48.1618 110.498Z" fill="black"/>
<path d="M53.2711 107.55C53.8098 107.861 53.8098 108.367 53.2711 108.678C52.7324 108.989 51.8568 108.989 51.3181 108.678C50.7794 108.367 50.7794 107.861 51.3181 107.55C51.8588 107.237 52.7324 107.237 53.2711 107.55Z" fill="black"/>
<path d="M58.3727 104.6C58.9114 104.911 58.9114 105.418 58.3727 105.728C57.834 106.039 56.9583 106.039 56.4196 105.728C55.881 105.418 55.881 104.911 56.4196 104.6C56.9604 104.29 57.834 104.29 58.3727 104.6Z" fill="black"/>
<path d="M63.4821 101.653C64.0208 101.964 64.0208 102.47 63.4821 102.781C62.9434 103.092 62.0677 103.092 61.529 102.781C60.9903 102.47 60.9903 101.964 61.529 101.653C62.0677 101.342 62.9414 101.342 63.4821 101.653Z" fill="black"/>
<path d="M68.5915 98.7055C69.1301 99.0162 69.1301 99.5227 68.5915 99.8334C68.0528 100.144 67.1771 100.144 66.6384 99.8334C66.0997 99.5227 66.0997 99.0162 66.6384 98.7055C67.1771 98.3928 68.0507 98.3928 68.5915 98.7055Z" fill="black"/>
<path d="M73.7008 95.7557C74.2395 96.0664 74.2395 96.5728 73.7008 96.8835C73.1621 97.1943 72.2865 97.1943 71.7478 96.8835C71.2091 96.5728 71.2091 96.0685 71.7478 95.7557C72.2865 95.445 73.1621 95.445 73.7008 95.7557Z" fill="black"/>
<path d="M78.8024 92.8075C79.3411 93.1182 79.3411 93.6246 78.8024 93.9353C78.2637 94.246 77.388 94.246 76.8493 93.9353C76.3106 93.6246 76.3106 93.1182 76.8493 92.8075C77.388 92.4968 78.2637 92.4968 78.8024 92.8075Z" fill="black"/>
<path d="M83.9118 89.8583C84.4505 90.169 84.4505 90.6754 83.9118 90.9861C83.3731 91.2968 82.4974 91.2968 81.9587 90.9861C81.42 90.6754 81.42 90.169 81.9587 89.8583C82.4974 89.5476 83.3731 89.5476 83.9118 89.8583Z" fill="black"/>
<path d="M89.0172 86.91C89.5559 87.2207 89.5559 87.7271 89.0172 88.0378C88.4785 88.3486 87.6029 88.3486 87.0642 88.0378C86.5255 87.7271 86.5255 87.2207 87.0642 86.91C87.6049 86.5993 88.4785 86.5993 89.0172 86.91Z" fill="black"/>
<path d="M94.1266 83.9623C94.6653 84.273 94.6653 84.7794 94.1266 85.0901C93.5879 85.4008 92.7122 85.4008 92.1736 85.0901C91.6349 84.7794 91.6349 84.273 92.1736 83.9623C92.7122 83.6496 93.5859 83.6496 94.1266 83.9623Z" fill="black"/>
<path d="M99.2321 81.0126C99.7708 81.3233 99.7708 81.8297 99.2321 82.1404C98.6934 82.4511 97.8177 82.4511 97.279 82.1404C96.7403 81.8297 96.7403 81.3233 97.279 81.0126C97.8177 80.7019 98.6914 80.7019 99.2321 81.0126Z" fill="black"/>
<path d="M104.338 78.0653C104.876 78.376 104.876 78.8824 104.338 79.1931C103.799 79.5038 102.923 79.5038 102.384 79.1931C101.846 78.8824 101.846 78.376 102.384 78.0653C102.923 77.7546 103.799 77.7546 104.338 78.0653Z" fill="black"/>
<path d="M25.7738 116.399C26.3125 116.086 27.1862 116.086 27.7269 116.397C28.2676 116.708 28.2696 117.212 27.7309 117.525C27.1922 117.838 26.3186 117.838 25.7779 117.527C25.2372 117.216 25.2351 116.71 25.7738 116.399Z" fill="black"/>
<path d="M32.8414 113.445C33.3801 113.756 33.3801 114.262 32.8414 114.573C32.3027 114.884 31.4271 114.884 30.8884 114.573C30.3497 114.262 30.3497 113.756 30.8884 113.445C31.4271 113.134 32.3007 113.134 32.8414 113.445Z" fill="black"/>
<path d="M37.9469 110.498C38.4856 110.809 38.4856 111.315 37.9469 111.626C37.4082 111.937 36.5326 111.937 35.9939 111.626C35.4552 111.315 35.4552 110.809 35.9939 110.498C36.5326 110.187 37.4062 110.187 37.9469 110.498Z" fill="black"/>
<path d="M43.0561 107.55C43.5947 107.861 43.5947 108.367 43.0561 108.678C42.5174 108.989 41.6417 108.989 41.103 108.678C40.5643 108.367 40.5643 107.861 41.103 107.55C41.6417 107.237 42.5174 107.237 43.0561 107.55Z" fill="black"/>
<path d="M48.1618 104.6C48.7005 104.911 48.7005 105.418 48.1618 105.728C47.6231 106.039 46.7474 106.039 46.2087 105.728C45.67 105.418 45.67 104.911 46.2087 104.6C46.7474 104.29 47.6231 104.29 48.1618 104.6Z" fill="black"/>
<path d="M53.2711 101.653C53.8098 101.964 53.8098 102.47 53.2711 102.781C52.7324 103.092 51.8568 103.092 51.3181 102.781C50.7794 102.47 50.7794 101.964 51.3181 101.653C51.8588 101.342 52.7324 101.342 53.2711 101.653Z" fill="black"/>
<path d="M58.3727 98.7055C58.9114 99.0162 58.9114 99.5227 58.3727 99.8334C57.834 100.144 56.9583 100.144 56.4196 99.8334C55.881 99.5227 55.881 99.0162 56.4196 98.7055C56.9604 98.3928 57.834 98.3928 58.3727 98.7055Z" fill="black"/>
<path d="M63.4821 95.7557C64.0208 96.0664 64.0208 96.5728 63.4821 96.8835C62.9434 97.1943 62.0677 97.1943 61.529 96.8835C60.9903 96.5728 60.9903 96.0685 61.529 95.7557C62.0677 95.445 62.9414 95.445 63.4821 95.7557Z" fill="black"/>
<path d="M68.5897 92.8078C69.1284 93.1185 69.1284 93.6249 68.5897 93.9356C68.051 94.2464 67.1753 94.2464 66.6366 93.9356C66.0959 93.6229 68.049 92.4971 68.5897 92.8078Z" fill="black"/>
<path d="M71.7415 89.8583C72.2802 89.5476 73.1558 89.5476 73.6945 89.8583C74.2332 90.169 74.2332 90.6754 73.6945 90.9861C73.1558 91.2968 72.2802 91.2968 71.7415 90.9861C71.2008 90.6754 71.2008 90.171 71.7415 89.8583C72.2802 89.5476 71.2008 90.171 71.7415 89.8583Z" fill="black"/>
<path d="M78.8024 86.91C79.3411 87.2207 79.3411 87.7271 78.8024 88.0378C78.2637 88.3486 77.388 88.3486 76.8493 88.0378C76.3106 87.7271 76.3106 87.2207 76.8493 86.91C77.388 86.5993 78.2637 86.5993 78.8024 86.91Z" fill="black"/>
<path d="M83.9118 83.9623C84.4505 84.273 84.4505 84.7794 83.9118 85.0901C83.3731 85.4008 82.4974 85.4008 81.9587 85.0901C81.42 84.7794 81.42 84.273 81.9587 83.9623C82.4974 83.6496 83.3731 83.6496 83.9118 83.9623Z" fill="black"/>
<path d="M89.0172 81.0126C89.5559 81.3233 89.5559 81.8297 89.0172 82.1404C88.4785 82.4511 87.6029 82.4511 87.0642 82.1404C86.5255 81.8297 86.5255 81.3233 87.0642 81.0126C87.6049 80.7019 88.4785 80.7019 89.0172 81.0126Z" fill="black"/>
<path d="M94.1266 78.0653C94.6653 78.376 94.6653 78.8824 94.1266 79.1931C93.5879 79.5038 92.7122 79.5038 92.1736 79.1931C91.6349 78.8824 91.6349 78.376 92.1736 78.0653C92.7122 77.7546 93.5859 77.7546 94.1266 78.0653Z" fill="black"/>
<path d="M99.2321 75.1176C99.7708 75.4283 99.7708 75.9347 99.2321 76.2454C98.6934 76.5561 97.8177 76.5561 97.279 76.2454C96.7403 75.9347 96.7403 75.4283 97.279 75.1176C97.8177 74.8049 98.6914 74.8049 99.2321 75.1176Z" fill="black"/>
<path d="M20.6684 113.45C21.2071 113.137 22.0807 113.137 22.6214 113.448C23.1621 113.759 23.1641 114.263 22.6254 114.576C22.0867 114.888 21.2132 114.888 20.6724 114.578C20.1317 114.267 20.1297 113.763 20.6684 113.45Z" fill="black"/>
<path d="M27.7321 110.498C28.2708 110.809 28.2708 111.315 27.7321 111.626C27.1934 111.937 26.3177 111.937 25.779 111.626C25.2403 111.315 25.2403 110.809 25.779 110.498C26.3197 110.187 27.1934 110.187 27.7321 110.498Z" fill="black"/>
<path d="M83.9094 78.0656C84.4481 78.3763 84.4481 78.8827 83.9094 79.1934C83.3707 79.5041 82.495 79.5041 81.9563 79.1934C81.4176 78.8827 83.3707 77.7549 83.9094 78.0656Z" fill="black"/>
<path d="M67.7344 79.0702L67.7445 64.1865L87.6924 75.7028L87.6823 90.5866L67.7344 79.0702Z" fill="#FE5721"/>
<path d="M67.7461 64.1891L85.9689 53.7158L105.917 65.2321L87.694 75.7054L67.7461 64.1891Z" fill="#FE5721"/>
<path d="M68.0312 69.0771L85.9696 58.7754L105.917 70.2937L87.5251 80.2868L68.0312 69.0771Z" fill="#FE5721"/>
<path d="M85.9689 52.7432L66.9007 63.7007L66.8906 79.5589L87.6818 91.5636L106.748 80.6061L106.758 64.7478L85.9689 52.7432ZM86.8405 89.1283L68.5794 78.5864L68.5895 65.6517L86.8506 76.1956L86.8405 89.1283ZM69.4348 64.1889L85.9669 54.6882L104.226 65.23L87.694 74.7308L69.4348 64.1889Z" fill="black"/>
<path d="M41.5625 94.4337V31.2168L61.5103 42.7331V105.95L41.5625 94.4337Z" fill="#FE5721"/>
<path d="M41.5625 31.2174L59.7874 20.7441L79.7352 32.2626L61.5103 42.7338L41.5625 31.2174Z" fill="#FE5721"/>
<path d="M41.8477 36.1055L59.7861 25.8057L79.7339 37.322L61.3417 47.3171L41.8477 36.1055Z" fill="#FE5721"/>
<path d="M59.787 19.7715L40.7188 30.729V94.9205L61.5099 106.923L80.5761 95.9655V31.7741L59.787 19.7715ZM60.6686 104.49L42.4075 93.9479V32.678L60.6686 43.2218V104.49ZM43.2529 31.2192L59.7849 21.7184L78.0441 32.2603L61.512 41.7611L43.2529 31.2192Z" fill="black"/>
<path d="M15.4883 108.988V88.1787L35.4361 99.695V120.504L15.4883 108.988Z" fill="#FE5721"/>
<path d="M15.4883 88.1793L33.7131 77.708L53.661 89.2243L35.4361 99.6976L15.4883 88.1793Z" fill="#FE5721"/>
<path d="M15.7734 93.0693L33.7118 82.7676L53.6597 94.284L35.2673 104.279L15.7734 93.0693Z" fill="#FE5721"/>
<path d="M33.7127 76.7334L14.6445 87.6909V109.475L35.4357 121.479L54.5039 110.522V88.738L33.7127 76.7334ZM34.5944 119.044L16.3333 108.5V89.6399L34.5944 100.184V119.044ZM17.1786 88.1811L33.7107 78.6804L51.9698 89.2222L35.4378 98.723L17.1786 88.1811Z" fill="black"/>
<path d="M101.998 49.0439C103.739 48.4562 104.925 47.1975 105.251 45.5914C105.586 43.9326 104.957 42.1999 103.523 40.8391C102.785 40.1411 102.442 39.3445 102.577 38.6524C102.702 38.0107 103.233 37.4945 104.07 37.1977L105.458 36.705C107.118 36.1149 108.267 34.8949 108.609 33.3569C108.956 31.7943 108.425 30.1273 107.151 28.7841L106.33 27.9195C105.688 27.2402 105.406 26.4801 105.557 25.836C105.708 25.2002 106.282 24.6781 107.136 24.4025L107.581 24.2593C109.352 23.6857 110.564 22.4293 110.904 20.8115C111.255 19.1504 110.632 17.413 109.197 16.0439L107.489 18.0312C108.227 18.7339 108.565 19.5351 108.419 20.2285C108.281 20.8796 107.704 21.4145 106.832 21.6961L106.387 21.8392C104.659 22.3987 103.457 23.6188 103.086 25.1885C102.713 26.7663 103.239 28.4533 104.529 29.8141L105.351 30.6799C105.988 31.3521 106.271 32.104 106.13 32.7445C105.99 33.3698 105.463 33.8743 104.643 34.164L103.256 34.6567C101.55 35.2633 100.395 36.5208 100.082 38.1104C99.76 39.7598 100.394 41.4796 101.819 42.8323C102.559 43.5338 102.901 44.3339 102.76 45.0295C102.628 45.6806 102.079 46.2015 101.217 46.4936L101.998 49.0439Z" fill="#FE5721"/>
<path d="M38.8977 20.7458C39.0833 18.9239 38.462 17.3563 37.1929 16.4423C35.8815 15.5001 34.116 15.4153 32.3526 16.2123C31.4487 16.6219 30.6135 16.6339 30.0647 16.2446C29.5543 15.8854 29.3182 15.2015 29.3949 14.3198L29.522 12.8591C29.6753 11.1098 29.0721 9.59057 27.8676 8.68871C26.645 7.77475 24.9764 7.62345 23.2938 8.27917L22.2103 8.70084C21.3589 9.03172 20.5841 8.99944 20.0817 8.61409C19.5874 8.23276 19.3635 7.5064 19.4644 6.61867L19.5168 6.15666C19.7287 4.31259 19.1193 2.72072 17.8442 1.79061C16.5348 0.834274 14.7694 0.741468 13 1.53438L14.0472 3.86065C14.9571 3.4531 15.7924 3.44907 16.3371 3.84855C16.8496 4.22382 17.0836 4.95821 16.9807 5.86411L16.9283 6.32614C16.7225 8.12583 17.3035 9.69348 18.5242 10.6337C19.7508 11.5799 21.4335 11.7393 23.1384 11.0775L24.2239 10.6538C25.0652 10.327 25.8359 10.3532 26.3363 10.7285C26.8265 11.0957 27.0545 11.7716 26.9778 12.6351L26.8508 14.0958C26.6954 15.8915 27.3269 17.4329 28.5879 18.3267C29.8973 19.2528 31.6526 19.3295 33.4059 18.5366C34.3138 18.127 35.1511 18.1189 35.6999 18.5124C36.2144 18.8816 36.4484 19.5836 36.3576 20.4875L38.8977 20.7458Z" fill="#FE5721"/>
<path d="M81.5092 22.3724C85.6674 21.7025 88.5041 17.7682 87.8322 13.6039C87.1604 9.43966 83.2321 6.5969 79.0739 7.26674C74.9157 7.93657 72.079 11.8708 72.7508 16.0351C73.4207 20.2014 77.3509 23.0442 81.5092 22.3724ZM79.4391 9.54458C82.3424 9.0765 85.0883 11.0638 85.5564 13.9712C86.0245 16.8785 84.0433 19.6284 81.14 20.0965C78.2367 20.5646 75.4907 18.5773 75.0206 15.6699C74.5546 12.7626 76.5358 10.0127 79.4391 9.54458Z" fill="#FE5721"/>
<path d="M29.199 38.7202C33.3391 37.9474 36.077 33.9466 35.3042 29.7984C34.5315 25.6523 30.5326 22.9063 26.3925 23.6791C22.2524 24.4518 19.5126 28.4547 20.2873 32.6009C21.0621 36.747 25.0589 39.4929 29.199 38.7202ZM26.8162 25.9469C29.7074 25.4082 32.5018 27.3269 33.0405 30.2221C33.5812 33.1173 31.6665 35.9157 28.7753 36.4544C25.8841 36.9931 23.0898 35.0744 22.5511 32.1792C22.0104 29.2839 23.925 26.4856 26.8162 25.9469Z" fill="#FE5721"/>
<path d="M70.9414 46.4298L72.8016 45.3564V71.2642L70.1767 72.7794V50.9593C69.8861 51.5303 69.4806 52.075 68.954 52.5996C68.4274 53.1241 67.9089 53.5337 67.3984 53.8283V51.7098C68.1207 51.1751 68.8068 50.4408 69.4564 49.5066C70.1061 48.5745 70.6024 47.5475 70.9414 46.4298Z" fill="#FE5721"/>
</svg>
