<svg width="128" height="128" viewBox="0 0 128 128" fill="none" xmlns="http://www.w3.org/2000/svg">
<path d="M36.9785 62.0323C36.9785 62.0323 40.1986 21.4215 46.9794 17.5077C53.7585 13.5939 57.6582 57.7266 57.6582 57.7266L50.7079 82.0923L40.5375 87.3761L36.9785 62.0323Z" fill="#FE5721"/>
<path d="M39.9049 88.5963L36.1782 62.0556L36.1853 61.9691C36.5189 57.7692 39.6401 20.8269 46.5798 16.8195C47.3495 16.3746 48.1651 16.3482 48.9348 16.7507C54.9407 19.8736 58.1025 53.7971 58.4432 57.6562L58.4573 57.8028L51.3746 82.6381L39.9049 88.5963ZM37.7724 62.0079L41.1637 86.1565L50.0347 81.5471L56.8508 57.6509C55.5338 42.8447 52.1567 20.2126 48.2022 18.1577C47.9162 18.0094 47.6744 18.02 47.3707 18.1947C42.1205 21.2259 38.6709 50.7624 37.7724 62.0079Z" fill="black"/>
<path d="M48.7753 17.9277L39.921 34.6016L40.9704 35.1588L49.8246 18.4849L48.7753 17.9277Z" fill="black"/>
<path d="M50.7817 21.9605L38.158 45.7664L39.2092 46.3238L51.8329 22.5179L50.7817 21.9605Z" fill="black"/>
<path d="M52.2755 26.8304L40.3721 49.3435L41.4224 49.8988L53.3258 27.3857L52.2755 26.8304Z" fill="black"/>
<path d="M53.8495 31.6615L43.4163 51.2603L44.4665 51.8194L54.8998 32.2206L53.8495 31.6615Z" fill="black"/>
<path d="M54.1088 38.9399L46.6205 53.002L47.6707 53.5612L55.159 39.4991L54.1088 38.9399Z" fill="black"/>
<path d="M52.9824 49.3929L49.6647 55.4858L50.7081 56.054L54.0258 49.9611L52.9824 49.3929Z" fill="black"/>
<path d="M77.4963 12.136C78.0153 9.07661 78.5273 5.92189 78.5273 5.92189L71.3281 1.3319C71.3281 1.3319 71.1622 1.26658 70.8515 1.09004C69.741 0.623982 68.5547 0.689307 67.2836 1.4237C52.7069 9.83926 51.1816 84.1123 51.1816 84.1123C51.1816 84.1123 50.8215 79.7747 49.9741 74.1502L50.4896 73.1881L48.2105 53.9684L44.5438 51.6946C43.4881 51.0397 42.5083 50.2752 41.4844 49.5709C40.1851 48.6793 38.7339 48.5717 37.1133 49.5673C26.4345 56.124 22.1976 106.912 22.1976 106.912L29.8594 111.668L36.9156 98.5072L85.5888 70.706C85.5888 70.706 83.7281 31.9347 77.4963 12.136Z" fill="#FE5721"/>
<path d="M65.4801 67.5757L85.5524 55.5076C84.352 42.7386 82.2476 26.0823 78.814 15.174C79.333 12.1146 79.845 8.96164 79.845 8.96164L72.6457 4.37165C72.6457 4.37165 72.4798 4.30633 72.1691 4.12979C71.0587 3.66373 69.8723 3.73082 68.6013 4.46345C59.9297 9.47006 55.8782 37.7797 54.0175 59.8963L65.4801 67.5757Z" fill="#FE5721"/>
<path d="M32.987 106.145L49.1014 68.5003L50.4625 64.8707L49.5304 57.0095L45.8637 54.7357C44.808 54.0807 43.8282 53.3163 42.8043 52.6119C41.505 51.7204 40.0539 51.6127 38.4332 52.6084C30.5897 57.4244 26.2256 86.087 24.4585 100.974L32.987 106.145Z" fill="#FE5721"/>
<path d="M29.8334 112.603L21.3667 107.332L21.4073 106.848C21.5821 104.758 25.8031 55.5835 36.6972 48.8945C38.4944 47.7929 40.3057 47.8017 41.9333 48.9209C42.3076 49.1787 42.6766 49.4435 43.0455 49.7083C43.674 50.1602 44.3025 50.6139 44.9627 51.0235L48.9525 53.4986L50.9474 70.3315C52.1672 48.2889 55.8993 7.07971 66.8852 0.736711C68.3293 -0.0965475 69.7663 -0.223656 71.1556 0.358919C71.4664 0.528395 71.5988 0.58665 71.6235 0.597242L79.3911 5.53501L79.3082 6.0505C79.3082 6.0505 78.8156 9.07812 78.309 12.0828C84.4542 31.8091 86.3626 70.282 86.382 70.6704L86.405 71.1559L37.5075 99.0842L30.4902 112.215L29.8334 112.603ZM23.0297 106.497L29.5598 110.55L36.3247 97.9314L84.772 70.2591C84.5302 65.7273 82.4947 30.6581 76.7378 12.3723L76.6813 12.1905L76.7131 12.0016C77.105 9.68895 77.4934 7.32333 77.6593 6.30824L70.9367 2.0219C70.905 2.01307 70.7267 1.93011 70.4583 1.77828C69.618 1.4305 68.6841 1.5276 67.6779 2.10841C53.6519 10.2062 51.9872 83.3899 51.973 84.1279L50.3913 84.1773C50.3877 84.1332 50.0223 79.7974 49.1891 74.2682L49.1502 74.007L49.6728 73.0325L47.4678 54.4395L44.126 52.367C43.4357 51.938 42.7772 51.4649 42.1187 50.9917C41.7603 50.734 41.4002 50.4745 41.0365 50.2238C39.9173 49.4559 38.8016 49.4629 37.5287 50.2432C27.8509 56.1855 23.4993 101.31 23.0297 106.497Z" fill="black"/>
<path d="M29.8589 111.67C29.8589 111.67 34.0958 60.882 44.7746 54.3253C55.4533 47.7687 58.8429 88.8685 58.8429 88.8685C58.8429 88.8685 60.3682 14.5955 74.9449 6.17817C89.5216 -2.23739 93.2501 75.4604 93.2501 75.4604L29.8589 111.67Z" fill="#FE5721"/>
<path d="M29.8906 112.566L29.015 112.044C29.1898 109.953 33.4655 60.3374 44.3614 53.6483C45.952 52.6721 47.5091 52.5556 48.9867 53.3059C54.0834 55.8868 56.9733 69.1749 58.4209 78.7467C59.4184 57.9806 62.9209 12.2061 74.5494 5.49236C76.1771 4.55318 77.7695 4.49845 79.2912 5.32817C90.8527 11.6376 93.9192 72.8221 94.0427 75.4243L94.0657 75.9098L29.8906 112.566ZM47.0236 54.411C46.4375 54.411 45.8302 54.6069 45.1894 55.0006C35.9812 60.6534 31.5942 101.785 30.7875 110.227L92.4362 75.0147C91.354 53.147 87.0995 11.3958 78.5321 6.72106C77.517 6.16497 76.4719 6.21263 75.3421 6.86582C61.3144 14.9654 59.6938 87.2612 59.6796 88.0008L58.0537 88.9347C57.3529 80.4415 54.2281 57.7405 48.2717 54.7235C47.8639 54.5134 47.4491 54.411 47.0236 54.411Z" fill="black"/>
<path d="M92.1601 62.7868L93.4894 60.7408L87.5454 57.7026C87.5454 57.7026 86.9875 57.3636 86.9734 57.376C84.8549 56.3556 82.3375 56.345 79.3558 58.0662C66.2991 65.6044 66.7986 83.7066 53.2264 94.5178C39.6542 105.329 33.9855 101.659 33.9855 101.659L32.4391 112.668L39.1352 116.117L58.4855 102.381L96.69 75.9689C96.69 75.9689 95.419 68.4414 92.1601 62.7868Z" fill="#FE5721"/>
<path d="M93.74 65.3122L95.0693 63.2662L89.1253 60.228C89.1253 60.228 88.5674 59.889 88.5533 59.9013C86.4348 58.881 83.9156 58.8704 80.9357 60.5916C67.8789 68.1298 68.3785 86.232 54.8063 97.0431C41.2341 107.854 35.5655 104.184 35.5655 104.184L34.5786 111.546L43.838 109.967L59.2004 100.918L98.2717 78.4943C98.2717 78.4943 96.9988 70.965 93.74 65.3122Z" fill="#FE5721"/>
<path d="M38.9153 116.94L31.5748 113.116L33.372 100.319L34.4136 100.993C34.4577 101.018 39.9092 104.111 52.7311 93.8978C59.18 88.7606 62.3895 81.9215 65.493 75.3084C68.8543 68.1445 72.0285 61.3795 78.9576 57.3792C81.9287 55.6632 84.7392 55.4214 87.3149 56.6624L87.3131 56.6677C87.4967 56.7472 87.7033 56.8725 87.9557 57.0261L94.6324 60.4351L93.0859 62.8166C96.2018 68.464 97.4199 75.5326 97.4711 75.838L97.5541 76.3341L58.9347 103.032L38.9153 116.94ZM33.3014 112.222L39.0671 115.194L58.0255 101.736L95.8152 75.6103C95.4727 73.8643 94.1504 67.8267 91.4724 63.182L91.2305 62.7618L92.3444 61.0459L87.1842 58.4084C87.1384 58.3837 86.8665 58.216 86.7182 58.133L86.6299 58.0906C84.5291 57.0773 82.28 57.2927 79.752 58.7527C73.2536 62.5041 70.1819 69.0501 66.93 75.9828C63.7488 82.7618 60.4582 89.7704 53.7215 95.1389C42.9827 103.69 36.931 103.401 34.6325 102.764L33.3014 112.222Z" fill="black"/>
<path d="M103.426 79.2718C103.426 79.2718 99.149 53.8292 86.0922 61.3674C73.0355 68.9055 73.5351 87.0077 59.9629 97.8189C46.3907 108.63 40.722 104.96 40.722 104.96L39.1755 115.969L103.426 79.2718Z" fill="#FE5721"/>
<path d="M33.9821 101.659L40.7188 104.962L39.1317 116.119L32.4357 112.67L33.9821 101.659Z" fill="#FE5721"/>
<path d="M39.8811 116.479L104.298 79.6866L104.206 79.1411C104.098 78.502 101.489 63.4539 93.9899 59.9196C91.4425 58.7192 88.6496 58.9734 85.6944 60.6805C78.7653 64.6809 75.5911 71.4476 72.2299 78.6097C69.1263 85.2228 65.9169 92.0619 59.4679 97.1991C47.8765 106.432 42.3243 104.796 41.3304 104.377L41.1115 104.269L40.1088 103.62L33.3509 100.465L31.575 113.114L38.2887 116.574L39.0372 116.961L39.8811 116.479ZM34.6167 102.852L39.8546 105.419L38.5058 114.902L33.3015 112.221L34.6167 102.852ZM60.4548 98.4402C67.1932 93.0734 70.4821 86.0631 73.6633 79.2841C76.9152 72.3532 79.9887 65.8054 86.4853 62.054C88.9992 60.6028 91.2289 60.3733 93.312 61.3531C99.3231 64.1848 102.006 76.1664 102.54 78.8639L40.1812 114.482L41.3622 106.065C43.666 106.702 49.716 106.993 60.4548 98.4402Z" fill="black"/>
<path d="M106.087 82.2179C106.087 82.2179 101.81 56.7753 88.7531 64.3134C75.6964 71.8516 76.196 89.9538 62.6237 100.765C49.0515 111.576 43.3829 107.906 43.3829 107.906L41.8364 118.915L106.087 82.2179Z" fill="black"/>
<path d="M24.5312 118.529C25.0025 118.8 25.0025 119.244 24.5312 119.515C24.0598 119.787 23.2936 119.787 22.8223 119.515C22.3509 119.244 22.3509 118.8 22.8223 118.529C23.2936 118.257 24.058 118.257 24.5312 118.529Z" fill="black"/>
<path d="M28.9993 115.949C29.4707 116.221 29.4707 116.664 28.9993 116.936C28.5279 117.208 27.7618 117.208 27.2904 116.936C26.8191 116.664 26.8191 116.221 27.2904 115.949C27.7618 115.675 28.5262 115.675 28.9993 115.949Z" fill="black"/>
<path d="M20.0627 115.949C20.534 116.221 20.534 116.664 20.0627 116.936C19.5913 117.208 18.8251 117.208 18.3538 116.936C17.8824 116.664 17.8824 116.221 18.3538 115.949C18.8251 115.675 19.5895 115.675 20.0627 115.949Z" fill="black"/>
<path d="M24.5312 113.368C25.0025 113.64 25.0025 114.083 24.5312 114.355C24.0598 114.627 23.2936 114.627 22.8223 114.355C22.3509 114.083 22.3509 113.64 22.8223 113.368C23.2936 113.096 24.058 113.096 24.5312 113.368Z" fill="black"/>
<path d="M20.0627 110.789C20.534 111.06 20.534 111.504 20.0627 111.775C19.5913 112.047 18.8251 112.047 18.3538 111.775C17.8824 111.504 17.8824 111.06 18.3538 110.789C18.8251 110.517 19.5895 110.517 20.0627 110.789Z" fill="black"/>
<path d="M47.0486 125.855C47.52 126.127 47.52 126.57 47.0486 126.842C46.5773 127.114 45.8111 127.114 45.3397 126.842C44.8684 126.57 44.8684 126.127 45.3397 125.855C45.8128 125.583 46.5773 125.583 47.0486 125.855Z" fill="black"/>
<path d="M51.5166 123.275C51.988 123.547 51.988 123.99 51.5166 124.262C51.0452 124.534 50.2791 124.534 49.8077 124.262C49.3364 123.99 49.3364 123.547 49.8077 123.275C50.2791 123.002 51.0435 123.002 51.5166 123.275Z" fill="black"/>
<path d="M55.9853 120.694C56.4566 120.966 56.4566 121.409 55.9853 121.681C55.5139 121.953 54.7477 121.953 54.2764 121.681C53.805 121.409 53.805 120.966 54.2764 120.694C54.7477 120.422 55.5121 120.422 55.9853 120.694Z" fill="black"/>
<path d="M60.4534 118.115C60.9248 118.387 60.9248 118.83 60.4534 119.102C59.982 119.374 59.2159 119.374 58.7445 119.102C58.2732 118.83 58.2732 118.387 58.7445 118.115C59.2159 117.843 59.982 117.843 60.4534 118.115Z" fill="black"/>
<path d="M64.9214 115.535C65.3928 115.807 65.3928 116.25 64.9214 116.522C64.4501 116.794 63.6839 116.794 63.2125 116.522C62.7412 116.25 62.7412 115.807 63.2125 115.535C63.6839 115.262 64.4501 115.262 64.9214 115.535Z" fill="black"/>
<path d="M69.3896 112.955C69.8609 113.227 69.8609 113.67 69.3896 113.942C68.9182 114.214 68.152 114.214 67.6807 113.942C67.2093 113.67 67.2093 113.227 67.6807 112.955C68.1538 112.683 68.9182 112.683 69.3896 112.955Z" fill="black"/>
<path d="M73.8582 110.375C74.3295 110.647 74.3295 111.09 73.8582 111.362C73.3868 111.634 72.6206 111.634 72.1493 111.362C71.6779 111.09 71.6779 110.647 72.1493 110.375C72.6224 110.103 73.3868 110.103 73.8582 110.375Z" fill="black"/>
<path d="M78.3263 107.796C78.7977 108.068 78.7977 108.511 78.3263 108.783C77.855 109.055 77.0888 109.055 76.6174 108.783C76.1461 108.511 76.1461 108.068 76.6174 107.796C77.0888 107.523 77.8532 107.523 78.3263 107.796Z" fill="black"/>
<path d="M82.7943 105.216C83.2657 105.487 83.2657 105.929 82.7943 106.202C82.323 106.474 81.5568 106.474 81.0855 106.202C80.6141 105.931 80.6141 105.487 81.0855 105.216C81.5568 104.944 82.3212 104.944 82.7943 105.216Z" fill="black"/>
<path d="M87.263 102.636C87.7343 102.908 87.7343 103.351 87.263 103.623C86.7916 103.895 86.0254 103.895 85.5541 103.623C85.0827 103.351 85.0827 102.908 85.5541 102.636C86.0254 102.364 86.7916 102.364 87.263 102.636Z" fill="black"/>
<path d="M91.7311 100.057C92.2025 100.329 92.2025 100.772 91.7311 101.044C91.2598 101.315 90.4936 101.315 90.0222 101.044C89.5509 100.772 89.5509 100.329 90.0222 100.057C90.4936 99.7832 91.2598 99.7832 91.7311 100.057Z" fill="black"/>
<path d="M96.1991 97.4766C96.6705 97.7485 96.6705 98.1916 96.1991 98.4634C95.7278 98.7353 94.9616 98.7353 94.4902 98.4634C94.0189 98.1916 94.0189 97.7485 94.4902 97.4766C94.9634 97.2047 95.7278 97.2047 96.1991 97.4766Z" fill="black"/>
<path d="M100.668 94.8969C101.139 95.1687 101.139 95.6119 100.668 95.8837C100.196 96.1556 99.4302 96.1556 98.9589 95.8837C98.4875 95.6119 98.4875 95.1687 98.9589 94.8969C99.432 94.6232 100.196 94.6232 100.668 94.8969Z" fill="black"/>
<path d="M105.136 92.3155C105.607 92.5873 105.607 93.0305 105.136 93.3023C104.665 93.5742 103.898 93.5742 103.427 93.3023C102.956 93.0305 102.956 92.5873 103.427 92.3155C103.898 92.0436 104.663 92.0436 105.136 92.3155Z" fill="black"/>
<path d="M38.1118 125.855C38.5832 126.127 38.5832 126.57 38.1118 126.842C37.6405 127.114 36.8743 127.114 36.403 126.842C35.9316 126.57 35.9316 126.127 36.403 125.855C36.8743 125.583 37.6405 125.583 38.1118 125.855Z" fill="black"/>
<path d="M42.5805 123.275C43.0518 123.547 43.0518 123.99 42.5805 124.262C42.1091 124.534 41.3429 124.534 40.8716 124.262C40.4002 123.99 40.4002 123.547 40.8716 123.275C41.3447 123.002 42.1091 123.002 42.5805 123.275Z" fill="black"/>
<path d="M47.0486 120.694C47.52 120.966 47.52 121.409 47.0486 121.681C46.5773 121.953 45.8111 121.953 45.3397 121.681C44.8684 121.409 44.8684 120.966 45.3397 120.694C45.8128 120.422 46.5773 120.422 47.0486 120.694Z" fill="black"/>
<path d="M51.5166 118.115C51.988 118.387 51.988 118.83 51.5166 119.102C51.0452 119.374 50.2791 119.374 49.8077 119.102C49.3364 118.83 49.3364 118.387 49.8077 118.115C50.2791 117.843 51.0435 117.843 51.5166 118.115Z" fill="black"/>
<path d="M55.9853 115.535C56.4566 115.807 56.4566 116.25 55.9853 116.522C55.5139 116.794 54.7477 116.794 54.2764 116.522C53.805 116.25 53.805 115.807 54.2764 115.535C54.7477 115.262 55.5121 115.262 55.9853 115.535Z" fill="black"/>
<path d="M60.4534 112.955C60.9248 113.227 60.9248 113.67 60.4534 113.942C59.982 114.214 59.2159 114.214 58.7445 113.942C58.2732 113.67 58.2732 113.227 58.7445 112.955C59.2159 112.683 59.982 112.683 60.4534 112.955Z" fill="black"/>
<path d="M64.9214 110.375C65.3928 110.647 65.3928 111.09 64.9214 111.362C64.4501 111.634 63.6839 111.634 63.2125 111.362C62.7412 111.09 62.7412 110.647 63.2125 110.375C63.6839 110.103 64.4501 110.103 64.9214 110.375Z" fill="black"/>
<path d="M69.3896 107.796C69.8609 108.068 69.8609 108.511 69.3896 108.783C68.9182 109.055 68.152 109.055 67.6807 108.783C67.2093 108.511 67.2093 108.068 67.6807 107.796C68.1538 107.523 68.9182 107.523 69.3896 107.796Z" fill="black"/>
<path d="M73.8582 105.216C74.3295 105.487 74.3295 105.929 73.8582 106.202C73.3868 106.474 72.6206 106.474 72.1493 106.202C71.6779 105.931 71.6779 105.487 72.1493 105.216C72.6224 104.944 73.3868 104.944 73.8582 105.216Z" fill="black"/>
<path d="M78.3263 102.636C78.7977 102.908 78.7977 103.351 78.3263 103.623C77.855 103.895 77.0888 103.895 76.6174 103.623C76.1461 103.351 76.1461 102.908 76.6174 102.636C77.0888 102.364 77.8532 102.364 78.3263 102.636Z" fill="black"/>
<path d="M82.7943 100.057C83.2657 100.329 83.2657 100.772 82.7943 101.044C82.323 101.315 81.5568 101.315 81.0855 101.044C80.6141 100.772 80.6141 100.329 81.0855 100.057C81.5568 99.7832 82.323 99.7832 82.7943 100.057Z" fill="black"/>
<path d="M87.263 97.4766C87.7343 97.7485 87.7343 98.1916 87.263 98.4634C86.7916 98.7353 86.0254 98.7353 85.5541 98.4634C85.0827 98.1916 85.0827 97.7485 85.5541 97.4766C86.0254 97.2047 86.7916 97.2047 87.263 97.4766Z" fill="black"/>
<path d="M91.7311 94.8969C92.2025 95.1687 92.2025 95.6119 91.7311 95.8837C91.2598 96.1556 90.4936 96.1556 90.0222 95.8837C89.5509 95.6119 89.5509 95.1687 90.0222 94.8969C90.4936 94.6232 91.2598 94.6232 91.7311 94.8969Z" fill="black"/>
<path d="M96.1991 92.3155C96.6705 92.5873 96.6705 93.0305 96.1991 93.3023C95.7278 93.5742 94.9616 93.5742 94.4902 93.3023C94.0189 93.0305 94.0189 92.5873 94.4902 92.3155C94.9634 92.0436 95.7278 92.0436 96.1991 92.3155Z" fill="black"/>
<path d="M100.671 89.7366C101.142 90.0085 101.142 90.4516 100.671 90.7235C100.199 90.9953 99.4333 90.9953 98.9619 90.7235C98.4906 90.4516 98.4906 90.0085 98.9619 89.7366C99.4333 89.4647 100.198 89.4647 100.671 89.7366Z" fill="black"/>
<path d="M33.6438 123.275C34.1152 123.547 34.1152 123.99 33.6438 124.262C33.1724 124.534 32.4063 124.534 31.9349 124.262C31.4636 123.99 31.4636 123.547 31.9349 123.275C32.4063 123.002 33.1724 123.002 33.6438 123.275Z" fill="black"/>
<path d="M38.1118 120.694C38.5832 120.966 38.5832 121.409 38.1118 121.681C37.6405 121.953 36.8743 121.953 36.403 121.681C35.9316 121.409 35.9316 120.968 36.403 120.694C36.8743 120.422 37.6405 120.422 38.1118 120.694Z" fill="black"/>
<path d="M29.1757 120.694C29.647 120.966 29.647 121.409 29.1757 121.681C28.7043 121.953 27.9382 121.953 27.4668 121.681C26.9954 121.409 26.9954 120.968 27.4668 120.694C27.9382 120.422 28.7043 120.422 29.1757 120.694Z" fill="black"/>
<path d="M33.6438 118.115C34.1152 118.387 34.1152 118.83 33.6438 119.102C33.1724 119.374 32.4063 119.374 31.9349 119.102C31.4636 118.83 31.4636 118.387 31.9349 118.115C32.4063 117.843 33.1724 117.843 33.6438 118.115Z" fill="black"/>
<path d="M107.928 89.7609C108.399 89.4872 109.164 89.4872 109.637 89.7591C110.11 90.031 110.112 90.4723 109.64 90.7459C109.169 91.0196 108.405 91.0196 107.932 90.7477C107.458 90.4758 107.457 90.0345 107.928 89.7609Z" fill="black"/>
<path d="M103.46 87.182C103.931 86.9084 104.696 86.9084 105.169 87.1802C105.642 87.4521 105.644 87.8935 105.172 88.1671C104.701 88.4407 103.936 88.4407 103.463 88.1689C102.99 87.897 102.988 87.4556 103.46 87.182Z" fill="black"/>
<path d="M109.644 84.5993C110.116 84.8711 110.116 85.3142 109.644 85.5861C109.173 85.858 108.407 85.858 107.936 85.5861C107.464 85.3142 107.464 84.8711 107.936 84.5993C108.409 84.3256 109.173 84.3256 109.644 84.5993Z" fill="black"/>
</svg>
