<svg width="128" height="128" viewBox="0 0 128 128" fill="none" xmlns="http://www.w3.org/2000/svg">
<path d="M19.6828 104.765C20.1849 105.054 20.1849 105.526 19.6828 105.816C19.1807 106.105 18.3646 106.105 17.8625 105.816C17.3604 105.526 17.3604 105.054 17.8625 104.765C18.3646 104.475 19.1807 104.475 19.6828 104.765Z" fill="black"/>
<path d="M24.4433 102.017C24.9454 102.307 24.9454 102.779 24.4433 103.068C23.9412 103.358 23.1251 103.358 22.623 103.068C22.1209 102.779 22.1209 102.307 22.623 102.017C23.1251 101.725 23.9412 101.725 24.4433 102.017Z" fill="black"/>
<path d="M29.2031 99.267C29.7052 99.5566 29.7052 100.029 29.2031 100.318C28.7011 100.608 27.885 100.608 27.3829 100.318C26.8808 100.029 26.8808 99.5566 27.3829 99.267C27.885 98.9774 28.7011 98.9774 29.2031 99.267Z" fill="black"/>
<path d="M33.9638 96.5202C34.4659 96.8098 34.4659 97.2818 33.9638 97.5713C33.4617 97.8609 32.6456 97.8609 32.1435 97.5713C31.6414 97.2818 31.6414 96.8098 32.1435 96.5202C32.6456 96.2306 33.4598 96.2306 33.9638 96.5202Z" fill="black"/>
<path d="M38.7236 93.773C39.2257 94.0626 39.2257 94.5327 38.7236 94.8242C38.2215 95.1138 37.4054 95.1138 36.9034 94.8242C36.4013 94.5346 36.4013 94.0626 36.9034 93.773C37.4054 93.4816 38.2197 93.4816 38.7236 93.773Z" fill="black"/>
<path d="M43.4842 91.0238C43.9863 91.3134 43.9863 91.7854 43.4842 92.075C42.9822 92.3646 42.166 92.3646 41.664 92.075C41.1619 91.7854 41.1619 91.3134 41.664 91.0238C42.166 90.7342 42.9822 90.7342 43.4842 91.0238Z" fill="black"/>
<path d="M48.2407 88.276C48.7428 88.5656 48.7428 89.0376 48.2407 89.3272C47.7387 89.6168 46.9226 89.6168 46.4205 89.3272C45.9184 89.0376 45.9184 88.5656 46.4205 88.276C46.9226 87.9864 47.7387 87.9864 48.2407 88.276Z" fill="black"/>
<path d="M13.0973 102.02C13.5994 101.729 14.4136 101.729 14.9176 102.018C15.4215 102.308 15.4234 102.778 14.9214 103.069C14.4193 103.361 13.6051 103.361 13.1011 103.071C12.5971 102.78 12.5971 102.31 13.0973 102.02Z" fill="black"/>
<path d="M19.6828 99.267C20.1849 99.5566 20.1849 100.029 19.6828 100.318C19.1807 100.608 18.3646 100.608 17.8625 100.318C17.3604 100.029 17.3604 99.5566 17.8625 99.267C18.3646 98.9774 19.1807 98.9774 19.6828 99.267Z" fill="black"/>
<path d="M24.4433 96.5202C24.9454 96.8098 24.9454 97.2818 24.4433 97.5713C23.9412 97.8609 23.1251 97.8609 22.623 97.5713C22.1209 97.2818 22.1209 96.8098 22.623 96.5202C23.1251 96.2306 23.9412 96.2306 24.4433 96.5202Z" fill="black"/>
<path d="M29.2031 93.773C29.7052 94.0626 29.7052 94.5346 29.2031 94.8242C28.7011 95.1138 27.885 95.1138 27.3829 94.8242C26.8808 94.5346 26.8808 94.0626 27.3829 93.773C27.8869 93.4816 28.7011 93.4816 29.2031 93.773Z" fill="black"/>
<path d="M33.9638 91.0238C34.4659 91.3134 34.4659 91.7854 33.9638 92.075C33.4617 92.3646 32.6456 92.3646 32.1435 92.075C31.6414 91.7854 31.6414 91.3134 32.1435 91.0238C32.6456 90.7342 33.4598 90.7342 33.9638 91.0238Z" fill="black"/>
<path d="M38.7236 88.276C39.2257 88.5656 39.2257 89.0376 38.7236 89.3272C38.2215 89.6168 37.4054 89.6168 36.9034 89.3272C36.4013 89.0376 36.4013 88.5656 36.9034 88.276C37.4054 87.9864 38.2197 87.9864 38.7236 88.276Z" fill="black"/>
<path d="M8.34084 99.2713C8.84292 98.9799 9.65715 98.9799 10.1611 99.2694C10.6651 99.559 10.6669 100.029 10.1649 100.321C9.66279 100.612 8.84856 100.612 8.3446 100.322C7.84064 100.033 7.83876 99.5628 8.34084 99.2713Z" fill="black"/>
<path d="M14.9228 96.5202C15.4249 96.8098 15.4249 97.2818 14.9228 97.5713C14.4207 97.8609 13.6046 97.8609 13.1025 97.5713C12.6004 97.2818 12.6004 96.8098 13.1025 96.5202C13.6046 96.2306 14.4207 96.2306 14.9228 96.5202Z" fill="black"/>
<path d="M19.6828 93.773C20.1849 94.0626 20.1849 94.5346 19.6828 94.8242C19.1807 95.1138 18.3646 95.1138 17.8625 94.8242C17.3604 94.5346 17.3604 94.0626 17.8625 93.773C18.3646 93.4816 19.1807 93.4816 19.6828 93.773Z" fill="black"/>
<path d="M24.4433 91.0238C24.9454 91.3134 24.9454 91.7854 24.4433 92.075C23.9412 92.3646 23.1251 92.3646 22.623 92.075C22.1209 91.7854 22.1209 91.3153 22.623 91.0238C23.1251 90.7342 23.9412 90.7342 24.4433 91.0238Z" fill="black"/>
<path d="M29.2031 88.276C29.7052 88.5656 29.7052 89.0376 29.2031 89.3272C28.7011 89.6168 27.885 89.6168 27.3829 89.3272C26.8808 89.0376 26.8808 88.5656 27.3829 88.276C27.8869 87.9864 28.7011 87.9864 29.2031 88.276Z" fill="black"/>
<path d="M3.58095 96.5238C4.08303 96.2323 4.89726 96.2323 5.40122 96.5219C5.90518 96.8115 5.90706 97.2816 5.40498 97.5731C4.9029 97.8645 4.08867 97.8645 3.58471 97.5749C3.08075 97.2854 3.07888 96.8134 3.58095 96.5238Z" fill="black"/>
<path d="M10.1668 93.773C10.6689 94.0626 10.6689 94.5346 10.1668 94.8242C9.66472 95.1138 8.84861 95.1138 8.34653 94.8242C7.84445 94.5346 7.84445 94.0626 8.34653 93.773C8.84861 93.4816 9.66284 93.4816 10.1668 93.773Z" fill="black"/>
<path d="M14.9228 91.0238C15.4249 91.3134 15.4249 91.7854 14.9228 92.075C14.4207 92.3646 13.6046 92.3646 13.1025 92.075C12.6004 91.7854 12.6004 91.3153 13.1025 91.0238C13.6046 90.7342 14.4207 90.7342 14.9228 91.0238Z" fill="black"/>
<path d="M19.6828 88.276C20.1849 88.5656 20.1849 89.0376 19.6828 89.3272C19.1807 89.6168 18.3646 89.6168 17.8625 89.3272C17.3604 89.0376 17.3604 88.5656 17.8625 88.276C18.3646 87.9864 19.1807 87.9864 19.6828 88.276Z" fill="black"/>
<path d="M24.4433 85.5289C24.9454 85.8185 24.9454 86.2905 24.4433 86.5801C23.9412 86.8697 23.1251 86.8697 22.623 86.5801C22.1209 86.2905 22.1209 85.8185 22.623 85.5289C23.1251 85.2374 23.9412 85.2374 24.4433 85.5289Z" fill="black"/>
<path d="M5.40605 91.0238C5.90813 91.3134 5.90813 91.7854 5.40605 92.075C4.90398 92.3646 4.08786 92.3646 3.58579 92.075C3.08371 91.7854 3.08371 91.3134 3.58579 91.0238C4.08974 90.7342 4.90398 90.7342 5.40605 91.0238Z" fill="black"/>
<path d="M10.1668 88.276C10.6689 88.5656 10.6689 89.0357 10.1668 89.3272C9.66472 89.6168 8.84861 89.6168 8.34653 89.3272C7.84445 89.0376 7.84445 88.5656 8.34653 88.276C8.84861 87.9864 9.66284 87.9864 10.1668 88.276Z" fill="black"/>
<path d="M14.9228 85.5289C15.4249 85.8185 15.4249 86.2905 14.9228 86.5801C14.4207 86.8697 13.6046 86.8697 13.1025 86.5801C12.6004 86.2905 12.6004 85.8185 13.1025 85.5289C13.6046 85.2374 14.4207 85.2374 14.9228 85.5289Z" fill="black"/>
<path d="M19.6828 83.8309C19.1807 84.1205 18.3646 84.1205 17.8625 83.8309C17.3604 83.5413 17.3604 83.0712 17.8625 82.7797C18.3646 82.4901 20.1849 83.5413 19.6828 83.8309Z" fill="black"/>
<path d="M5.36528 85.4987C5.86736 85.7883 5.86736 86.2603 5.36528 86.5499C4.86321 86.8394 4.04709 86.8394 3.54501 86.5499C3.04294 86.2603 3.04294 85.7883 3.54501 85.4987C4.04709 85.2091 4.86133 85.2091 5.36528 85.4987Z" fill="black"/>
<path d="M10.1252 82.7516C10.6272 83.0411 10.6272 83.5113 10.1252 83.8027C9.62309 84.0923 8.80698 84.0923 8.3049 83.8027C7.80283 83.5131 7.80283 83.0411 8.3049 82.7516C8.80698 82.4601 9.62121 82.4601 10.1252 82.7516Z" fill="black"/>
<path d="M72.2685 123.589C72.7706 123.879 72.7706 124.351 72.2685 124.64C71.7664 124.93 70.9503 124.93 70.4482 124.64C69.9461 124.351 69.9461 123.879 70.4482 123.589C70.9503 123.299 71.7645 123.299 72.2685 123.589Z" fill="black"/>
<path d="M77.0284 120.842C77.5304 121.131 77.5304 121.603 77.0284 121.893C76.5263 122.182 75.7102 122.182 75.2081 121.893C74.706 121.603 74.706 121.131 75.2081 120.842C75.7102 120.55 76.5263 120.55 77.0284 120.842Z" fill="black"/>
<path d="M81.789 118.093C82.2911 118.382 82.2911 118.854 81.789 119.144C81.2869 119.433 80.4708 119.433 79.9687 119.144C79.4666 118.854 79.4666 118.382 79.9687 118.093C80.4708 117.803 81.2869 117.803 81.789 118.093Z" fill="black"/>
<path d="M86.5488 115.345C87.0509 115.635 87.0509 116.107 86.5488 116.396C86.0467 116.686 85.2306 116.686 84.7285 116.396C84.2265 116.107 84.2265 115.635 84.7285 115.345C85.2325 115.056 86.0467 115.056 86.5488 115.345Z" fill="black"/>
<path d="M91.306 112.598C91.8081 112.887 91.8081 113.359 91.306 113.649C90.8039 113.938 89.9878 113.938 89.4857 113.649C88.9837 113.359 88.9837 112.887 89.4857 112.598C89.9897 112.306 90.8039 112.306 91.306 112.598Z" fill="black"/>
<path d="M96.0693 109.849C96.5713 110.138 96.5713 110.61 96.0693 110.9C95.5672 111.189 94.7511 111.189 94.249 110.9C93.7469 110.61 93.7469 110.138 94.249 109.849C94.7511 109.559 95.5653 109.559 96.0693 109.849Z" fill="black"/>
<path d="M100.826 107.102C101.328 107.391 101.328 107.863 100.826 108.153C100.324 108.442 99.508 108.442 99.006 108.153C98.5039 107.863 98.5039 107.391 99.006 107.102C99.508 106.812 100.322 106.812 100.826 107.102Z" fill="black"/>
<path d="M105.586 104.355C106.088 104.644 106.088 105.116 105.586 105.406C105.084 105.695 104.268 105.695 103.766 105.406C103.264 105.116 103.264 104.644 103.766 104.355C104.268 104.063 105.084 104.063 105.586 104.355Z" fill="black"/>
<path d="M110.347 101.604C110.849 101.894 110.849 102.366 110.347 102.656C109.845 102.945 109.028 102.945 108.526 102.656C108.024 102.366 108.024 101.894 108.526 101.604C109.028 101.315 109.845 101.315 110.347 101.604Z" fill="black"/>
<path d="M115.107 98.857C115.609 99.1466 115.609 99.6186 115.107 99.9082C114.605 100.198 113.788 100.198 113.286 99.9082C112.784 99.6186 112.784 99.1466 113.286 98.857C113.788 98.5656 114.605 98.5656 115.107 98.857Z" fill="black"/>
<path d="M119.864 96.1083C120.366 96.3979 120.366 96.8699 119.864 97.1595C119.362 97.4491 118.546 97.4491 118.044 97.1595C117.541 96.8699 117.541 96.3979 118.044 96.1083C118.548 95.8187 119.362 95.8187 119.864 96.1083Z" fill="black"/>
<path d="M124.624 93.3612C125.126 93.6508 125.126 94.1228 124.624 94.4124C124.122 94.702 123.306 94.702 122.803 94.4124C122.301 94.1228 122.301 93.6508 122.803 93.3612C123.306 93.0716 124.12 93.0716 124.624 93.3612Z" fill="black"/>
<path d="M62.748 123.589C63.2501 123.879 63.2501 124.351 62.748 124.64C62.246 124.93 61.4298 124.93 60.9278 124.64C60.4257 124.351 60.4257 123.879 60.9278 123.589C61.4317 123.299 62.246 123.299 62.748 123.589Z" fill="black"/>
<path d="M67.5079 120.842C68.01 121.131 68.01 121.603 67.5079 121.893C67.0058 122.182 66.1897 122.182 65.6877 121.893C65.1856 121.603 65.1856 121.133 65.6877 120.842C66.1897 120.55 67.004 120.55 67.5079 120.842Z" fill="black"/>
<path d="M72.2685 118.093C72.7706 118.382 72.7706 118.854 72.2685 119.144C71.7664 119.433 70.9503 119.433 70.4482 119.144C69.9461 118.854 69.9461 118.382 70.4482 118.093C70.9503 117.803 71.7645 117.803 72.2685 118.093Z" fill="black"/>
<path d="M77.0284 115.345C77.5304 115.635 77.5304 116.107 77.0284 116.396C76.5263 116.686 75.7102 116.686 75.2081 116.396C74.706 116.107 74.706 115.635 75.2081 115.345C75.7102 115.056 76.5263 115.056 77.0284 115.345Z" fill="black"/>
<path d="M81.789 112.598C82.2911 112.887 82.2911 113.359 81.789 113.649C81.2869 113.938 80.4708 113.938 79.9687 113.649C79.4666 113.359 79.4666 112.887 79.9687 112.598C80.4708 112.306 81.2869 112.306 81.789 112.598Z" fill="black"/>
<path d="M86.5488 109.849C87.0509 110.138 87.0509 110.61 86.5488 110.9C86.0467 111.189 85.2306 111.189 84.7285 110.9C84.2265 110.61 84.2265 110.138 84.7285 109.849C85.2325 109.559 86.0467 109.559 86.5488 109.849Z" fill="black"/>
<path d="M91.3094 107.102C91.8115 107.391 91.8115 107.863 91.3094 108.153C90.8073 108.442 89.9912 108.442 89.4892 108.153C88.9871 107.863 88.9871 107.391 89.4892 107.102C89.9931 106.812 90.8073 106.812 91.3094 107.102Z" fill="black"/>
<path d="M96.0693 104.355C96.5713 104.644 96.5713 105.116 96.0693 105.406C95.5672 105.695 94.7511 105.695 94.249 105.406C93.7469 105.116 93.7469 104.644 94.249 104.355C94.7511 104.063 95.5653 104.063 96.0693 104.355Z" fill="black"/>
<path d="M100.826 101.604C101.328 101.894 101.328 102.366 100.826 102.656C100.324 102.945 99.508 102.945 99.006 102.656C98.5039 102.366 98.5039 101.896 99.006 101.604C99.508 101.315 100.322 101.315 100.826 101.604Z" fill="black"/>
<path d="M105.586 98.857C106.088 99.1466 106.088 99.6186 105.586 99.9082C105.084 100.198 104.268 100.198 103.766 99.9082C103.264 99.6186 103.264 99.1466 103.766 98.857C104.268 98.5656 105.084 98.5656 105.586 98.857Z" fill="black"/>
<path d="M110.347 96.1081C110.849 96.3976 110.849 96.8696 110.347 97.1592C109.845 97.4488 109.028 97.4488 108.526 97.1592C108.024 96.8696 108.024 96.3976 108.526 96.1081C109.028 95.8185 109.845 95.8185 110.347 96.1081Z" fill="black"/>
<path d="M115.107 93.3612C115.609 93.6508 115.609 94.1228 115.107 94.4124C114.605 94.702 113.788 94.702 113.286 94.4124C112.784 94.1228 112.784 93.6508 113.286 93.3612C113.788 93.0716 114.605 93.0716 115.107 93.3612Z" fill="black"/>
<path d="M119.864 90.6139C120.366 90.9035 120.366 91.3754 119.864 91.665C119.362 91.9546 118.546 91.9546 118.044 91.665C117.541 91.3754 117.541 90.9035 118.044 90.6139C118.548 90.3224 119.362 90.3224 119.864 90.6139Z" fill="black"/>
<path d="M124.624 87.8649C125.126 88.1545 125.126 88.6265 124.624 88.9161C124.122 89.2056 123.306 89.2056 122.803 88.9161C122.301 88.6265 122.301 88.1545 122.803 87.8649C123.306 87.5753 124.12 87.5753 124.624 87.8649Z" fill="black"/>
<path d="M51.4027 123.593C51.9048 123.301 52.719 123.301 53.223 123.591C53.7269 123.88 53.7288 124.35 53.2267 124.642C52.7247 124.933 51.9105 124.933 51.4065 124.644C50.9025 124.354 50.9006 123.884 51.4027 123.593Z" fill="black"/>
<path d="M57.9875 120.842C58.4896 121.131 58.4896 121.603 57.9875 121.893C57.4854 122.182 56.6693 122.182 56.1672 121.893C55.6651 121.603 55.6651 121.131 56.1672 120.842C56.6693 120.55 57.4854 120.55 57.9875 120.842Z" fill="black"/>
<path d="M62.748 118.093C63.2501 118.382 63.2501 118.852 62.748 119.144C62.246 119.433 61.4298 119.433 60.9278 119.144C60.4257 118.854 60.4257 118.382 60.9278 118.093C61.4317 117.803 62.246 117.803 62.748 118.093Z" fill="black"/>
<path d="M67.5079 115.345C68.01 115.635 68.01 116.107 67.5079 116.396C67.0058 116.686 66.1897 116.686 65.6877 116.396C65.1856 116.107 65.1856 115.635 65.6877 115.345C66.1897 115.056 67.004 115.056 67.5079 115.345Z" fill="black"/>
<path d="M72.2685 112.598C72.7706 112.887 72.7706 113.359 72.2685 113.649C71.7664 113.938 70.9503 113.938 70.4482 113.649C69.9461 113.359 69.9461 112.887 70.4482 112.598C70.9503 112.306 71.7645 112.306 72.2685 112.598Z" fill="black"/>
<path d="M77.0284 109.849C77.5304 110.138 77.5304 110.61 77.0284 110.9C76.5263 111.189 75.7102 111.189 75.2081 110.9C74.706 110.61 74.706 110.138 75.2081 109.849C75.7102 109.559 76.5263 109.559 77.0284 109.849Z" fill="black"/>
<path d="M81.789 107.102C82.2911 107.391 82.2911 107.863 81.789 108.153C81.2869 108.442 80.4708 108.442 79.9687 108.153C79.4666 107.863 79.4666 107.391 79.9687 107.102C80.4708 106.812 81.2869 106.812 81.789 107.102Z" fill="black"/>
<path d="M86.5488 104.355C87.0509 104.644 87.0509 105.116 86.5488 105.406C86.0467 105.695 85.2306 105.695 84.7285 105.406C84.2265 105.116 84.2265 104.644 84.7285 104.355C85.2325 104.063 86.0467 104.063 86.5488 104.355Z" fill="black"/>
<path d="M91.3094 101.604C91.8115 101.894 91.8115 102.366 91.3094 102.656C90.8073 102.945 89.9912 102.945 89.4892 102.656C88.9871 102.366 88.9871 101.894 89.4892 101.604C89.9931 101.315 90.8073 101.315 91.3094 101.604Z" fill="black"/>
<path d="M96.0693 98.857C96.5713 99.1466 96.5713 99.6186 96.0693 99.9082C95.5672 100.198 94.7511 100.198 94.249 99.9082C93.7469 99.6186 93.7469 99.1466 94.249 98.857C94.7511 98.5656 95.5653 98.5656 96.0693 98.857Z" fill="black"/>
<path d="M100.826 96.1081C101.328 96.3976 101.328 96.8696 100.826 97.1592C100.324 97.4488 99.508 97.4488 99.006 97.1592C98.5039 96.8696 98.5039 96.3976 99.006 96.1081C99.508 95.8185 100.322 95.8185 100.826 96.1081Z" fill="black"/>
<path d="M105.586 93.3612C106.088 93.6508 106.088 94.1228 105.586 94.4124C105.084 94.702 104.268 94.702 103.766 94.4124C103.264 94.1228 103.264 93.6527 103.766 93.3612C104.268 93.0716 105.084 93.0716 105.586 93.3612Z" fill="black"/>
<path d="M110.347 90.6141C110.849 90.9037 110.849 91.3757 110.347 91.6653C109.845 91.9549 109.028 91.9549 108.526 91.6653C108.024 91.3757 108.024 90.9037 108.526 90.6141C109.028 90.3226 109.845 90.3226 110.347 90.6141Z" fill="black"/>
<path d="M115.107 87.8651C115.609 88.1547 115.609 88.6267 115.107 88.9163C114.605 89.2059 113.788 89.2059 113.286 88.9163C112.784 88.6267 112.784 88.1547 113.286 87.8651C113.788 87.5756 114.605 87.5756 115.107 87.8651Z" fill="black"/>
<path d="M119.864 85.1178C120.366 85.4074 120.366 85.8793 119.864 86.1689C119.362 86.4585 118.546 86.4585 118.044 86.1689C117.541 85.8793 117.541 85.4074 118.044 85.1178C118.548 84.8263 119.362 84.8263 119.864 85.1178Z" fill="black"/>
<path d="M46.6456 120.846C47.1477 120.554 47.9619 120.554 48.4659 120.844C48.9698 121.133 48.9717 121.603 48.4696 121.895C47.9675 122.186 47.1533 122.186 46.6493 121.897C46.1454 121.605 46.1435 121.135 46.6456 120.846Z" fill="black"/>
<path d="M53.2275 118.093C53.7296 118.382 53.7296 118.852 53.2275 119.144C52.7254 119.433 51.9093 119.433 51.4073 119.144C50.9052 118.854 50.9052 118.382 51.4073 118.093C51.9093 117.803 52.7254 117.803 53.2275 118.093Z" fill="black"/>
<path d="M57.9875 115.345C58.4896 115.635 58.4896 116.107 57.9875 116.396C57.4854 116.686 56.6693 116.686 56.1672 116.396C55.6651 116.107 55.6651 115.635 56.1672 115.345C56.6693 115.056 57.4854 115.056 57.9875 115.345Z" fill="black"/>
<path d="M62.748 112.598C63.2501 112.887 63.2501 113.359 62.748 113.649C62.246 113.938 61.4298 113.938 60.9278 113.649C60.4257 113.359 60.4257 112.887 60.9278 112.598C61.4298 112.306 62.2441 112.306 62.748 112.598Z" fill="black"/>
<path d="M67.5079 109.849C68.01 110.138 68.01 110.61 67.5079 110.9C67.0058 111.189 66.1897 111.189 65.6877 110.9C65.1856 110.61 65.1856 110.138 65.6877 109.849C66.1897 109.559 67.004 109.559 67.5079 109.849Z" fill="black"/>
<path d="M72.2685 107.102C72.7706 107.391 72.7706 107.863 72.2685 108.153C71.7664 108.442 70.9503 108.442 70.4482 108.153C69.9461 107.863 69.9461 107.391 70.4482 107.102C70.9503 106.812 71.7645 106.812 72.2685 107.102Z" fill="black"/>
<path d="M77.0284 104.355C77.5304 104.644 77.5304 105.116 77.0284 105.406C76.5263 105.695 75.7102 105.695 75.2081 105.406C74.706 105.116 74.706 104.644 75.2081 104.355C75.7102 104.063 76.5263 104.063 77.0284 104.355Z" fill="black"/>
<path d="M81.789 101.604C82.2911 101.894 82.2911 102.366 81.789 102.656C81.2869 102.945 80.4708 102.945 79.9687 102.656C79.4666 102.366 79.4666 101.894 79.9687 101.604C80.4708 101.315 81.2869 101.315 81.789 101.604Z" fill="black"/>
<path d="M86.5488 98.857C87.0509 99.1466 87.0509 99.6167 86.5488 99.9082C86.0467 100.198 85.2306 100.198 84.7285 99.9082C84.2265 99.6186 84.2265 99.1466 84.7285 98.857C85.2325 98.5656 86.0467 98.5656 86.5488 98.857Z" fill="black"/>
<path d="M91.3094 96.1081C91.8115 96.3976 91.8115 96.8696 91.3094 97.1592C90.8073 97.4488 89.9912 97.4488 89.4892 97.1592C88.9871 96.8696 88.9871 96.3976 89.4892 96.1081C89.9931 95.8185 90.8073 95.8185 91.3094 96.1081Z" fill="black"/>
<path d="M96.0693 93.3612C96.5713 93.6508 96.5713 94.1228 96.0693 94.4124C95.5672 94.702 94.7511 94.702 94.249 94.4124C93.7469 94.1228 93.7469 93.6527 94.249 93.3612C94.7511 93.0716 95.5653 93.0716 96.0693 93.3612Z" fill="black"/>
<path d="M100.826 90.6141C101.328 90.9037 101.328 91.3757 100.826 91.6653C100.324 91.9549 99.508 91.9549 99.006 91.6653C98.5039 91.3757 98.5039 90.9037 99.006 90.6141C99.508 90.3226 100.322 90.3226 100.826 90.6141Z" fill="black"/>
<path d="M105.586 87.8651C106.088 88.1547 106.088 88.6267 105.586 88.9163C105.084 89.2059 104.268 89.2059 103.766 88.9163C103.264 88.6267 103.264 88.1547 103.766 87.8651C104.268 87.5756 105.084 87.5756 105.586 87.8651Z" fill="black"/>
<path d="M110.347 85.1171C110.849 85.4067 110.849 85.8787 110.347 86.1683C109.845 86.4578 109.028 86.4578 108.526 86.1683C108.024 85.8787 108.024 85.4067 108.526 85.1171C109.028 84.8275 109.845 84.8275 110.347 85.1171Z" fill="black"/>
<path d="M115.107 82.37C115.609 82.6596 115.609 83.1316 115.107 83.4211C114.605 83.7107 113.788 83.7107 113.286 83.4211C112.784 83.1316 112.784 82.6596 113.286 82.37C113.79 82.0785 114.605 82.0785 115.107 82.37Z" fill="black"/>
<path d="M41.8849 118.096C42.387 117.805 43.2012 117.805 43.7052 118.094C44.2092 118.384 44.211 118.854 43.709 119.145C43.2069 119.437 42.3926 119.437 41.8887 119.147C41.3847 118.858 41.3847 118.388 41.8849 118.096Z" fill="black"/>
<path d="M48.4705 115.345C48.9726 115.635 48.9726 116.107 48.4705 116.396C47.9684 116.686 47.1523 116.686 46.6502 116.396C46.1482 116.107 46.1482 115.635 46.6502 115.345C47.1523 115.056 47.9684 115.056 48.4705 115.345Z" fill="black"/>
<path d="M53.2275 112.598C53.7296 112.887 53.7296 113.359 53.2275 113.649C52.7254 113.938 51.9093 113.938 51.4073 113.649C50.9052 113.359 50.9052 112.887 51.4073 112.598C51.9093 112.306 52.7254 112.306 53.2275 112.598Z" fill="black"/>
<path d="M57.9875 109.849C58.4896 110.138 58.4896 110.61 57.9875 110.9C57.4854 111.189 56.6693 111.189 56.1672 110.9C55.6651 110.61 55.6651 110.138 56.1672 109.849C56.6693 109.559 57.4854 109.559 57.9875 109.849Z" fill="black"/>
<path d="M62.748 107.102C63.2501 107.391 63.2501 107.863 62.748 108.153C62.246 108.442 61.4298 108.442 60.9278 108.153C60.4257 107.863 60.4257 107.391 60.9278 107.102C61.4298 106.812 62.2441 106.812 62.748 107.102Z" fill="black"/>
<path d="M67.5079 104.355C68.01 104.644 68.01 105.116 67.5079 105.406C67.0058 105.695 66.1897 105.695 65.6877 105.406C65.1856 105.116 65.1856 104.644 65.6877 104.355C66.1897 104.063 67.004 104.063 67.5079 104.355Z" fill="black"/>
<path d="M72.2685 101.604C72.7706 101.894 72.7706 102.366 72.2685 102.656C71.7664 102.945 70.9503 102.945 70.4482 102.656C69.9461 102.366 69.9461 101.894 70.4482 101.604C70.9503 101.315 71.7645 101.315 72.2685 101.604Z" fill="black"/>
<path d="M77.0284 98.857C77.5304 99.1466 77.5304 99.6186 77.0284 99.9082C76.5263 100.198 75.7102 100.198 75.2081 99.9082C74.706 99.6186 74.706 99.1466 75.2081 98.857C75.7102 98.5656 76.5263 98.5656 77.0284 98.857Z" fill="black"/>
<path d="M81.789 96.1081C82.2911 96.3976 82.2911 96.8696 81.789 97.1592C81.2869 97.4488 80.4708 97.4488 79.9687 97.1592C79.4666 96.8696 79.4666 96.3976 79.9687 96.1081C80.4708 95.8185 81.2869 95.8185 81.789 96.1081Z" fill="black"/>
<path d="M86.5488 93.3612C87.0509 93.6508 87.0509 94.1228 86.5488 94.4124C86.0467 94.702 85.2306 94.702 84.7285 94.4124C84.2265 94.1228 84.2265 93.6508 84.7285 93.3612C85.2325 93.0716 86.0467 93.0716 86.5488 93.3612Z" fill="black"/>
<path d="M91.3094 90.6141C91.8115 90.9037 91.8115 91.3738 91.3094 91.6653C90.8073 91.9549 89.9912 91.9549 89.4892 91.6653C88.9871 91.3757 88.9871 90.9037 89.4892 90.6141C89.9931 90.3226 90.8073 90.3226 91.3094 90.6141Z" fill="black"/>
<path d="M96.0693 87.8651C96.5713 88.1547 96.5713 88.6267 96.0693 88.9163C95.5672 89.2059 94.7511 89.2059 94.249 88.9163C93.7469 88.6267 93.7469 88.1547 94.249 87.8651C94.7511 87.5756 95.5653 87.5756 96.0693 87.8651Z" fill="black"/>
<path d="M100.826 85.1171C101.328 85.4067 101.328 85.8787 100.826 86.1683C100.324 86.4578 99.508 86.4578 99.006 86.1683C98.5039 85.8787 98.5039 85.4067 99.006 85.1171C99.508 84.8275 100.322 84.8275 100.826 85.1171Z" fill="black"/>
<path d="M37.0838 115.32C37.5859 115.029 38.4002 115.029 38.9041 115.319C39.4081 115.608 39.41 116.078 38.9079 116.37C38.4058 116.661 37.5916 116.661 37.0876 116.372C36.5836 116.08 36.5837 115.61 37.0838 115.32Z" fill="black"/>
<path d="M43.6699 112.568C44.172 112.857 44.172 113.329 43.6699 113.619C43.1678 113.908 42.3517 113.908 41.8496 113.619C41.3476 113.329 41.3476 112.857 41.8496 112.568C42.3517 112.278 43.166 112.278 43.6699 112.568Z" fill="black"/>
<path d="M48.4299 109.82C48.9319 110.11 48.9319 110.582 48.4299 110.872C47.9278 111.161 47.1117 111.161 46.6096 110.872C46.1075 110.582 46.1075 110.11 46.6096 109.82C47.1117 109.531 47.9278 109.531 48.4299 109.82Z" fill="black"/>
<path d="M53.1904 107.073C53.6925 107.363 53.6925 107.835 53.1904 108.125C52.6883 108.414 51.8722 108.414 51.3701 108.125C50.8681 107.835 50.8681 107.363 51.3701 107.073C51.8722 106.782 52.6883 106.782 53.1904 107.073Z" fill="black"/>
<path d="M57.9469 104.324C58.449 104.614 58.449 105.086 57.9469 105.376C57.4449 105.665 56.6288 105.665 56.1267 105.376C55.6246 105.086 55.6246 104.614 56.1267 104.324C56.6306 104.035 57.4449 104.035 57.9469 104.324Z" fill="black"/>
<path d="M62.7075 101.577C63.2096 101.867 63.2096 102.339 62.7075 102.628C62.2054 102.918 61.3893 102.918 60.8872 102.628C60.3852 102.339 60.3852 101.867 60.8872 101.577C61.3912 101.286 62.2054 101.286 62.7075 101.577Z" fill="black"/>
<path d="M67.4708 98.8278C67.9728 99.1174 67.9728 99.5894 67.4708 99.8789C66.9687 100.169 66.1526 100.169 65.6505 99.8789C65.1484 99.5894 65.1484 99.1193 65.6505 98.8278C66.1526 98.5382 66.9668 98.5382 67.4708 98.8278Z" fill="black"/>
<path d="M72.228 96.0805C72.73 96.3701 72.73 96.8421 72.228 97.1316C71.7259 97.4212 70.9098 97.4212 70.4077 97.1316C69.9056 96.8421 69.9056 96.3701 70.4077 96.0805C70.9098 95.7909 71.7259 95.7909 72.228 96.0805Z" fill="black"/>
<path d="M76.9879 93.3329C77.49 93.6224 77.49 94.0944 76.9879 94.384C76.4858 94.6736 75.6697 94.6736 75.1676 94.384C74.6656 94.0944 74.6656 93.6224 75.1676 93.3329C75.6697 93.0414 76.4858 93.0414 76.9879 93.3329Z" fill="black"/>
<path d="M81.7448 90.5836C82.2469 90.8732 82.2469 91.3452 81.7448 91.6348C81.2428 91.9244 80.4267 91.9244 79.9246 91.6348C79.4225 91.3452 79.4225 90.8732 79.9246 90.5836C80.4267 90.2941 81.2428 90.2941 81.7448 90.5836Z" fill="black"/>
<path d="M86.5046 87.8361C87.0067 88.1257 87.0067 88.5977 86.5046 88.8872C86.0025 89.1768 85.1864 89.1768 84.6844 88.8872C84.1823 88.5977 84.1823 88.1257 84.6844 87.8361C85.1883 87.5465 86.0025 87.5465 86.5046 87.8361Z" fill="black"/>
<path d="M91.2653 85.089C91.7674 85.3785 91.7674 85.8505 91.2653 86.1401C90.7632 86.4297 89.9471 86.4297 89.445 86.1401C88.943 85.8505 88.943 85.3785 89.445 85.089C89.9471 84.7975 90.7613 84.7975 91.2653 85.089Z" fill="black"/>
<path d="M32.3202 112.572C32.8223 112.28 33.6365 112.28 34.1405 112.57C34.6444 112.86 34.6463 113.33 34.1442 113.621C33.6422 113.913 32.8279 113.913 32.324 113.623C31.82 113.333 31.8181 112.863 32.3202 112.572Z" fill="black"/>
<path d="M38.9094 109.82C39.4115 110.11 39.4115 110.582 38.9094 110.872C38.4073 111.161 37.5912 111.161 37.0891 110.872C36.5871 110.582 36.5871 110.11 37.0891 109.82C37.5912 109.531 38.4055 109.531 38.9094 109.82Z" fill="black"/>
<path d="M43.6699 107.073C44.172 107.363 44.172 107.835 43.6699 108.125C43.1678 108.414 42.3517 108.414 41.8496 108.125C41.3476 107.835 41.3476 107.363 41.8496 107.073C42.3517 106.782 43.1678 106.782 43.6699 107.073Z" fill="black"/>
<path d="M48.4299 104.324C48.9319 104.614 48.9319 105.086 48.4299 105.376C47.9278 105.665 47.1117 105.665 46.6096 105.376C46.1075 105.086 46.1075 104.614 46.6096 104.324C47.1117 104.035 47.9278 104.035 48.4299 104.324Z" fill="black"/>
<path d="M53.1904 101.577C53.6925 101.867 53.6925 102.339 53.1904 102.628C52.6883 102.918 51.8722 102.918 51.3701 102.628C50.8681 102.339 50.8681 101.867 51.3701 101.577C51.8722 101.286 52.6883 101.286 53.1904 101.577Z" fill="black"/>
<path d="M57.9469 98.8278C58.449 99.1174 58.449 99.5894 57.9469 99.8789C57.4449 100.169 56.6288 100.169 56.1267 99.8789C55.6246 99.5894 55.6246 99.1174 56.1267 98.8278C56.6306 98.5382 57.4449 98.5382 57.9469 98.8278Z" fill="black"/>
<path d="M62.7109 96.0802C63.2129 96.3698 63.2129 96.8399 62.7109 97.1314C62.2088 97.421 61.3927 97.421 60.8906 97.1314C60.3885 96.8418 60.3885 96.3698 60.8906 96.0802C61.3927 95.7906 62.2069 95.7906 62.7109 96.0802Z" fill="black"/>
<path d="M67.4674 93.3329C67.9695 93.6224 67.9695 94.0944 67.4674 94.384C66.9653 94.6736 66.1492 94.6736 65.6471 94.384C65.145 94.0944 65.145 93.6224 65.6471 93.3329C66.1492 93.0414 66.9634 93.0414 67.4674 93.3329Z" fill="black"/>
<path d="M72.228 90.5836C72.73 90.8732 72.73 91.3452 72.228 91.6348C71.7259 91.9244 70.9098 91.9244 70.4077 91.6348C69.9056 91.3452 69.9056 90.8751 70.4077 90.5836C70.9098 90.2941 71.7259 90.2941 72.228 90.5836Z" fill="black"/>
<path d="M76.9879 87.8361C77.49 88.1257 77.49 88.5977 76.9879 88.8872C76.4858 89.1768 75.6697 89.1768 75.1676 88.8872C74.6656 88.5977 74.6656 88.1257 75.1676 87.8361C75.6697 87.5465 76.4858 87.5465 76.9879 87.8361Z" fill="black"/>
<path d="M27.564 109.824C28.0661 109.533 28.8804 109.533 29.3843 109.822C29.8883 110.112 29.8901 110.582 29.3881 110.873C28.886 111.165 28.0718 111.165 27.5678 110.875C27.0638 110.586 27.062 110.114 27.564 109.824Z" fill="black"/>
<path d="M34.1495 107.073C34.6515 107.363 34.6515 107.835 34.1495 108.125C33.6474 108.414 32.8313 108.414 32.3292 108.125C31.8271 107.835 31.8271 107.363 32.3292 107.073C32.8313 106.782 33.6455 106.782 34.1495 107.073Z" fill="black"/>
<path d="M38.9094 104.324C39.4115 104.614 39.4115 105.086 38.9094 105.376C38.4073 105.665 37.5912 105.665 37.0891 105.376C36.5871 105.086 36.5871 104.614 37.0891 104.324C37.5912 104.035 38.4055 104.035 38.9094 104.324Z" fill="black"/>
<path d="M43.6699 101.577C44.172 101.867 44.172 102.339 43.6699 102.628C43.1678 102.918 42.3517 102.918 41.8496 102.628C41.3476 102.339 41.3476 101.867 41.8496 101.577C42.3517 101.286 43.1678 101.286 43.6699 101.577Z" fill="black"/>
<path d="M48.4299 98.8278C48.9319 99.1174 48.9319 99.5894 48.4299 99.8789C47.9278 100.169 47.1117 100.169 46.6096 99.8789C46.1075 99.5894 46.1075 99.1174 46.6096 98.8278C47.1117 98.5382 47.9278 98.5382 48.4299 98.8278Z" fill="black"/>
<path d="M53.1904 96.0802C53.6925 96.3698 53.6925 96.8399 53.1904 97.1314C52.6883 97.421 51.8722 97.421 51.3701 97.1314C50.8681 96.8418 50.8681 96.3698 51.3701 96.0802C51.8722 95.7906 52.6883 95.7906 53.1904 96.0802Z" fill="black"/>
<path d="M57.9469 93.3329C58.449 93.6224 58.449 94.0944 57.9469 94.384C57.4449 94.6736 56.6288 94.6736 56.1267 94.384C55.6246 94.0944 55.6246 93.6224 56.1267 93.3329C56.6306 93.0414 57.4449 93.0414 57.9469 93.3329Z" fill="black"/>
<path d="M62.7109 90.5839C63.2129 90.8735 63.2129 91.3455 62.7109 91.6351C62.2088 91.9246 61.3927 91.9246 60.8906 91.6351C60.3885 91.3455 60.3885 90.8754 60.8906 90.5839C61.3927 90.2943 62.2069 90.2943 62.7109 90.5839Z" fill="black"/>
<path d="M67.4674 87.8361C67.9695 88.1257 67.9695 88.5977 67.4674 88.8872C66.9653 89.1768 66.1492 89.1768 65.6471 88.8872C65.145 88.5977 65.145 88.1257 65.6471 87.8361C66.1492 87.5465 66.9634 87.5465 67.4674 87.8361Z" fill="black"/>
<path d="M22.8042 107.074C23.3063 106.783 24.1205 106.783 24.6245 107.072C25.1284 107.362 25.1303 107.832 24.6282 108.124C24.1262 108.415 23.3119 108.415 22.808 108.125C22.304 107.836 22.3021 107.366 22.8042 107.074Z" fill="black"/>
<path d="M29.389 104.324C29.891 104.614 29.891 105.086 29.389 105.376C28.8869 105.665 28.0708 105.665 27.5687 105.376C27.0666 105.086 27.0666 104.614 27.5687 104.324C28.0727 104.035 28.8869 104.035 29.389 104.324Z" fill="black"/>
<path d="M34.1495 101.577C34.6515 101.867 34.6515 102.339 34.1495 102.628C33.6474 102.918 32.8313 102.918 32.3292 102.628C31.8271 102.339 31.8271 101.867 32.3292 101.577C32.8313 101.286 33.6455 101.286 34.1495 101.577Z" fill="black"/>
<path d="M38.9094 98.8278C39.4115 99.1174 39.4115 99.5894 38.9094 99.8789C38.4073 100.169 37.5912 100.169 37.0891 99.8789C36.5871 99.5894 36.5871 99.1174 37.0891 98.8278C37.5912 98.5382 38.4055 98.5382 38.9094 98.8278Z" fill="black"/>
<path d="M43.6699 96.0802C44.172 96.3698 44.172 96.8418 43.6699 97.1314C43.1678 97.421 42.3517 97.421 41.8496 97.1314C41.3476 96.8418 41.3476 96.3698 41.8496 96.0802C42.3517 95.7906 43.1678 95.7906 43.6699 96.0802Z" fill="black"/>
<path d="M48.4299 93.3331C48.9319 93.6227 48.9319 94.0947 48.4299 94.3843C47.9278 94.6739 47.1117 94.6739 46.6096 94.3843C46.1075 94.0947 46.1075 93.6227 46.6096 93.3331C47.1117 93.0416 47.9278 93.0416 48.4299 93.3331Z" fill="black"/>
<path d="M53.1904 90.5839C53.6925 90.8735 53.6925 91.3455 53.1904 91.6351C52.6883 91.9246 51.8722 91.9246 51.3701 91.6351C50.8681 91.3455 50.8681 90.8735 51.3701 90.5839C51.8722 90.2943 52.6883 90.2943 53.1904 90.5839Z" fill="black"/>
<path d="M57.9469 87.8361C58.449 88.1257 58.449 88.5958 57.9469 88.8872C57.4449 89.1768 56.6288 89.1768 56.1267 88.8872C55.6246 88.5977 55.6246 88.1257 56.1267 87.8361C56.6306 87.5465 57.4449 87.5465 57.9469 87.8361Z" fill="black"/>
<path d="M33.6221 50.5296C33.12 50.8192 32.3039 50.8192 31.8019 50.5296C31.2998 50.24 31.2998 49.768 31.8019 49.4784C32.3039 49.1888 33.12 49.1888 33.6221 49.4784C34.1261 49.768 34.1261 50.24 33.6221 50.5296C34.1261 50.24 33.12 50.8192 33.6221 50.5296Z" fill="black"/>
<path d="M38.3821 47.782C37.88 48.0716 37.0639 48.0716 36.5618 47.782C36.0597 47.4924 36.0597 47.0204 36.5618 46.7309C37.0639 46.4413 37.88 46.4413 38.3821 46.7309C38.886 47.0204 38.886 47.4906 38.3821 47.782C38.886 47.4906 37.88 48.0716 38.3821 47.782Z" fill="black"/>
<path d="M43.1426 43.9818C43.6446 44.2714 43.6446 44.7434 43.1426 45.033C42.6405 45.3226 41.8244 45.3226 41.3223 45.033C40.8202 44.7434 40.8202 44.2714 41.3223 43.9818C41.8244 43.6923 42.6386 43.6923 43.1426 43.9818Z" fill="black"/>
<path d="M47.9025 41.2343C48.4046 41.5239 48.4046 41.9959 47.9025 42.2855C47.4004 42.575 46.5843 42.575 46.0822 42.2855C45.5802 41.9959 45.5802 41.5239 46.0822 41.2343C46.5843 40.9447 47.3986 40.9447 47.9025 41.2343Z" fill="black"/>
<path d="M52.663 38.4872C53.1651 38.7767 53.1651 39.2487 52.663 39.5383C52.1609 39.8279 51.3448 39.8279 50.8427 39.5383C50.3407 39.2487 50.3407 38.7767 50.8427 38.4872C51.3448 38.1957 52.1609 38.1957 52.663 38.4872Z" fill="black"/>
<path d="M24.1016 49.4784C24.6037 49.768 24.6037 50.24 24.1016 50.5296C23.5995 50.8192 22.7834 50.8192 22.2813 50.5296C21.7793 50.24 21.7793 49.768 22.2813 49.4784C22.7834 49.1888 23.5995 49.1888 24.1016 49.4784Z" fill="black"/>
<path d="M28.8616 46.7313C29.3637 47.0209 29.3637 47.4929 28.8616 47.7825C28.3595 48.072 27.5434 48.072 27.0414 47.7825C26.5393 47.4929 26.5393 47.0209 27.0414 46.7313C27.5434 46.4398 28.3595 46.4398 28.8616 46.7313Z" fill="black"/>
<path d="M33.6221 43.9818C34.1242 44.2714 34.1242 44.7434 33.6221 45.033C33.12 45.3226 32.3039 45.3226 31.8019 45.033C31.2998 44.7434 31.2998 44.2714 31.8019 43.9818C32.3058 43.6923 33.12 43.6923 33.6221 43.9818Z" fill="black"/>
<path d="M38.3821 41.2343C38.8841 41.5239 38.8841 41.9959 38.3821 42.2855C37.88 42.575 37.0639 42.575 36.5618 42.2855C36.0597 41.9959 36.0597 41.5239 36.5618 41.2343C37.0658 40.9447 37.88 40.9447 38.3821 41.2343Z" fill="black"/>
<path d="M43.1426 38.4872C43.6446 38.7767 43.6446 39.2487 43.1426 39.5383C42.6405 39.8279 41.8244 39.8279 41.3223 39.5383C40.8202 39.2487 40.8202 38.7767 41.3223 38.4872C41.8244 38.1957 42.6386 38.1957 43.1426 38.4872Z" fill="black"/>
<path d="M47.9025 35.7379C48.4046 36.0275 48.4046 36.4995 47.9025 36.7891C47.4004 37.0787 46.5843 37.0787 46.0822 36.7891C45.5802 36.4995 45.5802 36.0275 46.0822 35.7379C46.5843 35.4484 47.3986 35.4484 47.9025 35.7379Z" fill="black"/>
<path d="M19.3445 46.7313C19.8466 47.0209 19.8466 47.4929 19.3445 47.7825C18.8425 48.072 18.0263 48.072 17.5243 47.7825C17.0222 47.4929 17.0222 47.0209 17.5243 46.7313C18.0263 46.4398 18.8406 46.4398 19.3445 46.7313Z" fill="black"/>
<path d="M24.1016 43.9818C24.6037 44.2714 24.6037 44.7434 24.1016 45.033C23.5995 45.3226 22.7834 45.3226 22.2813 45.033C21.7793 44.7434 21.7793 44.2714 22.2813 43.9818C22.7834 43.6923 23.5995 43.6923 24.1016 43.9818Z" fill="black"/>
<path d="M28.8616 41.2343C29.3637 41.5239 29.3637 41.9959 28.8616 42.2855C28.3595 42.575 27.5434 42.575 27.0414 42.2855C26.5393 41.9959 26.5393 41.5239 27.0414 41.2343C27.5434 40.9447 28.3595 40.9447 28.8616 41.2343Z" fill="black"/>
<path d="M33.6221 38.4872C34.1242 38.7767 34.1242 39.2487 33.6221 39.5383C33.12 39.8279 32.3039 39.8279 31.8019 39.5383C31.2998 39.2487 31.2998 38.7767 31.8019 38.4872C32.3058 38.1957 33.12 38.1957 33.6221 38.4872Z" fill="black"/>
<path d="M36.5618 35.7379C37.0639 35.4484 37.88 35.4484 38.3821 35.7379C38.8841 36.0275 38.8841 36.4995 38.3821 36.7891C37.88 37.0787 37.0639 37.0787 36.5618 36.7891C36.0597 36.4995 36.0597 36.0294 36.5618 35.7379C37.0658 35.4484 36.0597 36.0294 36.5618 35.7379Z" fill="black"/>
<path d="M41.3237 32.9904C41.8258 32.7008 42.6419 32.7008 43.144 32.9904C43.6461 33.28 43.6461 33.752 43.144 34.0415C42.6419 34.3311 41.8258 34.3311 41.3237 34.0415C40.8198 33.7501 40.8198 33.28 41.3237 32.9904C41.8258 32.6989 40.8198 33.28 41.3237 32.9904Z" fill="black"/>
<path d="M14.5845 43.9821C15.0866 44.2717 15.0866 44.7437 14.5845 45.0332C14.0824 45.3228 13.2663 45.3228 12.7643 45.0332C12.2622 44.7437 12.2622 44.2717 12.7643 43.9821C13.2663 43.6925 14.0806 43.6925 14.5845 43.9821Z" fill="black"/>
<path d="M19.3445 41.2345C19.8466 41.5241 19.8466 41.9961 19.3445 42.2857C18.8425 42.5753 18.0263 42.5753 17.5243 42.2857C17.0222 41.9961 17.0222 41.5241 17.5243 41.2345C18.0263 40.9449 18.8406 40.9449 19.3445 41.2345Z" fill="black"/>
<path d="M24.1016 38.4872C24.6037 38.7767 24.6037 39.2487 24.1016 39.5383C23.5995 39.8279 22.7834 39.8279 22.2813 39.5383C21.7793 39.2487 21.7793 38.7786 22.2813 38.4872C22.7834 38.1957 23.5995 38.1957 24.1016 38.4872C24.6037 38.7767 23.5995 38.1957 24.1016 38.4872Z" fill="black"/>
<path d="M9.7835 41.2061C10.2856 41.4957 10.2856 41.9677 9.7835 42.2573C9.28142 42.5469 8.4653 42.5469 7.96323 42.2573C7.46115 41.9677 7.46115 41.4957 7.96323 41.2061C8.4653 40.9147 9.27954 40.9147 9.7835 41.2061Z" fill="black"/>
<path d="M14.5441 38.4569C15.0462 38.7465 15.0462 39.2166 14.5441 39.5081C14.042 39.7977 13.2259 39.7977 12.7238 39.5081C12.2218 39.2185 12.2218 38.7465 12.7238 38.4569C13.2259 38.1673 14.0402 38.1673 14.5441 38.4569Z" fill="black"/>
<path d="M19.304 35.7101C19.8061 35.9997 19.8061 36.4717 19.304 36.7613C18.8019 37.0509 17.9858 37.0509 17.4837 36.7613C16.9817 36.4717 16.9817 35.9997 17.4837 35.7101C17.9858 35.4205 18.8019 35.4205 19.304 35.7101C19.8061 35.9997 18.8019 35.4205 19.304 35.7101Z" fill="black"/>
<path d="M9.7835 35.7101C10.2856 35.9997 10.2856 36.4717 9.7835 36.7613C9.28142 37.0509 8.4653 37.0509 7.96323 36.7613C7.46115 36.4717 7.46115 35.9997 7.96323 35.7101C8.4653 35.4205 9.27954 35.4205 9.7835 35.7101Z" fill="black"/>
<path d="M14.5441 32.9604C15.0462 33.2499 15.0462 33.7219 14.5441 34.0115C14.042 34.3011 13.2259 34.3011 12.7238 34.0115C12.2218 33.7219 12.2218 33.2499 12.7238 32.9604C13.2259 32.6708 14.0402 32.6708 14.5441 32.9604C15.0462 33.2518 14.0402 32.6708 14.5441 32.9604Z" fill="black"/>
<path d="M55.6312 35.7647C56.1333 35.4733 56.9476 35.4733 57.4515 35.7629C57.9555 36.0524 57.9573 36.5225 57.4553 36.814C56.9532 37.1055 56.139 37.1055 55.635 36.8159C55.131 36.5263 55.1292 36.0562 55.6312 35.7647Z" fill="black"/>
<path d="M62.2204 33.0136C62.7225 33.3032 62.7225 33.7752 62.2204 34.0647C61.7183 34.3543 60.9022 34.3543 60.4001 34.0647C59.898 33.7752 59.898 33.305 60.4001 33.0136C60.9022 32.724 61.7164 32.724 62.2204 33.0136Z" fill="black"/>
<path d="M66.9803 30.2655C67.4824 30.5551 67.4824 31.0271 66.9803 31.3167C66.4783 31.6063 65.6621 31.6063 65.1601 31.3167C64.658 31.0271 64.658 30.5551 65.1601 30.2655C65.6621 29.9759 66.4783 29.9759 66.9803 30.2655Z" fill="black"/>
<path d="M50.8707 33.0169C51.3728 32.7255 52.187 32.7255 52.691 33.0151C53.1949 33.3046 53.1968 33.7747 52.6947 34.0662C52.1926 34.3577 51.3784 34.3577 50.8744 34.0681C50.3705 33.7785 50.3686 33.3084 50.8707 33.0169Z" fill="black"/>
<path d="M57.4601 30.2658C57.9622 30.5554 57.9622 31.0255 57.4601 31.3169C56.9581 31.6065 56.1419 31.6065 55.6399 31.3169C55.1378 31.0273 55.1378 30.5554 55.6399 30.2658C56.1419 29.9762 56.9562 29.9762 57.4601 30.2658Z" fill="black"/>
<path d="M62.2204 27.5186C62.7225 27.8082 62.7225 28.2802 62.2204 28.5698C61.7183 28.8594 60.9022 28.8594 60.4001 28.5698C59.898 28.2802 59.898 27.8082 60.4001 27.5186C60.9022 27.2272 61.7164 27.2272 62.2204 27.5186Z" fill="black"/>
<path d="M66.9803 24.7694C67.4824 25.059 67.4824 25.531 66.9803 25.8206C66.4783 26.1102 65.6621 26.1102 65.1601 25.8206C64.658 25.531 64.658 25.059 65.1601 24.7694C65.6621 24.4798 66.4783 24.4798 66.9803 24.7694Z" fill="black"/>
<path d="M47.9323 30.2672C48.4362 30.5568 48.4381 31.0269 47.936 31.3183C47.434 31.6098 46.6197 31.6098 46.1158 31.3202C45.6118 31.0306 47.4283 29.9776 47.9323 30.2672Z" fill="black"/>
<path d="M52.6997 27.5186C53.2018 27.8082 53.2018 28.2802 52.6997 28.5697C52.1976 28.8593 51.3815 28.8593 50.8794 28.5697C50.3774 28.2783 52.1976 27.2271 52.6997 27.5186Z" fill="black"/>
<path d="M57.4609 24.7694C57.9629 25.059 57.9629 25.531 57.4609 25.8206C56.9588 26.1102 56.1427 26.1102 55.6406 25.8206C55.1366 25.531 56.9569 24.4799 57.4609 24.7694Z" fill="black"/>
<path d="M64.2918 14.0915L62.1331 14.7478C61.4072 14.0182 60.5009 13.3224 59.414 12.6869C53.5131 9.24001 44.5886 8.86581 39.4794 11.8501L18.6404 23.9526L12.3315 25.8687V30.8763L12.3466 30.8707C12.435 33.1028 14.0691 35.4364 17.2075 37.2698C23.1083 40.7167 32.0329 41.0909 37.142 38.1066L60.8431 24.3305C63.1147 23.0029 64.2429 21.2334 64.2843 19.3756L64.288 19.3737V14.0915H64.2918Z" fill="#FE5721"/>
<path d="M28.4895 40.8144C24.439 40.8144 20.1742 39.8216 16.8534 37.8809C13.9819 36.2017 12.0921 34.1144 11.6408 31.8523L11.6257 30.8744V25.3403L18.3596 23.2963L39.1271 11.2333C44.4243 8.13994 53.6855 8.51603 59.7744 12.0701C60.7428 12.6361 61.6021 13.2641 62.328 13.943L65.0057 14.2702L64.9587 19.9359C64.7162 21.8953 63.4017 23.6573 61.2072 24.9379L37.5043 38.714C35.0917 40.1262 31.8649 40.8144 28.4895 40.8144ZM13.0398 30.5717L13.0549 30.8425C13.1376 32.9109 14.7811 35.0321 17.5661 36.6568C23.26 39.9852 31.8818 40.3594 36.7841 37.4936L60.487 23.7175C62.4709 22.5591 63.539 21.051 63.5766 19.3605L63.5804 19.1725V15.0468L61.9293 15.5489L61.6285 15.248C60.9252 14.541 60.0602 13.8866 59.0541 13.2999C53.362 9.97337 44.7384 9.59917 39.8361 12.4631L18.8447 24.6333L13.0398 26.3971V30.5717Z" fill="black"/>
<path d="M60.8474 19.3317L37.1464 33.1078C32.0372 36.092 23.1127 35.7178 17.2118 32.271C11.3129 28.8241 10.6717 23.6097 15.7808 20.6254L39.4819 6.84933C44.591 3.86508 53.5156 4.23928 59.4164 7.68612C65.3172 11.1311 65.9566 16.3455 60.8474 19.3317Z" fill="#FE5721"/>
<path d="M59.412 10.408C53.5112 6.96121 44.5867 6.587 39.4775 9.57125L15.7765 23.3473C14.007 24.3816 12.9427 25.6847 12.5327 27.0875C13.0649 28.9304 14.6369 30.7675 17.2075 32.27C23.1083 35.7169 32.0329 36.0911 37.142 33.1068L60.8431 19.3307C62.6125 18.2965 63.6769 16.9933 64.0868 15.5905C63.5546 13.7496 61.9826 11.9105 59.412 10.408Z" fill="#FE5721"/>
<path d="M28.4902 35.8158C24.4397 35.8158 20.1749 34.8229 16.8541 32.8823C13.5295 30.9398 11.6227 28.3166 11.6227 25.6821C11.6227 23.4576 12.9729 21.4436 15.4231 20.0126L39.126 6.23652C44.4213 3.14132 53.6843 3.51552 59.7732 7.07331C63.0978 9.0158 65.0045 11.639 65.0045 14.2735C65.0045 16.4981 63.6544 18.512 61.2042 19.943L37.5013 33.7191C35.0924 35.1257 31.8656 35.8158 28.4902 35.8158ZM48.1352 5.53511C45.0193 5.53511 42.0501 6.16882 39.8368 7.46068L16.1339 21.2368C14.1368 22.4045 13.0368 23.9841 13.0368 25.684C13.0386 27.8014 14.6878 29.9789 17.5668 31.66C23.2607 34.9884 31.8825 35.3607 36.7848 32.4968L60.4877 18.7207C62.4848 17.553 63.5848 15.9753 63.5848 14.2754C63.5848 12.158 61.9338 9.98047 59.0548 8.29936C55.9314 6.47157 51.9242 5.53511 48.1352 5.53511Z" fill="black"/>
<path d="M56.1011 12.4086C60.4242 14.9039 60.4242 18.9525 56.1011 21.4478C51.7779 23.9451 44.7677 23.9451 40.4446 21.4478C36.1214 18.9506 36.1214 14.9039 40.4446 12.4086C44.7677 9.91134 51.7779 9.91134 56.1011 12.4086Z" fill="#FE5721"/>
<path d="M48.2741 21.0356C45.3105 21.0356 42.3469 20.385 40.0923 19.0818C37.7737 17.7429 36.4969 15.9208 36.4969 13.9482C36.4969 11.9775 37.7737 10.1535 40.0923 8.81463C44.6053 6.21023 51.9466 6.21023 56.4596 8.81463C58.7782 10.1535 60.055 11.9775 60.055 13.9482C60.055 15.9189 58.7782 17.7411 56.4596 19.0799C54.2012 20.385 51.2376 21.0356 48.2741 21.0356ZM48.276 8.25803C45.5681 8.25803 42.8603 8.85224 40.8012 10.0407C38.9396 11.1163 37.9129 12.5041 37.9129 13.9482C37.9129 15.3924 38.9396 16.7802 40.8012 17.8558C44.9231 20.2345 51.6288 20.2326 55.7507 17.8539C57.6123 16.7783 58.639 15.3905 58.639 13.9482C58.639 12.5041 57.6123 11.1163 55.7507 10.0407C53.6897 8.85224 50.9819 8.25803 48.276 8.25803Z" fill="black"/>
<path d="M32.4528 35.1223V39.767L36.492 38.4563L62.8294 23.0348L64.6008 19.6406L64.0874 16.2239L38.3104 32.4276L32.4528 35.1223Z" fill="black"/>
<path d="M28.1953 35.1221V40.3347L24.7786 40.1222V34.8381L28.1953 35.1221Z" fill="black"/>
<path d="M7.28917 79.4211L7.52611 65.7974H119.869L119.719 79.0732C119.754 79.4136 119.719 79.0732 119.674 79.4192V79.4211C119.418 81.39 117.87 83.4095 115.085 85.0192L73.1703 109.241C67.5741 112.475 59.1084 112.827 54.2625 110.025L10.5198 84.7484C8.08648 83.3419 7.02967 81.4069 7.28917 79.4211Z" fill="#FE5721"/>
<path d="M7.28917 79.425L7.52611 65.8013H119.869L119.719 79.0772C119.754 79.4175 119.719 79.0772 119.674 79.4232C119.418 81.392 117.87 83.4134 115.085 85.0231L73.1703 109.245C67.5741 112.479 59.1084 112.831 54.2625 110.029L10.5198 84.7523C8.08648 83.3458 7.02967 81.4127 7.28917 79.425Z" fill="#FE5721"/>
<path d="M62.4728 112.635C59.2591 112.635 56.1883 111.985 53.898 110.661L10.1552 85.384C7.5809 83.8965 6.27213 81.7058 6.55795 79.3685L6.68394 66.1377L120.614 65.064L120.456 79.0826C120.471 79.1992 120.49 79.3722 120.398 79.5584C120.063 81.8544 118.31 84.0037 115.452 85.6548L73.5373 109.879C70.3819 111.703 66.3258 112.635 62.4728 112.635ZM8.24847 66.5307L8.01717 79.5151C7.78776 81.2771 8.80884 82.9093 10.8867 84.1128L54.6294 109.39C59.2647 112.069 67.4164 111.718 72.802 108.605L114.717 84.3836C117.207 82.945 118.707 81.1492 118.946 79.3271C118.957 79.2481 118.972 79.1767 118.991 79.1127L118.987 79.0638L119.128 66.5307H8.24847Z" fill="black"/>
<path d="M10.6862 71.465L54.4289 96.7418C59.2748 99.5418 67.7405 99.1902 73.3367 95.9577L115.252 71.7358C120.848 68.5014 121.455 63.6104 116.609 60.8104L72.8685 35.5336C68.0226 32.7336 59.5569 33.0834 53.9607 36.3177L12.0457 60.5396C6.44766 63.774 5.8403 68.665 10.6862 71.465Z" fill="#FE5721"/>
<path d="M10.2485 76.5329L53.9912 101.81C58.8371 104.612 67.3028 104.26 72.899 101.026L114.814 76.8036C120.41 73.5693 121.018 68.6783 116.172 65.8764L72.4308 40.5996C67.5849 37.7996 59.1192 38.1513 53.523 41.3837L11.6062 65.6057C6.00998 68.84 5.4026 73.7329 10.2485 76.5329Z" fill="#FE5721"/>
<path d="M62.6395 99.3521C59.4277 99.3521 56.3551 98.7034 54.0629 97.3776L10.322 72.0989C7.97709 70.7431 6.68335 68.8326 6.68335 66.719C6.68335 64.2218 8.5036 61.7377 11.6778 59.9024L53.5946 35.6805C59.3845 32.3352 68.1981 31.9854 73.2358 34.8963L116.979 60.1732C119.325 61.529 120.617 63.4395 120.617 65.5531C120.617 68.0504 118.795 70.5344 115.621 72.3697L73.7059 96.5916C70.5486 98.4175 66.4926 99.3521 62.6395 99.3521ZM64.661 34.3679C61.075 34.3679 57.2859 35.2442 54.3299 36.9535L12.413 61.1755C9.70521 62.7419 8.15195 64.7615 8.15195 66.7209C8.15195 68.2892 9.18433 69.7484 11.0554 70.8296L54.7962 96.1065C59.4334 98.7861 67.5851 98.4363 72.9706 95.3223L114.886 71.1004C117.595 69.534 119.149 67.5144 119.149 65.555C119.149 63.9867 118.116 62.5275 116.243 61.4462L72.5005 36.1694C70.4114 34.9584 67.6039 34.3679 64.661 34.3679Z" fill="black"/>
<path d="M62.718 98.6336V111.908L69.3278 110.87L77.643 106.956L117.384 83.4791L119.872 80.4215V65.7974L118.24 70.0265L109.68 75.0416L69.45 97.6633L62.718 98.6336Z" fill="black"/>
<path d="M56.1313 97.5766V110.918L51.2666 108.669V95.3521L56.1313 97.5766Z" fill="black"/>
<path d="M9.90142 71.2504V83.8794L7.98902 82.4465L6.61255 73.8041L7.25378 66.5305L9.90142 71.2504Z" fill="black"/>
<path d="M97.5484 64.6371C91.9372 63.0087 82.8358 61.2204 77.1306 64.5036C76.0381 65.1336 75.0884 65.6789 74.2535 66.1603L70.7841 64.624C70.8462 63.3904 70.2689 62.1474 69.0391 61.0775L62.2808 54.9698C62.1209 54.8156 61.9555 54.6614 61.7749 54.5129L61.6414 54.3925L61.6302 54.4C61.2165 54.0691 60.767 53.7494 60.2537 53.4504C55.0035 50.4097 46.4814 50.3985 41.2218 53.426C35.9622 56.4535 35.9565 61.3727 41.2067 64.4134C41.7031 64.7011 42.2372 64.9531 42.7882 65.1862L42.7769 65.1937L42.9894 65.2727C43.2959 65.3987 43.6099 65.5134 43.9315 65.6225L54.3942 69.5093C56.2427 70.222 58.3939 70.5586 60.532 70.5267L63.1834 72.5331C62.3541 73.0107 61.4158 73.5504 60.3364 74.171C54.6161 77.4636 57.6756 82.7269 60.4774 85.9745C61.7637 87.4656 65.1861 87.7966 67.2263 86.6232L82.629 77.7569L83.2984 77.3715L98.6503 68.5334C100.689 67.3619 100.125 65.3856 97.5484 64.6371Z" fill="#FE5721"/>
<path d="M41.2131 57.0535C46.4726 54.026 54.9929 54.0373 60.245 57.078C60.7602 57.377 61.2096 57.6966 61.6233 58.0276L61.6346 58.0201L61.7681 58.1404C61.9486 58.2909 62.1141 58.4432 62.274 58.5974L69.0341 64.705C70.2639 65.775 70.8412 67.018 70.7792 68.2515L74.2486 69.7878C75.0835 69.3065 76.0331 68.7611 77.1257 68.1312C82.8309 64.846 91.9322 66.6343 97.5435 68.2647C97.8913 68.3662 98.1941 68.4922 98.4668 68.6314L98.6492 68.5261C100.688 67.3527 100.125 65.3763 97.5491 64.6298C91.9379 63.0013 82.8365 61.213 77.1313 64.4963C76.0388 65.1262 75.0891 65.6716 74.2542 66.153L70.7867 64.6166C70.8488 63.3831 70.2715 62.1401 69.0417 61.0701L62.2815 54.9625C62.1217 54.8083 61.9562 54.6541 61.7757 54.5055L61.6421 54.3852L61.6309 54.3927C61.2172 54.0617 60.7677 53.7421 60.2525 53.4431C55.0023 50.4024 46.4802 50.3911 41.2206 53.4186C37.7832 55.3969 36.6041 58.1837 37.6572 60.726C38.2138 59.3796 39.3909 58.1009 41.2131 57.0535Z" fill="black"/>
<path d="M60.3242 77.7994C61.4036 77.1789 62.3419 76.6373 63.1712 76.1615L63.1825 72.5342C63.1279 72.5342 60.4126 74.1495 60.3562 74.1495C60.3468 74.1551 60.3374 74.1589 60.328 74.1645C57.0955 76.0261 56.6686 78.5159 57.4133 80.9172C57.8401 79.7833 58.7333 78.7133 60.3242 77.7994Z" fill="#FE5721"/>
<path d="M97.7159 64.0423C91.3393 62.19 82.5388 60.6744 76.8204 63.967L74.2141 65.4676L71.3991 64.219C71.3484 63.2393 70.9591 62.2991 70.2577 61.4435C70.0226 61.1558 69.7519 60.8793 69.4472 60.6142L62.704 54.5216C62.5329 54.3561 62.3561 54.1944 62.1812 54.0496L61.8747 53.7845L61.7074 53.6378L61.6961 53.6303L61.6679 53.6472C61.2974 53.3689 60.9307 53.1244 60.5547 52.9082C55.1428 49.7754 46.3291 49.7641 40.9097 52.8837C40.7236 52.9909 40.5675 53.1113 40.3926 53.2241C40.214 53.3388 40.0297 53.4535 39.8642 53.5739C39.7044 53.6904 39.5577 53.8089 39.4091 53.9293C39.2023 54.0947 39.0067 54.2659 38.8224 54.4389C38.7284 54.5291 38.6344 54.6156 38.546 54.7078C37.9743 55.2963 37.5268 55.9244 37.2128 56.5807C37.2052 56.5957 37.2015 56.6089 37.194 56.6239C37.0492 56.9361 36.9363 57.2539 36.8517 57.5773C36.8367 57.63 36.8235 57.6845 36.8122 57.7371C36.7408 58.0493 36.6938 58.3671 36.6806 58.6868C36.6787 58.715 36.675 58.7432 36.6731 58.7714C36.6712 58.8184 36.6618 58.8635 36.6618 58.9105C36.6618 59.6082 36.816 60.2889 37.0849 60.947C37.0868 60.9508 37.0868 60.9527 37.0868 60.9565L37.7243 62.1449C38.4426 63.1848 39.5126 64.1363 40.9022 64.9392C41.0846 65.0445 41.2764 65.1479 41.4814 65.2533L42.7601 65.8362C43.0778 65.9659 43.4032 66.0863 43.7191 66.1916L54.1743 70.0766C56.0002 70.7799 58.1232 71.1447 60.329 71.1371L62.0703 72.4535C61.9011 72.5512 61.7111 72.6622 61.4742 72.7994C60.9364 73.1135 60.3967 73.4275 60.1842 73.5441L60.0244 73.6268C59.8927 73.7021 59.7874 73.7886 59.6633 73.8657C59.5054 73.9653 59.3512 74.065 59.2045 74.1684C59.0635 74.2681 58.9281 74.3696 58.7983 74.4749C58.6046 74.631 58.426 74.7908 58.2568 74.9563C58.1496 75.0616 58.0499 75.1688 57.9521 75.276C57.8017 75.4415 57.6625 75.6126 57.5365 75.7875C57.4707 75.8777 57.4068 75.968 57.3466 76.0601C57.1943 76.2971 57.0589 76.5378 56.948 76.7897C56.9141 76.8668 56.8897 76.9477 56.8596 77.0267C56.7806 77.2298 56.7167 77.4366 56.6621 77.6472C56.6377 77.745 56.6114 77.8409 56.5926 77.9406C56.585 77.9744 56.5738 78.0083 56.5681 78.044C56.5549 78.1286 56.5625 78.2132 56.5512 78.2979C56.5211 78.548 56.4985 78.8018 56.5004 79.0632C56.5023 79.1911 56.5174 79.3189 56.5268 79.4468C56.5456 79.6913 56.57 79.9357 56.617 80.1896C56.6415 80.3212 56.6772 80.451 56.7092 80.5807C56.7505 80.7518 56.775 80.9192 56.8276 81.0922L57.4369 82.5834C58.1289 83.9993 59.0992 85.3119 60.0112 86.3687C61.4949 88.0912 65.22 88.4785 67.5292 87.1491L98.9532 69.0593C99.2447 68.8919 99.4985 68.702 99.711 68.4989C100.29 67.9442 100.567 67.271 100.482 66.5714C100.414 66.0111 100.121 65.494 99.6471 65.0596C99.177 64.629 98.5169 64.2736 97.7159 64.0423ZM37.8991 59.0553C37.8916 58.8729 37.9048 58.6905 37.9236 58.51C37.9292 58.4517 37.9311 58.3934 37.9386 58.3351C37.9612 58.179 38.0026 58.023 38.0439 57.8688C38.0646 57.7898 38.0815 57.7089 38.1079 57.63C38.1511 57.5021 38.2094 57.3761 38.2639 57.2482C38.3091 57.1448 38.3486 57.0414 38.4012 56.9398C38.4501 56.8477 38.5122 56.7574 38.5667 56.6653C38.6475 56.5318 38.7247 56.3983 38.8187 56.2685C38.8488 56.2253 38.8882 56.1858 38.9202 56.1425C39.5351 55.3433 40.4076 54.6025 41.5303 53.9556C46.6131 51.0296 54.8738 51.0409 59.9491 53.98C60.3892 54.2339 60.8142 54.5291 61.2504 54.877L61.3858 54.9842C61.5551 55.1233 61.7092 55.2663 61.8728 55.4242L68.6405 61.5394C68.9038 61.7688 69.1332 62.0057 69.3288 62.2483C69.9192 62.9836 70.2088 63.7771 70.1693 64.5857L70.1505 64.9561C69.9399 64.7136 69.7048 64.4766 69.4435 64.2491L62.7002 58.1584C62.5291 57.9929 62.3505 57.8293 62.1756 57.6826L61.6923 57.2652L61.6622 57.284C61.2899 57.0057 60.9232 56.7631 60.549 56.545C55.1371 53.4121 46.3235 53.4009 40.9041 56.5205C39.6367 57.2501 38.6212 58.1189 37.901 59.0779C37.901 59.0704 37.8991 59.0629 37.8991 59.0553ZM70.2257 65.0464L74.2931 66.8479L77.4391 65.0351C83.0635 61.7989 92.3472 63.7639 97.3811 65.225C97.9265 65.3849 98.3797 65.6068 98.7069 65.8663C99.0284 66.1239 99.2259 66.4172 99.2616 66.7181C99.3124 67.145 99.0209 67.5756 98.4342 67.9385C98.201 67.8351 97.9622 67.7486 97.7102 67.6753C91.3336 65.823 82.5332 64.3074 76.8148 67.6L74.2085 69.1006L71.3879 67.852C71.339 66.8592 70.9422 65.9076 70.2257 65.0464ZM57.7772 78.2941C57.7829 78.2565 57.7904 78.2208 57.7979 78.1831C57.8337 77.9951 57.8807 77.8089 57.9427 77.6284C57.9521 77.6021 57.9615 77.5739 57.9728 77.5476C58.0443 77.3539 58.1289 77.1639 58.2304 76.9797C58.2379 76.9665 58.2436 76.9533 58.2511 76.9421C58.3621 76.7465 58.4881 76.5566 58.6328 76.3723C58.6366 76.3666 58.6423 76.361 58.646 76.3554C58.7946 76.1673 58.96 75.9849 59.1443 75.8081C59.1481 75.8044 59.1518 75.7988 59.1575 75.795C59.5674 75.402 60.062 75.0391 60.6449 74.7043L62.5686 73.5968L62.5611 75.8063L60.0206 77.2692C59.3624 77.6491 58.7927 78.0684 58.315 78.5254C58.1007 78.7322 57.9051 78.9447 57.7265 79.1666C57.7171 78.8733 57.7321 78.5818 57.7772 78.2941ZM60.942 85.5751C59.8457 84.304 58.661 82.6454 58.0837 80.9455C58.5238 79.9395 59.37 79.0557 60.6318 78.3298L63.7853 76.5133L63.7965 72.8878L63.7984 72.2278L63.3885 71.9175L60.7352 69.9092L60.5246 69.913C58.3997 69.945 56.3575 69.6083 54.6106 68.9333L44.1309 65.0389C43.8526 64.9449 43.5799 64.8452 43.3035 64.7343L43.0309 64.6195C42.4385 64.3676 41.944 64.125 41.5171 63.8786C39.9695 62.9836 38.8939 61.9061 38.3335 60.7477C38.8977 59.5574 39.9827 58.463 41.5171 57.5811C46.5999 54.6551 54.8607 54.6664 59.936 57.6036C60.3722 57.8556 60.7972 58.149 61.2372 58.5025L61.3745 58.6078C61.5419 58.7469 61.6961 58.888 61.8615 59.0497L68.6292 65.1649C69.6879 66.0844 70.2182 67.1412 70.1637 68.2168L70.143 68.638L74.2818 70.4715L77.4278 68.6606C82.9356 65.4902 91.9354 67.3086 97.0333 68.7565L66.9218 86.0904C65.158 87.1058 62.0289 86.835 60.942 85.5751Z" fill="black"/>
</svg>
