<svg width="660" height="498" viewBox="0 0 660 498" fill="none" xmlns="http://www.w3.org/2000/svg">
<circle cx="263" cy="254.637" r="228" fill="url(#paint0_linear_19_1145)"/>
<path d="M621.62 161.518L465.984 252.262L468.28 256.199L623.916 165.455L621.62 161.518Z" fill="#FE5721"/>
<path d="M606.837 226.472L572.762 246.34L575.058 250.277L609.133 230.409L606.837 226.472Z" fill="#FE5721"/>
<path d="M557.749 255.024L471.598 305.312L473.895 309.249L560.047 258.961L557.749 255.024Z" fill="#FE5721"/>
<path d="M240.902 213.525C264.872 204.232 291.44 207.709 306.946 211.223C314.111 212.846 318.19 220.421 315.72 227.34L315.706 227.372C313.623 233.211 307.557 236.62 301.513 235.262C283.951 231.319 248.477 227.126 229.822 251.305C213.026 273.097 220.405 292.468 227.064 302.837C230.209 307.732 229.621 314.108 225.528 318.242C220.036 323.789 210.724 322.964 206.518 316.392C194.631 297.805 186.463 267.258 210.342 236.292C219.02 225.029 229.681 217.878 240.902 213.525Z" fill="#FE5721"/>
<path d="M311.851 222.316C296.345 218.797 269.777 215.319 245.807 224.617C234.586 228.97 223.929 236.122 215.246 247.384C199.025 268.423 197.608 289.257 202.088 306.285C203.56 309.426 205.178 312.375 206.887 315.05C211.094 321.627 220.406 322.448 225.898 316.901C227.963 314.813 229.13 312.156 229.38 309.408C227.69 306.08 226.19 302.183 225.306 297.844C219.476 286.933 215.192 269.421 230.192 249.964C248.852 225.784 284.326 229.978 301.882 233.92C307.926 235.278 313.997 231.869 316.076 226.03L316.089 225.999C316.272 225.488 316.345 224.973 316.454 224.463C315.132 223.464 313.587 222.708 311.851 222.316Z" fill="#FE5721"/>
<path d="M216.736 324.381C216.207 324.381 215.674 324.353 215.141 324.294C210.719 323.829 206.823 321.432 204.448 317.717C196.266 304.928 180.277 271.25 208.399 234.787C216.64 224.098 227.278 216.172 240.017 211.227C265.09 201.505 293.053 205.548 307.497 208.82C311.567 209.741 315.058 212.38 317.077 216.049C319.115 219.759 319.47 224.176 318.044 228.164C315.537 235.21 308.194 239.267 300.984 237.658C282.675 233.538 249.334 230.046 231.772 252.804C216.49 272.635 221.909 290.233 229.142 301.5C232.948 307.43 232.178 315.019 227.283 319.964C224.461 322.817 220.683 324.381 216.736 324.381ZM241.79 215.817C229.904 220.429 219.977 227.822 212.287 237.79C186.08 271.778 200.97 303.155 208.586 315.064C210.154 317.512 212.729 319.089 215.656 319.403C218.646 319.727 221.645 318.67 223.782 316.509C227.05 313.214 227.547 308.136 224.999 304.167C218.377 293.852 209.94 273.073 227.871 249.805C247.109 224.882 282.606 228.492 302.055 232.863C306.859 233.948 311.731 231.222 313.399 226.546C314.361 223.848 314.124 220.899 312.761 218.419C311.403 215.944 309.147 214.24 306.408 213.62C292.515 210.47 265.642 206.564 241.79 215.817Z" fill="black"/>
<path d="M303.907 207.254C303.907 207.254 303.711 207.108 303.346 206.867C303.118 206.712 302.895 206.552 302.649 206.416C297.867 203.385 280.338 193.927 268.077 209.287C255.88 224.57 267.981 239.624 271.824 243.735C272.038 243.995 272.279 244.228 272.521 244.46C272.763 244.706 272.913 244.843 272.913 244.843C275.689 247.131 279.978 247.587 285.124 245.663C295.411 241.817 305.224 229.92 307.038 219.086C307.949 213.667 306.687 209.542 303.907 207.254Z" fill="#FE5721"/>
<path d="M279.054 249.332C276.069 249.332 273.444 248.461 271.351 246.734L270.786 246.192C270.522 245.941 270.216 245.636 269.943 245.303C265.745 240.809 252.778 224.505 266.165 207.741C276.866 194.332 292.705 197.185 303.968 204.327C304.159 204.428 304.464 204.633 304.761 204.843L305.472 205.348C309.077 208.32 310.494 213.338 309.469 219.478C307.495 231.265 297.176 243.776 285.987 247.955C283.539 248.881 281.205 249.332 279.054 249.332ZM285.103 203.247C279.993 203.247 274.569 205.098 270.007 210.818C259.086 224.501 270.016 238.188 273.626 242.053C273.877 242.345 274.05 242.509 274.223 242.673C276.67 244.742 280.144 244.888 284.268 243.357C293.803 239.792 302.937 228.721 304.619 218.68C305.335 214.378 304.546 211.009 302.395 209.195L301.976 208.908C301.784 208.776 301.634 208.662 301.47 208.575C298.717 206.83 292.213 203.247 285.103 203.247Z" fill="black"/>
<path d="M350.038 325.273L326.164 311.613C324.551 310.305 322.759 309.275 320.813 308.55L320.795 308.545C313.922 305.998 305.129 307.155 295.544 312.693C273.557 325.387 255.727 356.266 255.727 381.658C255.727 393.541 259.665 402.059 266.068 406.522L294.14 422.889C296.068 424.01 298.548 423.149 299.364 421.075L310.576 392.552C320.863 381.763 328.963 367.41 332.841 353.108L342.199 339.074L347.527 337.638L351.46 330.127C352.363 328.386 351.738 326.244 350.038 325.273Z" fill="#FE5721"/>
<path d="M295.966 425.835C294.9 425.835 293.838 425.557 292.89 425.006L264.818 408.634C257.302 403.41 253.25 393.862 253.25 381.651C253.25 355.512 271.664 323.625 294.298 310.557C304.13 304.874 313.829 303.329 321.632 306.232C323.847 307.057 325.88 308.219 327.698 309.7L351.24 323.128C354.102 324.769 355.15 328.333 353.624 331.255L349.189 339.728L343.71 341.205L335.087 354.135C331.108 368.524 322.967 382.968 312.667 393.889L301.636 421.965C300.985 423.629 299.64 424.914 297.958 425.502C297.32 425.726 296.641 425.835 295.966 425.835ZM313.337 309.728C308.277 309.728 302.594 311.451 296.764 314.814C275.488 327.098 258.177 357.08 258.177 381.651C258.177 392.212 261.477 400.32 267.471 404.495L295.374 420.758C295.784 420.995 296.162 420.913 296.354 420.853C296.545 420.785 296.892 420.607 297.065 420.165L308.783 390.844C318.788 380.357 326.686 366.364 330.456 352.453L330.784 351.733L340.656 336.934L345.839 335.535L349.275 328.971C349.572 328.411 349.371 327.722 348.815 327.403V327.399L324.941 313.739C323.209 312.376 321.641 311.483 319.955 310.849C317.913 310.102 315.693 309.728 313.337 309.728Z" fill="black"/>
<path d="M352.581 391.787C368.13 364.856 368.129 335.746 352.58 326.768C337.031 317.791 311.82 332.344 296.271 359.275C280.722 386.206 280.723 415.316 296.272 424.294C311.821 433.271 337.032 418.718 352.581 391.787Z" fill="black"/>
<path d="M306.654 429.366C302.442 429.366 298.522 428.373 295.054 426.367C286.74 421.572 282.164 411.659 282.164 398.464C282.164 372.324 300.578 340.438 323.212 327.37C334.643 320.766 345.523 319.79 353.828 324.576C362.141 329.376 366.717 339.289 366.717 352.484C366.717 378.623 348.303 410.515 325.669 423.578C319.01 427.429 312.538 429.366 306.654 429.366ZM342.214 326.513C337.196 326.513 331.562 328.232 325.669 331.632C304.393 343.92 287.082 373.897 287.082 398.468C287.082 409.831 290.788 418.227 297.515 422.115C304.242 425.989 313.372 425.004 323.212 419.33C344.488 407.042 361.799 377.065 361.799 352.493C361.799 341.13 358.094 332.735 351.366 328.847C348.668 327.288 345.578 326.513 342.214 326.513Z" fill="black"/>
<path d="M351.022 359.605C351.022 376.564 339.117 397.189 324.427 405.666C309.737 414.149 297.832 407.271 297.832 390.311C297.832 373.351 309.737 352.727 324.427 344.249C339.117 335.771 351.022 342.645 351.022 359.605Z" fill="black"/>
<path d="M312.545 411.775C309.591 411.775 306.843 411.073 304.395 409.66C298.579 406.305 295.375 399.437 295.375 390.316C295.375 372.6 307.859 350.977 323.201 342.121C331.104 337.563 338.652 336.903 344.468 340.262C350.284 343.616 353.488 350.485 353.488 359.605C353.488 377.326 341.004 398.944 325.662 407.796C321.086 410.444 316.619 411.775 312.545 411.775ZM336.3 343.074C333.096 343.074 329.473 344.181 325.662 346.378C311.674 354.455 300.298 374.163 300.298 390.316C300.298 397.6 302.627 402.96 306.856 405.403C311.081 407.832 316.888 407.176 323.201 403.539C337.189 395.467 348.565 375.763 348.565 359.605C348.565 352.322 346.236 346.966 342.007 344.519C340.334 343.552 338.406 343.074 336.3 343.074Z" fill="#FE5721"/>
<path d="M425.797 395.936L352.721 353.807C351.75 353.019 350.674 352.399 349.498 351.966L349.485 351.961C345.351 350.425 340.059 351.127 334.289 354.454C321.057 362.093 310.328 380.676 310.328 395.954C310.328 403.105 312.698 408.233 316.554 410.917L392.156 454.677C393.318 455.352 394.808 454.832 395.296 453.584L402.042 436.419C408.231 429.928 413.108 421.291 415.442 412.681L421.071 404.235L424.28 403.374L426.645 398.853C427.197 397.809 426.818 396.519 425.797 395.936Z" fill="#FE5721"/>
<path d="M425.802 385.248L352.721 343.12C351.75 342.331 350.674 341.711 349.498 341.278L349.485 341.274C345.351 339.738 340.059 340.44 334.289 343.767C321.057 351.406 310.328 369.988 310.328 385.266C310.328 392.418 312.698 397.545 316.55 400.23L392.151 443.99C393.313 444.665 394.804 444.145 395.291 442.896L402.037 425.731C408.227 419.241 413.104 410.604 415.437 401.994L421.066 393.548L424.275 392.687L426.64 388.165C427.206 387.126 426.827 385.836 425.802 385.248Z" fill="#FE5721"/>
<path d="M425.758 396.65L421.437 394.161L421.036 394.271L415.407 402.716C413.073 411.322 408.196 419.959 402.007 426.454L395.261 443.619C394.769 444.868 393.278 445.387 392.121 444.713L316.519 400.952C313.652 398.956 311.619 395.601 310.758 391.08C310.466 392.976 310.293 394.854 310.293 396.682C310.293 403.833 312.663 408.961 316.519 411.645L392.121 455.405C393.283 456.08 394.773 455.56 395.261 454.311L402.007 437.146C408.196 430.656 413.073 422.019 415.407 413.409L421.036 404.963L424.244 404.102L426.61 399.58C427.157 398.528 426.779 397.238 425.758 396.65Z" fill="black"/>
<path d="M417.402 391.643L351.614 353.717C350.643 352.929 349.567 352.314 348.396 351.876L348.382 351.871C344.248 350.335 338.956 351.037 333.186 354.365C324.517 359.369 316.992 369.082 312.785 379.474C313.615 384.141 315.67 387.596 318.592 389.633L394.193 433.394C395.355 434.068 396.846 433.548 397.334 432.3L404.079 415.135C410.219 408.708 415.046 400.171 417.402 391.643Z" fill="#FE5721"/>
<path d="M393.263 457.434C392.447 457.434 391.64 457.224 390.92 456.8L315.323 413.045C310.455 409.663 307.871 403.633 307.871 395.953C307.871 379.914 319.17 360.338 333.063 352.325C339.225 348.756 345.369 347.799 350.341 349.649C351.773 350.183 353.09 350.939 354.27 351.896L427.014 393.802C429.202 395.05 429.995 397.771 428.823 399.996L425.961 405.47L422.606 406.372L417.711 413.719C415.278 422.425 410.359 431.144 404.156 437.767L397.588 454.485C397.087 455.748 396.071 456.732 394.785 457.174C394.288 457.347 393.773 457.434 393.263 457.434ZM344.995 353.647C342.133 353.647 338.878 354.64 335.519 356.582C322.985 363.82 312.789 381.482 312.789 395.953C312.789 401.978 314.626 406.573 317.958 408.897L393.386 452.543L400.268 434.722C406.175 428.528 410.838 420.26 413.072 412.038L413.399 411.317L419.544 402.101L422.597 401.276L424.348 397.94L351.485 355.935C350.401 355.087 349.548 354.599 348.637 354.262C347.525 353.847 346.298 353.647 344.995 353.647Z" fill="black"/>
<path d="M434.343 412.31C434.343 427.588 423.614 446.17 410.382 453.809C397.151 461.448 386.422 455.254 386.422 439.976C386.422 424.694 397.151 406.116 410.382 398.477C423.614 390.838 434.343 397.032 434.343 412.31Z" fill="#FE5721"/>
<path d="M399.68 459.563C396.973 459.563 394.453 458.92 392.215 457.626C386.896 454.549 383.965 448.291 383.965 439.982C383.965 423.943 395.264 404.372 409.156 396.354C416.344 392.197 423.24 391.6 428.559 394.668C433.878 397.744 436.809 404.007 436.809 412.316C436.809 428.355 425.51 447.927 411.618 455.944C407.456 458.346 403.395 459.563 399.68 459.563ZM421.08 397.658C418.236 397.658 415.013 398.647 411.613 400.607C399.079 407.849 388.883 425.506 388.883 439.978C388.883 446.45 390.938 451.204 394.671 453.36C398.4 455.515 403.555 454.914 409.152 451.682C421.686 444.44 431.882 426.783 431.882 412.311C431.882 405.835 429.826 401.081 426.093 398.925C424.626 398.077 422.93 397.658 421.08 397.658Z" fill="black"/>
<path d="M468.51 393.606L444.636 379.946C443.022 378.638 441.231 377.608 439.285 376.883L439.267 376.879C432.393 374.331 423.601 375.488 414.016 381.026C392.029 393.724 374.203 424.599 374.203 449.991C374.203 461.874 378.141 470.392 384.545 474.855L412.617 491.227C414.545 492.348 417.02 491.486 417.84 489.412L429.053 460.889C439.34 450.101 447.439 435.748 451.318 421.445L460.675 407.412L466.003 405.976L469.937 398.465C470.839 396.724 470.21 394.577 468.51 393.606Z" fill="#FE5721"/>
<path d="M468.259 393.355L462.252 389.918L460.857 392.584L455.529 394.02L446.172 408.054C442.293 422.356 434.194 436.709 423.907 447.498L412.694 476.021C411.879 478.099 409.404 478.961 407.471 477.835L379.399 461.467C377.512 460.15 375.871 458.446 374.449 456.44C375.666 464.836 379.167 471.034 384.29 474.599L412.362 490.966C414.29 492.087 416.764 491.226 417.58 489.152L428.793 460.629C439.08 449.84 447.179 435.488 451.058 421.185L460.415 407.151L465.743 405.716L469.677 398.204C470.584 396.472 469.959 394.33 468.259 393.355Z" fill="black"/>
<path d="M466.924 402.265L446.505 390.583C444.892 389.275 443.1 388.245 441.154 387.52L441.136 387.515C434.263 384.967 425.47 386.125 415.885 391.663C404.217 398.399 393.752 410.273 386.469 423.714C387.248 424.484 388.078 425.182 388.962 425.797L417.034 442.164C418.962 443.285 421.437 442.424 422.257 440.35L449.869 425.542C450.316 424.174 450.758 422.802 451.131 421.435L460.489 407.401L465.817 405.966L467.303 403.131C467.175 402.843 467.056 402.556 466.924 402.265Z" fill="#FE5721"/>
<path d="M414.449 494.173C413.387 494.173 412.33 493.895 411.386 493.348L383.305 476.972C375.789 471.753 371.746 462.204 371.746 449.989C371.746 423.854 390.16 391.963 412.79 378.895C422.635 373.212 432.338 371.666 440.128 374.57C442.334 375.39 444.367 376.553 446.19 378.029L469.745 391.47C472.603 393.107 473.646 396.68 472.119 399.597L467.685 408.061L462.206 409.538L453.587 422.473C449.608 436.862 441.463 451.306 431.167 462.227L420.123 490.303C419.476 491.962 418.136 493.248 416.454 493.836C415.803 494.059 415.123 494.173 414.449 494.173ZM431.832 378.057C426.773 378.057 421.09 379.784 415.251 383.152C393.975 395.436 376.669 425.422 376.669 449.989C376.669 460.55 379.964 468.663 385.957 472.833L413.866 489.096C414.267 489.328 414.654 489.255 414.841 489.187C415.032 489.118 415.383 488.941 415.556 488.503L427.275 459.182C437.279 448.695 445.178 434.702 448.947 420.791L449.276 420.071L459.143 405.267L464.321 403.868L467.758 397.309C468.054 396.748 467.853 396.051 467.297 395.732L443.428 382.072C441.687 380.709 440.123 379.811 438.437 379.187C436.4 378.435 434.184 378.057 431.832 378.057Z" fill="black"/>
<path d="M482.756 420.819C482.756 446.211 464.931 477.086 442.939 489.784C420.947 502.478 403.121 492.186 403.121 466.794C403.121 441.403 420.947 410.527 442.939 397.829C464.931 385.136 482.756 395.427 482.756 420.819Z" fill="black"/>
<path d="M425.149 497.701C420.938 497.701 417.022 496.707 413.554 494.706C405.24 489.907 400.664 479.994 400.664 466.794C400.664 440.664 419.078 408.772 441.708 395.7C453.139 389.096 464.014 388.125 472.323 392.911C480.637 397.715 485.213 407.624 485.213 420.823C485.213 446.958 466.799 478.845 444.164 491.912C437.51 495.759 431.038 497.701 425.149 497.701ZM460.71 394.843C455.691 394.843 450.058 396.562 444.164 399.962C422.888 412.254 405.582 442.236 405.582 466.799C405.582 478.166 409.288 486.566 416.015 490.449C422.738 494.328 431.867 493.339 441.708 487.66C462.984 475.372 480.295 445.395 480.295 420.828C480.295 409.465 476.589 401.065 469.862 397.177C467.163 395.614 464.073 394.843 460.71 394.843Z" fill="black"/>
<path d="M460.25 439.194C460.25 447.882 454.151 458.438 446.631 462.781C439.11 467.125 433.012 463.602 433.012 454.919C433.012 446.236 439.11 435.671 446.631 431.332C454.151 426.993 460.25 430.512 460.25 439.194Z" fill="#FE5721"/>
<path d="M431.045 480.105C428.092 480.105 425.339 479.403 422.891 477.99C417.075 474.631 413.871 467.762 413.871 458.642C413.871 440.93 426.351 419.312 441.692 410.456C449.591 405.898 457.139 405.233 462.959 408.592C468.775 411.951 471.98 418.82 471.98 427.936C471.98 445.652 459.496 467.275 444.154 476.131C439.578 478.77 435.115 480.105 431.045 480.105ZM454.792 411.4C451.588 411.4 447.964 412.516 444.154 414.709C430.17 422.785 418.794 442.493 418.794 458.642C418.794 465.93 421.123 471.29 425.353 473.729C429.582 476.176 435.389 475.502 441.692 471.869C455.68 463.792 467.057 444.084 467.057 427.936C467.057 420.652 464.728 415.292 460.498 412.854C458.821 411.883 456.893 411.4 454.792 411.4Z" fill="#FE5721"/>
<path d="M429.419 239.397L339.173 187.296C334.464 184.579 330.28 184.324 327.208 185.983H327.204C327.049 186.065 326.903 186.156 326.753 186.252L277.947 215.222C277.199 215.664 277.022 216.671 277.568 217.341L337.541 291.005L337.887 293.025C338.662 297.578 340.426 302.364 342.974 306.835L356.889 331.274C357.04 331.539 357.099 331.839 357.067 332.14L349.56 397.031C349.423 398.198 350.681 399.018 351.693 398.421L398.124 371.087L425.622 354.551C428.17 353.02 429.929 350.267 430.709 346.611L446.264 273.271C448.603 262.209 440.421 245.746 429.419 239.397Z" fill="#FE5721"/>
<path d="M352.654 399.193L399.085 371.859L426.583 355.323C429.131 353.792 430.89 351.039 431.665 347.383L446.122 279.207C443.493 270.747 437.572 262.27 430.38 258.117L340.134 206.016C335.425 203.3 331.241 203.045 328.169 204.704C328.014 204.786 327.864 204.877 327.714 204.972L287.34 228.938L338.502 291.777L338.848 293.796C339.623 298.35 341.387 303.135 343.935 307.607L357.85 332.046C358.001 332.31 358.064 332.611 358.028 332.912L356.355 347.37L357.85 349.995C358.001 350.259 358.064 350.56 358.028 350.861L352.431 399.247C352.504 399.22 352.581 399.234 352.654 399.193Z" fill="#FE5721"/>
<path d="M350.959 401.076C350.225 401.076 349.491 400.866 348.844 400.447C347.6 399.636 346.934 398.218 347.098 396.741L354.569 332.193L340.822 308.045C338.133 303.328 336.273 298.273 335.448 293.433L335.211 292.052L275.644 218.889C274.929 218.004 274.637 216.86 274.833 215.748C275.034 214.636 275.708 213.67 276.684 213.091L326.004 183.816C330.024 181.646 335.125 182.12 340.384 185.156L430.63 237.257C442.64 244.194 451.227 261.596 448.648 273.765L433.096 347.106C432.176 351.454 430.02 354.75 426.87 356.65L399.377 373.182L352.923 400.524C352.317 400.894 351.638 401.076 350.959 401.076ZM280.23 216.719L339.856 289.95L340.311 292.603C341.036 296.887 342.695 301.382 345.106 305.611L359.022 330.06C359.427 330.762 359.596 331.6 359.509 332.416L352.239 395.237L396.87 368.966L424.345 352.443C426.296 351.272 427.658 349.075 428.297 346.103L443.848 272.763C445.963 262.785 438.201 247.321 428.183 241.532L337.937 189.431C334.222 187.284 330.836 186.828 328.37 188.15L280.23 216.719Z" fill="black"/>
<path d="M273.437 230.497L288.993 321.801C289.768 326.354 291.532 331.14 294.08 335.611L321.578 383.897C329.166 397.224 341.641 404.43 349.235 399.863L376.733 383.327C379.28 381.796 381.04 379.043 381.815 375.388L397.371 302.047C399.713 290.989 391.532 274.526 380.529 268.177L290.288 216.076C279.281 209.723 271.095 216.733 273.437 230.497Z" fill="#FE5721"/>
<path d="M344.042 403.698C342.711 403.698 341.317 403.515 339.89 403.141C332.497 401.204 324.649 394.299 319.421 385.12L291.928 336.834C289.238 332.107 287.379 327.052 286.558 322.216L270.998 230.913C269.63 222.873 271.49 216.424 276.103 213.21C280.173 210.38 285.788 210.649 291.499 213.944L381.745 266.05C393.755 272.982 402.342 290.384 399.762 302.558L384.211 375.904C383.281 380.256 381.13 383.552 377.98 385.443L350.492 401.984C348.586 403.119 346.403 403.698 344.042 403.698ZM275.852 230.084L291.412 321.387C292.137 325.662 293.796 330.161 296.207 334.4L323.701 382.686C328.299 390.753 334.977 396.77 341.139 398.378C343.805 399.071 346.098 398.866 347.953 397.759L375.446 381.223C377.397 380.056 378.76 377.859 379.398 374.878L394.949 301.537C397.064 291.56 389.302 276.095 379.284 270.307L289.038 218.206C284.981 215.868 281.376 215.526 278.915 217.249C275.975 219.291 274.831 224.09 275.852 230.084Z" fill="black"/>
<path d="M394.076 282.562L442.312 252.744L446.646 269.458L435.47 324.057L429.372 348.728L425.607 354.544L379.641 381.882L397.353 302.047L395.292 286.381L394.076 282.562Z" fill="black"/>
<path d="M262.758 428.363L182.344 381.936V289.083L262.758 335.51V428.363Z" fill="#FE5721"/>
<path d="M343.173 289.08L262.758 335.507L182.344 289.08L262.758 242.654L343.173 289.08Z" fill="#FE5721"/>
<path d="M343.191 316.036L270.894 357.28L190.484 310.854L262.777 269.61L343.191 316.036Z" fill="#FE5721"/>
<path d="M262.771 239.925L182.365 286.356L180 287.81V383.302L260.41 429.733L262.771 431.096L265.132 429.733L345.551 383.302V290.445V287.71L262.771 239.925ZM262.771 245.381L338.464 289.077L300.469 311.014L262.771 332.783L250.907 325.932L187.092 289.082L262.771 245.381ZM184.717 380.576V293.179L260.41 336.88V424.277L184.717 380.576Z" fill="black"/>
<path d="M243.365 400.566L231.091 393.478C229.126 392.343 227.531 389.298 227.531 386.678V373.779C227.531 371.158 229.126 369.955 231.091 371.09L243.365 378.177C245.33 379.312 246.92 382.352 246.92 384.978V397.876C246.925 400.497 245.33 401.7 243.365 400.566Z" fill="black"/>
<path d="M423.247 176.823H305.289L336.232 222.252H336.26C337.372 225.278 339.92 228.168 343.99 230.515C355.189 236.983 373.347 236.983 384.546 230.515C388.616 228.163 391.164 225.278 392.276 222.252H392.299L423.247 176.823Z" fill="black"/>
<path d="M364.26 237.87C356.525 237.87 348.781 236.129 342.751 232.652C338.503 230.195 335.513 227.036 334.086 223.49L303.649 178.8C302.368 176.918 303.713 174.37 305.992 174.37H420.39C423.576 174.37 425.458 177.934 423.667 180.564L394.433 223.49C393.011 227.032 390.025 230.195 385.768 232.656C379.743 236.129 372.003 237.87 364.26 237.87ZM337.532 219.794H337.947L338.562 221.403C339.524 224.01 341.826 226.426 345.217 228.386C355.727 234.452 372.815 234.447 383.316 228.386C386.712 226.421 389.013 224.01 389.966 221.403L390.559 219.789H391.001L418.594 179.279H309.943L337.532 219.794Z" fill="black"/>
<path d="M427.036 164.504C427.036 164.504 427 163.875 426.89 162.759C426.831 162.048 426.781 161.341 426.649 160.635C424.835 146.163 414.894 95.7898 364.256 96.5965C313.869 97.3941 303.773 146.154 301.891 160.534C301.727 161.391 301.649 162.248 301.594 163.11C301.508 163.994 301.48 164.513 301.48 164.513C301.48 173.789 307.611 183.064 319.867 190.142C344.384 204.295 384.129 204.295 408.645 190.142C420.911 183.055 427.036 173.78 427.036 164.504Z" fill="#FE5721"/>
<path d="M364.26 203.154C347.738 203.154 331.216 199.526 318.641 192.261C305.988 184.954 299.023 175.096 299.023 164.499L299.156 162.858C299.21 161.983 299.302 161.021 299.484 160.064C301.462 144.913 312.054 94.9545 364.228 94.1295C416.826 93.3683 427.123 144.585 429.101 160.324C429.215 160.934 429.283 161.686 429.342 162.438C429.479 163.788 429.506 164.499 429.506 164.499C429.506 175.096 422.537 184.954 409.889 192.261C397.3 199.526 380.783 203.154 364.26 203.154ZM365.445 99.0429C365.067 99.0429 364.684 99.0474 364.301 99.052C316.07 99.8177 306.211 146.545 304.338 160.848C304.169 161.741 304.106 162.498 304.06 163.254L303.941 164.663C303.946 173.268 310.04 181.613 321.106 187.999C344.912 201.741 383.631 201.741 407.428 187.999C418.463 181.627 424.552 173.309 424.588 164.571C424.579 164.394 424.538 163.847 424.452 162.999C424.392 162.251 424.351 161.664 424.242 161.076C422.382 146.345 412.742 99.0429 365.445 99.0429Z" fill="black"/>
<path d="M381.851 107.363C391.564 112.969 391.564 122.062 381.851 127.668C372.139 133.274 356.391 133.274 346.683 127.668C336.97 122.062 336.97 112.969 346.683 107.363C356.391 101.757 372.139 101.757 381.851 107.363Z" fill="#FE5721"/>
<path d="M364.249 119.364C360.643 119.364 357.043 118.553 354.235 116.935C351.095 115.121 349.363 112.559 349.367 109.729C349.367 106.898 351.099 104.341 354.235 102.527C359.85 99.2776 368.661 99.2822 374.267 102.527C377.403 104.341 379.135 106.898 379.139 109.729C379.139 112.559 377.412 115.116 374.267 116.935C371.464 118.553 367.854 119.364 364.249 119.364ZM364.253 105.016C361.496 105.016 358.743 105.609 356.696 106.789C355.165 107.673 354.29 108.744 354.29 109.729C354.285 110.713 355.165 111.789 356.696 112.673C360.798 115.039 367.722 115.039 371.806 112.673C373.337 111.789 374.217 110.713 374.217 109.729C374.212 108.744 373.337 107.673 371.806 106.789C369.764 105.609 367.011 105.016 364.253 105.016Z" fill="black"/>
<path d="M375.625 33.1151C381.906 36.7386 381.906 42.6182 375.625 46.2418C369.344 49.8653 359.166 49.8653 352.89 46.2418C346.609 42.6182 346.609 36.7386 352.89 33.1151C359.166 29.4916 369.349 29.4916 375.625 33.1151Z" fill="#FE5721"/>
<path d="M364.26 42.3149C359.725 42.3149 355.194 41.294 351.662 39.2566C347.833 37.046 345.723 33.9558 345.723 30.5602C345.723 27.1645 347.833 24.0789 351.662 21.8683C358.726 17.7936 369.784 17.789 376.857 21.8683C380.686 24.0789 382.792 27.1645 382.796 30.5602C382.796 33.9558 380.686 37.046 376.857 39.2566C373.33 41.294 368.795 42.3149 364.26 42.3149ZM364.26 23.7507C360.563 23.7507 356.871 24.5438 354.123 26.1299C351.912 27.4061 350.645 29.0196 350.645 30.5602C350.645 32.1007 351.912 33.7188 354.123 34.995C359.62 38.1673 368.904 38.1673 374.401 34.995C376.611 33.7188 377.878 32.1007 377.878 30.5602C377.874 29.0196 376.611 27.4061 374.401 26.1299C371.652 24.5438 367.956 23.7507 364.26 23.7507Z" fill="black"/>
<path d="M369.917 12.922C373.044 14.727 373.044 17.6531 369.917 19.4626C366.791 21.2675 361.722 21.2675 358.591 19.4626C355.464 17.6577 355.464 14.7315 358.591 12.922C361.718 11.1171 366.786 11.1171 369.917 12.922Z" fill="#FE5721"/>
<path d="M364.254 14.1482C361.774 14.1482 359.295 13.5922 357.362 12.4755C355.088 11.1628 353.789 9.19379 353.789 7.07438C353.789 4.95497 355.093 2.98598 357.362 1.67331C361.218 -0.55549 367.28 -0.560048 371.145 1.67331C373.42 2.98598 374.719 4.95497 374.719 7.07438C374.719 9.19379 373.415 11.1628 371.145 12.4755C369.217 13.5922 366.742 14.1482 364.254 14.1482ZM364.254 4.91851C362.631 4.91851 361.004 5.26034 359.824 5.93947C359.008 6.41349 358.707 6.87839 358.707 7.07894C358.707 7.27948 359.003 7.74439 359.824 8.2184C362.194 9.58121 366.328 9.58121 368.689 8.2184C369.505 7.74439 369.805 7.27948 369.805 7.07894C369.805 6.87839 369.509 6.41349 368.689 5.93947C367.508 5.25579 365.886 4.91851 364.254 4.91851Z" fill="black"/>
<path d="M366.719 11.7012H361.801V30.5617H366.719V11.7012Z" fill="black"/>
<path d="M366.719 39.8467H361.801V109.733H366.719V39.8467Z" fill="black"/>
<path d="M360.018 189.125C359.471 189.125 358.919 189.089 358.363 189.02C348.933 187.812 342.575 176.532 344.193 163.87C345.82 151.213 354.808 141.896 364.248 143.109C373.678 144.317 380.036 155.597 378.418 168.259C376.887 180.173 368.824 189.125 360.018 189.125ZM362.548 147.917C356.198 147.917 350.287 155.06 349.074 164.49C347.798 174.458 352.247 183.268 358.988 184.134C365.765 185.032 372.26 177.594 373.536 167.63C374.813 157.662 370.364 148.852 363.623 147.986C363.263 147.94 362.903 147.917 362.548 147.917Z" fill="black"/>
<path d="M310.809 176.071C310.276 176.071 309.743 176.016 309.209 175.906C305.563 175.145 302.805 171.877 301.456 166.704C300.262 162.123 300.271 156.417 301.475 150.647C304.182 137.725 311.557 129.124 318.685 130.601C325.795 132.087 329.123 142.948 326.415 155.861C325.208 161.631 322.933 166.859 320.002 170.578C317.176 174.165 313.959 176.071 310.809 176.071ZM317.108 135.355C313.498 135.355 308.316 141.959 306.288 151.649C305.235 156.69 305.212 161.599 306.215 165.455C307.053 168.678 308.517 170.733 310.217 171.089C311.889 171.44 314.073 170.15 316.137 167.529C318.608 164.398 320.549 159.895 321.602 154.854C323.735 144.644 321.292 136.166 317.678 135.41C317.491 135.378 317.304 135.355 317.108 135.355Z" fill="black"/>
<path d="M415.072 319.301C415.072 319.301 415.296 319.397 415.706 319.547C415.961 319.648 416.221 319.748 416.49 319.825C421.845 321.653 441.107 326.74 449.425 308.941C457.707 291.229 442.415 279.424 437.716 276.325C437.447 276.125 437.16 275.951 436.868 275.783C436.572 275.6 436.399 275.505 436.399 275.505C433.163 273.928 428.887 274.493 424.334 277.565C415.232 283.713 408.477 297.579 409.252 308.531C409.644 314.014 411.836 317.729 415.072 319.301Z" fill="#FE5721"/>
<path d="M437.808 276.22C437.539 276.019 437.252 275.846 436.961 275.677C436.669 275.499 436.491 275.399 436.491 275.399C435.32 274.829 433.975 274.643 432.562 274.652C425.735 281.671 421.108 292.778 421.751 301.917C422.138 307.395 424.331 311.11 427.567 312.683C427.567 312.683 427.79 312.778 428.2 312.929C428.455 313.029 428.716 313.129 428.984 313.207C431.815 314.173 438.542 316.019 445.479 314.943C446.988 313.284 448.364 311.297 449.513 308.831C457.799 291.124 442.508 279.319 437.808 276.22Z" fill="#FE5721"/>
<path d="M428.452 324.364C424.113 324.364 419.733 323.53 415.699 322.153C415.513 322.103 415.184 321.985 414.856 321.857C414.487 321.716 414.218 321.615 413.995 321.511C409.792 319.464 407.24 314.92 406.802 308.708C405.959 296.798 413.06 282.222 422.96 275.531C428.124 272.044 433.27 271.251 437.477 273.302L438.174 273.703C438.457 273.863 438.84 274.091 439.195 274.359C444.327 277.737 460.749 290.549 451.661 309.988C446.72 320.554 437.696 324.364 428.452 324.364ZM416.1 317.058L416.574 317.245C416.807 317.331 416.962 317.4 417.126 317.441C422.436 319.25 439.797 323.726 447.199 307.892C454.623 292.026 440.786 281.287 436.365 278.37C436.064 278.152 435.873 278.038 435.677 277.928C432.764 276.461 429.355 277.14 425.718 279.596C417.281 285.298 411 298.202 411.716 308.352C412.021 312.714 413.58 315.795 416.1 317.058Z" fill="black"/>
<path d="M295.361 370.529C295.365 370.529 295.365 370.529 295.361 370.529C295.361 370.529 295.584 370.625 295.994 370.775C296.25 370.875 296.509 370.976 296.778 371.053C302.134 372.881 321.395 377.967 329.713 360.169C337.995 342.457 322.703 330.652 318.004 327.553C317.735 327.352 317.448 327.179 317.156 327.01C316.86 326.828 316.687 326.732 316.687 326.732C313.451 325.155 309.176 325.72 304.622 328.792C295.52 334.941 288.77 348.806 289.54 359.759C289.932 365.242 292.129 368.956 295.361 370.529Z" fill="#FE5721"/>
<path d="M304.134 331.408C303.866 331.207 303.578 331.034 303.287 330.865C302.99 330.688 302.817 330.587 302.817 330.587C302.462 330.414 302.052 330.369 301.673 330.25C294.189 337.146 288.998 349.065 289.681 358.737C290.069 364.215 292.261 367.93 295.497 369.502C295.497 369.502 295.721 369.598 296.131 369.749C296.386 369.849 296.646 369.949 296.915 370.027C299.244 370.82 304.212 372.233 309.764 372.105C312.088 370.168 314.189 367.565 315.844 364.024C324.125 346.312 308.829 334.507 304.134 331.408Z" fill="#FE5721"/>
<path d="M308.736 375.6C304.402 375.6 300.017 374.762 295.983 373.385C295.773 373.326 295.459 373.207 295.149 373.089L294.283 372.743C290.081 370.696 287.528 366.152 287.091 359.939C286.252 348.021 293.344 333.445 303.244 326.763C308.403 323.271 313.572 322.478 317.765 324.529L318.44 324.912C318.782 325.113 319.151 325.341 319.506 325.61C324.611 328.973 341.029 341.785 331.945 361.22C326.999 371.785 317.975 375.6 308.736 375.6ZM296.366 368.28L296.835 368.463C297.104 368.568 297.273 368.636 297.455 368.686C302.711 370.468 320.076 374.976 327.487 359.124C334.903 343.262 321.07 332.519 316.653 329.602C316.325 329.356 316.12 329.247 315.924 329.133C313.066 327.706 309.652 328.367 306.001 330.828C297.569 336.526 291.284 349.429 292.004 359.584C292.305 363.932 293.85 367.013 296.366 368.28Z" fill="black"/>
<path d="M384.567 395.82C358.856 395.82 335.346 382.972 322.16 374.084C316.066 369.977 315.004 361.445 319.804 355.884L319.827 355.857C323.878 351.167 330.766 350.182 335.911 353.633C350.857 363.66 382.415 380.392 408.555 364.594C432.092 350.351 432.215 329.622 429.758 317.548C428.596 311.846 431.449 306.117 436.759 303.742C443.887 300.556 452.269 304.69 453.814 312.343C458.181 333.97 454.749 365.406 421.289 385.643C409.124 393.004 396.604 395.82 384.567 395.82Z" fill="#FE5721"/>
<path d="M421.434 386.941C451.511 368.751 457.295 341.531 454.994 320.501C451.525 317.484 446.429 316.468 441.83 318.519C436.521 320.893 433.667 326.623 434.83 332.324C437.286 344.398 437.168 365.127 413.626 379.371C387.487 395.168 355.928 378.436 340.983 368.409C335.837 364.959 328.945 365.943 324.893 370.633L324.871 370.661C323.64 372.087 322.806 373.71 322.332 375.406C335.527 384.293 359.018 397.119 384.707 397.119C396.748 397.115 409.269 394.302 421.434 386.941Z" fill="#FE5721"/>
<path d="M384.569 398.277C359.031 398.277 335.786 386.23 320.786 376.125C317.326 373.792 315.02 370.073 314.469 365.92C313.912 361.727 315.175 357.484 317.942 354.275C322.837 348.614 331.137 347.456 337.285 351.59C352.873 362.046 382.673 377.356 407.285 362.493C428.707 349.535 430.024 331.167 427.349 318.04C425.94 311.144 429.4 304.343 435.758 301.504C439.897 299.649 444.6 299.772 448.639 301.864C452.59 303.897 455.357 307.543 456.227 311.864C459.231 326.741 461.97 363.919 422.563 387.753C411.018 394.74 398.238 398.277 384.569 398.277ZM329.163 354.043C326.392 354.043 323.634 355.218 321.693 357.47C319.824 359.635 318.972 362.475 319.35 365.278C319.724 368.072 321.214 370.483 323.539 372.046C335.353 380.009 358.999 393.359 384.573 393.359C397.326 393.359 409.249 390.054 420.024 383.537C456.756 361.317 454.213 326.691 451.41 312.826C450.84 309.982 449.008 307.575 446.392 306.23C443.684 304.836 440.539 304.754 437.773 305.984C433.534 307.88 431.232 312.434 432.18 317.055C434.623 329.065 434.97 351.495 409.838 366.7C382.9 382.971 351.109 366.782 334.551 355.674C332.905 354.576 331.032 354.043 329.163 354.043Z" fill="black"/>
<path d="M630.706 150.882L475.07 241.626L477.366 245.564L633.002 154.82L630.706 150.882Z" fill="black"/>
<path d="M615.99 216.086L581.914 235.954L584.21 239.891L618.286 220.023L615.99 216.086Z" fill="black"/>
<path d="M566.866 244.518L480.715 294.807L483.013 298.743L569.164 248.455L566.866 244.518Z" fill="black"/>
<path d="M263.528 335.768C265.1 336.675 265.1 338.147 263.528 339.054C261.955 339.961 259.407 339.961 257.84 339.054C256.267 338.147 256.267 336.675 257.84 335.768C259.412 334.861 261.96 334.861 263.528 335.768Z" fill="black"/>
<path d="M248.668 327.181C250.241 328.088 250.241 329.556 248.668 330.463C247.096 331.37 244.553 331.37 242.98 330.463C241.408 329.556 241.408 328.084 242.98 327.181C244.553 326.274 247.1 326.274 248.668 327.181Z" fill="black"/>
<path d="M263.528 318.593C265.1 319.5 265.1 320.972 263.528 321.879C261.955 322.786 259.407 322.786 257.84 321.879C256.267 320.972 256.267 319.505 257.84 318.593C259.412 317.682 261.96 317.686 263.528 318.593Z" fill="black"/>
<path d="M278.395 310.01C279.967 310.917 279.967 312.39 278.395 313.297C276.822 314.204 274.275 314.204 272.707 313.297C271.134 312.39 271.134 310.917 272.707 310.01C274.279 309.103 276.827 309.103 278.395 310.01Z" fill="black"/>
<path d="M293.282 301.42C294.854 302.327 294.854 303.799 293.282 304.706C291.709 305.613 289.166 305.613 287.593 304.706C286.021 303.799 286.021 302.332 287.593 301.42C289.166 300.518 291.714 300.518 293.282 301.42Z" fill="black"/>
<path d="M233.782 318.596C235.354 319.503 235.354 320.976 233.782 321.883C232.209 322.79 229.666 322.79 228.093 321.883C226.521 320.976 226.521 319.508 228.093 318.596C229.666 317.689 232.214 317.689 233.782 318.596Z" fill="black"/>
<path d="M248.668 310.01C250.241 310.917 250.241 312.39 248.668 313.297C247.096 314.204 244.553 314.204 242.98 313.297C241.408 312.39 241.408 310.917 242.98 310.01C244.553 309.103 247.1 309.103 248.668 310.01Z" fill="black"/>
<path d="M263.528 301.42C265.1 302.327 265.1 303.795 263.528 304.706C261.955 305.613 259.412 305.613 257.84 304.706C256.267 303.799 256.267 302.332 257.84 301.42C259.412 300.518 261.96 300.518 263.528 301.42Z" fill="black"/>
<path d="M278.395 292.838C279.967 293.745 279.967 295.218 278.395 296.125C276.822 297.032 274.275 297.032 272.707 296.125C271.134 295.218 271.134 293.745 272.707 292.838C274.279 291.931 276.827 291.931 278.395 292.838Z" fill="black"/>
<path d="M218.914 310.01C220.487 310.917 220.487 312.39 218.914 313.297C217.342 314.204 214.799 314.204 213.226 313.297C211.654 312.39 211.654 310.917 213.226 310.01C214.799 309.103 217.342 309.103 218.914 310.01Z" fill="black"/>
<path d="M233.782 301.42C235.354 302.327 235.354 303.799 233.782 304.706C232.209 305.613 229.666 305.613 228.093 304.706C226.521 303.799 226.521 302.332 228.093 301.42C229.666 300.518 232.214 300.518 233.782 301.42Z" fill="black"/>
<path d="M248.668 292.838C250.241 293.745 250.241 295.218 248.668 296.125C247.096 297.032 244.553 297.032 242.98 296.125C241.408 295.218 241.408 293.745 242.98 292.838C244.553 291.931 247.1 291.931 248.668 292.838Z" fill="black"/>
<path d="M263.528 284.252C265.1 285.159 265.1 286.631 263.528 287.538C261.955 288.445 259.412 288.445 257.84 287.538C256.267 286.631 256.267 285.159 257.84 284.252C259.412 283.345 261.96 283.345 263.528 284.252Z" fill="black"/>
<path d="M399.755 264.312C401.327 265.219 401.327 266.687 399.755 267.598C398.182 268.505 395.639 268.505 394.066 267.598C392.494 266.691 392.494 265.219 394.066 264.312C395.639 263.405 398.182 263.405 399.755 264.312Z" fill="black"/>
<path d="M414.622 255.727C416.194 256.634 416.194 258.106 414.622 259.009C413.049 259.916 410.506 259.916 408.933 259.009C407.361 258.102 407.361 256.63 408.933 255.727C410.506 254.82 413.049 254.82 414.622 255.727Z" fill="black"/>
<path d="M429.508 247.14C431.081 248.047 431.081 249.519 429.508 250.426C427.936 251.333 425.392 251.333 423.82 250.426C422.248 249.519 422.248 248.052 423.82 247.14C425.392 246.233 427.936 246.233 429.508 247.14Z" fill="black"/>
<defs>
<linearGradient id="paint0_linear_19_1145" x1="35" y1="254.637" x2="491" y2="254.637" gradientUnits="userSpaceOnUse">
<stop stop-color="white"/>
<stop offset="1" stop-color="#FFF7F4"/>
</linearGradient>
</defs>
</svg>
